<?xml version="1.0" encoding="UTF-8" standalone="no"?>
<svg
   height="600"
   width="1200"
   version="1.1"
   id="svg8602"
   sodipodi:docname="Flag of Mordovia (1991–1995).svg"
   inkscape:version="1.4 (86a8ad7, 2024-10-11)"
   xmlns:inkscape="http://www.inkscape.org/namespaces/inkscape"
   xmlns:sodipodi="http://sodipodi.sourceforge.net/DTD/sodipodi-0.dtd"
   xmlns="http://www.w3.org/2000/svg"
   xmlns:svg="http://www.w3.org/2000/svg"
   xmlns:rdf="http://www.w3.org/1999/02/22-rdf-syntax-ns#"
   xmlns:cc="http://creativecommons.org/ns#"
   xmlns:dc="http://purl.org/dc/elements/1.1/">
  <sodipodi:namedview
     pagecolor="#ffffff"
     bordercolor="#666666"
     borderopacity="1"
     objecttolerance="10"
     gridtolerance="10"
     guidetolerance="10"
     inkscape:pageopacity="0"
     inkscape:pageshadow="2"
     inkscape:window-width="1920"
     inkscape:window-height="1009"
     id="namedview11"
     showgrid="false"
     inkscape:zoom="2.5333333"
     inkscape:cx="626.44737"
     inkscape:cy="267.82895"
     inkscape:window-x="-8"
     inkscape:window-y="-8"
     inkscape:window-maximized="1"
     inkscape:current-layer="svg8602"
     inkscape:showpageshadow="2"
     inkscape:pagecheckerboard="0"
     inkscape:deskcolor="#d1d1d1" />
  <metadata
     id="metadata8608">
    <rdf:RDF>
      <cc:Work
         rdf:about="">
        <dc:format>image/svg+xml</dc:format>
        <dc:type
           rdf:resource="http://purl.org/dc/dcmitype/StillImage" />
      </cc:Work>
    </rdf:RDF>
  </metadata>
  <defs
     id="defs8606" />
  <path
     fill="#cd0000"
     d="M0 0h1200v600H0z"
     id="path8592" />
  <path
     fill="#0091fa"
     fill-rule="evenodd"
     d="M0 0h150v600H0z"
     id="path8600"
     style="fill:#0092fa;fill-opacity:1" />
  <path
     id="path11728"
     d="m 265.00046,37.5 -8.41933,25.911891 H 229.33596 L 251.37773,79.426121 242.9584,105.338 265.00046,89.323461 287.04253,105.338 278.6232,79.426121 300.66496,63.411891 H 273.4198 Z m 0,13.49999 5.38828,16.583471 h 17.43718 l -14.107,10.2495 5.38827,16.58347 -14.10673,-10.24921 -14.10672,10.24921 5.38827,-16.58347 -14.10701,-10.2495 h 17.43718 z"
     style="fill:#ffd700;fill-opacity:1;stroke:none;stroke-width:0.14999977px;stroke-linecap:butt;stroke-linejoin:miter;stroke-opacity:1" />
  <g
     style="fill:#ffd700;fill-opacity:1"
     id="g2900-4"
     transform="matrix(0.98931879,0,0,0.98673811,68.82973,3.7659398)">
    <path
       id="rect4165-6"
       d="m 137.43744,171.69421 18.86296,18.9937 17.78834,-17.66589 c 27.05847,29.021 55.43807,56.99501 82.28704,86.12782 4.03444,4.06233 10.59815,4.085 14.66056,0.0506 4.06232,-4.03445 4.08499,-10.59815 0.0506,-14.66056 -28.81871,-27.1901 -57.72545,-54.60143 -86.55328,-81.89095 l 23.96499,-23.80003 -33.34026,-4.61605 z"
       style="fill:#ffd700;fill-opacity:1;stroke:none;stroke-width:0.48919073;stroke-miterlimit:4;stroke-dasharray:none;stroke-dashoffset:0;stroke-opacity:1" />
    <path
       id="path4179-3"
       d="m 198.2887,110.1955 c 15.51743,8.7394 27.29872,21.28122 34.2484,34.3924 7.04394,13.28902 10.13959,27.16218 10.20325,38.25433 0.13054,22.74374 -18.43771,41.18184 -41.18183,41.18184 -12.13597,0 -23.04607,-5.24868 -30.58302,-13.60085 l -4.16863,3.51033 c -0.70999,-0.27231 -1.46387,-0.41221 -2.22429,-0.41276 -1.82948,1.9e-4 -3.56621,0.80531 -4.74859,2.20136 -2.97368,0.38896 -5.46251,2.44529 -6.40534,5.29224 -3.13486,6.28843 -8.63524,11.21997 -15.29104,13.4776 -0.0637,0.0216 -0.11992,0.05 -0.1758,0.0783 -3.07749,1.12758 -6.16259,3.1643 -8.78919,5.80245 -5.19155,5.23656 -7.72858,11.93658 -6.30024,16.63822 -0.14098,0.40857 -0.21361,0.83759 -0.21498,1.26979 1.5e-4,2.17082 1.75991,3.93058 3.93073,3.93073 0.54341,-0.002 1.08053,-0.11639 1.57745,-0.33632 4.69369,1.05881 11.06885,-1.54582 16.05444,-6.55917 2.82624,-2.85072 4.94356,-6.22349 5.98303,-9.53062 2.31696,-6.62278 7.29699,-12.01856 13.62281,-15.05312 0.15105,-0.0725 0.27303,-0.14714 0.38218,-0.22358 2.12082,-1.01408 3.67251,-2.92895 4.225,-5.2139 9.70222,11.44481 24.25255,18.75299 40.51876,19.13577 29.83352,0.70205 52.13299,-21.25802 53.16414,-52.83642 0.51894,-15.89259 -5.62993,-36.3847 -19.6412,-53.19089 -10.70835,-12.84441 -26.40987,-23.50795 -44.18699,-28.20777 z"
       style="fill:#ffd700;fill-opacity:1;stroke:none;stroke-width:0.50003481;stroke-miterlimit:4;stroke-dasharray:none;stroke-dashoffset:0;stroke-opacity:1" />
  </g>
  <g
     id="text4490"
     style="font-weight:bold;font-size:53.3333px;line-height:1;font-family:Arial;-inkscape-font-specification:'Arial Bold';letter-spacing:0px;word-spacing:0px;fill:#ffd700"
     aria-label="МОРДОВСКАЯ АССР&#10;МОРДОВСКЯЙ АССР&#10;МОРДОВСКОЙ АССР">
    <path
       d="m 189.99999,335 v -38.17706 h 11.53645 l 6.92708,26.04165 6.84896,-26.04165 h 11.56249 V 335 h -7.16145 V 304.94793 L 212.1354,335 h -7.42187 l -7.55208,-30.05207 V 335 Z m 42.96873,-18.85416 c 0,-3.88889 0.5816,-7.15277 1.74479,-9.79166 0.86805,-1.94444 2.04861,-3.68923 3.54166,-5.23437 1.51041,-1.54514 3.15972,-2.69097 4.94791,-3.4375 2.37847,-1.00694 5.12153,-1.51041 8.22917,-1.51041 5.62499,0 10.12152,1.74479 13.48957,5.23437 3.38541,3.48958 5.07812,8.34201 5.07812,14.55728 0,6.16319 -1.67535,10.98958 -5.02604,14.47916 -3.35069,3.47222 -7.82985,5.20833 -13.43749,5.20833 -5.67708,0 -10.19097,-1.72743 -13.54166,-5.18229 -3.35069,-3.47222 -5.02603,-8.24652 -5.02603,-14.32291 z m 7.9427,-0.26041 c 0,4.32291 0.99826,7.60416 2.99479,9.84374 1.99653,2.22222 4.53125,3.33333 7.60416,3.33333 3.07291,0 5.59027,-1.10243 7.55208,-3.30729 1.97917,-2.22222 2.96875,-5.54687 2.96875,-9.97395 0,-4.37499 -0.96354,-7.63888 -2.89063,-9.79166 -1.90972,-2.15277 -4.45312,-3.22916 -7.6302,-3.22916 -3.17708,0 -5.73784,1.09375 -7.68229,3.28124 -1.94444,2.17014 -2.91666,5.45139 -2.91666,9.84375 z M 276.01557,335 v -38.17706 h 12.36978 c 4.6875,0 7.74305,0.19097 9.16666,0.57292 2.1875,0.57291 4.0191,1.82291 5.49479,3.74999 1.47569,1.90973 2.21354,4.38368 2.21354,7.42187 0,2.34375 -0.42535,4.31424 -1.27604,5.91146 -0.85069,1.59722 -1.93576,2.8559 -3.25521,3.77604 -1.30208,0.90277 -2.6302,1.50173 -3.98437,1.79687 -1.84027,0.36459 -4.5052,0.54688 -7.99479,0.54688 H 283.7239 V 335 Z m 7.70833,-31.71873 v 10.83333 h 4.21874 c 3.03819,0 5.06944,-0.19965 6.09375,-0.59896 1.02431,-0.39931 1.82292,-1.02431 2.39583,-1.875 0.59028,-0.85069 0.88542,-1.84028 0.88542,-2.96875 0,-1.38889 -0.40799,-2.53472 -1.22396,-3.4375 -0.81597,-0.90277 -1.84896,-1.46701 -3.09896,-1.6927 -0.92013,-0.17361 -2.76909,-0.26042 -5.54687,-0.26042 z m 27.57811,-6.45833 h 26.38019 v 31.77081 h 3.35937 v 14.73958 h -6.40625 V 335 h -24.03644 v 8.33333 h -6.40625 v -14.73958 h 3.22917 c 1.57986,-3.26389 2.62153,-7.04861 3.125,-11.35416 0.50347,-4.32291 0.75521,-9.78298 0.75521,-16.38019 z m 7.34374,6.40625 c 0,11.59721 -1.05035,20.05207 -3.15104,25.36456 h 14.5052 v -25.36456 z m 26.01562,12.91665 c 0,-3.88889 0.5816,-7.15277 1.74479,-9.79166 0.86805,-1.94444 2.04861,-3.68923 3.54166,-5.23437 1.51041,-1.54514 3.15972,-2.69097 4.94791,-3.4375 2.37847,-1.00694 5.12153,-1.51041 8.22917,-1.51041 5.62499,0 10.12152,1.74479 13.48957,5.23437 3.38541,3.48958 5.07812,8.34201 5.07812,14.55728 0,6.16319 -1.67535,10.98958 -5.02604,14.47916 -3.35069,3.47222 -7.82985,5.20833 -13.43749,5.20833 -5.67708,0 -10.19097,-1.72743 -13.54166,-5.18229 -3.35069,-3.47222 -5.02603,-8.24652 -5.02603,-14.32291 z m 7.9427,-0.26041 c 0,4.32291 0.99826,7.60416 2.99479,9.84374 1.99653,2.22222 4.53125,3.33333 7.60416,3.33333 3.07291,0 5.59027,-1.10243 7.55208,-3.30729 1.97917,-2.22222 2.96875,-5.54687 2.96875,-9.97395 0,-4.37499 -0.96354,-7.63888 -2.89063,-9.79166 -1.90972,-2.15277 -4.45312,-3.22916 -7.6302,-3.22916 -3.17708,0 -5.73784,1.09375 -7.68229,3.28124 -1.94444,2.17014 -2.91666,5.45139 -2.91666,9.84375 z m 35.13018,-19.06249 h 15.26041 c 3.02083,0 5.2691,0.13021 6.74479,0.39062 1.49305,0.24306 2.82118,0.76389 3.98437,1.5625 1.18055,0.79861 2.16146,1.86632 2.94271,3.20313 0.78125,1.31944 1.17187,2.80381 1.17187,4.45312 0,1.78819 -0.48611,3.42882 -1.45833,4.92187 -0.95486,1.49305 -2.25694,2.61284 -3.90625,3.35937 2.32639,0.67709 4.11458,1.8316 5.36458,3.46354 1.25,1.63195 1.875,3.55035 1.875,5.75521 0,1.73611 -0.40799,3.42881 -1.22396,5.07812 -0.79861,1.63195 -1.90104,2.94271 -3.30729,3.93229 -1.38889,0.97222 -3.10764,1.57118 -5.15625,1.79687 -1.28472,0.13889 -4.38368,0.2257 -9.29687,0.26042 h -12.99478 z m 7.70833,6.35416 v 8.82812 h 5.05208 c 3.00347,0 4.86979,-0.0434 5.59895,-0.13021 1.31945,-0.15625 2.35243,-0.60763 3.09896,-1.35416 0.76389,-0.76389 1.14583,-1.76215 1.14583,-2.99479 0,-1.18055 -0.32986,-2.13541 -0.98958,-2.86458 -0.64236,-0.74653 -1.6059,-1.19792 -2.89062,-1.35417 -0.76389,-0.0868 -2.96007,-0.13021 -6.58854,-0.13021 z m 0,15.18228 v 10.20833 h 7.13541 c 2.77778,0 4.53993,-0.0781 5.28646,-0.23437 1.14583,-0.20833 2.07465,-0.71181 2.78645,-1.51042 0.72917,-0.81597 1.09375,-1.90104 1.09375,-3.2552 0,-1.14583 -0.27778,-2.11806 -0.83333,-2.91667 -0.55555,-0.79861 -1.36284,-1.38021 -2.42187,-1.74479 -1.04167,-0.36459 -3.31597,-0.54688 -6.82292,-0.54688 z m 53.17706,2.60417 7.47395,2.36979 c -1.14583,4.16667 -3.05555,7.26562 -5.72916,9.29687 -2.65625,2.01389 -6.03298,3.02083 -10.1302,3.02083 -5.06945,0 -9.23611,-1.72743 -12.5,-5.18229 -3.26389,-3.47222 -4.89583,-8.2118 -4.89583,-14.21874 0,-6.35416 1.64062,-11.28471 4.92187,-14.79166 3.28125,-3.5243 7.59549,-5.28645 12.94271,-5.28645 4.67013,0 8.46353,1.38021 11.3802,4.14062 1.73611,1.63195 3.03819,3.9757 3.90624,7.03125 l -7.6302,1.82291 c -0.45139,-1.97917 -1.39757,-3.54167 -2.83854,-4.6875 -1.42361,-1.14583 -3.15972,-1.71874 -5.20833,-1.71874 -2.82986,0 -5.13021,1.01562 -6.90104,3.04687 -1.75347,2.03125 -2.6302,5.32117 -2.6302,9.86978 0,4.82639 0.86805,8.26389 2.60416,10.3125 1.73611,2.04861 3.99306,3.07291 6.77083,3.07291 2.04861,0 3.81077,-0.65104 5.28646,-1.95312 1.47569,-1.30208 2.53472,-3.35069 3.17708,-6.14583 z m 14.21873,-24.14061 h 7.70833 v 16.24999 c 1.71875,-0.17361 2.88194,-0.61632 3.48958,-1.32812 0.60764,-0.71181 1.54514,-2.69097 2.8125,-5.9375 1.59722,-4.13194 3.20312,-6.70138 4.81771,-7.70833 1.59722,-1.00695 4.17534,-1.51042 7.73437,-1.51042 0.17361,0 0.54687,-0.009 1.11979,-0.026 v 5.70312 l -1.09375,-0.026 c -1.57986,0 -2.73437,0.19965 -3.46354,0.59896 -0.72917,0.38195 -1.31944,0.97222 -1.77083,1.77083 -0.45139,0.79861 -1.1198,2.43924 -2.00521,4.92188 -0.46875,1.31944 -0.98091,2.42187 -1.53646,3.30728 -0.53819,0.88542 -1.50173,1.71875 -2.89062,2.5 1.71875,0.48611 3.13368,1.46702 4.24479,2.94271 1.12847,1.47569 2.3611,3.55903 3.69791,6.25 L 490.91127,335 h -9.06249 l -4.55729,-9.86979 c -0.0695,-0.13889 -0.21702,-0.40798 -0.44271,-0.80729 -0.0868,-0.13889 -0.40799,-0.73784 -0.96354,-1.79687 -0.98959,-1.875 -1.80556,-3.04687 -2.44792,-3.51562 -0.625,-0.46875 -1.58854,-0.71181 -2.89062,-0.72917 V 335 h -7.70833 z M 529.68729,335 h -8.38541 l -3.33333,-8.67187 H 502.70814 L 499.5571,335 h -8.17708 l 14.86978,-38.17706 h 8.15104 z m -14.1927,-15.10416 -5.26041,-14.16666 -5.15625,14.16666 z M 556.61435,335 v -15.93749 h -1.5625 c -2.43055,0 -4.1493,0.36458 -5.15625,1.09375 -0.98958,0.72917 -2.69097,2.90798 -5.10416,6.53645 L 539.21853,335 h -9.21875 l 4.66146,-7.44791 c 1.84027,-2.95139 3.30729,-5.01736 4.40104,-6.19792 1.09375,-1.19791 2.46527,-2.26562 4.11458,-3.20312 -3.55903,-0.55555 -6.12847,-1.78819 -7.70833,-3.69791 -1.57986,-1.92709 -2.36979,-4.22743 -2.36979,-6.90104 0,-2.32639 0.5816,-4.38368 1.74479,-6.17187 1.18055,-1.80555 2.72569,-3.01215 4.63541,-3.61979 1.92709,-0.625 4.80035,-0.9375 8.61979,-0.9375 h 16.22395 V 335 Z m 0,-31.71873 h -6.01562 c -3.05555,0 -5.06944,0.0694 -6.04167,0.20833 -0.95486,0.13889 -1.77951,0.60764 -2.47395,1.40625 -0.69445,0.79861 -1.04167,1.84028 -1.04167,3.125 0,1.33681 0.32986,2.40451 0.98958,3.20312 0.67709,0.78125 1.52778,1.26736 2.55209,1.45833 1.04166,0.19097 3.15103,0.28646 6.32812,0.28646 h 5.70312 z m 51.26915,17.68228 7.47395,2.36979 c -1.14583,4.16666 -3.05555,7.26562 -5.72916,9.29687 -2.65625,2.01388 -6.03298,3.02083 -10.1302,3.02083 -5.06944,0 -9.23611,-1.72743 -12.49999,-5.18229 -3.26389,-3.47222 -4.89583,-8.2118 -4.89583,-14.21874 0,-6.35416 1.64062,-11.28472 4.92187,-14.79166 3.28124,-3.5243 7.59548,-5.28645 12.9427,-5.28645 4.67013,0 8.46353,1.3802 11.3802,4.14062 1.73611,1.63194 3.03819,3.97569 3.90625,7.03125 l -7.63021,1.82291 c -0.45139,-1.97917 -1.39757,-3.54167 -2.83854,-4.6875 -1.42361,-1.14583 -3.15972,-1.71874 -5.20833,-1.71874 -2.82986,0 -5.13021,1.01562 -6.90103,3.04687 -1.75348,2.03124 -2.63021,5.32117 -2.63021,9.86978 0,4.82638 0.86805,8.26388 2.60416,10.3125 1.73611,2.0486 3.99305,3.07291 6.77083,3.07291 2.04861,0 3.81076,-0.65104 5.28646,-1.95312 1.47569,-1.30208 2.53472,-3.35069 3.17708,-6.14583 z m 38.51559,0 7.47396,2.36979 c -1.14584,4.16666 -3.05556,7.26562 -5.72916,9.29687 -2.65626,2.01388 -6.03299,3.02083 -10.13021,3.02083 -5.06944,0 -9.23611,-1.72743 -12.49999,-5.18229 -3.26389,-3.47222 -4.89583,-8.2118 -4.89583,-14.21874 0,-6.35416 1.64062,-11.28472 4.92187,-14.79166 3.28124,-3.5243 7.59548,-5.28645 12.9427,-5.28645 4.67014,0 8.46354,1.3802 11.3802,4.14062 1.73611,1.63194 3.03819,3.97569 3.90625,7.03125 l -7.6302,1.82291 c -0.45139,-1.97917 -1.39757,-3.54167 -2.83854,-4.6875 -1.42362,-1.14583 -3.15973,-1.71874 -5.20833,-1.71874 -2.82986,0 -5.13021,1.01562 -6.90104,3.04687 -1.75348,2.03124 -2.63021,5.32117 -2.63021,9.86978 0,4.82638 0.86805,8.26388 2.60417,10.3125 1.7361,2.0486 3.99305,3.07291 6.77083,3.07291 2.0486,0 3.81075,-0.65104 5.28645,-1.95312 1.47569,-1.30208 2.53472,-3.35069 3.17708,-6.14583 z M 660.48762,335 v -38.17706 h 12.36978 c 4.6875,0 7.74305,0.19097 9.16667,0.57292 2.18749,0.57291 4.01908,1.82291 5.49478,3.74999 1.47569,1.90972 2.21354,4.38368 2.21354,7.42187 0,2.34375 -0.42535,4.31424 -1.27604,5.91146 -0.8507,1.59722 -1.93576,2.8559 -3.2552,3.77604 -1.30209,0.90277 -2.63022,1.50173 -3.98438,1.79687 -1.84028,0.36458 -4.5052,0.54688 -7.99478,0.54688 h -5.02604 V 335 Z m 7.70833,-31.71873 v 10.83333 h 4.21875 c 3.03819,0 5.06944,-0.19966 6.09374,-0.59896 1.0243,-0.39931 1.82292,-1.02431 2.39584,-1.875 0.59027,-0.8507 0.88541,-1.84028 0.88541,-2.96875 0,-1.38889 -0.40799,-2.53472 -1.22396,-3.4375 -0.81597,-0.90278 -1.84895,-1.46701 -3.09895,-1.6927 -0.92014,-0.17362 -2.7691,-0.26042 -5.54687,-0.26042 z"
       id="path1"
       sodipodi:nodetypes="ccccccccccccccscccscscscsscscscscsccsccssccscccccsscsscsccccccccccccccsccccccscccscscscsscscscscscscccsccssccccccccscssccscccsccsscsccccscscsccccscssssccccsccsccccsccccccccccccccccccccccccccccccsccccccccsccsccccscssccscccccscscsccccscssssccccscscsccccscsssscccsccssccscccccsscsscsc" />
    <path
       d="m 189.99999,388.3333 v -38.17706 h 11.53645 l 6.92708,26.04165 6.84896,-26.04165 h 11.56249 v 38.17706 h -7.16145 v -30.05206 l -7.57812,30.05206 h -7.42187 l -7.55208,-30.05206 v 30.05206 z m 42.96873,-18.85415 c 0,-3.88889 0.5816,-7.15277 1.74479,-9.79166 0.86805,-1.94445 2.04861,-3.68924 3.54166,-5.23438 1.51041,-1.54513 3.15972,-2.69096 4.94791,-3.43749 2.37847,-1.00695 5.12153,-1.51042 8.22917,-1.51042 5.62499,0 10.12152,1.74479 13.48957,5.23437 3.38541,3.48958 5.07812,8.34201 5.07812,14.55728 0,6.16319 -1.67535,10.98958 -5.02604,14.47916 -3.35069,3.47222 -7.82985,5.20833 -13.43749,5.20833 -5.67708,0 -10.19097,-1.72743 -13.54166,-5.18229 -3.35069,-3.47222 -5.02603,-8.24652 -5.02603,-14.3229 z m 7.9427,-0.26042 c 0,4.32291 0.99826,7.60416 2.99479,9.84374 1.99653,2.22223 4.53125,3.33334 7.60416,3.33334 3.07291,0 5.59027,-1.10243 7.55208,-3.30729 1.97917,-2.22223 2.96875,-5.54688 2.96875,-9.97396 0,-4.37499 -0.96354,-7.63888 -2.89063,-9.79166 -1.90972,-2.15277 -4.45312,-3.22916 -7.6302,-3.22916 -3.17708,0 -5.73784,1.09375 -7.68229,3.28125 -1.94444,2.17013 -2.91666,5.45138 -2.91666,9.84374 z m 35.10415,19.11457 v -38.17706 h 12.36978 c 4.6875,0 7.74305,0.19097 9.16666,0.57292 2.1875,0.57291 4.0191,1.82291 5.49479,3.75 1.47569,1.90972 2.21354,4.38368 2.21354,7.42187 0,2.34375 -0.42535,4.31423 -1.27604,5.91145 -0.85069,1.59722 -1.93576,2.8559 -3.25521,3.77604 -1.30208,0.90278 -2.6302,1.50174 -3.98437,1.79687 -1.84027,0.36459 -4.5052,0.54688 -7.99479,0.54688 h -5.02603 v 14.40103 z m 7.70833,-31.71873 v 10.83333 h 4.21874 c 3.03819,0 5.06944,-0.19965 6.09375,-0.59896 1.02431,-0.39931 1.82292,-1.02431 2.39583,-1.875 0.59028,-0.85069 0.88542,-1.84028 0.88542,-2.96875 0,-1.38889 -0.40799,-2.53472 -1.22396,-3.4375 -0.81597,-0.90277 -1.84896,-1.46701 -3.09896,-1.6927 -0.92013,-0.17361 -2.76909,-0.26042 -5.54687,-0.26042 z m 27.57811,-6.45833 h 26.38019 v 31.77082 h 3.35937 v 14.73957 h -6.40625 v -8.33333 h -24.03644 v 8.33333 h -6.40625 v -14.73957 h 3.22917 c 1.57986,-3.26389 2.62153,-7.04861 3.125,-11.35416 0.50347,-4.32292 0.75521,-9.78299 0.75521,-16.3802 z m 7.34374,6.40625 c 0,11.59721 -1.05035,20.05207 -3.15104,25.36457 h 14.5052 v -25.36457 z m 26.01562,12.91666 c 0,-3.88889 0.5816,-7.15277 1.74479,-9.79166 0.86805,-1.94445 2.04861,-3.68924 3.54166,-5.23438 1.51041,-1.54513 3.15972,-2.69096 4.94791,-3.43749 2.37847,-1.00695 5.12153,-1.51042 8.22917,-1.51042 5.62499,0 10.12152,1.74479 13.48957,5.23437 3.38541,3.48958 5.07812,8.34201 5.07812,14.55728 0,6.16319 -1.67535,10.98958 -5.02604,14.47916 -3.35069,3.47222 -7.82985,5.20833 -13.43749,5.20833 -5.67708,0 -10.19097,-1.72743 -13.54166,-5.18229 -3.35069,-3.47222 -5.02603,-8.24652 -5.02603,-14.3229 z m 7.9427,-0.26042 c 0,4.32291 0.99826,7.60416 2.99479,9.84374 1.99653,2.22223 4.53125,3.33334 7.60416,3.33334 3.07291,0 5.59027,-1.10243 7.55208,-3.30729 1.97917,-2.22223 2.96875,-5.54688 2.96875,-9.97396 0,-4.37499 -0.96354,-7.63888 -2.89063,-9.79166 -1.90972,-2.15277 -4.45312,-3.22916 -7.6302,-3.22916 -3.17708,0 -5.73784,1.09375 -7.68229,3.28125 -1.94444,2.17013 -2.91666,5.45138 -2.91666,9.84374 z m 35.13018,-19.06249 h 15.26041 c 3.02083,0 5.2691,0.13021 6.74479,0.39063 1.49305,0.24305 2.82118,0.76388 3.98437,1.56249 1.18055,0.79861 2.16146,1.86632 2.94271,3.20313 0.78125,1.31944 1.17187,2.80381 1.17187,4.45312 0,1.78819 -0.48611,3.42882 -1.45833,4.92187 -0.95486,1.49305 -2.25694,2.61285 -3.90625,3.35938 2.32639,0.67708 4.11458,1.83159 5.36458,3.46353 1.25,1.63195 1.875,3.55035 1.875,5.75521 0,1.73611 -0.40799,3.42881 -1.22396,5.07812 -0.79861,1.63195 -1.90104,2.94271 -3.30729,3.93229 -1.38889,0.97222 -3.10764,1.57118 -5.15625,1.79688 -1.28472,0.13889 -4.38368,0.22569 -9.29687,0.26041 h -12.99478 z m 7.70833,6.35416 v 8.82812 h 5.05208 c 3.00347,0 4.86979,-0.0434 5.59895,-0.1302 1.31945,-0.15625 2.35243,-0.60764 3.09896,-1.35417 0.76389,-0.76389 1.14583,-1.76215 1.14583,-2.99479 0,-1.18055 -0.32986,-2.13541 -0.98958,-2.86458 -0.64236,-0.74653 -1.6059,-1.19792 -2.89062,-1.35417 -0.76389,-0.0868 -2.96007,-0.13021 -6.58854,-0.13021 z m 0,15.18229 v 10.20832 h 7.13541 c 2.77778,0 4.53993,-0.0781 5.28646,-0.23437 1.14583,-0.20833 2.07465,-0.71181 2.78645,-1.51042 0.72917,-0.81597 1.09375,-1.90103 1.09375,-3.2552 0,-1.14583 -0.27778,-2.11806 -0.83333,-2.91667 -0.55555,-0.79861 -1.36284,-1.3802 -2.42187,-1.74479 -1.04167,-0.36458 -3.31597,-0.54687 -6.82292,-0.54687 z m 53.17706,2.60416 7.47395,2.36979 c -1.14583,4.16667 -3.05555,7.26562 -5.72916,9.29687 -2.65625,2.01389 -6.03298,3.02083 -10.1302,3.02083 -5.06945,0 -9.23611,-1.72743 -12.5,-5.18229 -3.26389,-3.47222 -4.89583,-8.2118 -4.89583,-14.21874 0,-6.35416 1.64062,-11.28471 4.92187,-14.79166 3.28125,-3.5243 7.59549,-5.28645 12.94271,-5.28645 4.67013,0 8.46353,1.38021 11.3802,4.14062 1.73611,1.63195 3.03819,3.9757 3.90624,7.03125 l -7.6302,1.82291 c -0.45139,-1.97916 -1.39757,-3.54166 -2.83854,-4.68749 -1.42361,-1.14583 -3.15972,-1.71875 -5.20833,-1.71875 -2.82986,0 -5.13021,1.01562 -6.90104,3.04687 -1.75347,2.03125 -2.6302,5.32118 -2.6302,9.86979 0,4.82639 0.86805,8.26388 2.60416,10.31249 1.73611,2.04861 3.99306,3.07292 6.77083,3.07292 2.04861,0 3.81077,-0.65104 5.28646,-1.95313 1.47569,-1.30208 2.53472,-3.35069 3.17708,-6.14583 z m 14.21873,-24.14061 h 7.70833 v 16.24999 c 1.71875,-0.17361 2.88194,-0.61632 3.48958,-1.32812 0.60764,-0.71181 1.54514,-2.69097 2.8125,-5.9375 1.59722,-4.13194 3.20312,-6.70138 4.81771,-7.70833 1.59722,-1.00694 4.17534,-1.51041 7.73437,-1.51041 0.17361,0 0.54687,-0.009 1.11979,-0.026 v 5.70313 l -1.09375,-0.026 c -1.57986,0 -2.73437,0.19965 -3.46354,0.59896 -0.72917,0.38195 -1.31944,0.97222 -1.77083,1.77083 -0.45139,0.79861 -1.1198,2.43924 -2.00521,4.92188 -0.46875,1.31944 -0.98091,2.42187 -1.53646,3.30729 -0.53819,0.88541 -1.50173,1.71874 -2.89062,2.49999 1.71875,0.48611 3.13368,1.46702 4.24479,2.94271 1.12847,1.47569 2.3611,3.55903 3.69791,6.25 l 5.20833,10.46874 h -9.06249 l -4.55729,-9.86978 c -0.0695,-0.13889 -0.21702,-0.40799 -0.44271,-0.8073 -0.0868,-0.13889 -0.40799,-0.73784 -0.96354,-1.79687 -0.98959,-1.875 -1.80556,-3.04687 -2.44792,-3.51562 -0.625,-0.46875 -1.58854,-0.71181 -2.89062,-0.72917 v 16.71874 h -7.70833 z m 55.26038,38.17706 v -15.93749 h -1.56249 c -2.43056,0 -4.14931,0.36458 -5.15625,1.09375 -0.98959,0.72917 -2.69098,2.90798 -5.10417,6.53645 l -5.57291,8.30729 h -9.21874 l 4.66145,-7.44791 c 1.84028,-2.95139 3.30729,-5.01736 4.40104,-6.19791 1.09375,-1.19792 2.46528,-2.26563 4.11458,-3.20313 -3.55903,-0.55555 -6.12847,-1.78819 -7.70833,-3.69791 -1.57986,-1.92708 -2.36979,-4.22743 -2.36979,-6.90104 0,-2.32639 0.5816,-4.38368 1.74479,-6.17187 1.18056,-1.80555 2.7257,-3.01215 4.63542,-3.61979 1.92708,-0.625 4.80034,-0.9375 8.61978,-0.9375 h 16.22395 v 38.17706 z m 0,-31.71873 h -6.01562 c -3.05555,0 -5.06944,0.0694 -6.04166,0.20833 -0.95486,0.13889 -1.77951,0.60764 -2.47396,1.40625 -0.69444,0.79861 -1.04166,1.84028 -1.04166,3.125 0,1.33681 0.32986,2.40451 0.98958,3.20312 0.67708,0.78125 1.52777,1.26737 2.55208,1.45834 1.04167,0.19097 3.15104,0.28645 6.32812,0.28645 h 5.70312 z m 15.59896,-6.45833 h 7.21353 v 25.41665 l 15.46874,-25.41665 h 7.68229 v 38.17706 h -7.21354 v -24.92186 l -15.4427,24.92186 h -7.70832 z m 19.79165,-9.5052 h 3.56771 c -0.20833,2.36111 -1.04167,4.21874 -2.5,5.57291 -1.44097,1.33681 -3.31597,2.00521 -5.625,2.00521 -2.30903,0 -4.19271,-0.6684 -5.65104,-2.00521 -1.44097,-1.35417 -2.26562,-3.2118 -2.47395,-5.57291 h 3.5677 c 0.12153,1.23264 0.55556,2.17014 1.30209,2.8125 0.74653,0.625 1.83159,0.9375 3.2552,0.9375 1.42361,0 2.50868,-0.3125 3.25521,-0.9375 0.74653,-0.64236 1.18055,-1.57986 1.30208,-2.8125 z m 55.1562,33.64582 7.47395,2.36979 c -1.14583,4.16667 -3.05555,7.26562 -5.72916,9.29687 -2.65625,2.01389 -6.03298,3.02083 -10.1302,3.02083 -5.06944,0 -9.23611,-1.72743 -12.5,-5.18229 -3.26389,-3.47222 -4.89583,-8.2118 -4.89583,-14.21874 0,-6.35416 1.64063,-11.28471 4.92188,-14.79166 3.28125,-3.5243 7.59548,-5.28645 12.9427,-5.28645 4.67013,0 8.46353,1.38021 11.3802,4.14062 1.73611,1.63195 3.03819,3.9757 3.90625,7.03125 l -7.63021,1.82291 c -0.45139,-1.97916 -1.39757,-3.54166 -2.83854,-4.68749 -1.42361,-1.14583 -3.15972,-1.71875 -5.20833,-1.71875 -2.82986,0 -5.13021,1.01562 -6.90104,3.04687 -1.75347,2.03125 -2.6302,5.32118 -2.6302,9.86979 0,4.82639 0.86805,8.26388 2.60416,10.31249 1.73611,2.04861 3.99306,3.07292 6.77083,3.07292 2.04861,0 3.81077,-0.65104 5.28646,-1.95313 1.47569,-1.30208 2.53472,-3.35069 3.17708,-6.14583 z m 38.51559,0 7.47396,2.36979 c -1.14583,4.16667 -3.05556,7.26562 -5.72917,9.29687 -2.65625,2.01389 -6.03298,3.02083 -10.1302,3.02083 -5.06944,0 -9.2361,-1.72743 -12.49999,-5.18229 -3.26389,-3.47222 -4.89583,-8.2118 -4.89583,-14.21874 0,-6.35416 1.64062,-11.28471 4.92187,-14.79166 3.28125,-3.5243 7.59548,-5.28645 12.9427,-5.28645 4.67014,0 8.46354,1.38021 11.3802,4.14062 1.73611,1.63195 3.0382,3.9757 3.90625,7.03125 l -7.6302,1.82291 c -0.45139,-1.97916 -1.39757,-3.54166 -2.83854,-4.68749 -1.42361,-1.14583 -3.15972,-1.71875 -5.20833,-1.71875 -2.82986,0 -5.13021,1.01562 -6.90104,3.04687 -1.75347,2.03125 -2.63021,5.32118 -2.63021,9.86979 0,4.82639 0.86806,8.26388 2.60417,10.31249 1.73611,2.04861 3.99305,3.07292 6.77083,3.07292 2.04861,0 3.81076,-0.65104 5.28645,-1.95313 1.47569,-1.30208 2.53472,-3.35069 3.17708,-6.14583 z m 14.08853,14.03645 v -38.17706 h 12.36978 c 4.6875,0 7.74305,0.19097 9.16666,0.57292 2.1875,0.57291 4.0191,1.82291 5.49479,3.75 1.47569,1.90972 2.21354,4.38368 2.21354,7.42187 0,2.34375 -0.42535,4.31423 -1.27604,5.91145 -0.85069,1.59722 -1.93576,2.8559 -3.2552,3.77604 -1.30209,0.90278 -2.63021,1.50174 -3.98438,1.79687 -1.84027,0.36459 -4.5052,0.54688 -7.99478,0.54688 h -5.02604 v 14.40103 z m 7.70833,-31.71873 v 10.83333 h 4.21875 c 3.03819,0 5.06943,-0.19965 6.09374,-0.59896 1.02431,-0.39931 1.82292,-1.02431 2.39583,-1.875 0.59028,-0.85069 0.88542,-1.84028 0.88542,-2.96875 0,-1.38889 -0.40799,-2.53472 -1.22396,-3.4375 -0.81597,-0.90277 -1.84896,-1.46701 -3.09895,-1.6927 -0.92014,-0.17361 -2.7691,-0.26042 -5.54688,-0.26042 z"
       id="path2"
       sodipodi:nodetypes="ccccccccccccccscccscscscsscscscscsccsccssccscccccsscsscsccccccccccccccsccccccscccscscscsscscscscscscccsccssccccccccscssccscccsccsscsccccscscsccccscssssccccsccsccccscccccccccccccccccsccccccccsccsccccscssccsccccccccccccccccsccccscccccscscsccccscssssccccscscsccccscsssscccsccssccscccccsscsscsc" />
    <path
       d="m 189.99999,441.6666 v -38.17706 h 11.53645 l 6.92708,26.04165 6.84896,-26.04165 h 11.56249 v 38.17706 h -7.16145 v -30.05206 l -7.57812,30.05206 h -7.42187 l -7.55208,-30.05206 v 30.05206 z m 42.96873,-18.85415 c 0,-3.88889 0.5816,-7.15277 1.74479,-9.79166 0.86805,-1.94445 2.04861,-3.68924 3.54166,-5.23438 1.51041,-1.54513 3.15972,-2.69096 4.94791,-3.43749 2.37847,-1.00695 5.12153,-1.51042 8.22917,-1.51042 5.62499,0 10.12152,1.74479 13.48957,5.23437 3.38541,3.48958 5.07812,8.34201 5.07812,14.55729 0,6.16319 -1.67535,10.98957 -5.02604,14.47915 -3.35069,3.47222 -7.82985,5.20833 -13.43749,5.20833 -5.67708,0 -10.19097,-1.72743 -13.54166,-5.18228 -3.35069,-3.47222 -5.02603,-8.24652 -5.02603,-14.32291 z m 7.9427,-0.26042 c 0,4.32291 0.99826,7.60416 2.99479,9.84375 1.99653,2.22222 4.53125,3.33333 7.60416,3.33333 3.07291,0 5.59027,-1.10243 7.55208,-3.30729 1.97917,-2.22222 2.96875,-5.54687 2.96875,-9.97396 0,-4.37499 -0.96354,-7.63888 -2.89063,-9.79166 -1.90972,-2.15277 -4.45312,-3.22916 -7.6302,-3.22916 -3.17708,0 -5.73784,1.09375 -7.68229,3.28125 -1.94444,2.17013 -2.91666,5.45138 -2.91666,9.84374 z m 35.10415,19.11457 v -38.17706 h 12.36978 c 4.6875,0 7.74305,0.19097 9.16666,0.57292 2.1875,0.57291 4.0191,1.82291 5.49479,3.75 1.47569,1.90972 2.21354,4.38368 2.21354,7.42187 0,2.34375 -0.42535,4.31423 -1.27604,5.91145 -0.85069,1.59722 -1.93576,2.8559 -3.25521,3.77604 -1.30208,0.90278 -2.6302,1.50174 -3.98437,1.79688 -1.84027,0.36458 -4.5052,0.54687 -7.99479,0.54687 h -5.02603 v 14.40103 z m 7.70833,-31.71873 v 10.83333 h 4.21874 c 3.03819,0 5.06944,-0.19965 6.09375,-0.59896 1.02431,-0.39931 1.82292,-1.02431 2.39583,-1.875 0.59028,-0.85069 0.88542,-1.84028 0.88542,-2.96875 0,-1.38889 -0.40799,-2.53472 -1.22396,-3.43749 -0.81597,-0.90278 -1.84896,-1.46702 -3.09896,-1.69271 -0.92013,-0.17361 -2.76909,-0.26042 -5.54687,-0.26042 z m 27.57811,-6.45833 h 26.38019 v 31.77082 h 3.35937 v 14.73957 h -6.40625 v -8.33333 h -24.03644 v 8.33333 h -6.40625 v -14.73957 h 3.22917 c 1.57986,-3.26389 2.62153,-7.04861 3.125,-11.35416 0.50347,-4.32291 0.75521,-9.78298 0.75521,-16.3802 z m 7.34374,6.40625 c 0,11.59721 -1.05035,20.05207 -3.15104,25.36457 h 14.5052 v -25.36457 z m 26.01562,12.91666 c 0,-3.88889 0.5816,-7.15277 1.74479,-9.79166 0.86805,-1.94445 2.04861,-3.68924 3.54166,-5.23438 1.51041,-1.54513 3.15972,-2.69096 4.94791,-3.43749 2.37847,-1.00695 5.12153,-1.51042 8.22917,-1.51042 5.62499,0 10.12152,1.74479 13.48957,5.23437 3.38541,3.48958 5.07812,8.34201 5.07812,14.55729 0,6.16319 -1.67535,10.98957 -5.02604,14.47915 -3.35069,3.47222 -7.82985,5.20833 -13.43749,5.20833 -5.67708,0 -10.19097,-1.72743 -13.54166,-5.18228 -3.35069,-3.47222 -5.02603,-8.24652 -5.02603,-14.32291 z m 7.9427,-0.26042 c 0,4.32291 0.99826,7.60416 2.99479,9.84375 1.99653,2.22222 4.53125,3.33333 7.60416,3.33333 3.07291,0 5.59027,-1.10243 7.55208,-3.30729 1.97917,-2.22222 2.96875,-5.54687 2.96875,-9.97396 0,-4.37499 -0.96354,-7.63888 -2.89063,-9.79166 -1.90972,-2.15277 -4.45312,-3.22916 -7.6302,-3.22916 -3.17708,0 -5.73784,1.09375 -7.68229,3.28125 -1.94444,2.17013 -2.91666,5.45138 -2.91666,9.84374 z m 35.13018,-19.06249 h 15.26041 c 3.02083,0 5.2691,0.13021 6.74479,0.39063 1.49305,0.24305 2.82118,0.76389 3.98437,1.5625 1.18055,0.79861 2.16146,1.86631 2.94271,3.20312 0.78125,1.31944 1.17187,2.80381 1.17187,4.45312 0,1.78819 -0.48611,3.42882 -1.45833,4.92187 -0.95486,1.49306 -2.25694,2.61285 -3.90625,3.35938 2.32639,0.67708 4.11458,1.83159 5.36458,3.46354 1.25,1.63194 1.875,3.55034 1.875,5.7552 0,1.73611 -0.40799,3.42882 -1.22396,5.07812 -0.79861,1.63195 -1.90104,2.94271 -3.30729,3.93229 -1.38889,0.97223 -3.10764,1.57119 -5.15625,1.79688 -1.28472,0.13889 -4.38368,0.22569 -9.29687,0.26041 h -12.99478 z m 7.70833,6.35417 v 8.82812 h 5.05208 c 3.00347,0 4.86979,-0.0434 5.59895,-0.13021 1.31945,-0.15625 2.35243,-0.60764 3.09896,-1.35417 0.76389,-0.76389 1.14583,-1.76215 1.14583,-2.99479 0,-1.18055 -0.32986,-2.13541 -0.98958,-2.86458 -0.64236,-0.74653 -1.6059,-1.19792 -2.89062,-1.35417 -0.76389,-0.0868 -2.96007,-0.1302 -6.58854,-0.1302 z m 0,15.18228 v 10.20833 h 7.13541 c 2.77778,0 4.53993,-0.0781 5.28646,-0.23438 1.14583,-0.20833 2.07465,-0.71181 2.78645,-1.51042 0.72917,-0.81597 1.09375,-1.90103 1.09375,-3.2552 0,-1.14583 -0.27778,-2.11806 -0.83333,-2.91667 -0.55555,-0.79861 -1.36284,-1.3802 -2.42187,-1.74479 -1.04167,-0.36458 -3.31597,-0.54687 -6.82292,-0.54687 z m 53.17706,2.60416 7.47395,2.36979 c -1.14583,4.16667 -3.05555,7.26562 -5.72916,9.29687 -2.65625,2.01389 -6.03298,3.02083 -10.1302,3.02083 -5.06945,0 -9.23611,-1.72743 -12.5,-5.18228 -3.26389,-3.47222 -4.89583,-8.2118 -4.89583,-14.21875 0,-6.35416 1.64062,-11.28471 4.92187,-14.79165 3.28125,-3.52431 7.59549,-5.28646 12.94271,-5.28646 4.67013,0 8.46353,1.38021 11.3802,4.14062 1.73611,1.63195 3.03819,3.9757 3.90624,7.03125 l -7.6302,1.82292 c -0.45139,-1.97917 -1.39757,-3.54167 -2.83854,-4.6875 -1.42361,-1.14583 -3.15972,-1.71875 -5.20833,-1.71875 -2.82986,0 -5.13021,1.01562 -6.90104,3.04687 -1.75347,2.03125 -2.6302,5.32118 -2.6302,9.86979 0,4.82639 0.86805,8.26388 2.60416,10.31249 1.73611,2.04861 3.99306,3.07292 6.77083,3.07292 2.04861,0 3.81077,-0.65104 5.28646,-1.95313 1.47569,-1.30208 2.53472,-3.35069 3.17708,-6.14583 z m 14.21873,-24.14061 h 7.70833 v 16.24999 c 1.71875,-0.17361 2.88194,-0.61631 3.48958,-1.32812 0.60764,-0.71181 1.54514,-2.69097 2.8125,-5.9375 1.59722,-4.13194 3.20312,-6.70138 4.81771,-7.70833 1.59722,-1.00694 4.17534,-1.51041 7.73437,-1.51041 0.17361,0 0.54687,-0.009 1.11979,-0.026 v 5.70312 l -1.09375,-0.026 c -1.57986,0 -2.73437,0.19965 -3.46354,0.59895 -0.72917,0.38195 -1.31944,0.97223 -1.77083,1.77084 -0.45139,0.79861 -1.1198,2.43923 -2.00521,4.92187 -0.46875,1.31944 -0.98091,2.42187 -1.53646,3.30729 -0.53819,0.88541 -1.50173,1.71875 -2.89062,2.5 1.71875,0.48611 3.13368,1.46701 4.24479,2.9427 1.12847,1.47569 2.3611,3.55903 3.69791,6.25 l 5.20833,10.46874 h -9.06249 l -4.55729,-9.86978 c -0.0695,-0.13889 -0.21702,-0.40799 -0.44271,-0.80729 -0.0868,-0.13889 -0.40799,-0.73785 -0.96354,-1.79688 -0.98959,-1.875 -1.80556,-3.04687 -2.44792,-3.51562 -0.625,-0.46875 -1.58854,-0.71181 -2.89062,-0.72917 v 16.71874 h -7.70833 z m 30.85936,19.32291 c 0,-3.88889 0.5816,-7.15277 1.74479,-9.79166 0.86805,-1.94445 2.04861,-3.68924 3.54166,-5.23438 1.51042,-1.54513 3.15973,-2.69096 4.94792,-3.43749 2.37847,-1.00695 5.12152,-1.51042 8.22916,-1.51042 5.62499,0 10.12152,1.74479 13.48957,5.23437 3.38542,3.48958 5.07813,8.34201 5.07813,14.55729 0,6.16319 -1.67535,10.98957 -5.02604,14.47915 -3.35069,3.47222 -7.82986,5.20833 -13.4375,5.20833 -5.67708,0 -10.19096,-1.72743 -13.54165,-5.18228 -3.35069,-3.47222 -5.02604,-8.24652 -5.02604,-14.32291 z m 7.9427,-0.26042 c 0,4.32291 0.99826,7.60416 2.99479,9.84375 1.99653,2.22222 4.53125,3.33333 7.60416,3.33333 3.07291,0 5.59027,-1.10243 7.55208,-3.30729 1.97917,-2.22222 2.96875,-5.54687 2.96875,-9.97396 0,-4.37499 -0.96354,-7.63888 -2.89062,-9.79166 -1.90973,-2.15277 -4.45313,-3.22916 -7.63021,-3.22916 -3.17708,0 -5.73784,1.09375 -7.68228,3.28125 -1.94445,2.17013 -2.91667,5.45138 -2.91667,9.84374 z m 35.20831,-19.06249 h 7.21353 v 25.41665 l 15.46875,-25.41665 h 7.68228 v 38.17706 h -7.21353 v -24.92186 l -15.4427,24.92186 h -7.70833 z m 19.79165,-9.5052 h 3.56771 c -0.20833,2.36111 -1.04167,4.21874 -2.5,5.57291 -1.44097,1.33681 -3.31597,2.00521 -5.625,2.00521 -2.30903,0 -4.19271,-0.6684 -5.65104,-2.00521 -1.44097,-1.35417 -2.26562,-3.2118 -2.47395,-5.57291 h 3.5677 c 0.12153,1.23264 0.55556,2.17014 1.30209,2.8125 0.74653,0.625 1.83159,0.9375 3.2552,0.9375 1.42361,0 2.50868,-0.3125 3.25521,-0.9375 0.74653,-0.64236 1.18055,-1.57986 1.30208,-2.8125 z m 55.00133,34.17897 7.47395,2.36979 c -1.14583,4.16667 -3.05555,7.26562 -5.72916,9.29687 -2.65625,2.01389 -6.03298,3.02083 -10.1302,3.02083 -5.06944,0 -9.23611,-1.72743 -12.49999,-5.18228 -3.26389,-3.47222 -4.89583,-8.2118 -4.89583,-14.21875 0,-6.35416 1.64062,-11.28471 4.92187,-14.79165 3.28124,-3.52431 7.59548,-5.28646 12.9427,-5.28646 4.67013,0 8.46353,1.38021 11.3802,4.14062 1.73611,1.63195 3.03819,3.9757 3.90625,7.03125 l -7.63021,1.82292 c -0.45139,-1.97917 -1.39757,-3.54167 -2.83854,-4.6875 -1.42361,-1.14583 -3.15972,-1.71875 -5.20833,-1.71875 -2.82986,0 -5.13021,1.01562 -6.90103,3.04687 -1.75348,2.03125 -2.63021,5.32118 -2.63021,9.86979 0,4.82639 0.86805,8.26388 2.60416,10.31249 1.73611,2.04861 3.99305,3.07292 6.77083,3.07292 2.04861,0 3.81076,-0.65104 5.28646,-1.95313 1.47569,-1.30208 2.53472,-3.35069 3.17708,-6.14583 z m 38.51559,0 7.47396,2.36979 c -1.14584,4.16667 -3.05556,7.26562 -5.72916,9.29687 -2.65626,2.01389 -6.03299,3.02083 -10.13021,3.02083 -5.06944,0 -9.23611,-1.72743 -12.49999,-5.18228 -3.26389,-3.47222 -4.89583,-8.2118 -4.89583,-14.21875 0,-6.35416 1.64062,-11.28471 4.92187,-14.79165 3.28124,-3.52431 7.59548,-5.28646 12.9427,-5.28646 4.67014,0 8.46354,1.38021 11.3802,4.14062 1.73611,1.63195 3.03819,3.9757 3.90625,7.03125 l -7.6302,1.82292 c -0.45139,-1.97917 -1.39757,-3.54167 -2.83854,-4.6875 -1.42362,-1.14583 -3.15973,-1.71875 -5.20833,-1.71875 -2.82986,0 -5.13021,1.01562 -6.90104,3.04687 -1.75348,2.03125 -2.63021,5.32118 -2.63021,9.86979 0,4.82639 0.86805,8.26388 2.60417,10.31249 1.7361,2.04861 3.99305,3.07292 6.77083,3.07292 2.0486,0 3.81075,-0.65104 5.28645,-1.95313 1.47569,-1.30208 2.53472,-3.35069 3.17708,-6.14583 z m 14.08856,14.03645 V 404.0227 h 12.36979 c 4.68749,0 7.74304,0.19097 9.16666,0.57292 2.18749,0.57291 4.01908,1.82291 5.49478,3.75 1.4757,1.90972 2.21355,4.38368 2.21355,7.42187 0,2.34375 -0.42535,4.31423 -1.27605,5.91145 -0.8507,1.59722 -1.93576,2.8559 -3.2552,3.77604 -1.30209,0.90278 -2.63021,1.50174 -3.98437,1.79688 -1.84028,0.36458 -4.50521,0.54687 -7.99479,0.54687 h -5.02604 v 14.40103 z m 7.70833,-31.71873 v 10.83333 h 4.21875 c 3.03819,0 5.06944,-0.19965 6.09374,-0.59896 1.0243,-0.39931 1.82292,-1.02431 2.39584,-1.875 0.59027,-0.85069 0.88541,-1.84028 0.88541,-2.96875 0,-1.38889 -0.40799,-2.53472 -1.22396,-3.43749 -0.81597,-0.90278 -1.84895,-1.46702 -3.09895,-1.69271 -0.92014,-0.17361 -2.7691,-0.26042 -5.54687,-0.26042 z"
       id="path3"
       sodipodi:nodetypes="ccccccccccccccscccscscscsscscscscsccsccssccscccccsscsscsccccccccccccccsccccccscccscscscsscscscscscscccsccssccccccccscssccscccsccsscsccccscscsccccscssssccccsccsccccscccccccccccccccscccscscscsscscscscsccccccccccccccsccccscccccscscsccccscssssccccscscsccccscsssscccsccssccscccccsscsscsc" />
  </g>
</svg>
