<svg xmlns="http://www.w3.org/2000/svg" xml:space="preserve" width="965.10089" height="682.56592" x="0px" y="0px" viewBox="0 0 965.10089 682.56592"><path fill="none" stroke="#ededed" stroke-miterlimit="22.9256" stroke-width="0.5669" d="M.283 682.282V.283h964.534v682z"/><path fill="#d42e12" fill-rule="evenodd" d="M706.947.283h256.33v682h-256.33z" clip-rule="evenodd"/><path fill="#006ec7" fill-rule="evenodd" d="M1.82.283h256.33v682H1.82z" clip-rule="evenodd"/><path fill="#fff" fill-rule="evenodd" d="M258.15.283h448.797v682H258.15z" clip-rule="evenodd"/><path fill="#323230" fill-rule="evenodd" d="M359.74 186.787c2.944.084 247.778 0 247.778 0l-.423 253.395c-.769 16.667-10.175 26.285-30.457 26.827l-56.866-.18c-14.613.086-21.588 12.212-31.354 28.948-4.572-12.31-18.61-27.776-32.602-28.74l-67.012-.52c-20.547-2.249-28.566-9.714-30.424-26.854z" clip-rule="evenodd"/><path fill="#d6d5d3" fill-rule="evenodd" d="m600.352 195.353-.47 160.148c-.12.562-.814.901-1.288.45-2.107-5.84-2.806-12.354-5.383-18.08-.587-4.04-2.337-7.748-3.63-11.455-1.283-1.907-.936-4.49-2.336-6.398-1.4-4.042-1.987-8.42-3.978-12.242-.7-5.274-3.27-9.766-5.143-14.482-.934-2.583-2.223-4.94-3.512-7.3a170.104 170.104 0 0 1-7.137-12.689c-.818-2.582-1.756-5.275-2.104-8.198l-1.52-6.509c.587-1.237-.345-2.586-1.639-2.586-1.172-.336-2.689-.56-3.857-.112-1.76 2.586-5.149 2.358-7.835 3.48l-4.563.116c-3.158 2.354-6.673 4.154-10.529 4.824-1.639.9-3.16 2.024-5.025 2.136-1.293 1.907.81 3.14 1.054 4.83.464 1.457 2.333 1.572 2.917 2.922.82.893.82 2.805 2.575 2.805 2.225.786 5.031 0 6.673 1.796l2.69 7.296c-.239.451-.942.902-1.644.786l-5.028-1.233-5.495-2.47c-2.584-2.476-5.854-3.258-8.426-5.61-3.858-4.272-9-5.957-14.27-7.082-.699 0-1.4-.223-1.639-.899 1.177-2.578 3.396-4.713 4.686-7.296 2.922-4.377 5.731-8.76 9.234-12.798h1.048l3.864 2.917c.355 1.461 1.285 2.917 2.918 3.373 1.76.331 3.52-.117 4.686-1.46 1.168-1.463.937-3.82.466-5.505-.937-1.908-3.392-1.46-5.15-2.02-1.159-1.014-3.858-2.022-3.272-3.819l3.271-4.267c2.001-.34 3.52-1.912 5.272-2.693.35-1.796.35-3.814 0-5.615-.929-1.458-2.688-1.913-4.326-1.684-1.997 0-3.159 2.02-3.979 3.368.344 3.593-3.159 5.838-5.263 8.31-.819.563-1.992.224-2.81-.339-1.75-1.238-2.689-3.029-3.62-4.825-.712-.675-1.76.111-2.696-.34l-2.69-2.806.585-12.125c.354-.563.586-1.577 0-2.135-.345-1.009-2.456-.228-1.759-1.685.242-2.018 1.414-4.266-.228-6.062-1.289-1.014-.704-3.592-2.812-3.369-1.873 2.807-3.392 6.733-1.4 9.878-1.99 3.15-1.056 7.636-1.409 11.344l.47 5.954c-.814 1.234-.934 3.142.354 4.151.702.674 1.985 1.121 2.224 2.135 0 2.36-2.579 1.344-3.979 2.02l-1.639.224c-3.978-.559-7.49-2.244-11.464-2.47-1.168.11-1.874 1.794-3.154 1.46-1.753-3.257 3.043-5.053 2.103-8.534-.348-1.35-2.926-.335-2.339-2.358.353-5.394.464-11.228-.116-16.509 1.288-1.567 1.405-3.815 1.056-5.723-.703-1.238-1.755-2.694-3.159-3.256-1.876.45-2.346 2.694-3.517 4.038-.81 2.135 1.171 3.82.241 5.616l-1.05 1.35c.697 4.94-.82 9.43 0 14.261.58 1.455-.94 2.358-.94 3.82.342 1.907 1.281 3.698 2.81 5.047.11.563-.354.9-.937 1.014l-4.1-1.353c-4.206 0-6.782 3.597-10.876 3.597-1.405-.559-3.5-1.234-3.62-3.035.936-2.02 1.163-5.387-.122-7.295.355-5.053.82-10.667-.115-15.61-1.52-1.12.47-2.13.236-3.48l-.236-2.917c-1.634-1.014-.937-4.267-3.514-3.815-1.28 1.568-1.982 3.253-1.982 5.276-.702 1.795 1.047 2.69.82 4.038-1.638.787-2.225 2.25-2.225 3.821l-.349 16.052c.466 1.578 1.522 2.921 2.098 4.496 0 2.921 1.88 5.614 4.682 6.741 3.972 2.693 8.541-.116 12.05-1.684.697-.117 1.405.111 1.521.78-.824 1.914.82 3.597 2.452 4.267 1.057 0 2.346-.446 2.81.786-.236 1.908-2.688 2.136-3.739 3.816l-3.397 4.833c-1.404.787-4.096-1.01-4.448 1.35-.349 2.917-.58 5.945-2.336 8.421h-1.293l-4.434-6.068c.121-2.13-.35-4.042-2.108-5.387l-1.759-.898c-.575-3.709-3.032-6.63-4.559-9.995l-2.8-1.46-1.172-3.48c-2.578-1.462-3.983-4.268-5.62-6.52.587-3.588 4.685.568 5.964-2.242v-4.938c-1.404-1.912-3.509-1.349-5.26-.787-1.285 1.122-2.573 3.253-4.44 2.583-1.756-1.796-2.694-4.159-3.16-6.63-1.054-1.232-3.159-.67-4.563-.559-1.287.335-1.987 1.573-2.336 2.694-.119 1.461.46 2.806 1.75 3.82a6.302 6.302 0 0 1 3.508 4.155c-1.402 3.368-6.78.563-6.9 4.824 0 1.686.817 3.034 1.991 4.267 1.87.68 3.856-.222 4.677-2.018 0-1.239 1.287-2.136 2.338-2.47l1.287.221 3.861 5.615c.234 2.248 1.64 3.933 3.271 5.617-.35 3.48 2.572 5.723 3.977 8.645 1.057 1.238 3.628.34 3.866 2.36-.815 2.916 1.991 4.94 4.095 6.284 1.864 1.684 2.804 3.593 4.093 5.504.121 1.913-1.875.112-2.693.898-3.394.451-6.31 2.024-9.12 3.82-3.98 2.243-7.606 5.275-11.465 7.746-2.809 2.922-7.02 2.694-10.41 4.384-1.286-.228-3.392.893-3.979-.679.817-2.132 1.053-4.602 1.987-6.625 1.175-1.569 1.64-4.15 3.865-4.602 2.1 0 4.206-.335 6.08-.899 1.521-.787 2.69-2.242 3.273-3.707l2.338-1.01c.821-1.684 2.574-3.257 2.103-5.276-3.039-2.02-6.896-2.694-10.175-4.49-2.338-3.145-5.844-4.605-9.706-4.154-2.103-.34-4.677.897-6.083-1.015-.232-1.122-1.52-2.243-2.808-1.679l-3.039 1.122c-5.148 5.392-7.256 12.013-10.762 18.081-1.17 2.13-2.338 4.26-3.626 6.284-2.575 4.38-4.093 9.097-7.018 13.247-.934.787-.699 2.024-1.283 2.926-2.227 3.141-3.397 6.737-4.799 10.102l-2.804 6.966c-.702 2.018-1.526 3.924-2.345 5.95-1.749 1.68-1.516 4.266-2.57 6.286L374.947 329c-1.754 7.076-4.798 13.586-5.497 21.114-.117 3.145-.934 5.951-.934 9.096-.236.335-.7.56-1.049.335l-.355-1.004.583-35.264.833-128.07z" clip-rule="evenodd"/><path fill="#d6d5d3" fill-rule="evenodd" d="M520.457 288.24c1.991 4.16 5.03 7.974 8.543 11.343 2.214 1.68 4.676 3.14 7.364 3.703a.822.822 0 0 1 0 1.35c-3.625 1.343-8.415.563-12.632.45-1.87-.339-3.853-.678-5.61-1.349-3.044-2.248-5.854-5.838-9.008-7.974-1.05-1.35-3.402-1.686-3.043-3.592 1.167-3.819.354-8.533.47-12.465.697-1.126 1.983.112 2.918.335 4.213 1.462 7.961 4.495 10.998 8.2zM545.14 319.232c.12.785-1.05 1.236-1.169 2.018-.349 3.258 1.633 5.726 2.693 8.533 2.802 3.931 6.896 6.515 9.933 10.222.705 1.458 3.161 2.243 2.575 4.045l-3.858 1.46c-2.698 2.801-6.546 5.388-7.955 8.868-.582 3.593-2.335 6.734-3.038 10.327l.35 8.65c.47 1.233.59 2.806.114 4.15-2.219 2.357-3.973 5.165-6.662 7.074-1.759.9-3.862.676-5.974.454-1.28-1.349.59-2.924-.228-4.607l.116-50.75c1.048-1.8-.116-4.05 0-5.843 0-1.799.82-3.142 1.284-4.715l.824-.45c2.34.45 5.261-.335 7.365.563 1.056-.45 2.925-1.463 3.63.001zM599.53 370.211l.231 9.653c0 12.236 0 25.043-.35 37.171-1.637 1.79-3.508-.45-5.492.223-2.346-.339-4.688.792-6.445-.339-.229-1.57 1.88-2.242 2.107-3.588.471-1.576.36-3.378 1.526-4.605-.122-4.716 2.573-8.42 3.625-12.693 1.171-1.008.465-2.917 1.29-4.153 1.056-.898 1.166-2.466.696-3.698-1.749-1.129-1.169-3.714-3.625-3.932l-1.87-5.28c.466-2.919.702-6.069 2.108-8.646 1.167-2.246 3.154-3.596 5.378-4.606 2.933.333.12 2.804.82 4.493zM566.188 372.677v6.177c.238 3.817 2.694 6.85 5.271 9.66 3.624 2.466 10.99 3.703 9.71 9.541-1.526 4.603-2.577 10.56-8.309 12.127-3.856.45-8.193 1.35-10.302 4.604-.466.788.358 2.471-1.158 2.585l-7.37-.229c-1.173-2.583 1.283-4.94-.122-7.298-.236-1.57.937-4.042-1.05-4.717l-11.814.117c-.819-.225-1.638-.897-1.638-1.907.591-2.365-.349-4.946.818-7.078 1.053-.785 2.575.447 3.746-.445 1.053-2.138 3.388-3.598 5.261-5.17l2.343-1.57c2.684-2.133 6.31-3.147 8.184-6.289 1.173-2.023-1.4-4.04.233-6.06 1.29-2.25 2.46-4.607 4.796-6.069 1.29.001.934 1.351 1.401 2.021z" clip-rule="evenodd"/><path fill="#9d8350" fill-rule="evenodd" d="M536.486 396.594c.35.454.464 1.013.228 1.461-1.52.788-2.453-1.236-3.975-1.007-2.228.668-5.735.56-5.848 3.593-.237.332-.7.673-1.057.332-.114-1.566-.464-3.14-2.103-3.925-.23-.454.233-1.127.702-1.127 2.22.786 5.034.673 7.128-.222 1.644.116 3.752-.34 4.925.895z" clip-rule="evenodd"/><path fill="#9d8350" fill-rule="evenodd" d="M535.663 400.751c.47.451.585 1.352.114 1.907-1.869 1.352-1.869-2.017-3.739-1.685-.939.23-1.875 1.238-2.81.9-.466-.447-.355-1.232.121-1.569.813-.673 1.637-1.239 2.688-1.349 1.526.001 2.81.677 3.626 1.796zM533.675 404.795c1.047.112 2.572-1.456 3.16 0 0 .897-1.059 1.231-1.755 1.35l-5.15-.676c-.462-.223-.58-1.01-.117-1.349 1.173-1.345 2.695.112 3.862.675zM543.381 408.614c0 .782-.699 1.121-1.517 1.231-.587 0-1.284-.339-1.522-.896-.117-.565.35-1.012.936-1.127.817.001 1.986-.223 2.103.792zM539.286 410.745c.355.786.355 1.571 0 2.242-.35.344-.818.567-1.283.23-.345-.56-.587-1.462-1.402-1.573-1.995 0-2.34 3.144-4.45 2.582-.588-1.795 1.641-3.258 2.931-4.272 1.282-1.12 3.274-.33 4.204.791zM550.051 411.421c.356.673.234 1.795-.585 2.018-1.52.116-1.285-2.47-3.043-1.46-1.639.338-2.8 2.362-4.559 1.801-.468-.792.47-1.463 1.17-1.802 1.751-1.796 5.496-3.473 7.017-.557zM546.893 416.585c-.819 1.465-2.689.45-4.21 1.126-1.172.34-2.927.34-4.216-.116-.465-.337-.345-.786-.11-1.232 1.754-1.015 5.024.781 6.312-1.575.935-.112 2.108.787 2.224 1.797z" clip-rule="evenodd"/><path fill="#006ec7" fill-rule="evenodd" d="m427.003 418.604 1.87.221c2.104-.33 4.207.571 5.965-.438l2.691.334 8.42.104 91.356.23c2.336.785 5.495.45 8.065.341 13.918.557 27.954-.57 42.104 0 2.35 1.227 5.39 0 7.96.781 1.407.896 3.635-.898 4.447.896-.12 4.044-.7 8.646.347 12.47.59 3.476-.937 6.06-.937 9.32-.223 3.028-2.103 5.5-3.74 8.082-2.102 1.23-2.689 3.813-4.914 4.828l-5.963 2.922c-1.877.11-3.857.218-5.729.56l-49.477.111c-4.688.451-9.71.11-14.269 1.122-4.923 1.795-9.71 3.932-14.043 7.188-3.51 2.81-7.368 5.727-9.594 9.657-1.05 1.232-2.107 2.695-2.685 4.04-1.99 0-1.763-2.583-3.274-3.593-1.993-2.918-4.918-4.825-7.49-7.188-3.627-2.692-8.068-3.702-11.818-6.402-3.736-.893-7.357-2.24-11.343-2.578-1.517.56-2.336-.897-3.853-.563l-5.27-.785c-3.273.116-6.667-1.234-9.82-.112-2.225-.785-5.269-.45-7.604-.225l-7.488-.338c-1.987.563-3.74-.56-5.728-.335l-17.429.223c-1.523 1.238-3.28.224-5.03.341-2.107.781-4.683.11-6.672 0-3.859-.34-7.133-2.024-10.292-4.044-2.106-3.034-5.618-5.387-6.786-8.872l-1.513-6.404v-21.673l.58-.553 14.854.222z" clip-rule="evenodd"/><path fill="#212121" fill-rule="evenodd" d="M540.692 424.33c1.99 1.122 6.787-1.688 6.438 2.024-.465.56-1.287 1.461-.353 2.02 2.103.563 4.448-.223 6.551.341l3.857.785c2.453-.45 3.504-4.27 6.323-3.263l9.125 3.375c1.282.897-.122 2.922 1.75 3.257l9.472.11c3.744.564 6.197-2.357 9.24-4.042.824-.112 1.404.563 1.404 1.122.115 2.358-1.875 3.813-2.456 5.84-2.689 2.128 1.29 3.703 1.521 5.727.355 1.796 2.458 3.813.582 5.615-.465.781-1.4.897-2.103.451-1.756-4.27-6.785-3.596-10.524-4.605-2.34.223-5.03-.675-6.784.786.231 1.01 1.285 2.132.46 3.251-1.162.898-2.8.117-4.206.676l-3.623.451c-1.645 0-3.045 1.567-4.564.671-1.87-5.278-6.086.224-9.24.116-1.396.674-3.862-.229-4.793 1.457-.116 1.682 3.04 3.816.464 4.83-6.317-.453-13.217-.114-19.419-.224-1.169-1.239-.586-3.593-2.693-4.047-2.568.786-4.205-1.236-6.89-.448-3.98-.219-7.488-1.346-11.354-1.797-1.522-1.347-4.21-.446-5.5-2.02 0-2.137 4.33-1.907 2.694-4.044-1.875-1.683-3.866-2.922-5.732-4.603-.822-1.912 1.986-.672 2.69-1.465 2.683-.78 5.265-1.684 7.601-3.135 5.151-2.475 10.995-3.375 16.262-5.509 1.283-1.234 1.521-3.254 3.271-4.039z" clip-rule="evenodd"/><path fill="#ededed" fill-rule="evenodd" d="M553.208 431.854c5.615.68 10.766 1.69 16.26 2.583 1.992-.334 3.394 1.01 5.38 1.01 2.694 0 5.614 1.015 8.421.451l5.03-.903c1.056 1.8-2.922 1.912-1.4 3.82.701.896 2.577 1.01 1.87 2.357-1.754.453-2.923-1.122-4.56-1.122l-8.426.112c-.816.23-2.458.451-2.336-.785.12-.785.47-1.684-.586-2.02-.937.113-1.755.785-1.986 1.574 0 .78 1.167 2.24-.356 2.577-3.978.673-7.834 1.577-11.578 2.587-4.327 2.018-9.003 3.027-13.68 4.154-1.526-.559-2.46.56-3.863.56l-15.563-.335c-.7-.337-1.869-.453-1.869-1.459.814-1.912 2.926-3.144 3.154-5.28 0-1.912-.466-3.593-1.285-5.166-1.4-1.236-2.456-2.697-2.679-4.377 2.095-1.008 4.793-.223 6.896-1.236 7.717.113 16.022-.558 23.156.898z" clip-rule="evenodd"/><path fill-rule="evenodd" d="M542.682 440.951c0 .675-.349 1.461-1.17 1.685-1.4-.224-2.69-.675-4.207-.675-.592-.676-.94-1.798-.239-2.47 1.168-1.123 2.462-3.48 4.331-2.696z" clip-rule="evenodd"/><path fill="#212121" fill-rule="evenodd" d="M577.89 437.694c0 .674-.47 1.461-1.168 1.684-.587 0-1.058-.563-1.058-1.01 0-.788.587-1.349 1.29-1.573.588-.117.825.563.935.9z" clip-rule="evenodd"/><path fill-rule="evenodd" d="M549.466 439.602c.115 1.012-.937 2.023-1.865 2.246-1.178 0-2.46-.446-3.042-1.35.465-1.344.226-3.14 1.753-3.592 1.517.001 2.567 1.686 3.154 2.696z" clip-rule="evenodd"/><path fill="#212121" fill-rule="evenodd" d="M554.845 438.932c.231 1.01.116 2.47-1.058 2.693-1.172-.116-3.032.557-3.152-1.128 0-1.343 1.642-2.13 2.572-3.026 1.051-.224 1.52.785 1.638 1.461zM569.23 438.48c.358 1.122-.935 1.461-1.52 1.683-.93.23-1.75-.339-1.87-1.119-.232-.788.587-1.464 1.29-1.572.938-.225 1.752.332 2.1 1.008zM564.56 439.044c-.239.897-.587 1.907-1.643 2.02-.824-.112-1.295-.9-1.875-1.46-.82.672-1.162 2.022-2.45 1.906-.82-.107-1.757-.559-1.757-1.459.117-.896.82-1.795 1.643-2.023 1.16-.223 1.987.565 2.564 1.351.58-.445 1.172-1.456 2.111-1.573.7-.002 1.287.562 1.406 1.238z" clip-rule="evenodd"/><path fill="#fff" fill-rule="evenodd" d="m485.362 217.608-.228 7.076c-.937 2.135.47 4.717-.583 6.85-.94.337-1.643-.448-1.87-1.122-.353-2.918-.12-6.067.228-8.984.471-1.792-1.288-4.602 1.173-5.278.703 0 1.28.676 1.28 1.458zM460.804 218.961c.354 3.364-.698 6.85-.11 10.33.11 1.01 0 2.465-1.294 2.805-.698.117-1.75-.225-1.75-1.01l.233-2.247v-9.43c.111-.675.698-1.685 1.517-1.8.82 0 1.404.678 1.404 1.352zM509.812 219.853c-.354 3.933-.467 8.2-.232 12.242-.466.787-1.755.675-2.575.334l-.464-.78c.576-4.157-.586-8.54.697-12.466.703-1.12 2.342-.45 2.574.67z" clip-rule="evenodd"/><path fill="#d6d5d3" fill-rule="evenodd" d="M515.427 243.89c1.293.448 3.16-.228 3.746 1.457-.112 3.256-4.096 4.936-5.266 7.635-1.166 2.355-2.808 4.605-4.563 6.737-1.869 3.592-4.68 6.737-7.259 9.994-.348.223-.817.335-1.167-.117-1.752-3.029-1.168-7.178-4.094-9.543-1.987.117-4.212 0-5.02-1.795.11-1.684-.709-3.034-1.643-4.155-.937-.223-1.755-1.35-2.107-2.13-.232-2.47 2.228-.45 3.284-1.127 1.163-.112 2.681-.223 2.805-1.568.457-.785.35-2.018 1.514-2.246 2.92 1.35 6.787.675 10.053.675.83-1.01 2.113-.899 3.05-1.578 1.868-.78 2.688-4.484 5.027-2.917z" clip-rule="evenodd"/><path fill="#c6c6c6" fill-rule="evenodd" d="m460.804 282.512-.354 12.24c-3.856 2.578-8.653 5.835-10.645 10.106-2.923.788-5.495 2.695-8.77 2.47-2.223.447-4.678 1.121-6.905.447-.932-2.129 1.991-1.567 2.93-2.576 4.442-2.812 9.821-7.189 12.045-11.906 1.521-3.035 4.208-5.165 6.081-7.97 1.523-1.578 3.048-2.698 4.676-3.82.59-.118.942.558.942 1.01z" clip-rule="evenodd"/><path fill="#d42e12" fill-rule="evenodd" d="m485.134 282.4 6.206.112c1.051 1.684-1.885 2.47-2.462 3.82-1.168 1.121-1.168 3.48-3.274 3.814-1.173-.223-2.812 1.461-3.275-.335.232-2.805-2.574-4.49-3.984-6.625 0-2.806 2.578-.116 3.984-.786z" clip-rule="evenodd"/><path fill="#9d8350" fill-rule="evenodd" d="M498.818 288.463c.12 1.01.464 2.475-.582 3.034-.939.111-1.526-.786-1.645-1.685.468-1.683.234-3.932 1.87-5.165 1.877.56-.109 2.471.357 3.816zM473.665 292.172c.237.675-.229 1.122-.93 1.122-1.052 0-1.528-1.122-1.749-2.02 0-.335 0-.793.46-1.016 1.168-.223 1.99 1.015 2.22 1.914z" clip-rule="evenodd"/><path fill="#d42e12" fill-rule="evenodd" d="M494.37 297.787c.232 2.131.125 4.601 0 6.738-.466.674-1.406.674-1.979.333l-3.634-5.616c0-1.008.698-1.912 1.638-2.248 1.521-.217 2.568.566 3.974.793zM479.284 299.36c-.584 2.242-2.803 3.816-3.864 5.84-.583.333-1.983 1.01-2.333-.113l.235-6.402c.816-1.689 3.16-1.354 4.438-1.236z" clip-rule="evenodd"/><path fill="#9d8350" fill-rule="evenodd" d="m499.402 300.927-.234 13.14c-.229.446-.815.334-1.286.11-2.11-2.692.354-6.066-1.056-9.09 1.283-1.684-1.754-5.844 1.992-5.169z" clip-rule="evenodd"/><path fill="#d6d5d3" fill-rule="evenodd" d="M510.277 305.086c1.173.893 3.75 1.568 3.047 3.477-.823 1.122-.582 2.805-.47 4.046 1.406 2.802 4.677 1.118 7.025 1.682 1.28.785 3.5.222 4.086 1.684-.698 1.12-.94 2.583-.464 3.818l2.333 1.904c-.23 5.51.355 11.684-.464 17.07-.59.674-1.175-.223-1.405-.675-3.034-4.824-6.779-10.104-11.93-13.473-2.224-.785-3.858-2.806-5.965-3.82-1.053-1.339.47-2.689 0-4.262l-.116-13.589c-.117-.56.116-1.347.697-1.458 2.226.336 1.873 2.694 3.626 3.596zM461.274 304.408c-.236 6.85-.47 14.261.233 20.886-3.043 1.122-5.494 3.368-8.072 5.276l-4.216 5.165c-.578.45-1.404 0-1.404-.56l.473-5.273c.118-2.925-1.05-6.516.7-8.873 1.757-1.01 4.097-.9 5.618-2.583l2.457-4.378c-.232-2.13.343-4.605-1.177-6.29 1.057-1.568 2.816-3.029 4.1-4.262.586-.002 1.288.334 1.288.892z" clip-rule="evenodd"/><path fill="#9d8350" fill-rule="evenodd" d="M466.061 280.264c.355 4.606-.923 9.437.477 13.703-.122 6.285-.355 12.911.464 18.862l-.11 4.834c-1.528 1.455-1.405 3.586-3.053 4.713l-.577-.563c.353-6.626.47-13.702-.232-20.212l-.234-1.683.121-19.09c.346-.787.816-1.46 1.634-2.02.935-.11 1.4.782 1.51 1.456zM434.838 226.703c.351 2.586 2.691 4.493 4.446 6.29l6.665-3.48c.82-.223 1.4.451 1.522 1.122.232.787-.232 1.69-1.054 1.69-2.224-1.8-3.86 1.008-5.73 1.795-.938.781.236 1.685.7 2.465 1.986 2.471 3.746 5.166 5.962 7.412l.354 2.36c3.862 1.461 4.448 5.39 7.025 7.975-.469 1.121-.12 2.466 0 3.592-1.182.898-1.292-1.126-2.344-1.35-1.638.451-2.69-1.01-3.164-2.243.241-1.127-1.163-1.689-1.518-2.698.818-2.917-1.99-4.602-3.272-6.849l-.35-2.358-5.032-6.287h-1.403c-2.104 1.573-4.445 2.354-6.436 4.267-.7.224-1.29-.339-1.519-.786-.47-2.136 2.105-1.35 3.042-2.024 1.525-1.345 3.977-1.907 4.797-3.816l-3.98-5.5c-.699-.339-1.752-.339-1.752-1.238-.117-.674.115-1.573.936-1.684 1.051-.227 1.87.56 2.105 1.345zM534.146 232.43c-.94 2.923-4.217 4.495-5.616 7.19-3.279 5.95-8.65 11.113-12.404 16.953-9.585 14.483-20.7 28.297-30.764 42.557l.592 1.573c6.438 8.421 11.813 17.178 17.771 25.712.24.675-.116 1.35-.815 1.46l-1.05-.224-17.309-26.05c-.236-.34-.94-.34-1.06 0l-15.793 22.007c-.348.563-1.16.9-1.749.563-.812-2.36 2.453-3.82 3.15-5.84 4.094-6.398 9.245-12.354 13.693-18.638.47-2.135-3.98-3.482-1.754-5.394 2.341-.224 1.4 3.146 3.513 2.805 13.095-18.409 27.251-36.49 40.23-55.017 2.34-3.37 5.97-6.286 6.677-10.334.811-.667 2.688-.557 2.688.677zM486.534 235.241c-2.573 3.703-1.399 9.542-.693 13.585 0 .563-.236 1.35-1.056 1.456-2.224-.669-.354-3.364-1.876-4.713-.697.904-1.517 2.586-3.048 2.694-.464.117-.93-.108-1.05-.557.12-1.01 1.99-1.233 1.647-2.583 0-1.015-1.062-1.912-1.997-2.247-6.668-1.578-12.632 5.951-18.242.112-.82-1.12-.467-2.92-.705-4.043-.577-1.46-1.988-2.694-1.404-4.378.707-.563 1.753-.67 2.582-.447 1.753 1.908-.708 3.592-.587 5.388.698 2.243 2.923 4.043 5.38 4.49 1.981 0 3.388-1.456 5.368-1.57 2.932-1.235 7.026-2.245 10.068-.336l1.986 2.471c.823-2.135 1.052-4.94.582-7.3-.464-1.01-2.452-2.243-.93-3.365 1.286-1.016 4.33-.457 3.975 1.343zM511.212 236.25c-.345 1.796-.81 3.816-1.28 5.728-2.226 2.248-5.035 4.718-8.426 3.927-3.74-.223-6.904-1.567-10.52-2.13-.935 0-1.99.451-2.108 1.456-.702 1.013.577 1.801 1.405 1.912.813 0 2.33.117 1.632 1.237-.93 1.01-2.572.223-3.622 0-1.638-.79-.937-3.149-.583-4.384.466-1.683 2.342-1.794 3.853-2.018 2.582.112 4.56 1.572 7.016 2.018l5.506.9c1.87-.9 3.74-1.908 4.792-3.816 1.525-2.47-4.21-4.042-.699-5.838 1.167 0 2.224.334 3.034 1.008zM517.186 240.63c.691.667 2.22 1.348 1.521 2.357-1.642-.446-3.165-1.796-4.8-2.247-.816-.224-.937-1.01-.699-1.686 1.754-1.683 2.456 1.351 3.978 1.575z" clip-rule="evenodd"/><path fill="#9d8350" fill-rule="evenodd" d="M530.511 249.725c-1.638 2.02-3.038-1.233-4.677-1.57-.114-.449-.23-.79.121-1.124 1.871-.675 3.044 1.01 4.448 1.795zM490.986 258.37c.111.562-.12 1.236-.702 1.35-1.526-.34-.707-2.359-1.99-3.146-2.226-.334-4.333-2.694-6.546-1.01-2.108.448-2.464 2.583-3.867 3.708-.589.224-.936-.228-.936-.674 1.056-3.26 4.323-4.607 7.253-5.729 2.918.787 5.145 3.03 6.788 5.501zM533.675 253.427c.471.563-.354.903-.817 1.126-.589 0-1.179-.223-1.4-.785 0-1.349 1.628-.452 2.217-.34z" clip-rule="evenodd"/><path fill="#9d8350" fill-rule="evenodd" d="m487.357 258.932-.116.674c-1.287.446-1.992-1.12-3.159-1.349-1.289.112-1.87 1.795-3.28 1.573-.584-1.01.591-2.02 1.527-2.47 1.632-.563 4.205-.563 5.028 1.572zM458.111 260.617l.242 2.02c3.736 5.727 8.65 11.008 12.158 16.846l3.043 1.23c1.051 2.358 3.277 4.158 4.095 6.63 1.521 1.01 1.87 2.582 2.213 4.155-.106.785-.809 1.35-1.627 1.457-1.403.112-2.458-1.233-2.814-2.355.125-1.01 0-2.135-1.057-2.47-2.68 0-1.629-3.48-4.317-3.369-1.17-1.12-.12-2.922-.708-4.267-5.026-5.505-7.594-12.13-12.86-17.518-.819-.11-1.525-.79-1.525-1.684-.225-.898.125-1.914.934-2.135 1.055-.113 1.878.674 2.223 1.46zM486.068 261.85c3.275.334 6.546.116 9.94.673 1.288.903.583 2.695 1.288 3.933.35 2.354 1.985 4.155 2.696 6.402-.24.787-.59 1.568-1.53 1.684l-1.05-.334-3.974-5.732c-.476-1.345-.349-3.14-1.987-3.704l-8.659-.117-3.153-.218c-2.226.782-5.152-1.125-6.203 1.568-.242 2.582-1.643 4.718-3.159 6.738-.587.34-1.403.674-1.99.228-1.528-1.686 1.52-2.475 1.403-4.044 1.64-1.796 1.053-4.379 1.755-6.508.937-1.01 2.457-.453 3.63-.676z" clip-rule="evenodd"/><path fill="#9d8350" fill-rule="evenodd" d="M482.681 270.722c.58.562 1.517.673 2.22.334 1.987-1.12.814-4.824 3.62-4.155.592 1.684-.465 3.485-1.28 5.058-1.287 1.01-2.926 3.48-5.029 2.247-2.457-1.912-4.21-4.723-3.042-7.75.35-.113.817-.34 1.167-.113.931 1.458.463 3.593 2.344 4.38z" clip-rule="evenodd"/><path fill="#9d8350" fill-rule="evenodd" d="M484.665 267.465c0 .452-.35 1.01-.819 1.01-.698.111-1.406-.336-1.517-.898 0-.56.464-.898.933-1.01.583 0 1.29.335 1.403.898zM476.831 267.69c.114 3.595-3.166 5.955-3.864 9.212-.353.446-1.173.446-1.52.223-.816-.563-.592-1.684 0-2.248 2.107-2.247 3.27-4.94 4.1-7.859.463-.45 1.284.112 1.284.671zM493.09 272.742c.35.454.581 1.013.35 1.577-.35.557-1.289.447-1.756 0-1.17-1.577-2.34-3.486-1.52-5.51.12-.224.584-.334.821-.106zM479.284 273.866c0 .675-.697 1.234-1.283 1.346-.709.116-1.52 0-1.759-.67 0-.788.59-1.46 1.29-1.8.812-.112 1.752.34 1.752 1.124zM494.145 277.237c.693.111 1.396.562 1.396 1.343-.117.788-1.047 1.462-1.87 1.574l-11.11-.448c-2.574-1.46-6.669 2.583-7.37-1.795.111-.786 1.051-.674 1.518-.898 5.381.563 11.812.224 17.436.224zM504.554 280.042c-.47 5.392-.829 11.12 0 16.392-1.526 4.605.464 9.323-.59 14.041l-.355 8.306c.237 1.013.703 2.47 0 3.37-2.103-1.01-2.103-3.37-2.452-5.385.82-1.014-.237-2.252.238-3.377.81-6.62-.126-13.469.111-20.094-.466-3.146-.35-6.626-.11-9.884.463-1.349-.477-3.703 1.4-4.377.702-.002 1.632.221 1.758 1.008zM469.924 288.13c-.354 1.343.818 4.042-1.295 4.152-1.162-1.12-.692-3.145-.575-4.717.461-.898 1.87-.34 1.87.564zM499.636 295.764c0 .45-.354 1.013-.818 1.013-1.052 0-1.52-1.238-2.457-1.349-1.4-.899-4.677-.228-4.21-2.475 1.054-.894 2.344-.106 3.391.112 1.517.451 3.276 1.35 4.094 2.7zM460.34 298.91c-.94 2.58-4.327 3.813-5.388 6.395-.466.341-1.406.341-1.866 0-.815-1.12.591-1.79.934-2.693l5.38-4.713c.706-.228 1.172.446.94 1.01zM508.177 298.122c2.1 1.344 3.154 3.814 5.611 4.601.238.34.583.9.238 1.35-.354.452-1.056.224-1.405-.112l-5.384-4.495c-1.525-.335-.233-2.47.94-1.344zM470.045 303.961c1.051 2.467.584 5.725.465 8.423-.233.668-1.052.668-1.41.226-.698-4.159.47-8.537-.698-12.468 0-.558.935-1.122 1.404-.558.823 1.343-.236 2.917.24 4.377zM486.77 308.563c.234.67-.353 1.572-1.166 1.461-1.644-.452-3.856.785-4.804-.675 0-.786.592-1.685 1.528-1.913 1.517.117 3.74-.557 4.442 1.127z" clip-rule="evenodd"/><path fill="#d6d5d3" fill-rule="evenodd" d="M488.176 312.941c1.28 1.69 3.975 2.811 3.63 4.828-1.41 1.125-2.693-.557-4.222-.333l-8.3.111c-1.524.787-3.16 1.233-4.798 1.572-.822 0-.585-.897-.349-1.35l4.206-4.489a1.62 1.62 0 0 1 1.295-.67zM439.867 323.274l.468 61.085c.351 1.01 0 2.468-1.288 2.583l-3.98-1.015c-3.978-3.702-8.885-7.634-7.952-13.363.12-2.135 1.055-3.926 1.52-5.949-.23-5.612.824-11.679-4.675-15.043-3.395-2.135-7.022-3.932-11.113-4.048-.584-.219-1.053-.558-1.172-1.12 1.991-2.807 4.68-5.049 6.433-7.97.94-2.025 2.927-3.592 3.628-5.616l4.564-8.534c-.118-.792-1.757-2.249 0-2.695 2.572.335 4.908-.56 7.483-.339 1.521-.558 2.69-2.47 4.445-1.457z" clip-rule="evenodd"/><path fill="#9d8350" fill-rule="evenodd" d="M457.181 344.496h67.37c.82.785.935 2.025.464 2.921l-.934.446c-9.71-.446-19.77.34-28.894-.558l-47.016-.116c-.934-.559-.585-1.68-.116-2.354.82-1.803 3.391-.785 4.912-.563z" clip-rule="evenodd"/><path fill="#d6d5d3" fill-rule="evenodd" d="m476.71 349.437-2.347 2.804c-.81.682-1.04-.45-1.396-.896-.464-.675-1.283-1.35-.935-2.356 1.29-.785 3.043-.225 4.45 0zM502.087 350.446c-.228 1.126.583 2.923-.69 3.591-1.994-.332-3.044-2.692-4.805-3.367-.347-.336-.11-.782.118-1.01 1.643-.117 3.391-.117 5.03.116zM525.72 351.01c.114.562-.35 1.01-.815 1.01-.709.11-1.293-.448-1.403-1.01-.123-.564.23-.899.58-1.123.823-.11 1.638.447 1.638 1.122zM488.294 356.062c5.146 4.72 12.282 9.432 14.966 15.722.466 1.115.466 2.576 0 3.703.705 1.568 2.923 1.126 4.333 2.02 5.731 3.597 9.474 9.545 11.581 15.608-.112.9-1.523.9-2.226.671-13.339-.557-27.134.23-40.353-.335l-1.88-.336H452.5c-1.284-.674-.702-2.354-.35-3.368 2.802-4.829 6.086-11.343 12.4-12.69.813.113 1.632-.33 1.632-1.229l2.447-6.967c4.564-5.727 11.474-8.873 15.802-14.935 1.76-3.48 2.686 1.238 3.864 2.136zM457.883 355.164c.353.898-.477 1.684-1.289 1.461-.582 0-1.286-.563-1.407-1.124 0-.676.47-1.35 1.174-1.464.582 0 1.405.453 1.522 1.127zM525.371 360.106c-.12 2.917-3.509 3.146-5.49 3.925l-3.285-1.008c-2.335.446-4.56 2.023-5.024 4.378l-.582-.225c-1.177-2.13-1.875-4.6-3.75-6.396l.115-.336c1.991 0 4.337.781 6.318-.117 2.578.785 5.146 2.133 8.19 1.35 1.64-.34 1.516-2.699 3.27-2.582zM450.276 360.664l1.642.785h4.677c1.29-.668 3.511-1.004 3.511-2.91 1.517-1.022 1.983 1.45 3.276 1.906 0 1.567-1.293 3.024-2.223 4.374-1.522.45-1.872-1.567-3.275-1.903l-1.638-.563c-1.518.446-3.042 2.694-4.797 1.117-1.642-.67-3.275-1.903-4.1-3.48-.11-.675 0-1.567.708-1.792 1.163.448 1.05 1.908 2.22 2.466z" clip-rule="evenodd"/><path fill="#9d8350" fill-rule="evenodd" d="M529.468 317.882c.23.898-.469 1.578-1.177 1.688-.93.107-1.638-.452-1.874-1.237-.228-.669.357-1.344.944-1.46.931-.108 1.866.116 2.107 1.01zM446.651 318.11c.47.56.232 1.46-.118 2.018-1.172 1.346-2.34-.335-3.627-.11-.934 0-2.57.781-2.807-.675.116-1.233 1.404-1.907 2.456-2.132 1.405-.117 3.275-.446 4.096.9zM529.813 323.163c-.586 23.358-.114 47.16 0 70.288-.345.674-1.283.674-1.864.335-1.058-1.232.226-2.578-.244-3.928-.23-7.072.122-14.597-.114-21.782l.114-17.406c-.813-9.314.244-18.298.35-27.623.12-1.012 1.996-1.123 1.758.116zM445.362 324.173l-.119 51.536c-.464 5.395-.228 11.567-.228 17.18-.585.68-1.76.563-2.459.341-1.404-2.132 0-4.603-.236-6.963l.236-55.134.12-7.523c.578-1.233 2.567-.563 2.686.563zM464.895 348.988c.116.9.348 1.91 1.4 2.584.121.67-.346 1.351-1.053 1.572-1.86-.563-2.912-2.246-4.318-3.602.235-1.568 2.808-.892 3.971-.554zM483.261 350.334l-1.286 2.922c-4.792 4.262-9.24 9.097-14.277 12.577-2.1 2.465-2.803 5.5-3.497 8.527-.94.901-2.34.567-3.277 1.24-3.518 2.132-7.025 5.273-8.309 8.98-1.279 2.585-2.923 5.166-3.155 8.195-.354.453-1.055.568-1.52.34-1.058-1.016-.47-2.693-.239-3.82-.115-2.02 1.173-3.476 1.518-5.385 1.641-2.36 3.517-4.72 5.04-7.186 2.452-1.126 4.093-3.37 6.666-4.16 1.406-1.233 1.164-3.14 1.521-4.825.47-4.378 5.492-7.076 8.761-9.543 2.695-3.145 6.554-5.51 8.312-8.988 1.167-1.005 3.39-.333 3.742 1.126zM491.684 349.437c3.038 3.368 7.013 5.727 10.175 8.867 3.63 4.048 6.788 8.2 8.418 12.916 3.284 1.68 6.443 4.267 8.542 7.3 3.63 2.466 4.793 6.285 6.784 9.544.587 1.126-.47 1.911-.698 2.81.346 1.227.346 3.141-1.293 3.476-1.863.675-1.75-1.684-2.568-2.47-.695-2.467-1.052-5.053-2.688-7.184-1.994-4.269-6.553-7.303-10.414-9.883-2.452-1.233-1.759-4.156-3.159-5.952-3.159-5.164-8.882-8.979-13.44-13.027-2.229-1.684-3.165-4.043-4.1-6.29 1.166-.894 3.041-.335 4.441-.107zM513.561 350.216c0 1.691-1.99 2.25-3.042 3.152-.354.107-1.174 0-1.289-.682.23-1.567 2.102-2.018 3.16-3.145.581-.104 1.051.235 1.171.675z" clip-rule="evenodd"/><path fill="#9d8350" fill-rule="evenodd" d="M460.925 352.354c1.75 1.015 2.336 3.708 4.904 2.922 1.061 0 1.87-.897 2.108-1.8.35-1.122-.703-2.918.82-3.48 1.4 0 2.097 1.46 2.571 2.47.465 1.913-1.759 2.698-2.34 4.16l-3.978 1.68c-2.452-.894-4.207-2.694-5.724-4.829-1.403-.789-2.925-2.356-4.559-1.122-1.525.227-2.578 1.683-2.344 3.257.464 1.125 1.162 2.136 2.344 2.927.46.776-.587 1.004-1.182 1.004-1.866.224-3.034-1.795-4.206-2.917-.698-1.237.232-2.359.466-3.596 1.758-2.13 4.214-3.705 6.905-2.918zM522.681 353.82c.82 1.116.586 2.805-.116 3.927-1.75 1.01-.94-1.685-1.87-2.359-1.634-.897-4.217-1.683-5.854-.335-.699 2.02-2.922 2.465-4.563 3.252-2.214 0-4.322-.675-5.723-2.132-.126-.672-.47-1.907.586-2.136 1.042 0 1.042 1.127 1.864 1.574 1.988.896 4.096-.11 5.967-.675 1.99-3.253 7.723-5.499 9.71-1.117z" clip-rule="evenodd"/><path fill="#9d8350" fill-rule="evenodd" d="M518.93 357.412c0 .56-.464 1.234-1.162 1.234-.582 0-1.29-.225-1.518-.899-.125-.676.47-1.122 1.058-1.239.698-.222 1.4.228 1.622.904zM523.732 365.833c0 1.796 0 3.704-1.634 4.824-1.75.563-3.279 2.135-5.378 1.127-1.409-.899-2.693-2.358-1.995-4.044-.228-1.236 1.172-1.8 2.111-2.246.813-.225 1.52.446 1.75 1.121.232.903-.58 2.023.344 2.582 2.818.111 2.23-3.146 3.865-4.378.583-.113 1.052.45.937 1.014zM453.546 368.638c.595-1.01.354-2.698 1.997-2.923 1.4-.11 2.81.563 3.16 1.803.114 1.228-.35 2.692-1.64 3.255l-3.275 1.233c-3.042-.223-4.095-3.146-4.568-5.503 0-.788 1.057-1.123 1.641-.788.82 1.011.587 3.71 2.685 2.923z" clip-rule="evenodd"/><path fill="#d6d5d3" fill-rule="evenodd" d="m376.7 373.238 2.104 4.494c-.464 2.808-1.865 5.278-2.57 7.971-2.106 1.686-3.742 3.822-2.806 6.626.817 2.471 2.806 4.38 3.861 6.736 2.334 3.26 3.861 6.961 4.212 10.888.698 1.802.814 3.826 2.104 5.395.23.79-.47 1.015-1.055 1.015-4.678-.453-9.826-.114-14.389-.339-2.338-1.012.236-3.036-.813-4.715.58-5.958-.47-12.243.12-18.42-.59-7.407.11-15.833-.24-23.128l.467-.335c3.042 1.121 6.902.667 9.005 3.812zM406.18 371.332c2.691.675 6.197.224 7.72 3.37.702 2.13 1.4 5.726-.702 7.523l.232.785c3.86 1.686 6.67 5.393 9.943 8.087l5.968 4.378c1.521.34 3.976-.676 4.56 1.461l-.117 7.746c-1.757 1.121-3.975.34-5.966.446-1.168-.556-2.338.45-3.623 0-1.054-.222-2.228 0-2.576 1.015-.234 1.456.47 2.471.698 3.702-.933 1.798 0 3.71-.462 5.617-1.406 2.02-4.797 1.122-7.024.675-1.283.11-2.802.781-3.97.11-1.639-1.907-2.223-5.28-5.267-5.503-2.459 0-4.674-1.238-7.25-1.122-1.289-.227-2.572-1.118-2.929-2.358-1.045-1.914-.23-4.268-1.045-6.175-.474-3.256-1.64-6.514-.939-9.992 2.808-4.378 7.718-7.975 7.956-13.475 1.402-1.914.345-3.819.111-5.839-.23-.786.234-1.69 1.057-1.69 1.513-.22 2.571.564 3.624 1.24zM449.806 373.13c.823.895 3.042.45 2.81 2.132-1.637 1.908-3.043 4.156-4.559 6.063-.936-.114-.708-1.238-.708-1.907.467-2.47.122-5.504.24-7.969 1.174-1.02 1.518 1.115 2.217 1.68zM525.133 373.238l-.118 6.738c-.235.676-.934.225-1.283 0l-4.085-4.268.232-1.008c1.635-.563 2.916-2.357 4.782-2.357zM444.78 404.348c.112.334-.35.673-.7.673-.355 0-.708-.339-.708-.673.001-.897 1.521-1.009 1.407 0z" clip-rule="evenodd"/><path fill="#9d8350" fill-rule="evenodd" d="M443.254 396.032c2.227-.446 4.561.458 6.793-.217 1.87.333 3.498-.229 5.378-.34l10.523.225c1.165.115 2.924-.788 3.51.561-1.057 1.456-2.345 3.03-2.458 4.941-1.404.446-2.34-1.236-3.042-2.018-3.266 0-5.142-4.385-8.77-2.59l-2.689.454c-2.34 1.12-1.639 3.593-3.28 4.824-1.632-.559-1.404-2.583-2.803-3.48-1.753-.559-3.392-2.132-5.38-1.573-1.519-.559-3.04.451-4.328 1.35-.586.111-1.052-.452-1.052-1.008 0-.788.353-1.91 1.404-2.024 2.337-.225 3.977 1.8 6.194.895zM485.017 396.373c-1.172 1.234-1.285 3.48-3.042 4.044-1.289-1.573-2.923-3.256-4.792-4.044 2.101-.897 4.792.222 6.898-.673.35 0 .936.222.936.673zM512.622 396.032c.82.116 2.34-.446 2.69.563-.699 1.461-2.459 2.137-3.62 2.92-.592.902-.242 2.246-1.415 2.588-1.4-.229-1.163-1.915-2.214-2.588-1.522-2.354-4.454-1.68-6.668-2.578-2.577.897-5.272 1.566-7.374 3.48h-.582c0-1.573-1.167-2.7-1.402-4.044 2.108-.558 4.79-.112 7.131-.45zM478.7 400.078c.231.563-.113 1.35-.939 1.236-1.636-.34-2.924-2.13-4.794-1.349-.706.561-.706 1.461-.232 2.137.46.446.931 1.12.588 1.795-1.29.562-2.579-.112-3.397-.9-1.168-1.01-.825-2.81 0-3.813.586-1.243 1.87-1.802 3.042-2.248 2.107.56 4.564 1.005 5.732 3.142z" clip-rule="evenodd"/><path fill="#9d8350" fill-rule="evenodd" d="M445.948 401.202c.12.56-.119 1.01-.705 1.232-1.4-.447-1.87-2.58-3.623-2.693-.934 0-1.753.446-1.984 1.232-.239 1.13 1.984 2.812-.118 3.146-.932.112-1.407-.898-1.52-1.57-.823-1.576.231-3.035 1.165-4.157.937-.559 1.874-2.02 3.043-.897 1.406.785 2.926 2.246 3.742 3.707zM490.513 399.632c.235 1.01-.577 1.795-1.4 1.907-1.289.11-2.457 0-3.159-.897-.466-.676-.35-1.576.114-2.139 1.29-1.454 3.984-.562 4.445 1.13zM522.565 399.514c.591 1.127 1.753 2.473.813 3.824-.354.56-1.047 1.01-1.63.56-1.054-1.01.583-3.48-1.757-3.48-2.114-1.233-4.328.108-5.62 1.685-.23.446-.699.673-1.28.673-.702-.902.47-1.802 1.05-2.47 2.337-1.686 6.432-4.158 8.424-.792zM466.76 404.12c.241.453-.223.901-.699.901-3.972-.9-5.136-7.08-9.699-5.28-.819.785-1.755 1.907-.819 2.917.115.563.343 1.24 0 1.69-.59.56-1.402.11-1.866-.45-1.293-.784-1.406-2.472-.829-3.71.83-.898 1.76-2.02 2.927-2.247 4.797-.559 7.718 3.82 10.984 6.18zM506.071 400.751c1.167 1.01 1.636 2.7.581 3.822-1.87 1.678-5.146 1.907-7.37 1.006-.703-.333-1.173-1.006-.82-1.682 1.29-1.239 2.114.785 3.397.897 1.4-.112 2.807-.785 3.506-2.137 0-1.456-1.867-1.456-2.919-2.017-3.164.227-5.736 2.017-8.077 4.153-.58.227-1.278.556-1.865.227-.467-.227-.353-.9-.112-1.124 2.447-1.573 4.787-3.37 7.36-4.49 2.225.226 4.914-.675 6.32 1.345z" clip-rule="evenodd"/><path fill="#9d8350" fill-rule="evenodd" d="M461.861 404.46c.228.891-.702 1.232-1.289 1.232-2.336.451-1.406-2.24-2.807-3.034 0-.446.23-1.01.816-1.119 1.525.221 2.344 1.912 3.28 2.92zM519.173 402.658c-.587 1.015-.818 2.811-2.337 2.921-.823.113-2.11.113-2.339-.672.464-1.234 1.863-2.473 3.152-2.92.588-.114 1.281.115 1.524.671zM480.337 404.46c.35.113.464.562.122.786-.819.446-2.225.676-3.167.104-.583-.892-2.1-1.678-1.747-2.916.58-.447 1.4-.11 1.987.114.93.566 1.4 2.025 2.805 1.911zM436.825 407.6c0 1.125-1.168 1.684-2.223 1.906-1.055 0-2.106-.446-2.575-1.46 0-.447.354-.897.822-1.003 1.408 1.003 3.042-1.017 3.976.556zM453.086 407.6c.813 1.014-.815 1.35-1.289 1.796-1.168.674-.698 3.591-2.69 2.471-.935-1.35-2.104-2.36-3.04-3.705 1.17-2.019 3.504-.224 5.496-.897zM500.338 407.6c.466.223.466.784.237 1.125l-4.806 2.918c-1.4-.112-.698-1.69-1.749-2.247-.46-.563-1.984-1.012-1.169-1.797 1.75-.674 3.63.112 5.5 0zM467.816 407.823c.354 1.011-.814 1.684-.582 2.81-.233 1.011.82 2.354-.344 2.698-1.06-.115-1.182-1.354-1.995-1.8-.936-1.686-3.15-2.024-4.202-3.369.814-1.572 2.921-.224 4.202-.563.934-.11 2.22-.335 2.921.224zM486.534 408.384c-.693 1.122-.228 3.817-2.103 3.482-1.75-.675-3.393-2.132-4.57-3.482.356-1.904 2.932-.339 4.221-.785.82-.226 2.224-.335 2.452.785zM514.84 408.162c1.41.223 2.928-.897 3.867 0v.452c-2.694.67-4.21 4.043-6.905 4.373-.702-1.344-.47-3.034-1.525-4.262.823-1.68 3.047-.902 4.563-.563zM533.086 407.938c.355 1.346-1.75 1.685-2.336 2.92-.587 1.235-1.28 2.805-2.8 3.144-.477.112-1.175-.223-.946-.898.701-1.795-.936-3.15-1.4-4.719l.587-.446c2.34.335 4.795 0 6.895 0z" clip-rule="evenodd"/><path fill="#9d8350" fill-rule="evenodd" d="M484.082 413.78c2.107.896 4.212 2.357 6.904 1.567l6.311-2.017c2.455-2.139 4.908-4.27 8.31-4.38 1.288.222 2.457 1.348 2.687 2.58.354 1.8-.469 3.256-1.986 4.044-.818.224-2.11.334-2.46-.45.117-1.346 2.693-1.794 1.758-3.48-3.28-1.346-5.149 2.357-7.839 3.48-2.806.898-5.96 1.237-8.77 2.247l-6.088-2.248-5.148-3.815c-2.1.67-4.674-2.358-5.729.785-.466 1.461 2.106 2.918 0 3.593-1.52.112-1.875-1.46-2.107-2.47 0-1.686-.354-3.82 1.521-4.603 2.22-.568 4.216-.109 6.087.56 1.864 1.794 4.088 3.59 6.55 4.606zM445.362 410.745c.12 2.358 3.98 2.018 3.401 4.495-2.934.897-3.63-4.048-6.443-3.485-1.397.447-1.397 2.806-3.157 1.908-.934-.786-2.218-1.908-1.4-3.146 1.634-2.47 5.963-2.012 7.6.228z" clip-rule="evenodd"/><path fill="#9d8350" fill-rule="evenodd" d="M492.503 410.967c.35 1.126-.698 2.136-1.638 2.471-1.168.116-2.457-.335-2.922-1.345 0-1.126.577-2.358 1.754-2.697 1.29-.336 2.575.45 2.806 1.571zM436.01 413.663c0 .34-.12.792-.585.897-1.988-.559-3.043-3.928-5.505-2.693-1.515.563-.579 2.247-1.749 2.92-1.168-.227-2.69-.785-3.04-2.024-.24-1.57 1.401-2.58 2.455-3.14 3.504-.673 6.198 1.57 8.423 4.04zM466.648 415.575c.354.224.354.787.111 1.01-1.396 1.238-2.68-.562-3.964-.898-2.223-1.126-3.75-4.606-6.667-3.484-1.869.785 1.168 3.484-1.52 3.146-.93-1.122-1.76-2.47-1.405-3.927.817-1.35 2.224-1.35 3.392-1.914 4.21.227 6.555 4.717 10.053 6.067zM525.015 412.316c.235 1.015-.235 2.14-1.168 2.36-.822.225-1.166-.675-.933-1.238 0-.45 0-1.236-.699-1.345-3.508.223-5.268 4.603-8.892 4.38-.47-.226-.935-.898-.47-1.35l2.81-1.569c1.867-2.023 3.983-3.038 6.314-3.602 1.525-.217 2.574 1.24 3.038 2.364zM480.46 416.023c.227.785-.599 1.12-1.176 1.12-1.752.23-1.403-1.68-2.223-2.467-.58-.563-1.87-.116-2.11-1.122 0-1.01 1.53-1.01 2.11-.45 1.526.334 2.578 1.797 3.398 2.92z" clip-rule="evenodd"/><path fill="#9d8350" fill-rule="evenodd" d="M434.486 415.8c-.119.896-1.17.896-1.873.785-.703 0-1.636-.447-1.752-1.237 0-.67.348-1.463 1.166-1.463 1.052.117 1.64 1.24 2.46 1.914zM445.6 416.023c0 .562-.356.896-.936.896-.584-.11-1.29-.557-1.639-1.232-.118-.446.12-.899.468-1.01 1.052-.222 1.64.67 2.107 1.346zM520.457 415.8c0 .562-.465 1.12-1.162 1.12-.587.115-1.058-.335-.828-1.01.241-.786 1.762-1.234 1.99-.11zM534.605 416.023c.242.673-.459 1.012-.93 1.12-.59-.108-1.167-.335-1.167-1.006.231-1.013 1.867-.897 2.097-.114z" clip-rule="evenodd"/><path fill="#212121" fill-rule="evenodd" d="M442.907 424.671c2.336.897 5.266.11 7.84.335 1.637.9.817 3.593 3.041 4.044 1.987-.335 3.507.563 5.378.45 6.784.898 13.684 1.908 19.534 5.05 1.161 1.794 6.662-.112 4.562 3.372-1.752 2.354-4.33 2.576-6.553 3.704-.346.335-.467.896-.113 1.237 1.053 1.12 3.266.111 3.863 1.907.228.67-.355 1.461-1.062 1.461l-3.387-.227c-4.327.897-8.422 2.58-12.98 2.917-1.756 1.236-4.213.34-6.199.896-1.879.677-4.56 1.128-6.44.57-1.628 1.567-1.516 4.037-3.387 5.386-4.329 0-8.072-.563-12.402-.673-1.753-.342-4.563 1.231-5.26-1.017.118-1.232 2.105-2.015 1.052-3.139-1.41-1.016-3.042 0-4.567-.34-1.749-.448-3.62-1.013-5.49-.788l-3.279-.78-3.748 3.925c-1.515.336-2.57-1.23-4.089-1.345-1.994-.445-5.034 1.234-5.966-1.46-.35-.897 1.4-1.795-.238-2.24l-6.548.333c-2.338 1.461-5.147 1.567-7.486 2.695-1.638 1.23-3.038 3.48-5.263 3.365-.934-1.684-.234-4.153 0-6.06.7-1.908 1.527-3.933 3.274-5.389-1.519-3.15-3.508-5.956-3.977-9.548-.583-.78-.702-1.907-.117-2.806 2.223-2.136 3.506 1.461 5.38 2.024 2.104.444 3.514 2.244 5.614 2.461 3.043-.217 6.316.676 9.01-.33.818 0 1.871.33 2.453-.228.351-.789-.813-1.006-.703-1.684l.471-1.685c3.511-2.354 7.837-2.81 11.345-5.164 2.925.896 1.754 4.604 4.213 5.95 3.277-1.569 7.602-.335 11.112-1.687 2.336-1.909-2.923-2.354-.935-4.717 3.397-1.9 8.072-.55 12.047-.775z" clip-rule="evenodd"/><path fill="#ededed" fill-rule="evenodd" d="M449.461 431.296h1.518c1.87.56 4.448-.227 6.085.897l-.12.785c-2.803 3.483-7.372 7.297-4.794 11.792.698.897 1.75 1.797 1.286 2.922-1.4 1.117-3.509.225-5.147.446l-2.34.671c-5.375-.334-11.346.451-16.377-.787-5.376-.105-10.175-1.569-15.324-2.018-2.453-.447-5.263.11-7.484-.788-3.629.451-7.019-.897-10.526.223-3.276.341-6.084 2.023-9.01 3.146-.819.117-.819-.893-.582-1.344.934-1.907 3.157-2.588 4.216-4.267-1.059-2.924-4.335-5.053-4.454-8.196.818-.787 1.761-.114 2.346.446 1.87 1.346 3.857 2.47 6.316 2.58 2.453-.225 4.793.563 7.484.117 2.691.222 4.448-1.803 6.786-2.476l5.61-.112 8.191-1.79c3.51.33 6.43-1.01 9.708-1.46l5.262-.34c1.636-.899 3.861.45 5.381-.787 1.751.452 4.095.788 5.97.34z" clip-rule="evenodd"/><path fill="#ededed" fill-rule="evenodd" d="M461.861 433.315c-1.289 2.02-3.279 3.816-4.565 5.73-.584 2.804.111 5.274 1.522 7.522-.115.557-.707 1.008-1.41.896l-.813-.339c-.937-2.24-3.159-4.378-2.109-7.3 1.172-2.692 4.801-4.378 4.452-7.63.926-.562 2.806-.11 2.923 1.121zM520.457 432.534c1.405 2.912 4.677 5.271 3.978 8.976-1.167 2.363-2.103 5.168-4.442 6.741-.586.112-1.062-.229-1.173-.676 1.173-3.256 6.086-6.624 2.456-10.217-.46-1.572-3.507-2.363-2.567-4.38.464-.444 1.05-.895 1.748-.444z" clip-rule="evenodd"/><path fill="#ededed" fill-rule="evenodd" d="M478.001 436.795c.461.452.461 1.127-.12 1.461-2.578 1.686-5.849 2.02-8.78 3.03-.698.34-.698 1.235-.344 1.801.47.45 1.754 1.232.581 1.796-2.103 1.122-4.788.897-7.133 1.461-1.4-1.69-3.266-3.708-2.568-6.18 1.057-2.584 4.323-4.045 4.565-6.96l.348-.335c4.676.897 9.003 2.465 13.451 3.926zM518.121 437.02c1.053.901 2.336 1.912 2.228 3.255-.59 2.588-2.47 4.83-3.4 7.188l-.935.23-6.2-1.016c-.583-.11-.82-.785-.583-1.344 1.638-.788 4.211-.344 4.797-2.47-.119-1.913-2.456-.789-3.508-1.462l-5.154-2.024c-.583-2.02 2.46-1.456 3.512-2.358 1.875-1.573 4.447-1.463 6.435-2.916 1.995-.112 1.407 2.128 2.808 2.916z" clip-rule="evenodd"/><path fill="#212121" fill-rule="evenodd" d="M470.277 436.795c.116 1.01-.939 1.573-1.647 2.02-1.162.341-1.515-.893-1.628-1.683-.242-.788.466-1.346 1.168-1.575.93 0 1.875.341 2.107 1.238zM535.313 439.824c.236.79-.349 1.35-1.053 1.578-1.52-.904-4.209.673-5.033-1.352-.228-2.023 2.335-2.47 3.281-3.932 1.991.113 1.638 2.584 2.805 3.706zM514.962 437.922c-.12.893-.935 1.902-1.99 2.13-.582 0-1.4-.449-1.52-1.119-.238-1.128.817-1.8 1.641-2.138.815-.225 1.87.112 1.87 1.127zM441.973 440.84c.12 1.121-.936 1.796-1.757 2.135-1.284.447-2.923 0-3.04-1.349.703-1.234.587-3.258 2.107-3.704 1.988-.342 2.221 1.79 2.69 2.917zM447.348 438.143c-.11 1.568 2.7 2.471 1.172 4.156-1.282.222-2.69.897-3.857.787-.82-.34-.938-1.46-.584-2.248 1.283-.788 1.164-3.59 3.27-2.695zM435.425 441.51c0 .564-.12 1.353-.938 1.353-1.407-.563-3.746.334-4.329-1.46 0-1.462.704-2.81 1.985-3.48 1.99.104 2.343 2.352 3.282 3.586zM427.352 439.941c.234.785.353 1.568-.117 2.241-.934 1.015-2.69.453-3.862.34-.818-.447-.697-1.908-.232-2.58 1.054-.898 3.741-2.584 4.211 0z" clip-rule="evenodd"/><path fill-rule="evenodd" d="M420.917 441.51c0 .79-.7 1.576-1.52 1.687-1.058.225-2.808.446-2.926-1.015 0-1.344 1.291-2.24 2.105-3.139 1.641-.229 1.873 1.455 2.341 2.466zM414.366 441.626c.116 1.01-.819 1.796-1.638 2.018-.934.117-1.753-.222-1.989-1.122.235-1.012.121-2.358 1.172-2.919 1.287-.225 2.103 1.236 2.455 2.023z" clip-rule="evenodd"/><path fill="#212121" fill-rule="evenodd" d="M408.401 440.726c0 .9-.238 2.02-1.289 2.02-.817 0-1.634-.334-1.868-1.01-.119-.897.464-1.686 1.283-2.024.823-.11 1.637.23 1.874 1.014zM403.255 441.402c0 .673-.586 1.461-1.524 1.461-.464 0-.932-.342-.932-.788 0-.673.121-1.349.932-1.577a1.177 1.177 0 0 1 1.524.904z" clip-rule="evenodd"/><path fill="#d42e12" fill-rule="evenodd" d="M447.293 340.82s15.783-19.397 32.113-19.137c16.33.271 18.542 4.783 21.035 6.644 2.492 1.863 6.645 1.597 5.82-1.86-.833-3.452 5.807 1.86 9.963 8.77 4.154 6.914-2.495 7.444-5.812 6.914-3.327-.535-56.48-.8-56.48-.8s-8.026-1.06-6.639-.53zM459.534 214.936l1.168-.456c1.34-.525.884-4.22-.734-6.466l-.67.483c-1.919 1.56-1.32 4.043.236 6.44zM483.28 213.57l1.932-.057c1.303-.033 2.555-5.047-.69-6.81l-.36.715c-.853.735-1.498 3.704-.883 6.151zM509.33 215.96l-2.119-.037c-1.423-.023-2.006-5.23.681-7.62l.474 1.218c2.084 2.126 1.631 3.763.963 6.44z" clip-rule="evenodd"/></svg>