<?xml version="1.0" encoding="UTF-8" standalone="no"?>
<svg
   height="600"
   width="1200"
   version="1.1"
   id="svg8602"
   xmlns="http://www.w3.org/2000/svg"
   xmlns:svg="http://www.w3.org/2000/svg"
   xmlns:rdf="http://www.w3.org/1999/02/22-rdf-syntax-ns#"
   xmlns:cc="http://creativecommons.org/ns#"
   xmlns:dc="http://purl.org/dc/elements/1.1/">
  <metadata
     id="metadata8608">
    <rdf:RDF>
      <cc:Work
         rdf:about="">
        <dc:format>image/svg+xml</dc:format>
        <dc:type
           rdf:resource="http://purl.org/dc/dcmitype/StillImage" />
      </cc:Work>
    </rdf:RDF>
  </metadata>
  <defs
     id="defs8606" />
  <path
     fill="#cd0000"
     d="M 1.1235807,0 H 1201.1235 V 600 H 1.1235807 Z"
     id="path8592" />
  <path
     fill="#0091fa"
     fill-rule="evenodd"
     d="M0 0h150v600H0z"
     id="path8600"
     style="fill:#0092fa;fill-opacity:1" />
  <path
     id="path11728"
     d="m 265.00046,37.5 -8.41933,25.911891 H 229.33596 L 251.37773,79.426121 242.9584,105.338 265.00046,89.323461 287.04253,105.338 278.6232,79.426121 300.66496,63.411891 H 273.4198 Z m 0,13.49999 5.38828,16.583471 h 17.43718 l -14.107,10.2495 5.38827,16.58347 -14.10673,-10.24921 -14.10672,10.24921 5.38827,-16.58347 -14.10701,-10.2495 h 17.43718 z"
     style="fill:#ffd700;fill-opacity:1;stroke:none;stroke-width:0.14999977px;stroke-linecap:butt;stroke-linejoin:miter;stroke-opacity:1" />
  <g
     style="fill:#ffd700;fill-opacity:1"
     id="g2900-4"
     transform="matrix(0.98931879,0,0,0.98673811,68.82973,3.7659398)">
    <path
       id="rect4165-6"
       d="m 137.43744,171.69421 18.86296,18.9937 17.78834,-17.66589 c 27.05847,29.021 55.43807,56.99501 82.28704,86.12782 4.03444,4.06233 10.59815,4.085 14.66056,0.0506 4.06232,-4.03445 4.08499,-10.59815 0.0506,-14.66056 -28.81871,-27.1901 -57.72545,-54.60143 -86.55328,-81.89095 l 23.96499,-23.80003 -33.34026,-4.61605 z"
       style="fill:#ffd700;fill-opacity:1;stroke:none;stroke-width:0.48919073;stroke-miterlimit:4;stroke-dasharray:none;stroke-dashoffset:0;stroke-opacity:1" />
    <path
       id="path4179-3"
       d="m 198.2887,110.1955 c 15.51743,8.7394 27.29872,21.28122 34.2484,34.3924 7.04394,13.28902 10.13959,27.16218 10.20325,38.25433 0.13054,22.74374 -18.43771,41.18184 -41.18183,41.18184 -12.13597,0 -23.04607,-5.24868 -30.58302,-13.60085 l -4.16863,3.51033 c -0.70999,-0.27231 -1.46387,-0.41221 -2.22429,-0.41276 -1.82948,1.9e-4 -3.56621,0.80531 -4.74859,2.20136 -2.97368,0.38896 -5.46251,2.44529 -6.40534,5.29224 -3.13486,6.28843 -8.63524,11.21997 -15.29104,13.4776 -0.0637,0.0216 -0.11992,0.05 -0.1758,0.0783 -3.07749,1.12758 -6.16259,3.1643 -8.78919,5.80245 -5.19155,5.23656 -7.72858,11.93658 -6.30024,16.63822 -0.14098,0.40857 -0.21361,0.83759 -0.21498,1.26979 1.5e-4,2.17082 1.75991,3.93058 3.93073,3.93073 0.54341,-0.002 1.08053,-0.11639 1.57745,-0.33632 4.69369,1.05881 11.06885,-1.54582 16.05444,-6.55917 2.82624,-2.85072 4.94356,-6.22349 5.98303,-9.53062 2.31696,-6.62278 7.29699,-12.01856 13.62281,-15.05312 0.15105,-0.0725 0.27303,-0.14714 0.38218,-0.22358 2.12082,-1.01408 3.67251,-2.92895 4.225,-5.2139 9.70222,11.44481 24.25255,18.75299 40.51876,19.13577 29.83352,0.70205 52.13299,-21.25802 53.16414,-52.83642 0.51894,-15.89259 -5.62993,-36.3847 -19.6412,-53.19089 -10.70835,-12.84441 -26.40987,-23.50795 -44.18699,-28.20777 z"
       style="fill:#ffd700;fill-opacity:1;stroke:none;stroke-width:0.50003481;stroke-miterlimit:4;stroke-dasharray:none;stroke-dashoffset:0;stroke-opacity:1" />
  </g>
  <path
     id="path1"
     d="M 348.25586 307.1875 C 342.90864 307.1875 338.59375 308.9503 335.3125 312.47461 C 332.03125 315.98155 330.39062 320.91146 330.39062 327.26562 C 330.39062 333.27256 332.02322 338.01216 335.28711 341.48438 C 338.551 344.93923 342.71767 346.66602 347.78711 346.66602 C 351.88433 346.66602 355.25977 345.66037 357.91602 343.64648 C 360.58962 341.61524 362.50066 338.51627 363.64648 334.34961 L 356.17188 331.97852 C 355.52952 334.77364 354.46983 336.82292 352.99414 338.125 C 351.51845 339.42709 349.75759 340.07812 347.70898 340.07812 C 344.93122 340.07812 342.67361 339.05447 340.9375 337.00586 C 339.20139 334.95725 338.33398 331.51974 338.33398 326.69336 C 338.33398 322.14475 339.20942 318.85351 340.96289 316.82227 C 342.73372 314.79102 345.03539 313.77539 347.86523 313.77539 C 349.91384 313.77539 351.64866 314.34831 353.07227 315.49414 C 354.51323 316.63997 355.46072 318.20247 355.91211 320.18164 L 363.54102 318.35938 C 362.67297 315.30383 361.37087 312.96006 359.63477 311.32812 C 356.7181 308.56771 352.92598 307.1875 348.25586 307.1875 z M 514.96484 307.1875 C 509.61765 307.1875 505.30278 308.9503 502.02148 312.47461 C 498.74029 315.98155 497.09961 320.91146 497.09961 327.26562 C 497.09961 333.27256 498.7322 338.01216 501.99609 341.48438 C 505.25999 344.93923 509.4266 346.66602 514.49609 346.66602 C 518.59329 346.66602 521.9687 345.66037 524.625 343.64648 C 527.2986 341.61524 529.20957 338.51627 530.35547 334.34961 L 522.88086 331.97852 C 522.23846 334.77364 521.17882 336.82291 519.70312 338.125 C 518.22743 339.42708 516.46657 340.07812 514.41797 340.07812 C 511.64017 340.07812 509.38258 339.05447 507.64648 337.00586 C 505.91039 334.95725 505.04297 331.51974 505.04297 326.69336 C 505.04297 322.14475 505.91838 318.85351 507.67188 316.82227 C 509.44267 314.79102 511.74442 313.77539 514.57422 313.77539 C 516.62282 313.77539 518.35765 314.34831 519.78125 315.49414 C 521.22225 316.63997 522.16969 318.20247 522.62109 320.18164 L 530.25 318.35938 C 529.3819 315.30383 528.07985 312.96006 526.34375 311.32812 C 523.42715 308.56771 519.63504 307.1875 514.96484 307.1875 z M 680.32812 307.1875 C 674.98093 307.1875 670.66802 308.9503 667.38672 312.47461 C 664.10552 315.98155 662.46484 320.91146 662.46484 327.26562 C 662.46484 333.27256 664.09548 338.01216 667.35938 341.48438 C 670.62327 344.93923 674.78988 346.66602 679.85938 346.66602 C 683.95657 346.66602 687.33394 345.66037 689.99023 343.64648 C 692.66383 341.61524 694.57295 338.51627 695.71875 334.34961 L 688.24609 331.97852 C 687.60369 334.77364 686.54406 336.82291 685.06836 338.125 C 683.59266 339.42708 681.82985 340.07812 679.78125 340.07812 C 677.00345 340.07812 674.74782 339.05447 673.01172 337.00586 C 671.27562 334.95725 670.40625 331.51974 670.40625 326.69336 C 670.40625 322.14475 671.28361 318.85351 673.03711 316.82227 C 674.80791 314.79102 677.1076 313.77539 679.9375 313.77539 C 681.9861 313.77539 683.72289 314.34831 685.14648 315.49414 C 686.58748 316.63997 687.53298 318.20247 687.98438 320.18164 L 695.61523 318.35938 C 694.74714 315.30383 693.44508 312.96006 691.70898 311.32812 C 688.79239 308.56771 684.99832 307.1875 680.32812 307.1875 z M 718.84375 307.1875 C 713.49656 307.1875 709.18364 308.9503 705.90234 312.47461 C 702.62115 315.98155 700.98047 320.91146 700.98047 327.26562 C 700.98047 333.27256 702.6111 338.01216 705.875 341.48438 C 709.1389 344.93923 713.30551 346.66602 718.375 346.66602 C 722.4722 346.66602 725.84956 345.66037 728.50586 343.64648 C 731.17946 341.61524 733.08858 338.51627 734.23438 334.34961 L 726.76172 331.97852 C 726.11932 334.77364 725.05968 336.82291 723.58398 338.125 C 722.10829 339.42708 720.34557 340.07812 718.29688 340.07812 C 715.51918 340.07812 713.26344 339.05447 711.52734 337.00586 C 709.79125 334.95725 708.92188 331.51974 708.92188 326.69336 C 708.92188 322.14475 709.79924 318.85351 711.55273 316.82227 C 713.32353 314.79102 715.62323 313.77539 718.45312 313.77539 C 720.50172 313.77539 722.23851 314.34831 723.66211 315.49414 C 725.10311 316.63997 726.0486 318.20247 726.5 320.18164 L 734.13086 318.35938 C 733.26276 315.30383 731.96071 312.96006 730.22461 311.32812 C 727.30801 308.56771 723.51395 307.1875 718.84375 307.1875 z M 259.92188 307.57812 C 259.34896 307.59545 258.97634 307.60352 258.80273 307.60352 C 255.24371 307.60352 252.66558 308.10829 251.06836 309.11523 C 249.45377 310.12217 247.84722 312.69033 246.25 316.82227 C 244.98264 320.06879 244.04514 322.04796 243.4375 322.75977 C 242.82986 323.47157 241.66601 323.91428 239.94727 324.08789 L 239.94727 307.83789 L 232.24023 307.83789 L 232.24023 346.01562 L 239.94727 346.01562 L 239.94727 329.29688 C 241.24934 329.31424 242.21289 329.55664 242.83789 330.02539 C 243.48025 330.49414 244.29752 331.66603 245.28711 333.54102 C 245.84266 334.60004 246.16319 335.199 246.25 335.33789 C 246.47569 335.7372 246.62391 336.00759 246.69336 336.14648 L 251.25 346.01562 L 260.3125 346.01562 L 255.10352 335.54688 C 253.76671 332.85591 252.53472 330.77257 251.40625 329.29688 C 250.29514 327.82119 248.88086 326.83963 247.16211 326.35352 C 248.551 325.57227 249.51454 324.73892 250.05273 323.85352 C 250.60828 322.96811 251.11914 321.86632 251.58789 320.54688 C 252.4733 318.06424 253.14236 316.42361 253.59375 315.625 C 254.04514 314.82639 254.63607 314.23546 255.36523 313.85352 C 256.0944 313.45421 257.24827 313.25586 258.82812 313.25586 L 259.92188 313.28125 L 259.92188 307.57812 z M 398.07227 307.57812 C 397.49935 307.59545 397.12673 307.60352 396.95312 307.60352 C 393.39411 307.60352 390.81598 308.10829 389.21875 309.11523 C 387.60417 310.12217 385.99761 312.69033 384.40039 316.82227 C 383.13303 320.06879 382.19553 322.04796 381.58789 322.75977 C 380.98025 323.47157 379.81836 323.91428 378.09961 324.08789 L 378.09961 307.83789 L 370.39062 307.83789 L 370.39062 346.01562 L 378.09961 346.01562 L 378.09961 329.29688 C 379.40169 329.31424 380.36523 329.55664 380.99023 330.02539 C 381.63259 330.49414 382.44791 331.66603 383.4375 333.54102 C 383.99305 334.60004 384.31358 335.199 384.40039 335.33789 C 384.62608 335.7372 384.7743 336.00759 384.84375 336.14648 L 389.40039 346.01562 L 398.46289 346.01562 L 393.25586 335.54688 C 391.91905 332.85591 390.68511 330.77257 389.55664 329.29688 C 388.44553 327.82119 387.03125 326.83963 385.3125 326.35352 C 386.70139 325.57227 387.66494 324.73892 388.20312 323.85352 C 388.75867 322.96811 389.27148 321.86632 389.74023 320.54688 C 390.62564 318.06424 391.29275 316.42361 391.74414 315.625 C 392.19553 314.82639 392.78646 314.23546 393.51562 313.85352 C 394.24479 313.45421 395.39866 313.25586 396.97852 313.25586 L 398.07227 313.28125 L 398.07227 307.57812 z M 208.09961 307.83789 C 204.28017 307.83789 201.40559 308.15039 199.47852 308.77539 C 197.56879 309.38303 196.0243 310.59094 194.84375 312.39648 C 193.68056 314.18467 193.09961 316.24197 193.09961 318.56836 C 193.09961 321.24197 193.88889 323.54167 195.46875 325.46875 C 197.04861 327.37847 199.61871 328.61046 203.17773 329.16602 C 201.52843 330.10351 200.15625 331.17123 199.0625 332.36914 C 197.96875 333.54969 196.50239 335.61697 194.66211 338.56836 L 190 346.01562 L 199.21875 346.01562 L 204.79102 337.70898 C 207.2042 334.08052 208.9069 331.90104 209.89648 331.17188 C 210.90342 330.44271 212.62219 330.07812 215.05273 330.07812 L 216.61523 330.07812 L 216.61523 346.01562 L 224.32227 346.01562 L 224.32227 307.83789 L 208.09961 307.83789 z M 262.10938 307.83789 L 276.14648 335.23438 C 275.43468 337.38715 274.6875 338.79341 273.90625 339.45312 C 273.14236 340.09548 271.86631 340.41602 270.07812 340.41602 C 269.19272 340.41602 268.20312 340.38195 267.10938 340.3125 L 267.10938 346.04102 C 268.39409 346.33615 270.17297 346.48438 272.44727 346.48438 C 274.75629 346.48438 276.64128 345.66905 278.09961 344.03711 C 279.55794 342.3878 280.99024 339.99197 282.39648 336.84961 L 295.28711 307.83789 L 287.24023 307.83789 L 279.63477 327.65625 L 270.72852 307.83789 L 262.10938 307.83789 z M 296.43164 307.83789 L 296.43164 314.29688 L 307.75977 314.29688 L 307.75977 346.01562 L 315.46875 346.01562 L 315.46875 314.29688 L 326.77148 314.29688 L 326.77148 307.83789 L 296.43164 307.83789 z M 413.80273 307.83789 L 398.93164 346.01562 L 407.10938 346.01562 L 410.25977 337.34375 L 425.52148 337.34375 L 428.85352 346.01562 L 437.24023 346.01562 L 421.95312 307.83789 L 413.80273 307.83789 z M 455.65039 307.83789 C 451.83095 307.83789 448.95833 308.15039 447.03125 308.77539 C 445.12153 309.38303 443.57704 310.59094 442.39648 312.39648 C 441.2333 314.18467 440.65039 316.24197 440.65039 318.56836 C 440.65039 321.24197 441.44163 323.54167 443.02148 325.46875 C 444.60134 327.37847 447.16949 328.61046 450.72852 329.16602 C 449.07921 330.10351 447.70898 331.17123 446.61523 332.36914 C 445.52149 333.54969 444.05317 335.61697 442.21289 338.56836 L 437.55273 346.01562 L 446.77148 346.01562 L 452.34375 337.70898 C 454.75694 334.08052 456.45768 331.90104 457.44727 331.17188 C 458.4542 330.44271 460.17297 330.07812 462.60352 330.07812 L 464.16602 330.07812 L 464.16602 346.01562 L 471.875 346.01562 L 471.875 307.83789 L 455.65039 307.83789 z M 546.63086 307.83789 L 531.76172 346.01562 L 539.9375 346.01562 L 543.08984 337.34375 L 558.34961 337.34375 L 561.68359 346.01562 L 570.06836 346.01562 L 554.78125 307.83789 L 546.63086 307.83789 z M 571.5 307.83789 L 583.32422 326.09375 L 570.27734 346.01562 L 579.52148 346.01562 L 588.01172 332.8125 L 596.47461 346.01562 L 605.77148 346.01562 L 592.72461 326.38086 L 604.59961 307.83789 L 595.66797 307.83789 L 588.16797 320.10352 L 580.51172 307.83789 L 571.5 307.83789 z M 620.71875 307.83789 L 605.84961 346.01562 L 614.02734 346.01562 L 617.17773 337.34375 L 632.4375 337.34375 L 635.77148 346.01562 L 644.15625 346.01562 L 628.87109 307.83789 L 620.71875 307.83789 z M 740.84961 307.83789 L 740.84961 346.01562 L 748.55859 346.01562 L 748.55859 331.61523 L 753.58398 331.61523 C 757.07358 331.61523 759.73783 331.43294 761.57812 331.06836 C 762.93222 330.77322 764.2605 330.17426 765.5625 329.27148 C 766.882 328.35136 767.96776 327.09136 768.81836 325.49414 C 769.66906 323.89691 770.09375 321.92773 770.09375 319.58398 C 770.09375 316.5458 769.35656 314.07183 767.88086 312.16211 C 766.40526 310.23503 764.57422 308.98503 762.38672 308.41211 C 760.96302 308.03017 757.90625 307.83789 753.21875 307.83789 L 740.84961 307.83789 z M 210.59961 314.29688 L 216.61523 314.29688 L 216.61523 323.98438 L 210.91211 323.98438 C 207.73503 323.98438 205.62565 323.88824 204.58398 323.69727 C 203.55968 323.5063 202.70833 323.02148 202.03125 322.24023 C 201.37152 321.44163 201.04102 320.37392 201.04102 319.03711 C 201.04102 317.75239 201.38954 316.71072 202.08398 315.91211 C 202.77843 315.1135 203.60178 314.64475 204.55664 314.50586 C 205.52886 314.36697 207.54406 314.29688 210.59961 314.29688 z M 458.15039 314.29688 L 464.16602 314.29688 L 464.16602 323.98438 L 458.46289 323.98438 C 455.28581 323.98438 453.17643 323.88824 452.13477 323.69727 C 451.11046 323.5063 450.26106 323.02148 449.58398 322.24023 C 448.92427 321.44163 448.59375 320.37392 448.59375 319.03711 C 448.59375 317.75239 448.94033 316.71072 449.63477 315.91211 C 450.32921 315.1135 451.15452 314.64475 452.10938 314.50586 C 453.08159 314.36697 455.09484 314.29688 458.15039 314.29688 z M 748.55859 314.29688 L 752.28125 314.29688 C 755.05905 314.29688 756.90793 314.38303 757.82812 314.55664 C 759.07812 314.78233 760.11184 315.34722 760.92773 316.25 C 761.74373 317.15278 762.15234 318.29861 762.15234 319.6875 C 762.15234 320.81597 761.85582 321.80555 761.26562 322.65625 C 760.69273 323.50694 759.89539 324.13195 758.87109 324.53125 C 757.84679 324.93056 755.81554 325.13086 752.77734 325.13086 L 748.55859 325.13086 L 748.55859 314.29688 z M 417.78711 316.74414 L 423.04688 330.91211 L 412.63086 330.91211 L 417.78711 316.74414 z M 550.61523 316.74414 L 555.875 330.91211 L 545.45898 330.91211 L 550.61523 316.74414 z M 624.70312 316.74414 L 629.96484 330.91211 L 619.54688 330.91211 L 624.70312 316.74414 z M 477.4043 326.97461 L 477.4043 333.58594 L 491.49414 333.58594 L 491.49414 326.97461 L 477.4043 326.97461 z "
     style="fill:#ffd700;fill-opacity:1" />
</svg>
