<?xml version="1.0" encoding="UTF-8" standalone="no"?>
<svg
   width="1200"
   height="600"
   fill="#ffd900"
   version="1.1"
   id="svg5"
   xmlns="http://www.w3.org/2000/svg"
   xmlns:svg="http://www.w3.org/2000/svg">
  <defs
     id="defs5" />
  <path
     d="M 0,0 V 600 H 1200 V 0"
     fill="#ce0000"
     id="path1"
     style="stroke-width:1" />
  <path
     d="M 264.66667,43.333334 272,65.333334 H 294.66667 L 276,78.666667 283.33333,100.66667 264.66667,86.666667 246,100.66667 253.33333,78.666667 234.66667,65.333334 H 257.33333 Z"
     fill="none"
     stroke="#ffd900"
     stroke-width="8"
     id="path2" />
  <path
     d="M 0,0 H 150 V 600 H 0"
     fill="#0096fa"
     id="path3"
     style="stroke-width:1" />
  <path
     d="M 266.66667,112.66667 C 290.66667,127.33333 304.66667,148.66667 308.66667,176.66667 310.66667,189.33333 308,200.66667 300,210.66667 L 251.33333,164 274.66667,140.66667 241.33333,136.66667 204,173.33333 222.66667,192 240.66667,174.66667 285.33333,221.33333 C 270,230 253.33333,224.66667 237.33333,212 L 233.33333,215.33333 C 230.66667,214.66667 228.66667,214.66667 226.66667,216.66667 224.66667,217.33333 222.66667,218 221.33333,220 219.33333,224 216.66667,227.33333 213.33333,230.66667 207.33333,235.33333 199.33333,236.66667 194,244 189.33333,250 184.66667,266 198.66667,263.33333 208.66667,261.33333 214,253.33333 218.66667,242.66667 221.33333,237.33333 227.33333,234 232.66667,230.66667 234,230 234.66667,228 235.33333,226.66667 242.66667,234 250,240 260,243.33333 274,248 287.33333,244.66667 301.33333,237.33333 L 324,260.66667 C 331.33333,267.33333 340.66667,261.33333 340.66667,254 340.66667,251.33333 339.33334,248.66667 338,246.66667 331.33333,240 324,233.33333 317.33333,226.66667 324,217.33333 328,207.33333 328.66667,196 329.33333,179.33333 324.66667,164 316,150 307.33333,136.66667 287.33333,116.66667 266.66667,112.66667 Z"
     id="path4"
     style="stroke-width:1" />
  <g
     id="text5"
     style="font-weight:bold;font-size:76px;font-family:Arial;letter-spacing:3px;stroke-width:1.5"
     aria-label="ТУВИНСКАЯ АССРТЫВА АССР"
     transform="scale(0.66666667)">
    <path
       d="M 303.77539,540 V 494.80078 H 287.63281 V 485.59766 H 330.86523 V 494.80078 H 314.75977 V 540 Z M 335.42383,485.59766 H 347.70703 L 360.39844,513.83789 371.23437,485.59766 H 382.70117 L 364.33203,526.9375 C 362.32812,531.41537 360.28711,534.82943 358.20898,537.17969 356.13086,539.50521 353.44662,540.66797 350.15625,540.66797 346.91536,540.66797 344.37956,540.45768 342.54883,540.03711 V 531.87305 C 344.10742,531.972 345.51758,532.02148 346.7793,532.02148 349.32747,532.02148 351.14583,531.5638 352.23437,530.64844 353.34766,529.70833 354.41146,527.70443 355.42578,524.63672 Z M 391.26758,485.59766 H 413.01367 C 417.31836,485.59766 420.52213,485.78321 422.625,486.1543 424.75261,486.50065 426.64518,487.24284 428.30273,488.38086 429.98502,489.51888 431.38281,491.04036 432.49609,492.94531 433.60938,494.82552 434.16602,496.94075 434.16602,499.29102 434.16602,501.83919 433.47331,504.17708 432.08789,506.30469 430.72721,508.43229 428.87174,510.02799 426.52148,511.0918 429.83659,512.05664 432.38477,513.70182 434.16602,516.02734 435.94727,518.35286 436.83789,521.08659 436.83789,524.22852 436.83789,526.70247 436.25651,529.11458 435.09375,531.46484 433.95573,533.79036 432.38477,535.6582 430.38086,537.06836 428.40169,538.45377 425.95247,539.30729 423.0332,539.62891 421.20247,539.82682 416.78646,539.95052 409.78516,540 H 391.26758 Z M 402.25195,494.65234 V 507.23242 H 409.45117 C 413.73112,507.23242 416.39062,507.17057 417.42969,507.04687 419.3099,506.82422 420.7819,506.18099 421.8457,505.11719 422.93425,504.02864 423.47852,502.60612 423.47852,500.84961 423.47852,499.16732 423.00847,497.80664 422.06836,496.76758 421.15299,495.70377 419.77995,495.06054 417.94922,494.83789 416.86068,494.71419 413.73112,494.65234 408.56055,494.65234 Z M 402.25195,516.28711 V 530.83398 H 412.41992 C 416.37825,530.83398 418.88932,530.72265 419.95312,530.5 421.58593,530.20313 422.9095,529.48568 423.92383,528.34766 424.96289,527.1849 425.48242,525.63867 425.48242,523.70898 425.48242,522.07617 425.08659,520.69076 424.29492,519.55273 423.50325,518.41471 422.35286,517.58594 420.84375,517.06641 419.35938,516.54688 416.11849,516.28711 411.12109,516.28711 Z M 449.26367,485.59766 H 459.54297 V 521.81641 L 481.58594,485.59766 H 492.5332 V 540 H 482.25391 V 504.48633 L 460.24805,540 H 449.26367 Z M 506.77734,540 V 485.59766 H 517.76172 V 507.00977 H 539.28516 V 485.59766 H 550.26953 V 540 H 539.28516 V 516.21289 H 517.76172 V 540 Z M 599.43359,519.99805 610.08398,523.375 C 608.45117,529.3125 605.72982,533.72852 601.91992,536.62305 598.13477,539.49284 593.32292,540.92773 587.48437,540.92773 580.26042,540.92773 574.32292,538.46614 569.67187,533.54297 565.02083,528.59505 562.69531,521.84114 562.69531,513.28125 562.69531,504.22656 565.0332,497.20052 569.70898,492.20312 574.38477,487.18099 580.53255,484.66992 588.15234,484.66992 594.80729,484.66992 600.21289,486.63672 604.36914,490.57031 606.8431,492.89583 608.69857,496.23567 609.93555,500.58984 L 599.0625,503.1875 C 598.41927,500.36719 597.07097,498.14062 595.01758,496.50781 592.98893,494.875 590.51497,494.05859 587.5957,494.05859 583.56315,494.05859 580.28515,495.50586 577.76172,498.40039 575.26302,501.29492 574.01367,505.98307 574.01367,512.46484 574.01367,519.34245 575.25065,524.24089 577.72461,527.16016 580.19857,530.07943 583.41472,531.53906 587.37305,531.53906 590.29232,531.53906 592.80338,530.61133 594.90625,528.75586 597.00912,526.90039 598.51823,523.98112 599.43359,519.99805 Z M 622.69531,485.59766 H 633.67969 V 508.75391 C 636.12891,508.50651 637.78646,507.87565 638.65234,506.86133 639.51823,505.847 640.85417,503.02669 642.66016,498.40039 644.9362,492.51237 647.22461,488.85091 649.52539,487.41602 651.80143,485.98112 655.47526,485.26367 660.54687,485.26367 660.79427,485.26367 661.32617,485.2513 662.14258,485.22657 V 493.35353 L 660.58398,493.31643 C 658.33268,493.31643 656.6875,493.60093 655.64844,494.16994 654.60937,494.71421 653.76823,495.55536 653.125,496.69338 652.48177,497.8314 651.5293,500.16929 650.26758,503.70705 649.59961,505.58726 648.86979,507.15822 648.07812,508.41994 647.31119,509.68166 645.93815,510.86916 643.95898,511.98244 646.4082,512.67515 648.42448,514.07293 650.00781,516.1758 651.61588,518.27867 653.37239,521.24742 655.27734,525.08205 L 662.69922,540 H 649.78516 L 643.29102,525.93555 C 643.19206,525.73763 642.98177,525.35417 642.66016,524.78516 642.53646,524.58724 642.07878,523.73372 641.28711,522.22461 639.87695,519.55274 638.71419,517.88281 637.79883,517.21484 636.9082,516.54687 635.53516,516.20052 633.67969,516.17578 V 540 H 622.69531 Z M 720.95508,540 H 709.00586 L 704.25586,527.64258 H 682.50977 L 678.01953,540 H 666.36719 L 687.55664,485.59766 H 699.17187 Z M 700.73047,518.47656 693.23437,498.28906 685.88672,518.47656 Z M 762.32617,540 V 517.28906 H 760.09961 C 756.63607,517.28906 754.18685,517.80859 752.75195,518.84766 751.3418,519.88672 748.91732,522.99154 745.47852,528.16211 L 737.53711,540 H 724.40039 L 731.04297,529.38672 C 733.66536,525.18099 735.75586,522.23698 737.31445,520.55469 738.87304,518.84766 740.82747,517.32617 743.17773,515.99023 738.10612,515.19856 734.44466,513.44205 732.19336,510.7207 729.94206,507.97461 728.81641,504.69661 728.81641,500.88672 728.81641,497.57161 729.64518,494.63997 731.30273,492.0918 732.98502,489.51888 735.18685,487.79948 737.9082,486.93359 740.65429,486.04297 744.7487,485.59766 750.19141,485.59766 H 773.31055 V 540 Z M 762.32617,494.80078 H 753.75391 C 749.39974,494.80078 746.52995,494.89974 745.14453,495.09766 743.78386,495.29557 742.60873,495.96354 741.61914,497.10156 740.62956,498.23958 740.13477,499.72396 740.13477,501.55469 740.13477,503.45964 740.60482,504.98112 741.54492,506.11914 742.50977,507.23242 743.72201,507.92513 745.18164,508.19727 746.66601,508.4694 749.67187,508.60547 754.19922,508.60547 H 762.32617 Z M 847.40626,519.99805 858.05665,523.375 C 856.42383,529.3125 853.70248,533.72852 849.89258,536.62305 846.10742,539.49284 841.29558,540.92773 835.45704,540.92773 828.23308,540.92773 822.29558,538.46614 817.64454,533.54297 812.99349,528.59505 810.66797,521.84114 810.66797,513.28125 810.66797,504.22656 813.00586,497.20052 817.68165,492.20312 822.35743,487.18099 828.50521,484.66992 836.12501,484.66992 842.77995,484.66992 848.18555,486.63672 852.3418,490.57031 854.81576,492.89583 856.67123,496.23567 857.90821,500.58984 L 847.03516,503.1875 C 846.39193,500.36719 845.04362,498.14062 842.99024,496.50781 840.96159,494.875 838.48763,494.05859 835.56836,494.05859 831.53581,494.05859 828.25782,495.50586 825.73438,498.40039 823.23568,501.29492 821.98633,505.98307 821.98633,512.46484 821.98633,519.34245 823.22331,524.24089 825.69727,527.16016 828.17123,530.07943 831.38737,531.53906 835.34571,531.53906 838.26497,531.53906 840.77604,530.61133 842.87891,528.75586 844.98177,526.90039 846.49089,523.98112 847.40626,519.99805 Z M 905.29102,519.99805 915.94141,523.375 C 914.30859,529.3125 911.58724,533.72852 907.77735,536.62305 903.99219,539.49284 899.18034,540.92773 893.3418,540.92773 886.11784,540.92773 880.18034,538.46614 875.5293,533.54297 870.87826,528.59505 868.55274,521.84114 868.55274,513.28125 868.55274,504.22656 870.89063,497.20052 875.56641,492.20312 880.24219,487.18099 886.38997,484.66992 894.00977,484.66992 900.66471,484.66992 906.07031,486.63672 910.22657,490.57031 912.70053,492.89583 914.55599,496.23567 915.79297,500.58984 L 904.91993,503.1875 C 904.27669,500.36719 902.92839,498.14062 900.87501,496.50781 898.84636,494.875 896.3724,494.05859 893.45313,494.05859 889.42057,494.05859 886.14258,495.50586 883.61915,498.40039 881.12045,501.29492 879.8711,505.98307 879.8711,512.46484 879.8711,519.34245 881.10808,524.24089 883.58204,527.16016 886.05599,530.07943 889.27213,531.53906 893.23047,531.53906 896.14974,531.53906 898.66081,530.61133 900.76368,528.75586 902.86654,526.90039 904.37565,523.98112 905.29102,519.99805 Z M 928.36719,540 V 485.59766 H 945.99419 C 952.67385,485.59766 957.02802,485.86979 959.05669,486.41406 962.17382,487.23047 964.78382,489.01172 966.88669,491.75781 968.98955,494.47916 970.04099,498.00455 970.04099,502.33398 970.04099,505.67383 969.43489,508.48177 968.22269,510.75781 967.01042,513.03385 965.46419,514.82747 963.58399,516.13867 961.72852,517.42513 959.83595,518.27865 957.90629,518.69922 955.28389,519.21875 951.48635,519.47852 946.51369,519.47852 H 939.35157 V 540 Z M 939.35157,494.80078 V 510.23828 H 945.36329 C 949.69269,510.23828 952.58722,509.95378 954.04689,509.38477 955.50649,508.81576 956.64452,507.92513 957.46099,506.71289 958.30212,505.50065 958.72269,504.09049 958.72269,502.48242 958.72269,500.50325 958.14129,498.87044 956.97849,497.58398 955.81575,496.29753 954.34375,495.49349 952.56249,495.17187 951.25129,494.92448 948.61653,494.80078 944.65821,494.80078 Z"
       id="path5"
       style="stroke-width:1.5" />
    <path
       d="M 303.77539,617 V 571.80078 H 287.63281 V 562.59766 H 330.86523 V 571.80078 H 314.75977 V 617 Z M 341.25,562.59766 H 352.23437 V 584.34375 H 366.92969 C 370.78906,584.34375 374.10417,584.87565 376.875,585.93945 379.67057,586.97852 381.99609,588.85873 383.85156,591.58008 385.70703,594.27669 386.63477,597.38151 386.63477,600.89453 386.63477,604.58073 385.66992,607.75977 383.74023,610.43164 381.81054,613.07877 379.6582,614.83528 377.2832,615.70117 374.93294,616.56706 371.48177,617 366.92969,617 H 341.25 Z M 352.23437,607.87109 H 362.95898 C 366.37305,607.87109 368.74805,607.71028 370.08398,607.38867 371.44466,607.04232 372.64453,606.27539 373.68359,605.08789 374.7474,603.90039 375.2793,602.45312 375.2793,600.74609 375.2793,598.32161 374.41341,596.50325 372.68164,595.29102 370.97461,594.07878 367.88216,593.47266 363.4043,593.47266 H 352.23437 Z M 392.98047,562.59766 H 403.96484 V 617 H 392.98047 Z M 418.39453,562.59766 H 440.14062 C 444.44531,562.59766 447.64909,562.78321 449.75195,563.1543 451.87956,563.50065 453.77214,564.24284 455.42969,565.38086 457.11198,566.51888 458.50976,568.04036 459.62305,569.94531 460.73633,571.82552 461.29297,573.94075 461.29297,576.29102 461.29297,578.83919 460.60026,581.17708 459.21484,583.30469 457.85417,585.43229 455.9987,587.02799 453.64844,588.0918 456.96354,589.05664 459.51172,590.70182 461.29297,593.02734 463.07422,595.35286 463.96484,598.08659 463.96484,601.22852 463.96484,603.70247 463.38346,606.11458 462.2207,608.46484 461.08268,610.79036 459.51172,612.6582 457.50781,614.06836 455.52864,615.45377 453.07943,616.30729 450.16016,616.62891 448.32943,616.82682 443.91341,616.95052 436.91211,617 H 418.39453 Z M 429.37891,571.65234 V 584.23242 H 436.57812 C 440.85807,584.23242 443.51758,584.17057 444.55664,584.04687 446.43685,583.82422 447.90885,583.18099 448.97266,582.11719 450.0612,581.02864 450.60547,579.60612 450.60547,577.84961 450.60547,576.16732 450.13542,574.80664 449.19531,573.76758 448.27995,572.70377 446.9069,572.06054 445.07617,571.83789 443.98763,571.71419 440.85807,571.65234 435.6875,571.65234 Z M 429.37891,593.28711 V 607.83398 H 439.54687 C 443.5052,607.83398 446.01627,607.72265 447.08008,607.5 448.71289,607.20313 450.03646,606.48568 451.05078,605.34766 452.08984,604.1849 452.60937,602.63867 452.60937,600.70898 452.60937,599.07617 452.21354,597.69076 451.42187,596.55273 450.6302,595.41471 449.47981,594.58594 447.9707,594.06641 446.48633,593.54688 443.24544,593.28711 438.24805,593.28711 Z M 521.51562,617 H 509.56641 L 504.81641,604.64258 H 483.07031 L 478.58008,617 H 466.92773 L 488.11719,562.59766 H 499.73242 Z M 501.29102,595.47656 493.79492,575.28906 486.44727,595.47656 Z M 590.3418,596.99805 600.99219,600.375 C 599.35937,606.3125 596.63802,610.72852 592.82813,613.62305 589.04297,616.49284 584.23112,617.92773 578.39258,617.92773 571.16862,617.92773 565.23112,615.46614 560.58008,610.54297 555.92904,605.59505 553.60352,598.84114 553.60352,590.28125 553.60352,581.22656 555.94141,574.20052 560.61719,569.20312 565.29297,564.18099 571.44075,561.66992 579.06055,561.66992 585.71549,561.66992 591.12109,563.63672 595.27735,567.57031 597.75131,569.89583 599.60678,573.23567 600.84376,577.58984 L 589.97071,580.1875 C 589.32747,577.36719 587.97917,575.14062 585.92579,573.50781 583.89714,571.875 581.42318,571.05859 578.50391,571.05859 574.47135,571.05859 571.19336,572.50586 568.66993,575.40039 566.17123,578.29492 564.92188,582.98307 564.92188,589.46484 564.92188,596.34245 566.15886,601.24089 568.63282,604.16016 571.10678,607.07943 574.32292,608.53906 578.28126,608.53906 581.20052,608.53906 583.71159,607.61133 585.81446,605.75586 587.91732,603.90039 589.42644,600.98112 590.3418,596.99805 Z M 648.22657,596.99805 658.87696,600.375 C 657.24414,606.3125 654.52279,610.72852 650.7129,613.62305 646.92774,616.49284 642.11589,617.92773 636.27735,617.92773 629.05339,617.92773 623.11589,615.46614 618.46485,610.54297 613.81381,605.59505 611.48829,598.84114 611.48829,590.28125 611.48829,581.22656 613.82618,574.20052 618.50196,569.20312 623.17774,564.18099 629.32552,561.66992 636.94532,561.66992 643.60026,561.66992 649.00586,563.63672 653.16211,567.57031 655.63607,569.89583 657.49154,573.23567 658.72852,577.58984 L 647.85547,580.1875 C 647.21224,577.36719 645.86393,575.14062 643.81055,573.50781 641.7819,571.875 639.30794,571.05859 636.38868,571.05859 632.35612,571.05859 629.07813,572.50586 626.55469,575.40039 624.05599,578.29492 622.80665,582.98307 622.80665,589.46484 622.80665,596.34245 624.04362,601.24089 626.51758,604.16016 628.99154,607.07943 632.20768,608.53906 636.16602,608.53906 639.08529,608.53906 641.59636,607.61133 643.69922,605.75586 645.80208,603.90039 647.3112,600.98112 648.22657,596.99805 Z M 671.30274,617 V 562.59766 H 688.92969 C 695.60937,562.59766 699.96354,562.86979 701.99219,563.41406 705.10937,564.23047 707.7194,566.01172 709.82227,568.75781 711.92513,571.47916 712.97657,575.00455 712.97657,579.33398 712.97657,582.67383 712.37045,585.48177 711.15821,587.75781 709.94597,590.03385 708.39974,591.82747 706.51954,593.13867 704.66406,594.42513 702.77148,595.27865 700.8418,595.69922 698.2194,596.21875 694.42188,596.47852 689.44922,596.47852 H 682.28711 V 617 Z M 682.28711,571.80078 V 587.23828 H 688.29883 C 692.62825,587.23828 695.52279,586.95378 696.98243,586.38477 698.44206,585.81576 699.58008,584.92513 700.39649,583.71289 701.23763,582.50065 701.65821,581.09049 701.65821,579.48242 701.65821,577.50325 701.07683,575.87044 699.91407,574.58398 698.75131,573.29753 697.2793,572.49349 695.49805,572.17187 694.18685,571.92448 691.55209,571.80078 687.59376,571.80078 Z"
       id="path6"
       style="stroke-width:1.5" />
  </g>
</svg>
