<svg xmlns="http://www.w3.org/2000/svg" xml:space="preserve" width="955.81403" height="637.16302" x="0px" y="0px" viewBox="0 0 955.81403 637.16302"><g fill-rule="evenodd" clip-rule="evenodd"><path fill="#e20613" d="M955.814 0H.001v637.162h955.813z"/><path fill="#1d1d1b" d="m315.075 286.009 1.072-1.501.948-1.561.825-1.611.701-1.66.58-1.696.451-1.733.325-1.762.197-1.783.076-1.802-.05-1.82c-1.265-13.171-9.994-17.109-26.445-16.198l-1.666-.518-2.013-.669-1.967-.698-1.925-.726-1.873-.75-1.829-.779-1.78-.807-1.739-.833-1.686-.858-1.644-.888-1.595-.913-1.552-.944-1.504-.967-1.459-.994-1.412-1.017-1.369-1.05-1.32-1.075-1.277-1.099-1.23-1.125-1.187-1.155-1.141-1.178-1.099-1.211-1.054-1.232-1.008-1.261-.964-1.284-.921-1.319-.876-1.343-.837-1.369-.789-1.394-.748-1.427-.705-1.455-.646-1.446.682-6.42.188-5.42-.203-5.325-.585-5.222-.954-5.119-1.319-5.021-1.671-4.917-2.012-4.816-2.34-4.715-2.661-4.619-2.971-4.521-3.269-4.432-3.555-4.339-3.835-4.256-4.101-4.168-4.366-4.093-4.608-4.013-4.854-3.938-5.085-3.873-5.308-3.804-5.521-3.738-5.728-3.679-5.924-3.62-6.114-3.566-6.29-3.513-6.465-3.462-6.623-3.417-6.779-3.372-6.92-3.327-7.057-3.29-7.184-3.255-6.876-3.033-.831-.841-1.215-1.147-1.122-1.079-.941-1.007-.674-.902-.37-.741-.114-.574.229-1.645.439-.112.651-.666.171-.17.181-.17.188-.168.204-.176.219-.182.235-.189.743-.58.764-1.743.497-1.216.458-1.224.406-1.236.351-1.247.276-1.263.192-1.272.092-1.286-.018-1.293-.148-1.303-.293-1.296-.45-1.282-.609-1.244-.78-1.204-.94-1.146-.107-.108.497-.214-2.181-1.441-.375-.372-.113.047-.795-.524-.258-.519-.681-1.09-.761-.994-.856-.896-.941-.785-1.026-.668-1.098-.537-1.159-.413-1.209-.277-1.254-.156-1.286-.032-1.327.077-1.357.19-1.394.293-1.43.394-1.468.487-1.893.726-1.864.765-1.851.811-1.844.86-1.832.906-1.817.945-1.804.995-1.79 1.034-1.772 1.077-1.753 1.118-1.732 1.157-1.712 1.191-1.688 1.233-1.667 1.264-1.638 1.302-1.616 1.336-1.584 1.371-1.555 1.396-1.525 1.433-1.494 1.464-1.459 1.49-1.424 1.517-1.388 1.545-1.352 1.57-1.31 1.597-1.271 1.62-1.228 1.644-1.186 1.663-1.137 1.689-1.093 1.702-1.044 1.726-1.008 1.758-.707 1.377-.609 1.354-.5 1.335-.397 1.311-.279 1.301-.165 1.277-.037 1.261.09 1.238.231 1.212.364 1.167.505 1.117.629 1.048.757.981.867.906.973.833.467.334.399.875-.062.101.291.404 1.101 2.417.3-.477.088.123.988 1.102 1.07.956 1.138.793 1.198.64 1.238.487 1.264.346 1.274.215 1.284.104 1.29.005 1.289-.083 1.283-.154 1.283-.214 1.28-.264 1.279-.307 1.831-.487.687-.637.226-.207.22-.193.203-.175.198-.16.199-.157.191-.143.753-.542.179-.414 1.66.025.55.199.677.481.787.804.852 1.083.895 1.272.948 1.375.705.949 1.949 7.259 2.117 7.596 2.175 7.476 2.232 7.348 2.301 7.214 2.36 7.066 2.437 6.917 2.51 6.753 1.958 4.976-1.816-2.09-3.234-3.343-2.73-2.561-2.792-2.415-2.86-2.271-2.921-2.129-2.973-1.984-3.028-1.848-3.073-1.708-3.114-1.572-3.147-1.428-3.181-1.297-3.205-1.159-3.229-1.027-3.243-.892-3.258-.76-3.265-.63-3.265-.501-3.262-.369-3.254-.244-3.241-.117-3.228.008-3.203.133-3.177.259-3.145.379-3.112.5-3.068.625-3.024.741-2.974.86-2.921.978-2.857 1.099-2.797 1.21-2.723 1.331-1.457.789v478.234h387.833l.808-3.88.792-4.312.671-4.218.55-4.122.441-4.04.331-3.942.23-3.852.13-3.762.039-3.673-.054-3.584-.136-3.494-.218-3.402-.292-3.312-.365-3.224-.429-3.133-.495-3.047-.548-2.956-.602-2.869-.651-2.779-.694-2.691-.729-2.602-.768-2.515-.794-2.425-.822-2.336-.839-2.253-.856-2.159-.865-2.08-.872-1.989-.874-1.903-.871-1.815-.86-1.727-.847-1.633-1.325-2.532-1.422-2.413-1.487-2.254-1.55-2.099-1.609-1.956-1.667-1.811-1.717-1.687-1.766-1.55-1.805-1.437-1.845-1.324-1.878-1.225-1.911-1.124-1.933-1.035-.959-.468 1.727-.101-8.71-2.932-1.404-.58.004.111-.652-.224.42-1.33.798-3.721.449-3.743.122-3.757-.192-3.755-.489-3.751-.768-3.73-1.029-3.715-1.269-3.685-1.495-3.655-1.708-3.619-1.905-3.572-2.079-3.531-2.248-3.472-2.398-3.417-2.53-3.354-2.647-3.287-2.756-3.213-2.845-3.134-2.921-3.046-2.984-2.957-3.032-2.862-3.063-2.757-3.083-2.643-3.084-2.538-3.077-2.407-3.05-2.289-3.015-2.152-2.961-2.012-2.895-1.868-2.818-1.721-2.028-1.158.533-2.952.464-3.005.384-2.951.298-2.892.218-2.851.133-2.786.05-2.743-.036-2.687-.117-2.631-.202-2.58-.287-2.529-.373-2.475-.458-2.423-.544-2.367-.629-2.312-.717-2.252-.802-2.207-.89-2.147-.974-2.095-1.063-2.032-1.148-1.982-1.235-1.923-1.32-1.855-1.408-1.805-1.488-1.745-1.576-1.679-1.657-1.627-1.744-1.561-1.822-1.502-1.909-1.438-1.99-1.385-2.313-1.466-3.066-.929-2.803-.781-2.825-.716-2.846-.661-2.864-.615-2.885-.557-.729-.13 1.277-.089 1.681-.229 1.665-.351 1.647-.467 1.618-.579 1.589-.698 1.552-.811 1.515-.935c5.968-4.229 4.5-4.535 8.727 2.111l1.523 2.36 1.55 2.343 1.573 2.335 1.598 2.319 1.626 2.312 1.66 2.302 1.688 2.281 1.721 2.265 1.75 2.254 1.79 2.236 1.824 2.218 1.864 2.2 1.899 2.188 1.948 2.158 1.986 2.141 2.03 2.124 2.072 2.1 2.124 2.076 2.169 2.052 2.222 2.029 2.194 1.938 5.044 5.07 4.95 5.138 4.823 5.176 4.69 5.21 4.564 5.234 4.435 5.27 4.311 5.299 4.188 5.329 4.065 5.363 3.941 5.388 3.826 5.418 3.702 5.453 3.588 5.476 3.472 5.506 3.355 5.537 3.241 5.564 3.135 5.59 3.019 5.618 2.915 5.647 2.801 5.673 2.7 5.701 2.59 5.726 2.489 5.753 2.383 5.779 2.286 5.802 2.184 5.831 2.087 5.855 1.986 5.878 1.894 5.903 1.797 5.926 1.704 5.949 1.592 5.908.404 2.135.381 2.205.345 2.207.305 2.213.271 2.199.232 2.212.196 2.201.154 2.204.122 2.207.083 2.205.046 2.201.008 2.213-.029 2.199-.068 2.206-.102 2.212-.141 2.205-.174 2.201-.219 2.211-.25 2.201-.291 2.213-.326 2.204-.364 2.206-.4 2.207-.438 2.211-.476 2.207-.513 2.205-.551 2.207-.59 2.211-.623 2.211-.662 2.213-.702 2.212-.999 2.987h157.412l-4.371-4.182-2.468-2.443-2.389-2.466-2.318-2.482-2.254-2.515-2.182-2.52-2.118-2.544-2.058-2.561-1.999-2.578-1.94-2.589-1.885-2.615-1.829-2.627-1.778-2.644-1.728-2.655-1.687-2.673-1.638-2.685-1.598-2.698-1.555-2.714-1.521-2.727-1.483-2.732-1.451-2.75-1.412-2.763-1.39-2.768-1.354-2.773-1.337-2.791-1.313-2.798-1.289-2.803-1.271-2.811-1.255-2.819-1.241-2.827-1.226-2.834-1.234-2.873-1.319-2.822-1.319-2.762-1.336-2.745-1.337-2.713-1.354-2.698-1.367-2.673-1.371-2.655-1.385-2.633-1.394-2.612-1.402-2.598-1.414-2.572-1.414-2.561-1.431-2.538-1.435-2.525-1.443-2.507-1.451-2.49-1.456-2.483-1.464-2.46-1.472-2.454-1.476-2.438-1.481-2.431-1.489-2.414-1.493-2.406-1.499-2.396-1.497-2.384-1.505-2.376-1.507-2.373-1.514-2.359-1.515-2.354-1.518-2.353-1.518-2.343-1.209-1.857-.828-7.587-1.292-8.009-1.67-7.817-2.046-7.624-2.404-7.435-2.752-7.251-3.087-7.078-3.414-6.896-3.721-6.742-4.022-6.576-4.309-6.417-4.585-6.27-4.847-6.133-5.104-5.992-5.34-5.86-5.57-5.736-5.785-5.618-5.99-5.507-6.187-5.399-6.367-5.305-6.537-5.21-6.701-5.122-6.845-5.046-6.99-4.969-7.109-4.896-7.226-4.839-7.328-4.783-7.425-4.734c-9.057-5.646-8.816-6.205-3.182-13.042zm-86.061 55.75-.066.255-2.709-.302-2.986-.285-3.003-.255-3.02-.218-3.027-.177-3.044-.148-3.051-.118-3.064-.089-3.073-.065-3.082-.035-3.09-.012-3.1.006-3.104.029-3.114.049-3.114.058-3.123.076-3.124.084-3.129.101-3.129.101-3.133.112-3.135.118-3.352.129-1.828.408-1.06-2.104-.902-1.834-.884-1.839-.869-1.834-.849-1.839-.835-1.846-.819-1.845-.803-1.845-.784-1.848-.772-1.851-.755-1.853-.743-1.854-.725-1.855-.715-1.859-.7-1.86-.682-1.851-1.422-4.081-1.333-4.154-1.253-4.234-1.185-4.307-1.126-4.369-1.074-4.427-1.034-4.473-1.006-4.522-.981-4.549-.97-4.582-.967-4.599-.976-4.614-.99-4.619-1.021-4.618-1.055-4.609-1.104-4.597-1.158-4.568-1.229-4.541-1.3-4.507-.52-1.663 1.669 2.439 3.496 4.69 3.622 4.44 3.744 4.176 3.88 3.907 4.018 3.624 4.157 3.336 4.303 3.033 4.455 2.727 4.605 2.398 4.759 2.072 4.913 1.725 5.072 1.375 5.229 1.013 5.389.645 6.442.303 1.332.861 1.33.919 1.297.957 1.257.996 1.228 1.035 1.192 1.071 1.158 1.11 1.124 1.149 1.095 1.193 1.057 1.229 1.027 1.267.988 1.309.96 1.35.926 1.389.892 1.429.859 1.468.828 1.515.795 1.55.759 1.592.727 1.635.695 1.676.659 1.716.627 1.758.589 1.801.563 1.845.522 1.882.493 1.928.455 1.967.425 2.01.386 2.048.355 2.094.256 1.726c-2.668 12.554-3.988 10.792-.332 20.16l1.676 2.495 2.312 2.23 2.989 1.979.311.126.094.041.095.034.13.061.127.047.089.042z"/><path fill="#ececec" d="M232.02 340.275c8.156 2.472 16.717.566 23.317-5.934-3.105-6.671-6.757-12.787-10.661-18.658-1.632.89-14.362 26.023-12.656 24.592z"/><path fill="#fff" d="M316.818 263.847c-6.339-16.118-25.517-5.413-35.143.445-15.284 9.305-35.617 26.341-47.135 40.021-7.334 8.707-21.043 26.285-5.351 34.925.279.119.556.232.838.345 8.824-27.265 29.943-48.638 56.057-62.884a160.931 160.931 0 0 1 16.771-7.912 169.65 169.65 0 0 1 13.963-4.94z"/><path fill="#ececec" d="M291.547 276.214c5.149 4.69 10.585 9.179 16.629 13.217 7.842-5.835 10.959-14.61 9.188-23.537a167.563 167.563 0 0 0-13.722 4.854 158.413 158.413 0 0 0-12.095 5.466z"/><path fill="#fff" d="M280.578 262.493c4.725-2.874 9.496-5.317 14.324-7.27l-1.447.082c-22.689-6.835-37.603-18.602-44.744-35.3-4.195.71-8.348 1.789-12.449 3.354-13.867 5.29-27.895 16.923-35.244 29.827-2.171 3.812-3.875 7.751-5.218 11.792 15.415 9.606 24.768 26.14 28.058 49.606l-.3 1.418c2.667-4.472 5.806-8.813 9.368-13.045 11.667-13.857 32.174-31.053 47.652-40.464z"/><path fill="#fff" d="M235.511 221.382c4.334-1.651 8.72-2.785 13.14-3.514 8.143-57.71-51.131-96.985-129.407-131.057-2.833-3.065-7.298-5.855-6.122-9.604a56.228 56.228 0 0 0-6.623 2.393c-12.822 5.517-20.313 11.534-27.745 23.399a56.367 56.367 0 0 0-3.373 6.177c3.882-.589 5.958 4.249 8.552 7.516 21.725 82.56 51.492 147.132 109.767 147.9 1.396-4.261 3.184-8.419 5.481-12.45 7.591-13.325 22.011-25.299 36.33-30.76z"/><path fill="#fff" d="M105.67 77.664c3.022-1.302 6.061-2.339 9.118-3.076a15.294 15.294 0 0 1 1.881-1.66c2.78-6.204 4.444-12.219-.954-17.032a200.52 200.52 0 0 0-17.225 8.171C82.312 72.714 75.683 77.989 64.627 92.71a201.426 201.426 0 0 0-10.703 15.776c3.933 6.069 10.13 5.341 16.685 3.541.684-.654 1.324-1.188 1.928-1.604 1.196-2.91 2.687-5.753 4.433-8.541 7.645-12.204 15.461-18.515 28.7-24.218z"/><path fill="#fff" d="M98.65 49.917c7.377-2.674 12.324-1.243 14.837 4.311l.293.195a202.192 202.192 0 0 0-16.285 7.781c-16.49 8.817-23.344 14.311-34.558 29.24a202.058 202.058 0 0 0-10.175 14.906l-.146-.319c-5.106-3.334-5.772-8.441-1.998-15.326C60.642 72.616 79.248 57.06 98.65 49.917z"/><path fill="#d9d9d9" d="M228.292 308.86c-.73-25.433-12.678-43.392-22.438-62.813-1.821 2.311-3.449 4.702-4.835 7.138-2.171 3.812-3.875 7.751-5.218 11.792 15.415 9.606 24.768 26.14 28.058 49.606l-.3 1.418a92.134 92.134 0 0 1 4.733-7.141zm-24.936-63.027c-20.992 1.043-37.709-6.475-51.965-18.903-30.73-26.782-37.6-56.241-51.631-91.766-6.003-15.199-12.006-26.958-18.008-36.616a80.877 80.877 0 0 0-2.997 4.45 56.367 56.367 0 0 0-3.373 6.177c3.882-.589 5.958 4.249 8.552 7.516 21.725 82.56 51.492 147.132 109.767 147.9 1.396-4.261 3.184-8.419 5.481-12.45a59.012 59.012 0 0 1 4.174-6.308z"/><path fill="#fff" d="M552.618 637.162c-27.854-26.101-42.315-55.914-55.285-86.278-13.805-29.725-29.71-55.226-45.923-80.13-7.32-87.437-82.727-139.321-164.775-188.189-19.208 8.403-29.111 18.308-38.716 31.513 14.499 25.764 29.869 51.101 54.024 72.031 55.228 54.629 87.643 114.954 104.449 179.183 4.738 23.958 3.013 47.917-5.181 71.87h79.746c-36.596-18.315-57.203-46.734-69.881-80.154 17.757 33.071 39.758 61.902 72.336 80.154zM274.03 296.971c69.288 37.464 136.061 75.588 159.372 125.155-31.626-50.679-97.837-86.938-159.372-125.155zm29.713 34.214c63.341 36.945 121.781 74.381 136.863 116.153-27.995-40.482-84.077-78.15-136.863-116.153Zm-41.419-27.009c52.395 70.117 132.168 98.855 185.484 163.875-59.135-57.468-147.317-91.523-185.484-163.875Zm47.265 67.929c52.464 53.114 92.608 111.151 98.707 182.813-15.034-64.286-53.969-124.097-98.707-182.813zm29.194 20.16c49.418 31.997 91.936 70.397 115.39 126.512 21.302 42.877 43.994 84.591 76.462 118.165-33.491-24.366-58.28-67.588-80.632-116.085-22.063-47.153-63.194-88.861-111.22-128.592z"/><path fill="#ffe000" d="M280.479 418.595c6.177-32.302-1.577-55.08-23.257-68.333-28.958-9.065-62.266-7.99-95.669-6.694-41.105 9.084-72.035 19.588-91.786 31.636-19.794 12.069-28.238 25.666-24.309 40.914 25.12-3.308 48.641-4.909 69.827-4.004 37.561 1.597 67.82 11.042 86.686 32.734 21.189-10.148 47.278-18.919 78.508-26.253z"/><path fill="#ffe000" d="m343.699 516.749-1.263-.427c13.513-36.822-33.61-80.238-61.438-95.68-54.649 12.828-93.405 30.057-117.59 51.313h-.003c-24.284 21.344-33.846 46.779-30.061 75.932 53.912-17.211 126.887-26.383 210.355-31.138zM.001 330.604c18.512-2.509 36.303-3.046 52.931-.355 20.066 3.241 38.419 11.173 54.247 25.958 14.379-4.928 31.065-9.528 49.955-13.816-5.003-9.846-9.227-19.801-12.876-29.814-15.889-43.611-14.556-101.979-49.22-135.939-27.885-27.322-68.203-30.391-95.037-14.974Z"/><path fill="#ffe000" d="M.001 423.492c14.852-2.79 29.34-5.204 43.346-7.096-4.059-16.159 4.732-30.441 25.319-42.997 9.553-5.825 21.675-11.297 36.251-16.412C89.611 343 71.921 335.454 52.599 332.332c-16.481-2.667-34.17-2.112-52.598.408ZM35.778 637.162c2.709-40.659 36.136-68.298 90.648-86.993 1.605-.55 3.229-1.093 4.872-1.626-4.016-30.038 5.749-56.233 30.713-78.175h-.001c10.124-8.9 22.758-17.103 37.99-24.565-18.465-20.891-48.054-30.021-84.796-31.578C81.719 412.8 42.327 417.668.001 425.646v211.517h35.777z"/><path fill="#ffe000" d="M385.382 637.162c10.322-46.824-1.366-77.861-10.169-94.616-6.744-13.65-16.269-19.872-26.587-23.987v.029c-88.93 4.862-166.201 14.619-221.511 33.587-53.606 18.381-86.497 45.397-89.22 84.987z"/><path fill="#f3a70a" d="M125.73 237.191C89.919 171.697 48.01 149.904.001 171.82v-10.157c26.834-15.417 67.152-12.348 95.037 14.974 16.425 16.091 24.77 37.668 30.692 60.554zM88.18 363.487C67.019 343.172 35.12 340.488 0 343.093v-10.354c18.428-2.521 36.117-3.075 52.598-.408 19.322 3.122 37.013 10.668 52.318 24.655-5.999 2.107-11.577 4.277-16.736 6.501zM266.981 357.762c-124.937-15.183-209.406 22.675-206.896 56.605-4.81.514-9.689 1.099-14.627 1.75-3.929-15.248 4.515-28.845 24.309-40.914 19.75-12.048 50.68-22.552 91.786-31.636 33.404-1.296 66.712-2.371 95.669 6.694 3.646 2.231 6.9 4.734 9.759 7.501zM191.161 450.38C137.47 414.627 72.097 419.384 0 447.429v-21.783c42.326-7.978 81.718-12.846 115.203-11.421 36.742 1.557 66.331 10.688 84.796 31.578a218.476 218.476 0 0 0-8.838 4.577zM366.287 529.765c-77.101-4.022-150.679 9.574-222.954 29.695-68.967 23.787-85.706 50.141-77.905 77.701H37.893c2.723-39.59 35.614-66.606 89.22-84.987 55.311-18.968 132.581-28.725 221.511-33.587v-.029c6.343 2.532 12.385 5.855 17.663 11.207zM288.352 425.095c-121.16 24.054-159.066 91.587-140.907 118.586a393.633 393.633 0 0 0-14.101 4.205c-3.785-29.152 5.777-54.588 30.061-75.932h.003c24.186-21.256 62.941-38.484 117.59-51.313a120.97 120.97 0 0 1 7.354 4.454z"/></g></svg>