<?xml version="1.0" encoding="UTF-8"?>
<svg width="1200" height="600" version="1.1" xmlns="http://www.w3.org/2000/svg" xmlns:xlink="http://www.w3.org/1999/xlink">
<path d="m0 0h1200v200h-1200z" fill="#006d21"/>
<path d="m0 200h1200v200h-1200z" fill="#ffffff"/>
<path d="m0 400h1200v200h-1200z" fill="#df0000"/>
<g transform="translate(600,305.72949)">
 <g id="a">
  <path id="b" transform="rotate(18,0,-60)" d="m0-60v60h30"/>
  <use transform="scale(-1,1)" width="100%" height="100%" xlink:href="#b"/>
 </g>
 <use transform="rotate(72)" width="100%" height="100%" xlink:href="#a"/>
 <use transform="rotate(144)" width="100%" height="100%" xlink:href="#a"/>
 <use transform="rotate(216)" width="100%" height="100%" xlink:href="#a"/>
 <use transform="rotate(-72)" width="100%" height="100%" xlink:href="#a"/>
</g>
<g transform="matrix(.17045451 0 0 .15895092 365.24336 4.3512839)" fill="#ffffff">
 <path d="m2441.589 160.849c30.589-32.115 60.251-65.112 89.643-98.349 1.302 29.871-14.061 57.334-31.217 80.668-9.184 13.567-22.138 23.723-33.79 35.002-5.579 5.056-10.994 10.261-16.349 15.526 1.541 7.988 3.889 15.855 4.757 23.963-0.449 7.524-1.66 15.003-2.558 22.497-6.596-10.351-11.308-21.899-18.847-31.591 3.321 33.88 4.936 67.909 7.195 101.879 5.893 99.74 11.293 199.495 16.379 299.279-0.299 2.573 1.96 4.203 3.41 6.028 21.764 24.202 43.438 48.494 63.811 73.892 16.005 21.3 31.157 43.318 44.006 66.698 16.828 30.604 30.155 63.751 34.089 98.693 2.139 21.973 1.077 44.65-6.073 65.695-7.195-52.876-29.856-102.986-61.941-145.377-0.688-0.105-2.094-0.314-2.782-0.404 0.359-0.329 1.107-0.987 1.466-1.316-22.736-30.978-47.162-60.684-72.262-89.763 1.75 35.57 3.5 71.155 4.861 106.74 1.331 45.906-0.359 91.827-2.304 137.688 0.015 8.691-3.904 16.633-5.923 24.935-5.849 18.638-10.56 37.724-18.054 55.793-1.197-42.361-2.633-84.767-5.191-127.083-4.592-75.792-9.423-151.554-13.761-227.346-0.643-5.968-0.314-12.056-1.451-17.92-16.514-19.311-34.344-37.47-51.59-56.107-30.38-31.741-61.073-63.183-92.934-93.428 6.043 79.173 12.295 158.33 17.949 237.533 2.423 35.959 5.624 71.918 5.968 107.982 0.434 31.367 0.12 62.749-0.583 94.101 0.09 19.789 0.359 40.237-6.656 59.054-10.381 23.305-29.004 42.765-51.456 54.776-17.531 9.304-37.35 14.255-57.184 14.42-13.387 0.299-26.7-3.261-38.532-9.379-20.717-11.682-35.495-31.606-45.009-53.056-6.521-14.764-11.203-30.365-13.731-46.325-1.466-6.985-3.021-15.063-9.259-19.43-4.966-3.351-10.904-0.673-15.706 1.571-11.682 6.223-22.93 13.731-31.382 24.067-27.523 33.117-40.611 75.388-48.808 116.986-4.009 17.949-10.366 35.794-21.525 50.618-8.092 10.56-19.685 19.7-33.326 20.941-10.695-0.763-21.046-4.353-30.604-9.079-21.151-11.159-36.034-31.502-44.56-53.46-2.543-5.714-3.725-11.937-6.313-17.606-0.434-0.075-1.286-0.194-1.72-0.269 0.419-0.269 1.256-0.823 1.66-1.107-8.75-33.536-10.037-68.552-8.122-103.016 0.927-3.336-2.528-4.547-4.427-6.402-7.539-6.462-10.62-16.723-10.516-26.386-0.209-35.465 4.936-71.544 19.864-103.988 12.101-26.76 30.23-50.124 47.881-73.399 1.66-2.513 4.592-4.517 5.4-7.449-10.994-12.55-22.602-24.576-34.329-36.438-6.686-7.733-14.823-14.016-21.405-21.824-24.74-26.82-49.062-54.013-73.369-81.222 2.319 39.803 4.084 79.636 6.073 119.469 1.511 36.886 4.068 73.758 3.545 110.689 0.105 32.922-1.376 65.815-2.722 98.693-0.075 8.197-3.38 15.826-5.474 23.634-5.894 19.251-11.219 38.726-18.369 57.573-1.331-15.586-0.523-31.277-1.511-46.878-2.707-77.826-8.795-155.473-13.118-233.21-3.68-59.473-6.926-118.991-10.844-178.434-16.199-20.104-33.297-39.564-49.316-59.862-18.757-23.664-37.5-47.492-53.205-73.324-22.542-40.566-47.851-79.95-79.098-114.414-1.78-1.675-1.227-4.173-1.212-6.312 1.077-22.302 1.93-44.605 3.036-66.907 22.243 14.479 43.453 30.529 63.841 47.536 15.796 13.627 30.829 28.241 43.618 44.769 6.597 7.808 12.684 17.77 10.471 28.435-7.509-2.977-15.272-5.355-22.377-9.214-2.857-1.571-5.968-2.573-9.169-3.051-0.464 6.237 3.784 11.159 6.97 16.065 23.17 33.94 47.342 67.161 72.142 99.919 3.186 4.203 6.701 8.212 9.154 12.939-1.571-38.412-4.502-76.779-6.582-115.176-3.515-59.293-7.12-118.572-10.635-177.865-0.643-8.855-0.209-17.994-3.769-26.326-1.72-3.321 0.823-6.357 2.229-9.229 8.511-16.454 16.738-33.072 24.815-49.765 0.389-1.167 2.259-4.173 2.827-1.286 15.302 39.773 27.209 80.848 36.004 122.536 2.707 9.977-0.628 20.148-1.63 30.125-5.714-11.293-12.191-22.168-18.533-33.117 8.122 104.123 12.834 208.499 18.922 312.741 4.113 6.911 10.426 12.385 15.452 18.698 48.539 55.973 98.932 110.285 149.296 164.598 37.425-41.553 75.224-82.778 113.157-123.867 1.645-1.526 2.767-3.395 2.184-5.714-11.413-129.611-22.841-259.237-34.269-388.848-1.451-13.103-1.062-26.595-5.983-39.04 9.349-20.089 19.595-39.773 28.884-59.907 5.086 10.575 8.586 21.869 12.595 32.908 9.423 27.508 17.576 55.464 24.022 83.81 1.346 6.387 3.56 12.834 2.677 19.445-0.673 5.968-1.496 11.922-2.139 17.905-6.252-10.56-12.25-21.27-18.548-31.801-0.913 0.344-1.78 0.703-2.618 1.062 0.897 0.224 1.825 0.434 2.782 0.628 9.498 110.24 16.648 220.72 25.967 331.005 39.325-41.778 78.335-83.869 117.839-125.467 4.338-4.936 9.274-9.349 13.268-14.584-19.221-25.832-37.156-52.592-55.046-79.352-6.222-8.81-11.054-18.473-16.992-27.463-12.505-19.386-25.279-38.995-42.451-54.627-1.496-25.189-2.304-50.438-3.381-75.672 40.327 35.241 81.297 69.794 120.487 106.321 3.755 3.366 6.746 7.494 8.84 12.101-3.53-39.414-6.761-78.844-10.097-118.273-0.404-3.62-0.284-7.389-1.795-10.77-1.002-3.47-3.77-7.18-1.526-10.725 9.274-19.071 18.024-38.397 27.194-57.528 16.05 37.993 28.555 77.452 38.457 117.48 1.017 5.624 3.47 11.144 2.722 16.947-0.733 6.402-1.167 12.834-1.899 19.236-5.669-9.424-11.338-18.847-16.948-28.286-0.972-1.496-1.885-2.992-2.707-4.517 5.115 45.098 8.496 90.376 12.49 135.579 29.542-31.352 59.877-61.941 90.436-92.321 13.612-12.879 27.732-25.234 40.775-38.711-1.227-17.501-1.93-35.032-3.306-52.517-0.254-5.549-5.355-11.144-1.78-16.454 9.648-18.338 18.787-36.961 27.792-55.644 10.547 24.234 17.667 49.842 25.296 75.106m-175.966 219.702c0.464 7.075 1.062 14.15 1.705 21.21 9.603 11.862 19.356 23.619 29.497 35.032 38.666 43.647 78.664 86.083 117.899 129.207-6.073-106.665-12.894-213.316-18.922-319.996-44.26 44.007-87.668 88.851-130.179 134.547m-83.51-96.748c12.4 19.386 25.309 38.487 39.07 56.93-1.107-17.097-2.767-34.179-4.263-51.246-0.748 1.511-1.556 3.022-2.184 4.562-9.349-6.82-20.762-12.175-32.623-10.246m-79.487 275.915c-8.017 9.438-16.947 18.144-24.486 27.956 1.78 30.245 5.639 60.415 8.017 90.645 1.167 49.975-7.135 103.016-37.859 143.911 0.883-6.507 0.464-13.088 0.539-19.64-0.045-22.422-0.015-44.844-0.015-67.281-0.209-21.495 0.867-42.989 0.254-64.484-0.868-10.979-1.99-21.958-2.842-32.938-0.389-1.765 0.12-4.891-2.378-4.981 1.974-2.468 1.541-5.534 1.077-8.436-10.725 11.338-20.941 23.155-31.636 34.523-21.046 23.514-43.423 45.771-64.992 68.792 21.913 23.604 35.66 54.671 39.205 86.637 3.575 33.999-4.891 70.153-27.208 96.584-19.685 23.17-47.925 37.799-77.258 44.53-13.761 3.051-28.465 5.146-42.122 0.539 1.705 14.27 3.844 28.495 6.701 42.585 4.906 23.753 11.293 47.731 23.963 68.657 6.776 10.695 16.065 21.061 28.839 24.202 13.657 3.321 27.552-3.53 37.156-12.924 8.556-7.673 12.52-18.802 16.125-29.392 10.844-31.187 14.509-64.693 28.854-94.684 10.067-23.798 22.856-46.893 41.314-65.232 9.573-9.962 20.582-18.458 32.115-26.027 7.943-4.757 17.561-8.721 26.909-5.938 8.9 2.618 14.898 10.471 19.011 18.383 9.364 17.815 11.802 38.188 19.385 56.706 5.55 15.302 12.909 30.843 25.982 41.164 13.208 10.426 30.619 13.612 47.088 12.924 28.749-1.241 55.763-14.15 78.425-31.277-2.019-29.437-4.144-58.86-6.641-88.267-12.58-143.626-24.486-287.313-36.722-430.954-0.419-3.949-3.964-6.626-5.714-9.977-41.091 43.901-80.924 88.955-121.086 133.694m-187.334 206.076c-8.601 9.932-16.723 20.298-24.815 30.649-15.392 20.762-30.798 41.763-42.196 65.037-2.872 5.908-5.49 13.283-2.184 19.565 3.904 6.432 12.251 7.389 19.101 7.404 30.245-1.212 58.456-14.749 83.017-31.651 8.212-4.054 15.93-13.028 12.834-22.766-4.069-13.088-11.772-24.636-19.311-35.959-7.823-11.129-16.065-22.003-24.845-32.399-0.404 0.03-1.197 0.09-1.601 0.12z"/>
 <path d="m2574.161 140.057c8.99-21.33 17.306-42.914 26.401-64.2 13.941 45.936 27.552 92.007 38.921 138.645 1.705 8.032 3.934 16.005 4.772 24.187-1.182 6.477-3.156 12.834-3.321 19.49-4.966-9.573-9.962-19.116-15.003-28.63 6.342 119.32 14 238.58 22.556 357.78 2.648 38.337 6.522 76.6 7.928 115.012 2.573 71.155 0.09 143.851-21.524 212.254-8.122 24.725-18.458 48.823-31.591 71.32-17.65 29.078-43.857 52.009-72.681 69.629-51.336 30.888-110.091 46.953-168.756 56.87-3.321 1.212-4.667-2.648-6.552-4.398 52.338-25.204 102.656-54.821 149.625-89.045 23.484-17.591 46.474-36.123 66.234-57.902 22.646-25.503 39.729-56.212 47.492-89.538 8.511-33.506 5.579-68.373 3.71-102.477-4.906-78.619-10.979-157.163-16.155-235.768-7.972-121.13-16.005-242.274-23.993-363.404-1.69-8.511-7-15.811-9.453-24.097-0.659-2.033 0.867-3.858 1.39-5.728z"/>
 <path d="m352.168 139.728c10.201-19.774 19.999-39.743 29.946-59.637 16.155 42.196 28.944 85.694 37.814 130 0.583 8.062-1.615 16.095-2.333 24.112-7.299-9.872-11.682-21.764-19.116-31.621 4.054 33.282 5.505 66.832 8.152 100.248 2.947 43.214 5.729 86.442 8.496 129.671 22.153-3.71 42.062-16.798 55.434-34.658 20.118-26.745 29.048-60.4 31.576-93.338-0.165-42.316-2.423-85.365-15.721-125.871-2.348-8.287-6.671-16.304-6.582-25.085 1.586-16.319 7.045-31.965 12.819-47.207 1.466-3.56 2.423-8.092 6.731-9.154 6.567 20.298 13.357 40.581 17.725 61.492 6.776 32.758 10.052 66.114 13.821 99.321 2.513 20.104 3.261 40.536 8.347 60.236 6.596 26.491 19.969 52.308 41.987 69.151 16.558 12.565 37.709 21.166 58.77 17.83 14.853-2.677 29.886-8.586 40.282-19.924 4.697-5.026 7.928-12.385 5.923-19.266-21.27-54.761-38.636-110.928-56.197-166.961-5.998-19.49-11.892-39.025-17.77-58.546-1.675-4.951 0.509-10.052 1.316-14.943 3.695-14.928 8.481-29.722 15.093-43.603 7.195 3.455 11.862 10.291 16.558 16.469 14.165 20.403 25.458 42.63 35.839 65.142-0.494 2.872-0.972 5.759-1.361 8.661-5.265-6.537-12.026-12.4-20.492-14.06-1.346 3.201-1.286 6.701-0.12 9.947 9.424 28.495 19.475 56.781 29.063 85.216 8.152 25.354 16.334 51.156 17.396 77.961 0.808 21.824-2.588 43.692-8.78 64.589-0.808 1.81-0.972 5.37-3.71 4.921 2.363 1.72 0.18 4.502-0.389 6.656-7.359 18.324-18.802 36.109-36.258 46.175-14.973 9.005-33.461 10.396-50.334 7.075-22.213-4.442-41.269-18.802-54.911-36.483-19.176-24.92-30.948-54.866-37.918-85.32-1.047 0.03-3.141 0.12-4.188 0.165-6.522 30.634-16.439 60.804-31.756 88.222-13.731 24.516-32.713 47.686-58.89 59.383 4.577 75.852 9.364 151.689 12.639 227.616 0.479 37.44-1.032 74.865-2.887 112.26-0.03 5.086-2.154 9.797-3.739 14.554-5.131 16.229-10.56 32.369-16.334 48.404-0.912 2.677-2.094 5.295-3.784 7.599-0.748-71.484-6.806-142.789-11.637-214.079-4.383-62.779-8.765-125.557-13.028-188.336-20.956-0.464-42.54-6.596-58.007-21.315-18.024-16.588-27.224-40.506-31.621-64.11-3.889-20.911-4.712-42.346-3.081-63.512 3.59-27.642 10.665-54.671 17.411-81.685 0.927-4.831 1.601-9.902 0.509-14.764-0.419-1.765-0.823-3.859-2.872-4.353-3.141-0.404-5.475 1.945-7.599 3.844-11.757 11.368-19.445 26.072-26.161 40.79-12.729 30.41-20.223 62.824-24.307 95.477-3.381 21.525-8.317 42.959-16.394 63.257-6.417 15.078-14.419 30.604-28.33 40.057-11.877 8.182-27.583 7.18-40.581 2.483-16.454-6.103-28.166-20.851-34.388-36.827-10.815-27.463-11.518-57.528-10.859-86.652 1.541-34.134 6.387-68.089 13.851-101.415 1.406-0.299 2.827-0.583 4.233-0.853-6.043 38.233-10.964 77.004-8.107 115.76 1.391 16.798 4.383 33.76 11.563 49.137 6.103 13.133 16.813 24.935 30.993 29.228 12.056 3.71 26.341 3.41 36.602-4.697 11.159-8.93 16.439-22.886 20.522-36.138 9.603-33.581 13.208-68.567 23.155-102.058 9.648-32.833 22.766-64.678 38.995-94.804 9.409-15.616 19.58-30.888 31.397-44.799 3.5-3.65 7.015-8.84 12.58-8.9 3.051 1.959 1.96 6.252 2.034 9.319-1.556 15.108-1.705 30.559-6.223 45.173-8.257 29.991-13.821 60.64-19.879 91.124-4.203 23.738-5.325 49.092 3.754 71.858 6.686 17.366 20.597 31.457 37.38 39.295 9.124 4.308 18.982 6.941 28.959 8.376-5.505-84.692-11.757-169.339-17.456-254.031-1.302-13.177-0.434-26.774-5.565-39.249z"/>
 <path d="m1564.213 100.344c4.233-7.03 8.272-14.793 15.496-19.221-10.501 21.031-21.211 42.421-25.937 65.636-1.84 10.037-2.468 22.257 5.774 29.781 4.786 2.333 10.306 3.725 15.526 1.885 9.543-2.139 14.001-12.071 17.725-20.118 1.032 3.231 1.72 6.581 0.613 9.902-3.396 13.971-7.913 28.6-18.129 39.175-11.503 12.325-34.703 5.235-39.085-10.56-3.844-14.33-0.329-29.348 3.889-43.199 6.134-18.549 14.63-36.244 24.128-53.281z"/>
 <path d="m711.743 144.245c9.065-20.463 18.114-40.94 27.373-61.313 17.905 41.194 32.474 83.825 43.393 127.397 1.286 8.81-1.316 17.665-1.002 26.52-6.252-11.099-13.432-21.644-19.984-32.564 1.69 19.984 4.757 39.863 6.611 59.847 12.535 118.033 23.559 236.231 32.967 354.564 10.785-7.808 19.012-19.012 23.634-31.472 6.028-14.031 12.535-27.986 21.345-40.521 3.306-4.502 7.673-10.276 14.076-8.885 3.62 0.209 5.34 4.099 5.699 7.255 1.601 11.114-6.806 20.702-5.37 31.726 0.389 9.05 7.464 16.813 15.87 19.55 14.539 5.25 30.335 2.902 45.248 0.793 6.731-1.481 15.137-2.752 18.413-9.738-3.5-11.219-7.389-22.317-11.802-33.207 6.297-16.05 13.492-31.756 20.059-47.716 1.69-3.769 2.827-7.928 5.609-11.099 4.772 18.249 5.968 37.186 7.898 55.883 1.989 30.23-2.857 61.612-17.935 88.207-8.122 13.612-20.253 25.982-36.079 29.916-13.791 3.306-28.944 1.795-41.449-5.086-14.479-8.242-24.411-22.721-29.572-38.322-7.838 18.009-18.144 35.032-31.262 49.675 1.526 23.364 3.231 46.714 4.398 70.093 0.867 26.072-5.819 51.62-13.552 76.301-3.754 10.605-7.449 21.27-12.086 31.531-41.224 67.371-95.716 127.053-161.097 171.613-42.795 29.392-90.137 52.188-139.842 67.161-25.982 7.539-52.547 13.687-79.576 15.661-27.897 0.389-56.212-3.216-82.284-13.447-24.471-9.543-45.846-26.924-59.563-49.391-48.195 4.981-96.673 7.718-145.137 7.838 43.229-15.496 86.023-32.234 128.1-50.663-11.233-54.791-1.945-111.287 12.101-164.657 8.601-32.354 19.7-63.99 32.16-95.043 8.197-22.766 16.334-46.101 30.26-66.069-8.167 17.052-16.678 34.029-23.409 51.695l0.374 0.957c0.179 0.254 0.553 0.778 0.748 1.032-0.449-0.12-1.361-0.374-1.81-0.494-2.857 5.564-5.295 11.353-6.926 17.396-11.368 36.393-18.608 74.087-21.016 112.155-2.378 41.852 0.628 85.799 20.133 123.673 51.859-24.247 102.342-51.5 150.747-82.074 41.045-26.296 80.698-54.986 116.732-87.878 17.082-15.796 33.685-32.279 47.716-50.887 4.143-4.876 2.124-11.832 0.778-17.381-3.126-9.319-6.671-18.488-10.276-27.612-24.531 9.932-50.663 16.738-77.273 16.618-14.509 0.419-29.437-2.348-41.942-9.992-10.725-6.611-18.682-17.471-21.913-29.647-4.472-15.975-2.528-32.833 0.15-48.943 4.248-23.319 12.834-46.639 29.153-64.289 11.458-12.325 26.625-21.809 43.438-24.292 19.012 0.09 36.916 9.364 50.483 22.242 17.276 16.379 29.063 37.619 38.128 59.413 16.917-9.857 33.177-21.524 45.771-36.677 12.355-12.849 25.07-25.967 40.85-34.598 3.934-2.259 10.725-4.757 13.342 0.523 2.857 7.838 0.135 16.454-1.78 24.247-5.086 11.368 1.062 24.292 8.661 32.982 10.575 11.936 27.956 13.088 42.69 10.411-15.437-158.629-31.128-317.244-46.579-475.873-0.314-5.322-2.617-10.183-4.592-15.045m-210.219 487.107c-7.569 3.261-17.037 8.092-18.159 17.202 1.78 6.926 9.917 9.065 16.035 10.545 19.67 3.814 40.117 3.74 59.772-0.12-0.359-0.703-1.107-2.094-1.481-2.797-10.246-11.607-23.305-21.599-38.831-24.531-5.699-0.853-11.757-2.483-17.336-0.299m128.803 64.798c2.034 32.324-2.498 65.007-12.684 95.716-3.934 10.665-7.21 21.958-14.629 30.843-36.483 48.763-83.48 88.596-133.006 123.568-44.126 30.739-90.72 58.007-139.423 80.788 8.317 4.054 17.052 7.314 26.132 9.244 24.322 5.4 49.436 2.498 73.803-1.017 76.286-11.428 148.114-44.724 209.98-90.227 41.015-30.17 78.38-65.307 110.988-104.422 10.904-13.821 24.322-27.328 26.984-45.517-2.603-30.858-6.043-61.642-8.915-92.485-16.962 6.806-37.963 8.406-53.355-2.962-18.683-14.105-25.788-38.173-28.734-60.4-16.111 21.645-35.063 41.27-57.141 56.871z"/>
 <path d="m1452.761 85.61c7.778 4.039 12.864 11.413 17.875 18.324 12.221 17.89 22.258 37.171 31.577 56.691 1.585 2.872 2.139 6.492 4.981 8.511-0.912 0.165-1.81 0.299-2.663 0.419-0.105 1.556-0.284 4.682-0.374 6.238-5.624-6.118-12.206-12.026-20.567-13.821-1.481 3.276-1.466 6.806-0.209 10.156 10.859 33.311 23.14 66.159 33.656 99.59 6.701 21.794 12.58 44.186 12.804 67.131 0.464 21.3-3.171 42.57-9.453 62.883-6.312 19.086-15.99 38.008-32.13 50.603-13.283 10.785-31.008 15.257-47.91 13.672-20.627-1.541-40.162-11.488-54.477-26.266-7.644-7.285-13.851-15.885-19.67-24.651l2.229-0.524c-0.613 0.075-1.825 0.224-2.438 0.299-12.924-21.779-22.512-45.547-28.046-70.273 0.494-3.201-5.609-2.932-4.996 0.254-7.883 36.064-20.463 71.634-41.284 102.357-12.161 17.65-27.896 33.401-47.417 42.72-21.27 10.037-46.325 10.695-68.717 4.263-22.497-6.492-40.327-24.262-49.99-45.203-14.001-30.006-16.14-63.97" fill="#ffffff"/>
</g>
</svg>
