<svg xmlns="http://www.w3.org/2000/svg" xml:space="preserve" width="620.72156" height="621.62933" viewBox="0 0 620.72156 621.62934"><path d="M2327.7 4661.15c314.15 0 614.16-62.95 888.07-176.91 284.58-118.39 540.99-291.87 755.81-507.02 214.78-215.09 387.95-471.82 506.13-756.79 113.77-274.29 176.62-574.71 176.62-889.31 0-314.6-62.85-615.02-176.62-889.32-118.18-284.96-291.36-541.698-506.13-756.788-214.82-215.141-471.23-388.621-755.81-507.024C2941.86 64.039 2641.85 1.09 2327.7 1.09c-314.15 0-614.16 62.95-888.07 176.898-284.58 118.403-540.982 291.883-755.814 507.024-214.761 215.09-387.941 471.828-506.128 756.788-113.762 274.3-176.61 574.72-176.61 889.32s62.848 615.02 176.61 889.31c118.187 284.97 291.367 541.7 506.128 756.79 214.832 215.15 471.234 388.63 755.814 507.02 273.91 113.96 573.92 176.91 888.07 176.91" style="fill:#231f20;fill-opacity:1;fill-rule:nonzero;stroke:none" transform="matrix(.13333 0 0 -.13333 0 621.63)"/><path d="M2327.7 4661.15c314.15 0 614.16-62.95 888.07-176.91 284.58-118.39 540.99-291.87 755.81-507.02 214.78-215.09 387.95-471.82 506.13-756.79 113.77-274.29 176.62-574.71 176.62-889.31 0-314.6-62.85-615.02-176.62-889.32-118.18-284.96-291.36-541.698-506.13-756.788-214.82-215.141-471.23-388.621-755.81-507.024C2941.86 64.039 2641.85 1.09 2327.7 1.09c-314.15 0-614.16 62.95-888.07 176.898-284.58 118.403-540.982 291.883-755.814 507.024-214.761 215.09-387.941 471.828-506.128 756.788-113.762 274.3-176.61 574.72-176.61 889.32s62.848 615.02 176.61 889.31c118.187 284.97 291.367 541.7 506.128 756.79 214.832 215.15 471.234 388.63 755.814 507.02 273.91 113.96 573.92 176.91 888.07 176.91z" style="fill:none;stroke:#231f20;stroke-width:2.16;stroke-linecap:butt;stroke-linejoin:miter;stroke-miterlimit:2.6131;stroke-dasharray:none;stroke-opacity:1" transform="matrix(.13333 0 0 -.13333 0 621.63)"/><path d="M2327.7 4641.15c-311.5 0-608.92-62.4-880.41-175.34-282.16-117.39-536.376-289.38-749.337-502.66-212.93-213.25-384.637-467.81-501.832-750.38-112.754-271.86-175.043-569.69-175.043-881.65 0-311.97 62.29-609.8 175.043-881.65 117.195-282.57 288.902-537.13 501.832-750.38 212.961-213.289 467.177-385.27 749.337-502.66C1718.78 83.48 2016.2 21.09 2327.7 21.09c311.51 0 608.92 62.39 880.41 175.34 282.16 117.39 536.38 289.371 749.34 502.66 212.93 213.25 384.64 467.81 501.83 750.38 112.76 271.86 175.05 569.68 175.05 881.65 0 311.96-62.29 609.79-175.05 881.65-117.19 282.57-288.9 537.13-501.83 750.38-212.96 213.28-467.18 385.27-749.34 502.66-271.49 112.94-568.9 175.34-880.41 175.34" style="fill:#fddd04;fill-opacity:1;fill-rule:nonzero;stroke:none" transform="matrix(.13333 0 0 -.13333 0 621.63)"/><path d="M2327.7 4641.15c-311.5 0-608.92-62.4-880.41-175.34-282.16-117.39-536.376-289.38-749.337-502.66-212.93-213.25-384.637-467.81-501.832-750.38-112.754-271.86-175.043-569.69-175.043-881.65 0-311.97 62.29-609.8 175.043-881.65 117.195-282.57 288.902-537.13 501.832-750.38 212.961-213.289 467.177-385.27 749.337-502.66C1718.78 83.48 2016.2 21.09 2327.7 21.09c311.51 0 608.92 62.39 880.41 175.34 282.16 117.39 536.38 289.371 749.34 502.66 212.93 213.25 384.64 467.81 501.83 750.38 112.76 271.86 175.05 569.68 175.05 881.65 0 311.96-62.29 609.79-175.05 881.65-117.19 282.57-288.9 537.13-501.83 750.38-212.96 213.28-467.18 385.27-749.34 502.66-271.49 112.94-568.9 175.34-880.41 175.34z" style="fill:none;stroke:#231f20;stroke-width:2.16;stroke-linecap:butt;stroke-linejoin:miter;stroke-miterlimit:2.6131;stroke-dasharray:none;stroke-opacity:1" transform="matrix(.13333 0 0 -.13333 0 621.63)"/><path d="M2327.7 4573.28c149.18 0 295.06-14.74 436.25-42.85 144.9-28.84 284.86-71.77 418.35-127.3 136.19-56.63 265.69-126.4 386.91-207.7 122.45-82.12 236.42-176 340.25-279.99 103.85-104.01 197.6-218.15 279.62-340.81 81.2-121.43 150.89-251.15 207.45-387.56a2223.923 2223.923 0 0 0 127.13-419.02c28.07-141.4 42.8-287.51 42.8-436.93 0-149.43-14.72-295.53-42.8-436.94a2223.923 2223.923 0 0 0-127.13-419.02c-56.56-136.4-126.25-266.12-207.45-387.56-82.02-122.651-175.77-236.799-279.62-340.799-103.83-103.992-217.8-197.871-340.25-280-121.22-81.289-250.72-151.059-386.91-207.699-133.49-55.52-273.45-98.454-418.35-127.301-141.19-28.11-287.07-42.852-436.25-42.852s-295.06 14.742-436.24 42.852c-144.91 28.847-284.86 71.781-418.35 127.301-136.2 56.64-265.7 126.398-386.92 207.707-122.452 82.121-236.417 176-340.249 279.992-103.851 104-197.605 218.148-279.625 340.809-81.199 121.43-150.882 251.15-207.445 387.55-55.441 133.71-98.324 273.89-127.133 419.02-28.066 141.41-42.793 287.51-42.793 436.94 0 149.42 14.727 295.53 42.793 436.94a2223.608 2223.608 0 0 0 127.133 419.01c56.563 136.41 126.246 266.13 207.453 387.56 82.016 122.66 175.77 236.8 279.617 340.81 103.832 103.99 217.797 197.87 340.249 279.99 121.22 81.3 250.72 151.07 386.92 207.7 133.49 55.53 273.44 98.46 418.35 127.3 141.18 28.11 287.06 42.85 436.24 42.85zm0-20c-147.93 0-292.52-14.61-432.41-42.46a2195.482 2195.482 0 0 1-414.53-126.12c-135.05-56.16-263.4-125.31-383.47-205.83-121.349-81.39-234.298-174.43-337.212-277.5-102.965-103.12-195.906-216.27-277.187-337.83-80.43-120.27-149.485-248.84-205.582-384.12a2203.576 2203.576 0 0 1-125.961-415.19c-27.813-140.12-42.403-284.94-42.403-433.11 0-148.17 14.594-293 42.403-433.11a2203.423 2203.423 0 0 1 125.961-415.19c56.093-135.28 125.148-263.84 205.574-384.12 81.289-121.559 174.23-234.72 277.195-337.841C862.992 657.801 975.941 564.75 1097.29 483.371c120.07-80.519 248.42-149.672 383.47-205.84 132.25-55 270.92-97.531 414.53-126.121 139.89-27.84 284.48-42.449 432.41-42.449s292.53 14.609 432.42 42.449a2195.61 2195.61 0 0 1 414.52 126.121c135.05 56.16 263.4 125.309 383.48 205.84 121.34 81.379 234.28 174.43 337.2 277.488 102.97 103.129 195.91 216.282 277.2 337.831 80.42 120.29 149.48 248.85 205.58 384.13 54.93 132.46 97.41 271.35 125.95 415.19 27.82 140.11 42.41 284.94 42.41 433.11 0 148.17-14.59 292.99-42.41 433.1-28.54 143.84-71.03 282.74-125.95 415.2-56.1 135.28-125.16 263.84-205.58 384.11-81.29 121.57-174.23 234.72-277.2 337.84-102.92 103.07-215.86 196.11-337.2 277.5-120.08 80.53-248.43 149.67-383.48 205.83-132.25 55-270.92 97.53-414.52 126.12-139.89 27.85-284.49 42.46-432.42 42.46" style="fill:#231f20;fill-opacity:1;fill-rule:nonzero;stroke:none" transform="matrix(.13333 0 0 -.13333 0 621.63)"/><path d="M2327.7 4553.28c-147.93 0-292.52-14.61-432.41-42.46a2195.482 2195.482 0 0 1-414.53-126.12c-135.05-56.16-263.4-125.31-383.47-205.83-121.349-81.39-234.298-174.43-337.212-277.5-102.965-103.12-195.906-216.27-277.187-337.83-80.43-120.27-149.485-248.84-205.582-384.12a2203.576 2203.576 0 0 1-125.961-415.19c-27.813-140.12-42.403-284.94-42.403-433.11 0-148.17 14.594-293 42.403-433.11a2203.423 2203.423 0 0 1 125.961-415.19c56.093-135.28 125.148-263.84 205.574-384.12 81.289-121.559 174.23-234.72 277.195-337.841C862.992 657.801 975.941 564.75 1097.29 483.371c120.07-80.519 248.42-149.672 383.47-205.84 132.25-55 270.92-97.531 414.53-126.121 139.89-27.84 284.48-42.449 432.41-42.449s292.53 14.609 432.42 42.449a2195.61 2195.61 0 0 1 414.52 126.121c135.05 56.16 263.4 125.309 383.48 205.84 121.34 81.379 234.28 174.43 337.2 277.488 102.97 103.129 195.91 216.282 277.2 337.831 80.42 120.29 149.48 248.85 205.58 384.13 54.93 132.46 97.41 271.35 125.95 415.19 27.82 140.11 42.41 284.94 42.41 433.11 0 148.17-14.59 292.99-42.41 433.1-28.54 143.84-71.03 282.74-125.95 415.2-56.1 135.28-125.16 263.84-205.58 384.11-81.29 121.57-174.23 234.72-277.2 337.84-102.92 103.07-215.86 196.11-337.2 277.5-120.08 80.53-248.43 149.67-383.48 205.83-132.25 55-270.92 97.53-414.52 126.12-139.89 27.85-284.49 42.46-432.42 42.46" style="fill:#fff;fill-opacity:1;fill-rule:nonzero;stroke:none" transform="matrix(.13333 0 0 -.13333 0 621.63)"/><path d="M2327.71 4508.3c-600.01 0-1144.71-244.51-1539.409-638.92-394.696-394.4-639.391-938.69-639.391-1538.26 0-599.57 244.695-1143.87 639.391-1538.268C1182.99 398.441 1727.7 153.941 2327.71 153.941c600 0 1144.7 244.5 1539.4 638.911 394.7 394.398 639.38 938.698 639.38 1538.268s-244.68 1143.86-639.38 1538.26c-394.7 394.41-939.4 638.92-1539.4 638.92zm0 20.05c605.54 0 1155.26-246.76 1553.59-644.79 398.32-398.03 645.26-947.34 645.26-1552.44 0-605.11-246.94-1154.42-645.26-1552.44-398.33-398.039-948.05-644.801-1553.59-644.801-605.55 0-1155.27 246.762-1553.593 644.801-398.324 398.02-645.269 947.34-645.269 1552.44s246.945 1154.41 645.269 1552.44c398.333 398.03 948.043 644.79 1553.593 644.79" style="fill:#231f20;fill-opacity:1;fill-rule:nonzero;stroke:none" transform="matrix(.13333 0 0 -.13333 0 621.63)"/><path d="M4469.41 2710.72c-20.17-30.01-55.65-64.87-76.45-95.06-.78-21.15 11.76-39.18 14.11-59.56 2.35-47.8-16.46-95.61-1.57-141.07 7.06-38.4 30.56-72.11 24.29-113.64-15.67-44.68-37.61-96.41-18.02-146.56 8.62-29.79 17.24-70.54-3.92-97.19-32.92-42.31-47.02-100.31-32.14-154.39 7.06-24.3 0-50.16-4.69-72.89-14.9-29-27.44-57.99-35.27-89.34-5.49-11.76-17.24-4.71-24.29-.79l-29.79 14.11c12.54 42.32 30.57 83.86 25.08 133.23-3.92 23.52 3.92 52.51-7.05 72.89 0 50.94 23.5 90.91 37.61 135.59v73.67l-14.89 72.89c18.81 54.85 43.9 117.56 21.95 177.91-4.7 34.48-21.17 71.31-7.84 105.8 0 5.49-4.7 10.19-9.4 12.54l-8.62-.78-79.95-77.59c-15.67-25.87-4.69-60.35-8.62-88.57 15.68-22.72 10.19-52.51 8.62-79.15-14.11-25.87-18.8-54.87-21.16-85.43 6.27-43.89 15.68-90.13 6.27-135.59-10.96-31.35-28.99-60.35-28.21-97.19 4.7-29.77 2.35-59.56 5.49-90.12-5.49-34.49-14.11-68.19-29.01-98.75-19.59-21.17-39.18 7.84-61.12 7.05-6.28-.78-10.19 3.92-13.33 7.84 8.62 33.7 26.65 67.4 17.25 105.02-25.08 65.83 32.13 109.73 29.77 171.64 3.93 18.81-3.13 39.19-4.7 58.78-18.02 47.8 8.63 94.04 17.25 138.72-1.57 29.78 3.92 62.7-4.71 89.35-4.69 5.48-12.54 7.83-18.02 3.92-36.06-21.17-65.05-59.57-102.67-76.03-16.46-8.63-3.92-29-10.19-41.54-2.35-30.56-6.27-61.13-7.84-92.48-10.18-29-1.57-67.4-14.89-95.61-26.64-184.18-91.7-353.47-173.2-514.91-32.92-72.9-84.64-137.16-125.4-206.13-74.46-99.54-162.24-195.94-258.64-284.49-153.61-133.238-322.9-229.64-500.8-304.09-18.03-14.89-47.03-9.41-61.13-30.57 40.75-106.59 77.59-213.961 116.78-321.34.78-10.179 3.91-22.718-4.71-30.558-22.72-22.731-53.29-25.864-81.5-35.274-53.3-7.047-101.11 25.082-154.4 5.492-58.79-19.601-103.45-76.8-171.64-69.75-9.4 8.622-25.08 3.911-37.63 7.84-49.36 18.809-113.63 32.91-166.14 9.399-26.65-10.188-50.16-26.649-79.15-29-37.63-17.239-68.19 9.402-100.33 20.383-17.24 13.32-36.83 21.937-56.42 28.988-24.3-1.559-51.73 4.711-71.32-8.621-15.68.781-27.43-7.047-40.76-10.969-52.51-5.48-97.97 14.898-134.8 51.73-40.75 29-100.32 23.508-151.26 18.809-26.65 3.922-54.86 3.141-79.94 10.973-15.68 8.617-10.97 25.078-9.41 39.187 39.19 105.02 75.24 211.61 115.99 316.633-.78 7.047-8.61 12.539-14.88 14.109-59.57 24.289-120.7 43.098-176.35 78.368-18.8 5.492-35.26 18.812-53.29 26.652-47.02 22.719-90.13 52.508-135.59 77.59-119.12 83.069-235.11 183.389-338.57 297.029-82.293 98.75-155.957 202.2-218.664 309.58-38.398 86.99-83.074 170.85-114.426 260.98-28.996 93.27-61.133 184.96-70.535 286.06-12.539 18.03-3.129 44.68-7.051 65.84-10.976 26.65-7.054 59.56-10.191 89.34-7.836 21.95 5.488 54.08-18.809 66.63-35.265 21.94-66.613 50.94-100.316 76.02-7.836 2.35-17.246-2.36-19.594-10.98-.785-47.81-5.484-99.54 14.891-139.51 9.406-30.56 11.754-70.53-1.567-100.31l-1.566-36.84c-1.567-36.05 16.461-64.26 26.644-95.61 14.895-30.57 3.914-69.76 2.348-102.68-.781-29.77 10.191-54.85 19.598-79.94-11.754-20.37-38.403-18.02-58-24.3-12.535 0-21.16 11.76-25.078 21.17-20.375 40.76-24.293 92.48-17.243 139.51l2.356 47.02c-4.707 38.4-30.57 68.18-35.27 106.59.782 43.11 11.754 82.29 11.754 125.39-5.484 28.23-14.105 54.08-21.16 81.52l-1.57 47.02c14.109 31.35 18.808 79.16 3.14 111.29l-83.863 79.16c-2.351 3.13-8.625 3.13-10.973-.79-10.191-10.18 2.348-22.72 0-36.04 3.922-25.09-8.621-45.46-9.402-70.54-21.945-48.6-10.191-111.3 10.192-156.75 11.75-21.17 10.183-49.38.781-71.32.777-11.76-6.274-19.6-7.059-30.57l.785-79.94c16.457-49.38 45.457-97.97 33.703-155.18-3.921-33.7-5.488-73.67-1.566-109.72 7.836-24.3 13.32-49.38 24.297-72.1.781-21.95-27.434-16.47-41.539-22.74-6.27-.78-14.109 3.93-14.895 10.2-4.699 32.91-23.507 59.56-35.265 89.34-21.164 53.3 18.019 107.37-4.703 159.88-9.407 24.3-12.539 50.94-33.704 70.54-32.132 57.99 22.731 112.07 0 170.85-8.621 39.97-31.343 79.95-14.89 122.27 18.808 44.67 35.269 95.61 21.941 147.34-10.183 36.05.789 74.46 11.766 108.15-19.942 32.76-50.758 60.35-74.824 91.57 17.988 104.59 44.922 207.68 77.379 306.66 108.14 326.19 292.617 614.61 530.679 852.5 394.699 394.41 934.919 639.12 1534.929 639.12 600 0 1142.26-244.98 1536.96-639.39 148.76-148.64 273.57-316.17 374.3-501.04 111.28-204.85 191.47-424.43 230.44-654.36" style="fill:#76cee6;fill-opacity:1;fill-rule:evenodd;stroke:none" transform="matrix(.13333 0 0 -.13333 0 621.63)"/><path d="M2345.84 4463.71c29-63.48 72.89-120.69 105.81-181.82l118.34-194.37c4.71-4.7 9.4-11.75 15.67-6.27 49.38 82.29 100.33 163.8 144.21 248.45 2.36 3.13 6.27 4.7 9.41 3.91 21.94-30.56 26.65-67.4 44.68-99.53l55.64-138.72 138.72-338.57c2.35-4.7-3.13-7.84-6.27-9.41-402.05 194.28-894.76 192.68-1301.01 11.75-3.12 1.57-8.61 3.92-9.39 8.63 28.21 72.88 67.4 141.07 97.96 213.18l151.26 333.08c3.14 3.14 7.84 1.57 11.76.78 50.94-83.07 104.24-164.58 155.96-247.65 14.11-4.71 20.38 14.1 27.44 22.72 76.8 124.61 149.68 251.58 227.28 376.19 4.69 3.93 8.61 0 12.53-2.35" style="fill:#231f20;fill-opacity:1;fill-rule:evenodd;stroke:none" transform="matrix(.13333 0 0 -.13333 0 621.63)"/><path d="M2341.92 4428.45c81.51-124.62 154.4-251.59 234.34-376.98 18.81-6.27 24.3 20.37 34.49 31.35 42.32 69.75 79.94 141.07 125.39 209.25l7.05-1.56c72.89-165.37 137.94-333.87 205.35-501.6l-8.63-8.61c-201.4 83.66-400.42 128.61-628.7 128.27-218.94-.32-407-45.01-609.59-119.66-4.71-.78-7.06 4.71-8.62 7.85 17.23 47.02 39.18 93.26 61.13 138.72 57.21 113.64 103.45 231.2 163.8 343.27 3.92 3.92 9.4.79 12.53-2.35 49.38-77.59 97.97-154.4 147.35-231.2 18.02-8.62 24.29 18.81 34.48 29 68.97 118.34 145 234.34 215.53 351.89 3.13 3.14 9.4 6.27 14.1 2.36" style="fill:#fff;fill-opacity:1;fill-rule:evenodd;stroke:none" transform="matrix(.13333 0 0 -.13333 0 621.63)"/><path d="M1181.22 4056.95c25.86-72.88 50.94-145.77 72.89-220.22 69.75-192.02 159.09-375.41 250.79-558.03l25.08-44.66c68.97-110.52 175.56-203 268.03-300.97 36.84-38.4 78.38-68.96 119.92-99.53 10.19-1.56 14.89 10.19 19.59 17.24l61.13 111.3c-10.97 18.81-42.32 3.91-49.37 30.57-7.84 15.67 7.05 26.64 10.96 39.96 25.09 43.89 63.49 82.3 81.52 129.32 11.75 15.68 12.54 38.4 3.13 55.64-13.32 10.97-32.91 9.41-50.15 7.84-27.44 7.05-43.11-15.67-61.92-30.56-18.81 1.56-31.36 16.45-45.46 29-28.21 28.21 0 63.48 8.62 92.48 37.62 35.26 84.65 48.59 130.89 64.26 22.72-2.35 39.18 9.41 60.34 10.97 32.14 8.62 61.92 25.08 91.7 39.98 6.27 4.69 5.48 11.75.78 17.24-23.51 28.99-35.26 61.91-36.05 100.32 2.36 69.75 37.62 125.39 81.51 177.12 39.19 24.3 87.77 52.51 136.36 29.78 41.55-.78 72.11-40.76 85.43-76.02 17.25-43.11-.78-87.78-34.48-117.56-22.72-15.67-44.67-32.14-77.59-25.08-33.69 10.19-70.53 28.22-84.64 64.27-2.35 2.35-4.7 3.92-7.84 3.12-14.1-15.66-10.97-38.39-3.13-55.63 29.78-36.05 76.8-35.27 121.47-33.71 11.76 9.41 30.57 4.71 44.68 8.63 12.54 3.13 24.3 12.53 37.62 6.26 22.72-28.99 39.19-64.26 72.89-85.42 25.08-18.03 54.85-26.65 84.64-33.7 17.24-2.35 39.97 6.27 49.37-11.76 4.71-51.73-7.83-109.72 21.95-151.26 13.33-22.73 36.83-39.19 55.64-57.21 4.71-10.19 0-20.37-4.7-29-31.36-39.97-58.78-80.73-64.27-130.89 0-33.7-1.56-68.96 12.54-97.18-9.4-16.45-28.99-25.86-40.75-42.32-8.62-14.1-21.16-28.21-21.16-44.67l3.13-2.35c53.3 32.13 100.32 76.8 152.05 112.07 30.56 38.4 73.67 54.86 101.1 94.83 18.81 16.46 39.19 35.27 50.95 55.65 32.91 32.91 70.53 65.83 95.61 103.45 20.37 32.13 52.51 59.57 75.24 90.13l96.39 134.02c35.28 65.05 75.25 128.53 108.17 194.37 13.32 12.54 11.75 30.56 22.72 44.67 66.62 119.91 133.23 239.82 191.23 363.65 7.84 8.62 14.11 16.46 25.86 17.24 11.76 2.35 21.95-3.13 27.43-13.32 16.47-32.92 10.2-74.46 15.69-112.07 6.27-32.14-10.2-54.87-7.85-85.43-7.84-23.52-5.48-50.94-14.89-73.67 3.14-14.11-16.45-30.57 0-38.4 26.65 18.02 36.06 47.81 61.92 68.96 25.07 19.59 40.76 69.76 81.51 57.22 10.19-5.49 14.88-16.46 14.88-27.43-6.26-30.57-3.13-64.27-16.45-92.48-14.89-50.16-28.22-101.89-49.38-150.48 8.63-9.41 16.46 5.48 24.3 7.84 32.92 22.72 62.69 54.07 99.53 66.61 9.41 1.57 16.46-3.91 21.16-10.97 0-57.21-37.61-101.88-58.78-151.26-14.11-33.7-41.54-62.7-60.34-94.05 10.97-9.4 26.64.78 37.62 5.49 32.92 14.1 64.27 31.35 96.4 47.02 8.62 0 21.94 3.92 29-3.13 22.72-21.16-5.49-44.68-14.11-65.05-40.75-70.54-116-119.13-173.99-178.7-.79-3.91 1.57-7.05 4.7-10.18 57.21 20.37 112.85 43.1 170.07 61.12 9.4 2.36 17.24-2.34 21.94-10.18-3.13-32.92-27.43-56.43-49.37-81.5-33.7-26.66-66.61-53.3-101.11-78.38-2.35-4.71 2.36-7.84 5.49-9.41 22.73 10.19 50.95 3.92 76.03 8.62 21.94 3.14 54.07 18.81 71.32-2.35-3.14-30.56-37.62-49.37-58.78-71.32-49.38-29-95.62-65.83-148.13-88.56-3.13-1.57-7.06-5.48-9.4-9.41-.78-3.91 2.34-6.27 4.69-9.4 43.9-2.35 90.14 2.35 134.81-.78 10.98-1.57 21.16-9.41 27.43-19.6 2.35-8.62 0-18.02-8.62-23.51-25.86-19.59-51.73-39.97-81.51-50.94-37.62-18.03-74.46-37.62-114.43-52.51 1.57-18.03 23.52-7.84 34.49-14.9 31.35 1.58 54.87-14.1 86.21-12.53 17.24-7.84 39.97-4.71 50.94-24.3-7.05-36.84-48.59-36.84-76.02-47.02-37.61-14.9-79.15-18.81-116.77-32.92l.78-8.62c24.3-14.11 55.64-13.32 73.67-39.19 1.57-29.78-33.7-32.13-53.3-41.54-45.45-.78-87.77-8.62-131.66-14.89l-65.83-3.13c-3.93-1.57-2.35-6.27-2.35-9.41l71.31-43.1c4.7-6.27 10.19-13.32 6.27-21.95-25.86-25.86-68.18-18.8-103.45-25.08l-65.83-.78c-15.68-14.89 21.16-28.21 3.13-45.46-14.89-16.45-42.32-7.05-62.69-8.62-25.09 8.62-54.87 7.06-79.16 16.46-4.71.78-6.27-4.7-7.85-7.84 4.71-13.32 24.3-22.72 17.25-39.96-11.76-27.45-45.46-11.76-66.62-17.25l-51.73 1.57c-17.24 7.83-36.83 11.76-54.85 14.1-10.98-11.75 10.96-20.38 13.32-31.34 3.92-10.19-6.27-18.82-14.11-22.74-20.37-14.88-39.97 3.92-61.92 1.57-24.28 0-43.88 11.76-65.83 14.9l-47.03 15.67c-14.88-18.03 21.95-18.81 21.16-37.62 2.36-10.19-6.27-18.82-14.1-21.95-21.94-3.92-50.15-5.48-70.54 4.71-31.34-3.14-53.29 16.45-82.29 18.81-8.62 1.56-17.24 14.11-25.86 3.91 5.49-13.32 20.37-22.72 16.46-38.4-5.48-10.97-16.46-14.89-27.44-16.46-31.34 3.92-60.34 12.55-89.34 19.6-14.1-8.62 10.97-24.3-5.49-35.28-18.02-11.74-44.67-5.47-65.83-5.47-11.76 10.18-30.57 3.13-43.89 9.4-10.19-12.54 11.76-15.67 13.32-25.87 7.05-15.67-8.62-26.64-8.62-42.31 39.98-83.87 97.97-160.68 155.19-236.69 30.56-54.87 87.77-90.92 125.39-142.64 82.29-108.16 115.21-239.83 227.28-330.74 39.19-19.59 73.68-50.16 119.13-54.86l25.87-9.41c37.62 4.71 68.97-14.89 107.36-4.7 31.35 3.92 61.14 10.19 92.49 15.68 48.59 15.67 97.18 68.18 105.02 119.12 3.92 54.08 1.57 109.73-10.97 159.1-15.68 38.4-25.86 83.86-67.4 105.81-32.92-5.49-32.92-42.32-52.51-61.13-1.57-3.15-6.27-2.36-9.41-1.57-23.51 32.13-45.46 64.26-72.11 94.04-14.1 26.65-10.96 66.62 4.71 90.14 26.65 28.99 59.56 50.93 102.67 39.97 96.4-17.25 154.39-119.92 183.39-202.99 3.14-36.06 18.03-66.62 23.51-101.89 0-68.18 7.84-141.85-28.21-196.72-15.68-19.59-31.35-39.19-39.97-61.91-30.57-36.05-65.83-64.27-108.16-79.16-32.91-5.49-62.69-19.59-96.39-21.94-43.9.78-90.13-3.92-130.1 7.05-72.11-9.41-164.59 26.65-210.04-44.67-14.11-28.21-36.06-53.29-38.41-87l.78-99.53c7.06-18.81 11.76-39.18 10.98-60.359-11.76-58.761-61.13-102.652-79.94-159.09-36.84-37.609-83.87-50.152-138.72-44.671-47.03-12.54-105.8-37.622-152.84-7.84-32.12-3.129-68.96-1.571-98.75 8.629-17.23-1.579-30.56 8.613-39.19 21.941-8.61 11.762 0 26.641 6.27 37.621 10.2 22.719 39.19 14.891 47.04 39.188 6.26 24.293 30.56 38.39 51.71 47.8l35.28-.777c13.33-8.633 26.65-18.031 43.1-19.594 25.86 12.543 36.84 40.75 47.02 65.051-18.8 55.641-80.72 50.931-119.12 81.501-32.14 25.87-52.51 66.62-88.56 81.51l-69.75-2.35c-58-24.3-115.21-72.88-144.21-130.891-6.28-18.028-20.38-35.258-36.83-46.227-43.11-14.891-83.08-37.633-127.76-47.812-43.88-6.27-76.02-43.11-111.28-70.54-18.81 0-31.36-14.89-52.52-9.398-32.13 6.27-57.21 28.207-87.77 38.398-50.95-.789-99.54 3.918-136.38 39.981-14.1 20.371-36.83 23.5-58.77 26.641-32.92 12.539-47.03 47.027-54.87 76.798 3.92 18.81 11.76 41.54 32.92 49.38 10.97 6.27 26.65 0 37.62 4.71 23.52 21.16 47.81 47.02 82.29 36.82 43.11-12.54 72.1-59.56 119.92-60.34 36.05-5.49 61.91 14.89 85.42 36.84 38.4 54.86 32.14 129.31 56.43 189.65 4.7 104.24 129.32 149.7 176.34 233.56 29.78 39.19 22.73 102.67 7.06 145.78-47.81 71.32-120.7 132.45-176.35 201.42-62.7 80.72-98.75 172.42-158.31 254.71-43.89 42.33-94.05 68.19-159.1 60.34-50.16 17.25-97.96 54.09-130.1 101.11-18.02 29-58.78 10.19-83.86 23.51-37.62 0-68.97 12.54-102.67 21.17-15.67 10.96-37.62 25.07-39.18 45.46-1.57 10.97 16.46 15.67 7.05 26.64-10.19 9.4-25.86 6.27-37.62 12.54-18.03 13.32-40.76 25.08-52.51 47.03-6.27 12.53 14.89 18.8 7.84 30.56-29 22.73-68.97 18.02-92.48 51.73-7.85 8.62-14.11 18.81-10.98 30.56 1.57 11.76 20.38 11.76 17.24 25.86-12.53 14.11-32.91 10.98-47.02 21.95-21.16 7.05-50.157 23.51-53.293 49.38-.782 11.75 3.918 22.72 14.109 27.42 20.374 0 36.834 7.84 57.214 7.84 2.35 2.36 3.14 5.49 3.14 9.41-54.085 21.16-108.163 47.02-151.264 90.13-3.922 7.84-2.356 17.24 3.129 23.51l12.539 8.62c52.511 1.57 104.236 3.14 154.396.78 3.14 1.57 7.05 5.49 5.49 10.2-83.078 43.1-166.156 87.77-238.257 157.52-17.243 19.6-32.918 42.32-28.996 70.54 12.539 21.16 38.402 3.13 55.644.78 24.297-6.27 44.668-23.51 73.668-21.16 8.621 10.98-10.187 19.6-13.32 29.79-58 68.18-127.75 130.88-137.156 218.65-5.489 7.85-3.133 18.82 1.57 25.87 6.269 10.19 21.941 13.32 32.133 6.27l95.617-55.64c3.133 0 5.484 3.13 7.055 5.49-34.489 60.34-58 124.61-82.297 188.09 3.136 25.86-17.243 45.46-8.618 69.75 4.7 9.4 14.106 14.89 23.512 16.46 27.426-4.7 47.02-32.14 67.403-49.37 3.132.77 8.617 3.13 7.832 7.83l-29.782 105.81-5.484 37.62-4.699 83.86c1.566 7.83 9.402 14.89 16.453 17.23 19.594 2.36 32.914-20.37 45.461-32.91 21.941-27.43 41.535-57.21 65.051-82.29 3.13-.79 5.48 2.35 7.05 3.92 0 31.34-17.24 54.85-17.24 85.42-11.76 22.73-9.4 50.94-21.947 73.67 2.351 42.33-6.27 89.35 7.836 126.97 7.051 10.19 18.031 20.38 31.351 15.67 43.11-29.77 46.24-80.72 77.59-117.56 13.32 1.57 4.7 25.08 7.05 35.27-10.97 31.35-2.35 68.97 0 101.11 5.49 46.23 0 101.88 46.25 124.61 10.96 1.57 19.58-8.63 23.51-17.25" style="fill:#231f20;fill-opacity:1;fill-rule:evenodd;stroke:none" transform="matrix(.13333 0 0 -.13333 0 621.63)"/><path d="M1240.78 3835.16c36.84-105.8 82.29-207.69 126.96-310.36-3.13-32.92-24.29-57.99-33.7-88.57-4.7-3.13-9.4-4.69-13.32 0-45.46 74.46-90.92 148.13-131.67 224.15-10.18 64.27 0 130.89 16.46 188.89 12.54 23.51 30.56-3.14 35.27-14.11M3481.47 3812.43c-.78-44.67 7.07-94.83-6.26-135.59 3.13-23.51-8.63-39.97-14.9-59.56-76.01-84.64-144.99-178.69-235.11-250.8-8.63-4.7-17.24-17.24-26.66-7.83-7.05 17.24-14.1 42.32-4.69 59.56 41.53 75.24 87.77 148.91 121.47 227.29 41.55 67.39 74.47 138.71 116.78 206.9 6.27 7.05 17.25 6.27 24.3.78 13.32-11.75 19.59-25.86 25.07-40.75M2417.16 3698.01c16.46-19.59 15.68-49.38 11.76-74.46-7.84-30.57-37.62-57.21-66.62-68.97-32.13-4.7-60.34 8.62-81.51 32.92-7.83 14.11-15.67 27.43-14.88 44.67-7.06 14.11-19.6 4.7-27.44-.78-19.59-14.11-22.72-34.49-25.86-54.86 2.35-30.57 29-59.57 56.43-70.54 52.51-25.86 113.64-3.92 164.58 7.84 4.7-2.36 11.76-7.84 11.76-13.33-18.03-43.1-42.32-83.86-63.49-125.39-19.59-7.84-32.92 17.24-50.15 24.29-27.43 14.11-50.95 37.62-82.29 42.32-23.52 1.57-50.94-1.57-62.7 25.09-31.35 36.04-32.14 92.47-18.03 137.15 18.03 61.13 76.03 133.23 144.2 141.85 38.41-7.83 86.22-2.35 104.24-47.8M1144.38 3703.5c29.78-42.33 51.72-87.79 79.16-130.89 34.48-55.65 68.18-112.07 97.96-170.08 3.14-15.67-8.62-24.29-10.97-37.61l-16.46-54.87c-3.13-1.56-6.27-5.48-10.18-2.35-56.43 62.7-107.38 124.61-160.67 188.1-21.95 62.7-29 134.02-23.51 206.91 3.91 10.18 5.49 22.72 16.46 28.21 17.23 0 18.02-18.81 28.21-27.42M3542.61 3642.36c10.19-61.13-20.38-110.51-43.11-160.67-19.59-41.54-63.48-57.21-95.61-83.85-15.68-17.25-36.06-21.95-53.29-33.71-41.55-32.92-84.65-62.7-128.54-88.56-22.73.78-10.18 32.13-18.81 47.03l3.14 9.4c32.13 32.13 68.96 58.78 101.1 92.48 67.4 77.59 138.72 154.4 206.9 231.2 11.76 11.76 23.51-4.7 28.22-13.32M1061.3 3532.64c23.51-26.65 54.08-50.17 72.1-78.37 50.16-43.11 80.73-97.97 130.11-141.08 12.54-21.16 39.97-39.19 26.64-67.4 3.14-24.3 3.92-48.59 4.7-73.67-3.91-10.97-12.53-2.35-17.23 1.57l-180.27 150.47c-20.37 32.92-36.05 67.4-43.1 105.8-11.75 29.79-21.95 68.98-9.41 100.32 3.92 5.49 11.76 7.06 16.46 2.36M3606.09 3499.72c-2.35-70.54-52.51-122.27-92.48-177.91l-18.82-12.54c-88.55-38.4-174.76-83.86-263.33-122.26-3.91 1.57-8.62 3.92-9.4 8.62-1.57 19.59-14.1 40.76-3.13 60.35 65.04 44.67 129.31 89.34 194.36 134.02 58 39.96 115.21 81.5 171.64 124.61 10.19.78 17.25-7.05 21.16-14.89M2512.77 3425.26c36.06-15.67 75.25-31.35 116-30.56 7.06-3.14 9.4-13.32 5.49-20.38-15.68-18.81-39.19-29-59.56-41.53-16.47-1.58-29.01 13.32-47.02 8.61-25.08.79-49.38-13.32-76.82-5.48-22.73-.78-44.67 8.62-56.43 29 14.9 39.18 36.84 76.02 57.22 113.64l7.83-2.35 53.29-50.95" style="fill:#fff;fill-opacity:1;fill-rule:evenodd;stroke:none" transform="matrix(.13333 0 0 -.13333 0 621.63)"/><path d="M2377.2 3352.38c17.23-1.57 25.86-23.51 41.53-25.87 33.7-3.91 66.62-13.32 97.97 0 10.18-2.35 26.64 6.28 28.99-8.62-12.54-19.59-30.56-32.92-43.88-51.72-10.97-7.06-22.73-16.46-36.06-12.54-9.4 4.7-19.59 10.19-27.43 20.37-3.92.79-7.83-1.56-9.4-4.69-21.16 17.23-52.51 8.61-73.68-3.93-48.58-24.29-95.61-54.86-149.68-65.05-28.22-3.13-55.65 1.57-69.75 23.52 2.35 17.24 31.34 14.88 24.29 34.48-13.32 25.86-42.32 35.27-57.21 58.78-1.57 23.51-11.76 55.64 12.53 69.75 29.01 11.76 57.22 28.22 86.22 39.97 36.05 5.48 72.1.79 100.32-18.81l75.24-55.64" style="fill:#fff;fill-opacity:1;fill-rule:evenodd;stroke:none" transform="matrix(.13333 0 0 -.13333 0 621.63)"/><path d="M2315.28 3353.94c3.92-2.35 4.7-7.05 3.13-10.97-11.75-10.97-29-8.62-42.31-15.67-37.63-5.49-55.65 35.27-87.78 42.32-3.93 16.46 16.45 6.27 22.72 13.32 42.32 22.73 68.97-21.94 104.24-29" style="fill:#231f20;fill-opacity:1;fill-rule:evenodd;stroke:none" transform="matrix(.13333 0 0 -.13333 0 621.63)"/><path d="M1117.73 3289.68c58.78-54.86 120.7-102.67 180.26-155.97 5.52-13.22 21.29-85.65 7.84-97.18l-12.54 4.7-242.96 137.16c-32.92 46.24-52.51 97.18-62.697 152.82 3.133 16.46-7.836 40.76 9.41 49.38 46.237-16.46 80.717-59.56 120.687-90.91M2287.85 3350.03c.78-4.71-4.71-7.06-7.06-9.41-4.69-.78-10.18.78-10.18 5.49-1.57 6.27 4.7 7.05 7.83 9.4 4.7 1.57 7.84-2.35 9.41-5.48M2637.39 3293.6c7.84-44.68 39.97-79.16 68.98-113.65 2.34-29.78-32.14-18.02-47.82-27.43l-196.71-47.8c-7.05-2.35-10.98 4.7-14.9 9.4 3.14 39.97-.78 84.64-.78 124.61 3.92 9.41 8.63.79 14.11 0 38.4-6.27 59.56 30.58 83.07 51.73l76.81 51.73c28.22.78 10.97-32.92 17.24-48.59M3591.98 3322.6c-12.54-57.22-65.83-97.19-105.02-142.65-43.1-48.58-108.15-45.45-165.37-61.13-28.21-5.48-56.42-13.32-86.21-11.75l-7.83 8.62c5.49 20.37-12.54 45.46 8.62 57.21 114.43 54.86 228.07 110.51 344.05 159.1 6.27 0 9.41-4.7 11.76-9.4M1479.82 3295.16l21.16-49.37-1.57-9.4c-36.83-30.57-66.62-68.19-54.86-119.13-10.97-26.65-14.11-54.08-9.4-84.65 0-10.18-2.36-19.59-6.27-28.21-2.36-1.57-5.49 0-8.63-.78-10.96 17.24-10.18 38.4-17.24 56.42-1.56 50.95 0 94.84 2.36 144.99 9.4 41.54 23.51 80.73 42.32 118.35 19.59 14.89 22.72-18.03 32.13-28.22" style="fill:#fff;fill-opacity:1;fill-rule:evenodd;stroke:none" transform="matrix(.13333 0 0 -.13333 0 621.63)"/><path d="M2024.51 3293.6c2.36-10.19-7.05-17.25-14.89-21.16-21.94-7.84-47.8-6.27-68.18-17.25-10.19 3.14-8.62 14.12-3.13 19.6 17.24 21.95 46.23 16.45 66.61 30.56 9.41 3.14 17.25-4.7 19.59-11.75" style="fill:#76cee6;fill-opacity:1;fill-rule:evenodd;stroke:none" transform="matrix(.13333 0 0 -.13333 0 621.63)"/><path d="M2425.78 3208.17c13.33-48.59.79-102.67 4.71-155.18 3.13-29-5.49-52.51-7.84-78.37-5.49-47.03-7.84-94.84-15.67-140.29-2.35-43.89-14.11-83.86-18.82-126.97-8.62-34.48-48.59-40.75-72.1-63.48-56.43-39.19-108.15-90.91-164.59-131.67-20.37 3.14-34.47 22.73-53.29 29.78-17.24 3.14-32.91 12.54-50.15 17.25-17.25-2.36-32.13 2.35-47.03 7.05-61.91 3.13-129.32 14.89-190.44.78-13.33 3.92-29.79-7.05-38.41 6.27 92.48 124.62 174.77 254.72 242.18 390.3 26.64 31.35 71.31 3.92 102.67 23.52 25.86-8.63 40.75 14.89 64.26 7.05 18.81-2.35 31.35 14.89 52.51 11.76 12.54 7.83 27.43 15.67 43.89 10.97 19.6 10.19 47.03 14.1 55.65 39.18 7.05 28.22 13.32 57.22 13.32 88.57 7.05 43.1 10.19 94.04 52.51 115.21 3.92.78 10.19.78 14.1 0 18.03-10.98 3.92-36.84 12.54-51.73" style="fill:#af50aa;fill-opacity:1;fill-rule:evenodd;stroke:none" transform="matrix(.13333 0 0 -.13333 0 621.63)"/><path d="M2338 3214.44c-19.59-45.46-14.88-101.1-28.99-149.7-2.35-1.56-4.7-.78-7.83-.78-4.71 12.54-2.36 28.22 2.34 40.76 4.71 24.29 3.14 50.94 10.19 73.67 0 4.7-4.7 7.83-7.84 9.4-25.86-5.49-12.54-35.27-18.8-53.29l-10.97-83.08c-3.14-3.13-6.28-5.48-10.19-4.7l-4.71 7.84c10.19 34.48 7.84 74.45 11.76 109.72-.78 3.14-3.92 5.49-6.27 7.06-7.84.78-11.76-7.84-13.33-13.33-.78-42.32-8.61-81.51-14.89-121.48-3.91-2.35-7.05-9.4-12.54-5.49-9.4 8.63-5.48 26.65-3.91 37.63 7.05 28.99 14.89 57.21 15.67 88.56-1.57 3.13-3.92 5.48-7.84 6.27-7.83-.79-8.62-8.62-10.18-14.9-8.63-36.83-13.33-76.01-21.95-112.85-2.35-3.92-3.92-8.62-8.62-12.54-3.92 0-7.84 0-10.19 3.92 2.35 39.18 13.33 74.45 21.94 111.29 3.92 4.7 7.84 12.54 4.71 18.81-3.92 5.48-11.76 5.48-14.9-.79-17.23-33.7-17.23-74.45-29.78-109.72-3.91-11.76-.78-29-16.45-35.27-7.06-3.13-10.19 4.71-13.33 8.62 8.62 40.76 27.43 77.59 32.92 119.91 0 5.49 3.13 13.33-3.92 16.46l-6.27-2.35c-18.81-43.1-28.21-90.13-43.1-134.02-3.92-5.48-7.06-12.54-13.33-16.45-4.7-.79-8.62 3.13-10.19 7.05 10.19 51.73 33.71 98.75 47.03 150.48-3.14 2.35-3.92 8.62-9.41 7.83-10.18-1.56-13.32-11.75-17.24-19.59l-42.32-128.53c-4.7-7.84-12.55-15.68-20.38-17.24-16.46 11.75 2.35 30.56 5.49 45.45 17.24 40.76 39.97 79.94 53.29 122.27-1.57 2.35-3.13 6.27-6.27 8.61-7.83.79-14.89-7.83-16.46-14.1-9.4-39.19-40.75-69.75-48.59-109.73l-25.07-52.5c-9.41-7.06-21.17-12.54-32.14-10.19-7.05 3.91-3.14 13.32-.78 18.02 38.4 58.78 68.97 122.26 110.5 180.26 21.17 10.97 39.97-5.49 57.22-14.89 44.67-7.84 89.34.79 129.31 10.97 18.02 12.54 39.19 18.03 56.43 32.92 5.49 2.35 7.84-3.14 10.18-6.27" style="fill:#54a468;fill-opacity:1;fill-rule:evenodd;stroke:none" transform="matrix(.13333 0 0 -.13333 0 621.63)"/><path d="M1537.03 3192.5c7.05-19.6 7.83-46.25 32.92-54.08 14.89-6.27 21.94-21.95 28.21-35.27-3.13-47.81-18.81-93.26-33.7-137.16-3.92-2.35-8.62-7.05-12.54-2.35-27.43 51.73 28.22 97.19 1.57 148.91-7.84 18.82-27.43 29.79-45.45 32.14-12.55-2.35-29.79-7.84-40.76.78-13.32 7.84-6.27 25.09-3.13 35.27 7.05 14.89 21.15 29 36.05 35.27 17.24 4.7 29.78-10.98 36.83-23.51" style="fill:#af50aa;fill-opacity:1;fill-rule:evenodd;stroke:none" transform="matrix(.13333 0 0 -.13333 0 621.63)"/><path d="M3044.15 3205.03c12.54-22.73 3.14-54.86 14.89-78.37 5.49-31.35-6.27-67.4 7.05-95.62-13.32-24.29-.78-59.56-14.1-83.85-3.13-39.97-21.94-74.46-33.7-110.51-20.38-32.92-43.89-64.27-68.97-95.62-67.4-67.4-152.83-94.83-231.2-136.37-139.51-54.07-282.14-102.67-412.25-179.47-80.72-47.81-159.09-129.32-160.66-226.51 3.92-38.39 28.22-69.75 55.64-97.18-2.34-3.13-3.13-4.7-7.05-6.26-37.62 11.75-83.86 28.21-99.53 70.52-7.06 28.23-14.89 65.84-.78 93.28 18.02 83.07 86.2 154.39 156.74 207.69 72.89 32.13 134.02 89.34 206.12 121.48 48.59 35.26 101.1 61.91 151.27 93.26 97.17 51.73 233.54 113.64 253.92 237.47 12.54 34.49 3.92 77.59 7.84 115.21l7.84 12.54c56.42 53.29 99.53 113.64 156.74 164.58 3.92 0 9.41-1.56 10.19-6.27M1043.28 3165.85l239.82-135.59c14.89-11.75 36.84-18.03 43.89-37.61.78-23.52 9.41-43.9 14.11-65.84 0-3.92-4.7-8.62-8.62-8.62-65.84 18.81-137.94 20.37-195.16 60.34-67.39 52.51-141.851 117.57-164.582 198.29-.781 7.84-.781 17.24 7.059 19.59 20.383-13.32 48.593-10.97 63.483-30.56M3607.66 3147.04c-3.14-12.54-14.9-21.16-25.08-28.22-51.73-33.69-108.94-54.86-162.24-83.86-32.13 2.36-58.78-11.75-91.7-9.4-25.07-7.05-51.72-6.27-76.79-12.54-9.41 2.35-21.96 5.49-25.87 17.24 10.97 17.24-7.84 48.6 15.67 58.78 71.32 14.11 142.65 24.3 209.26 49.38 46.25 10.18 92.48 30.56 143.43 22.73 5.48-3.14 11.75-8.63 13.32-14.11M2681.28 3137.64l-36.84-86.22c-4.69-37.62-3.91-77.59 7.06-112.86-.79-9.4-8.62-16.46-17.24-19.59-10.19 1.57-19.59-3.13-27.43 3.92-53.29 5.48-110.51-.79-160.67 6.27-17.24 18.81 0 43.89.78 65.05.78 17.24-1.56 35.27 5.49 49.38-2.35 14.89.78 30.56 7.84 43.1 70.54 22.73 144.99 37.62 217.09 56.43l3.92-5.48M1544.08 3093.75c11.76-50.95-33.69-91.7-5.48-141.08 7.84-16.46 25.86-6.27 36.83-15.67 27.44-65.84 97.19-100.32 154.4-130.1 41.54-18.02 81.51-39.97 120.69-64.27 10.97-6.27 7.84-18.03 3.14-25.86-50.95-62.7-78.38-156.75-164.58-184.18-18.82-.78-37.62.78-52.51 9.4-40.76 79.95-92.49 155.97-130.89 236.69-14.89 29 14.11 58.78.78 87.78-8.61 26.65-38.4 25.86-54.08 43.89 9.41 14.11 34.5 21.94 37.62 41.54 3.14 26.64-14.88 52.51.79 76.02 13.33 21.94 25.86 48.59 13.33 74.46-3.92 6.27-12.55 11.75-8.63 19.59 4.71 8.62 14.9 6.27 20.38 3.13 11.76-7.04 25.08-17.24 28.21-31.34" style="fill:#fff;fill-opacity:1;fill-rule:evenodd;stroke:none" transform="matrix(.13333 0 0 -.13333 0 621.63)"/><path d="M1487.66 3086.69c12.54-40.75-33.7-65.83-18.81-106.58 5.48-10.19 6.27-24.3 3.13-35.27-5.49-9.41-15.68-11.77-24.29-7.84-10.98 5.48-16.46 17.24-18.81 28.21 19.59 33.7 25.08 76.81 15.67 117.56 2.35 7.06 8.62 12.54 14.89 14.89 11.76.79 22.73 0 28.22-10.97" style="fill:#af50aa;fill-opacity:1;fill-rule:evenodd;stroke:none" transform="matrix(.13333 0 0 -.13333 0 621.63)"/><path d="M3606.09 3026.34c-11.75-33.69-48.6-41.54-74.46-57.99-74.45-31.35-155.96-68.19-243.74-43.89l-69.75 2.35-7.06 8.62c5.49 21.16 1.58 47.81 21.17 61.91 12.54-2.35 21.94 3.14 32.13 6.28 25.86 3.13 54.87-2.36 76.81 8.61 26.64-3.13 48.6 4.71 72.88 7.84 25.08 7.84 54.08 7.84 80.72 10.97 14.9 10.19 36.84 3.92 51.73 13.33 22.74 0 47.02 2.35 59.57-18.03M1205.51 2933.07c29-3.91 55.65-12.53 82.29-21.15 21.16-10.19 47.81-6.27 66.62-21.95 26.65-31.35-18.02-50.15-29.78-74.45-11.76-7.05-25.87 2.35-40.75-.79-39.97 4.71-86.21-10.97-119.13 13.33-52.51 26.65-114.43 68.18-137.94 126.18-1.57 9.4-1.57 23.51 10.97 25.87 59.56-5.49 113.65-26.65 167.72-47.04" style="fill:#fff;fill-opacity:1;fill-rule:evenodd;stroke:none" transform="matrix(.13333 0 0 -.13333 0 621.63)"/><path d="m2276.1 2942.48 7.04-13.32c3.93-36.84-3.91-68.97-10.96-101.89-15.68-46.24-18.03-97.96-33.71-144.21-7.84-14.1-17.24-31.34-32.91-38.4-68.97-15.67-144.99-9.4-211.61 9.41-9.41 6.27-18.03 16.46-14.11 28.21 27.44 43.11 56.43 90.13 102.67 119.91 37.62 38.41 67.4 77.59 108.15 115.22 22.74 21.15 54.87 51.72 85.44 25.07" style="fill:#231f20;fill-opacity:1;fill-rule:evenodd;stroke:none" transform="matrix(.13333 0 0 -.13333 0 621.63)"/><path d="M1453.96 2888.41c14.89-6.27 32.13-10.19 41.53-25.08 5.49-38.4-18.02-69.76-37.61-100.32-9.41-14.9-7.85-36.83-20.38-48.59-7.06-1.57-7.06 5.49-8.62 9.4-1.57 31.35 1.56 60.35 7.05 89.35 4.7 36.83-39.19 35.27-52.51 61.91 0 11.76 7.83 22.73 7.83 35.27 3.93 6.27 10.2 12.54 18.04 14.11 24.29 2.35 26.64-26.65 44.67-36.05" style="fill:#af50aa;fill-opacity:1;fill-rule:evenodd;stroke:none" transform="matrix(.13333 0 0 -.13333 0 621.63)"/><path d="M2618.58 2903.29c-12.54-30.56-35.26-55.64-43.88-87.77-25.87-14.89-43.11-47.03-72.1-55.65-26.65 0-52.52.79-76.03 7.06-23.51 14.1-2.35 39.18-3.92 58.78 1.57 26.64 10.97 50.16 8.62 78.37l5.49 8.62 181.82-9.41M3319.25 2903.29c43.1-2.34 82.28-2.34 124.61-3.91 33.7-8.62 78.37 4.7 103.45-22.73.79-13.32-13.33-22.73-24.29-28.21-32.14-18.82-70.54-20.38-106.59-30.57-29-1.57-56.43-12.54-87-9.4l-148.13 31.35c-7.83 5.48 0 14.1 1.57 20.37 10.2 16.46 12.54 38.4 26.65 52.51 37.62-1.56 74.45-3.92 109.73-9.41M1413.98 2824.93c15.68-17.25 1.57-41.54-2.34-60.35 3.91-25.87-9.41-60.35 11.75-80.73 61.91-64.27 126.97-125.39 203.77-156.75 19.59-2.35 39.19-10.97 61.13-7.83 26.65 7.83 47.81 27.43 78.38 26.64 34.48 5.49 72.89 3.14 107.37 9.41 29.78-3.92 54.08 4.7 82.29-3.92 39.19 7.06 68.18-12.54 104.24-12.54 24.29-10.19 52.51-22.73 65.05-48.59l-3.92-12.54-61.92-91.7-35.27-93.26 1.57-60.35c9.41-78.38 91.7-123.83 157.53-145.78 10.19.79 19.6-10.19 29-4.7 4.7 2.35 11.76 7.84 11.76 13.33-10.2 23.5-37.62 35.26-50.94 57.2-1.57 4.7 1.56 11.76 7.83 11.76 29-16.45 63.49-22.72 97.18-27.43 12.55 7.05 30.57.78 37.62 15.67 3.92 10.19-10.19 21.95 3.92 26.65 34.48-18.8 88.56-4.7 103.45-54.08 39.98-64.27 82.3-128.53 131.67-188.87 31.36-40.76 64.27-83.87 103.45-119.14 47.82-40.75 72.1-93.26 107.38-140.29 34.48-78.37 76.8-152.82 136.36-221 36.06-30.57 75.25-55.65 117.57-71.32 26.64-14.11 58.77-14.11 86.21-25.08 17.24 3.92 26.64-7.84 41.54-7.84 37.61-3.92 70.53 7.05 104.24 8.62 10.96 7.83 26.64 3.92 37.61 10.19 45.46 15.67 88.57 53.29 107.38 98.75 21.94 39.97 11.74 93.27 12.54 140.29-14.12 64.26-22.73 133.23-83.08 176.34.78 26.65 27.43 44.67 41.53 66.61 3.93 3.92 9.41 4.71 14.11 3.14 49.38-49.37 75.24-110.5 88.57-175.56 23.51-89.34 28.99-202.98-30.57-277.44-34.49-50.16-84.65-93.27-141.07-108.16-19.6.78-36.06-11.75-56.43-14.1-50.95-.78-106.59-3.14-153.61 5.49l-63.49 3.91c-32.14 14.9-64.27-3.13-95.61-7.05-61.92-25.08-81.51-90.13-97.97-145.78 2.35-37.62-6.27-79.93 7.84-112.85 7.83-25.869.78-51.728-8.62-75.24-19.59-35.269-39.97-71.32-59.56-106.59-18.03-11.75-28.23 21.16-47.82 14.11-34.48-1.571-56.42-34.489-90.9-34.489-35.28 1.571-69.76 25.86-103.46 7.047-13.32-3.906-28.21-14.886-32.92-28.207-2.35-3.922-6.27-1.562-9.41-2.351-7.05 11.761-3.91 29 2.36 39.968 30.56 40.75 83.07-9.41 113.64 27.43 7.05 7.063 14.1 14.891 15.67 25.082 0 21.942-38.39 29.781-25.86 53.301 3.14 17.23 8.63 41.527-8.62 54.07-38.41 44.679-98.75 38.409-137.94 83.869-27.43 28.99-48.59 77.59-95.61 72.1-65.05-5.49-116.78-39.97-164.59-85.43-30.56-32.92-37.62-79.16-77.59-103.449-36.83-13.332-69.75-36.051-109.72-41.539-39.18-13.32-77.59-26.652-108.15-61.141-21.16 2.36-15.68 31.348-37.62 37.618-40.76 10.203-89.35 0-121.48 29.793-23.51 17.238-43.89 43.886-77.59 36.046-17.24 0-29.79-31.347-45.46-13.316 5.49 25.066-10.97 63.478 21.95 72.878 49.37 1.57 79.93-47.019 124.61-59.562 16.46-3.128 35.27-10.968 50.94-.777 12.54 8.617 27.43 21.938 29 37.619-.78 10.96-20.38 21.16-6.27 32.91 66.62 42.32 68.97 123.05 80.73 194.37 12.54 31.35 15.67 66.61 32.13 97.18 54.86 81.51 170.07 130.88 174.77 236.69 7.06 28.21-11.76 45.46-9.4 71.32-10.98 50.95-60.35 85.43-92.48 126.97-43.9 47.02-94.05 93.26-122.26 148.12-66.62 72.89-85.43 169.28-161.46 235.9-21.16 18.81-52.51 13.32-76.02 25.87-47.8-6.28-83.86 14.11-118.34 37.62-66.62 69.75-116.78 145.78-177.91 217.88-32.92 41.54-70.54 81.51-73.67 134.8 1.57 4.7 4.7 10.19 9.4 11.76 14.89-3.14 29 0 38.41 11.75 22.73 31.35 28.21 72.89 21.16 112.86 16.46 39.19 63.47 80.73 29 124.61-5.49 6.27-19.6 12.55-13.33 22.73 14.11 5.49 21.94-13.32 35.27-15.67l9.4-5.48" style="fill:#fff;fill-opacity:1;fill-rule:evenodd;stroke:none" transform="matrix(.13333 0 0 -.13333 0 621.63)"/><path d="M1754.13 2731.66c45.45-39.19-10.98-79.16-20.38-117.56-7.84-9.41-17.25-15.67-28.21-15.67-36.06 14.1-43.89 53.29-64.28 80.72-17.24 45.45-50.93 86.21-43.88 138.72 3.92 5.48 9.41 10.97 15.68 11.75 53.29-16.45 94.04-65.04 141.07-97.96" style="fill:#231f20;fill-opacity:1;fill-rule:evenodd;stroke:none" transform="matrix(.13333 0 0 -.13333 0 621.63)"/><path d="M3242.44 2809.25c43.89-2.35 85.42-16.46 126.96-25.86 42.33-7.06 80.73-22.73 125.39-23.52 12.54-10.97 44.68 2.36 40.77-25.08-18.03-14.88-39.97-21.94-62.71-26.64-35.26 2.35-65.05-12.55-99.53-15.68l-228.07 72.11c-6.27 3.91-3.91 13.32-2.35 18.02 13.33 14.89 17.25 44.67 43.11 42.33 18.8-5.49 39.97-5.49 56.43-15.68" style="fill:#fff;fill-opacity:1;fill-rule:evenodd;stroke:none" transform="matrix(.13333 0 0 -.13333 0 621.63)"/><path d="M1377.15 2800.63c10.18-48.6-45.46-74.45-40.75-123.05 8.61-25.08 1.56-52.51-9.41-74.45-7.05-7.06-14.89-17.25-25.86-13.33-16.46 13.33-.79 35.27-3.14 54.08l29 70.54c4.7 32.91-11.76 79.93 21.95 99.53 11.75 2.35 22.72-2.35 28.21-13.32M1722.78 2742.63c18.03-18.03 43.89-36.05 32.13-64.27-14.89-17.23-18.81-41.53-41.54-53.29-18.81 0-29.78 18.81-43.89 30.57-23.51 40.75-41.54 84.64-59.56 127.75-1.57 9.4-5.49 25.86 7.05 30.56 39.19-14.11 68.19-54.08 105.81-71.32" style="fill:#af50aa;fill-opacity:1;fill-rule:evenodd;stroke:none" transform="matrix(.13333 0 0 -.13333 0 621.63)"/><path d="m1302.7 2799.06 9.4-11.76c-6.27-28.21 15.67-75.24-18.81-89.34-22.73 0-44.67-2.36-65.05-8.62-17.24 8.62-39.19 6.26-55.65 17.24-32.13 16.46-65.83 30.57-92.48 59.56-4.7 6.27-9.4 14.11-6.27 21.16 6.27 13.33 21.95 9.41 32.14 14.11 67.4-2.35 130.09.78 196.72-2.35M2463.41 2741.06l-46.25-29.78c-3.92.78-7.05 2.35-9.4 5.49-.78 14.1-.78 29 13.32 35.26l42.33-3.92v-7.05M3189.14 2730.09c21.16-5.49 39.97-20.37 64.27-13.32 18.81-3.14 32.14-18.81 52.51-18.03 10.97-11.75 29-.78 39.19-14.1 35.26-7.06 66.62-21.16 96.39-42.33 5.49-4.7 7.85-11.75 5.49-18.81-24.29-28.99-68.96-16.46-102.66-21.94-29.01 7.05-62.71-3.92-89.35 9.4-28.22 2.35-55.65 5.49-76.82 25.08-32.91 22.73-67.39 41.54-98.74 65.05 14.9 14.11 24.29 34.49 43.11 43.89 26.64 5.49 44.67-8.62 66.61-14.89M3244 2585.1c21.95-16.46 47.82-32.13 64.27-55.64.78-6.28-4.7-12.55-10.97-14.11-29.78-.79-62.7 1.56-92.49 6.26-37.61 10.2-77.58 15.68-112.85 34.49-33.7 25.87-69.75 47.03-101.1 78.38 11.76 19.59 35.26 21.16 50.95 36.05 7.83 7.05 15.66 16.46 25.07 20.38 58.78-35.27 115.99-74.46 177.12-105.81" style="fill:#fff;fill-opacity:1;fill-rule:evenodd;stroke:none" transform="matrix(.13333 0 0 -.13333 0 621.63)"/><path d="M183.789 2685.42c17.246-28.21 66.617-52.51 43.891-87.78-.785-33.7-7.055-74.46 5.484-105.02 6.274-30.57-9.402-51.73-11.754-78.38-5.488-35.26-25.082-67.4-16.461-107.37 8.625-31.35 27.434-60.34 20.379-97.18-24.293-50.95-19.598-123.84 17.246-166.93 13.321-31.36 29.774-61.93 21.942-100.32-11.758-24.3-5.489-57.22-5.489-84.64 10.977-40.77 37.621-74.47 41.539-118.35 1.567-7.84 7.051-14.9 14.106-19.59 25.078.78 45.461 14.89 70.539 17.23 11.758 6.27 10.977 20.38 5.488 29.79-21.164 37.62-30.566 81.5-28.215 127.74 13.321 72.89-.785 148.14-28.214 211.61.785 14.9-.786 29.01-5.493 42.33 3.922 32.91 13.332 62.69 20.383 94.83-7.051 41.54-20.383 80.72-33.699 119.91-3.922 29 13.316 49.38 14.105 76.81 10.969 18.81-.789 49.38 18.028 63.48h3.133c15.679-16.46 42.324-29.78 46.242-53.29 7.836-55.65-16.461-101.89-3.918-154.4 24.293-38.41 25.859-94.83 13.32-139.51l.781-70.54c11.758-37.61 36.84-70.52 31.356-115.98-20.379-70.54 0-143.43 37.613-199.86 10.192-12.54 20.383 3.92 32.137 3.92 21.941 7.05 43.887 11.76 66.613 17.25 10.192 3.91 7.059 14.88 3.918 21.94-24.293 36.83-32.129 89.34-17.242 133.23 4.707 29-9.402 50.95-16.453 76.03-22.731 36.04-25.864 86.21-11.758 126.96 11.758 36.05-5.488 69.76-10.973 103.46-16.461 25.86-4.695 61.12-7.05 90.91 3.917 3.13 7.835 7.06 12.535 3.92 28.215-23.52 61.918-42.32 83.082-74.45-.785-43.12 11.758-79.95 10.183-123.84 4.707-18.03 5.489-39.97 6.27-61.13 13.324-18.81.785-48.6 14.109-68.19 27.43-141.85 70.539-277.44 134.02-405.18 61.914-137.94 147.34-266.48 250.008-387.95 83.86-92.48 175.56-188.11 275.1-257.851 108.15-84.648 227.28-144.988 345.62-205.348 30.57-11.75 61.91-24.293 93.27-36.05 15.67-15.672-7.06-31.352-7.84-48.582-31.35-99.539-72.1-195.161-103.45-294.688 1.56-18.812 22.72-18.812 32.91-31.351 29-9.399 63.48-4.711 93.26-10.981 21.17 4.711 48.59 4.711 72.89 3.141 39.98-6.27 73.67-28.211 105.81-53.289 23.51-17.25 52.51-18.809 79.94-28.211 36.84 3.91 69.75 17.23 104.24 28.211 54.86 4.711 86.99-47.02 138.72-50.161 29.78-10.968 60.34 3.918 87.77 12.54 47.81 23.511 105.81 38.402 160.66 19.589 14.12-9.398 32.14-8.621 47.82-14.097 27.43 3.918 47.8-14.891 74.45-5.492 45.46 9.41 82.29 40.75 121.48 64.269 25.86 7.051 57.99 21.941 84.64 5.481 21.16.789 39.19-5.481 58-7.829 36.06 2.348 66.62 16.45 98.75 27.43 11.76 14.891 36.84 16.449 36.84 38.399-38.4 110.5-80.73 219.441-116.78 331.519l6.27 7.051c72.89 29 146.56 56.43 213.96 99.531 60.35 32.141 118.34 67.399 176.34 105.809 194.37 136.37 369.92 331.52 490.62 528.23 101.1 174 177.13 358.96 214.74 559.59 13.32 22.73 3.92 54.87 14.9 79.16 0 22.73 1.56 44.67 7.05 65.83-2.36 39.19 13.32 70.54 8.62 110.51 22.72 31.35 56.42 50.95 85.43 72.89 5.49 0 12.54-2.35 11.75-8.62-4.7-28.21 5.49-61.92-8.62-85.43-18.8-43.89-13.33-101.89-.79-146.55l-7.83-53.3c-6.27-25.86-25.87-45.46-25.87-73.68-18.81-39.18 15.69-70.53 2.35-111.29l-27.43-66.61c13.33-16.46 36.84-14.89 55.65-22.73 15.67-5.48 35.27-7.05 51.73-3.92 28.21 31.35 37.61 72.89 43.1 113.65 3.92 46.24-14.1 87.78-2.35 131.67l25.87 65.04c2.35 33.71 4.69 72.9-5.49 101.89.78 23.51-7.05 53.29 7.05 72.89.79 16.45 10.98 29.78 16.46 44.67-1.57 22.73 4.7 45.46-5.48 65.05l-3.14 85.43c10.19 18.8 31.35 32.92 46.24 48.59 4.7 1.57 7.83-1.57 11.76-4.7l6.27-39.97c7.83-34.49 23.51-67.41 15.67-106.59-7.06-32.92-25.07-60.35-29.78-94.05 2.35-39.19 17.24-72.88 19.59-112.07-3.14-14.9-4.7-31.36-6.26-47.03-29.79-61.92-37.63-138.72-26.65-211.61 2.34-44.67-11.76-85.43-29-123.82.78-4.71 1.57-10.2 6.26-13.33 27.43-2.36 44.68-27.44 70.54-30.57 14.89 10.19 17.25 28.21 18.03 45.46 14.89 44.67 47.81 81.5 37.61 136.37 4.71 28.21-11.74 47.81-7.05 76.02 6.27 35.27 21.17 66.61 43.11 95.62 18.81 43.88 13.33 102.66-3.92 146.55-1.57 35.27 16.46 63.49 22.73 95.61 6.27 56.44-25.86 97.2-30.57 148.92 0 18.81-.78 38.4 7.84 54.08l-3.92 105.8 45.46 57.22c15.67 2.35 9.06-21.16 12.99-32.92 6.43-40.76 10.6-79.05 13.52-118.09 4.71-62.96 8.27-125.93 8.27-191.53 0-42.1.44-83.35-2.35-124.89-4.82-71.59-11.19-143.16-23.19-214.66-21.51-128.17-53.14-253.41-96.95-377.63l-4.77-9.3c-72.88 24.29-147.34 48.59-218.66 76.8-39.19 10.98-76.03 25.87-114.43 38.41-6.27 0-12.54-3.92-14.1-10.97l-24.3-64.27c7.05-16.46 24.3-3.14 37.62-7.05 25.86-6.27 51.73-14.11 73.67-31.35 28.21-21.16 53.29-50.95 86.21-61.13 23.51-2.36 48.6-.78 68.97-11.76l61.27-46.72c-5.6-21.89-18.15-42.3-26.82-63.61-10.98-7.05-17.99 3.74-25.83 9.22-21.16 23.52-47.8 34.5-73.67 47.03-23.51-7.84-47.02-.78-69.75 4.7-39.19 17.25-58.79 68.19-99.54 80.73-15.67 12.54-39.97 8.62-59.56 7.05-20.38-21.95-25.87-51.72-39.97-77.59-3.14-7.05-10.2-13.32-7.05-21.94 20.37-29.01 63.48-7.06 89.33-22.73 45.46-8.62 69.76-68.18 114.44-79.94 21.16-1.57 43.1-3.92 63.47-9.4l50.61-50.3c-9.26-22.09-22.44-43.59-34.03-63.59-18.56-6.62-22.92 19.1-36.95 28.46-19.59 7.06-34.49 30.56-58.78 21.16-14.89-5.49-29 6.27-44.67 4.7-39.97 36.05-75.24 91.69-135.59 83.07-23.51-13.32-49.37 35.27-62.69-5.48-7.06-15.67-20.39-28.21-30.57-41.54-1.57-14.89 12.54-24.3 21.94-32.92 75.24-48.58 149.69-98.75 224.93-148.12 13.33-13.33 33.87-17.86 44.85-33.53l-4.02-7.25c-68.47-101.1-143.33-196.182-227.36-284.26-.23-.262-.48-.512-.72-.769-4.46-4.661-8.96-9.289-13.46-13.93a2295.501 2295.501 0 0 0-83.79-81.742c-4.11-3.809-8.23-7.61-12.37-11.379-1.26-1.149-2.53-2.301-3.79-3.449A2202.51 2202.51 0 0 0 3622.3 584.18c-21.19-15.52-42.46-30.442-63.76-44.641-14.1.801-17.23 17.25-21.93 28.231 13.32 64.25 80.72 119.121 139.5 139.5 53.29 24.3 100.33 68.179 137.94 115.992 24.3 64.258 83.86 117.558 141.86 154.386 32.13 29.002 53.3 65.062 82.29 95.622-14.89 31.35-50.16 43.89-73.67 69.75-24.3-3.13-21.94-32.13-35.27-47.02-29-38.4-67.4-70.54-110.51-83.86-54.07-31.359-65.05-94.05-108.15-137.16-41.54-32.91-84.64-60.339-131.66-78.371-49.39-25.847-79.16-76.019-105.81-119.91-3.92-4.699-10.97-7.84-15.68-3.91-10.98 19.59-32.92 36.043-27.43 60.34 32.14 36.051 48.59 83.863 90.92 110.512 47.8 29.781 108.15 33.699 142.63 89.339 16.46 36.059 39.19 68.97 67.41 100.32 51.73 34.49 118.34 55.65 149.69 119.13 3.14 12.53 15.68 23.51 10.97 36.84-24.3 27.42-55.64 43.1-83.86 65.05-26.65-14.11-31.34-45.46-49.37-67.4-36.06-72.89-122.27-79.16-163.02-151.27-19.59-36.841-50.95-84.638-94.83-94.83-47.81-11.75-91.7-46.242-118.34-90.129-23.52-30.57-56.44-47.812-91.7-54.082-7.05-6.257-19.59-1.57-28.22-7.058-52.51-21.153-79.16-87.77-139.51-91.692-20.37 3.141-33.69-10.968-54.07-9.41-18.03-9.39-41.54-10.969-51.73-32.91 3.14-40.75 25.08-75.23 39.97-111.289 19.59-46.238 39.19-91.699 54.87-139.508 3.91-8.613 14.1-14.883 22.72-9.402 51.73 23.512 104.24 43.101 155.19 67.398 9.4 8.621 22.72 10.192 28.99 21.16-9.4 25.082-20.37 49.372-33.7 72.891-19.59 25.859-42.32-2.348-61.91-7.828-11.76-3.141-22.74-11.77-36.06-6.281-11.76 16.461-25.08 36.05-19.59 55.648 45.46 21.164 90.13 44.672 134.8 68.973 7.06 1.558 14.89-6.27 18.02-13.321 37.63-61.14 72.11-123.839 109.73-184.96 3.4-6.801-1.8-12.36-7.31-16.411-184.9-107.89-386.99-189.367-601.02-239.16-135.04-30.75-274.39-49.32-414.39-54.949-26.07-.93-52.25-1.43-78.54-1.43-243.65 0-478.18 40.328-697.25 114.629-28.94 12.18-57.71 24.621-87.94 33.512-85.43 32.141-169.28 68.969-248.44 116.781l-68.19 37.61c-4.7 4.707-4.7 11.757 0 17.25 34.49 65.828 76.02 129.32 115.99 192.796 15.68 8.622 26.65-10.968 40.76-14.886 34.48-14.891 67.4-32.922 102.67-47.813 15.68-20.379-8.63-39.179-17.24-57.207-5.49-8.621-16.46-3.922-23.51-.781-19.6 7.051-36.84 19.59-56.44 28.211-18.02 0-20.37-20.383-28.21-31.352-7.05-19.601-23.51-36.84-22.73-57.988 10.97-12.543 25.08-18.812 39.19-23.523 45.46-24.297 95.62-38.411 141.07-63.489 11.76-3.91 19.6 6.27 25.08 14.121 14.11 44.661 38.4 84.637 51.73 129.309 14.89 32.922 31.35 65.832 42.32 100.32 1.57 10.969-1.57 21.16-7.84 29-18.8 10.961-39.18 18.809-59.57 24.289-21.16-3.918-37.61 10.973-58.77 9.411-52.51 15.671-78.37 79.941-132.46 92.48-61.91 1.559-109.72 54.859-144.98 103.449l-54.08 36.051c-28.22 9.41-58 14.891-79.16 40.762-37.62 51.718-74.45 116.778-136.369 142.638-52.512 27.43-72.887 83.08-106.586 126.96-5.485 4.71-14.891 9.41-21.164 3.14l-72.887-56.44c-7.836-7.04-1.566-17.23 2.355-24.29 22.723-39.97 55.645-81.51 99.532-99.54 31.351-14.88 62.699-36.04 85.429-65.83 28.993-34.478 35.27-79.162 78.37-106.591 21.16-21.93 51.73-21.93 76.81-35.258 57.21-21.16 87.77-83.082 120.69-130.102-2.35-21.16-16.46-42.32-32.92-57.219-10.18-3.128-15.67 8.629-20.37 15.68-27.43 62.699-90.13 112.86-152.04 134.02-39.192 21.16-83.087 49.379-107.38 90.91-22.726 43.101-51.726 94.83-102.671 111.3-39.18 17.23-74.45 49.37-96.391 88.55-6.273 9.41-5.488 21.95-16.461 29.01l-10.191-.79c-24.297-19.59-51.723-38.4-71.321-64.26 2.356-15.69 19.598-21.95 26.649-34.49 28.219-50.941 78.375-84.64 123.832-115.988 33.703-29.793 58.777-65.051 73.668-104.242 28.219-37.629 65.836-76.809 108.16-96.41 66.616-28.211 145.766-77.579 170.856-152.821-1.57-13.328-7.85-24.289-15.68-33.699h-10.97c-40.99 28.301-81.98 58.129-122.397 89.078-63.641 50.844-124.403 105.141-181.958 162.652a2198.909 2198.909 0 0 0-272.792 331.96c.097.33.207.65.316.98 17.242 17.24 39.184 30.57 59.562 42.31 53.293 39.19 112.075 67.41 163.801 109.73 23.512 18.81 54.078 28.21 70.539 56.43-.785 15.68-18.812 21.95-24.297 35.27-7.839 10.19-10.191 24.3-23.515 29.78-14.106.79-22.727-11.75-34.485-14.11-29.777 2.36-61.129 3.14-82.289-16.45-30.566-15.68-40.757-56.44-74.457-65.84-24.293-9.41-50.937 3.13-72.886-11.76-18.028-16.45-38.403-28.99-54.86-47.02-.64-.03-1.273-.02-1.879 0a2216.401 2216.401 0 0 0-39.59 71.28c26.282 22.75 48.926 57.23 86.145 54.9 25.859-4.7 42.312 10.98 63.477 18.03 25.867 23.51 49.378 60.35 83.074 67.4 30.566 10.98 66.621-7.05 90.133 18.81-8.622 35.27-31.348 64.27-42.325 97.97-8.617 12.54-24.293 7.05-37.613 8.61-58.781-14.1-92.484-90.13-152.047-101.88-49.375 8.63-86.996-9.4-119.129-42.32-2.347-7.84-10.968-10.19-17.242-13.33-4.09 1.17-7.508 2.89-10.398 5.02a2168.578 2168.578 0 0 0-27.336 62.15c2.902 6.69 9.551 11.73 15.793 15.13l61.133 37.61c32.914 9.41 73.667.8 99.531 29.01 32.914 24.29 60.344 67.4 105.804 65.05 11.758 3.13 28.211 3.13 39.184-3.14 3.137 1.57 7.059 3.92 8.625 7.84-7.84 26.64-21.164 50.16-26.644 77.59-9.407 14.1-23.516-1.57-35.278-.79-55.64-23.51-111.289-44.67-169.281-60.34-32.918-17.25-70.535-21.94-102.668-39.19-13.547-4.51-29.977-11.18-43.746-5.48-78.848 224.71-121.75 466.04-121.75 717.07 0 119.8 9.801 237.38 28.59 352.02 1.687.24 3.457.03 5.234-.86" style="fill:#54a468;fill-opacity:1;fill-rule:evenodd;stroke:none" transform="matrix(.13333 0 0 -.13333 0 621.63)"/><path d="M1294.07 2669.74c-9.4-25.86-15.67-53.29-16.45-82.29-5.49-13.32-23.51-7.05-32.92-6.27-14.11 11.76-36.05 3.92-50.16 14.11-34.49 7.84-76.02 16.46-88.56 55.65 2.35 28.99 36.05 10.97 54.07 18.8 21.17 10.98 50.95 2.35 75.24 7.84h51.73l7.05-7.84M3178.96 2467.54c1.56-4.7 9.4-9.4 3.91-14.89l-7.05-5.49c-39.97 0-78.37 2.35-112.86 15.68-25.86 3.13-48.59 14.1-70.53 26.65-39.19 24.29-79.95 43.1-114.43 79.15 4.71 17.24 23.51 19.6 36.83 26.65 23.52 4.7 41.55 21.94 62.71 32.13 65.05-57.21 138.72-97.96 201.42-159.88M2900.73 2531.02c52.51-34.48 108.94-63.48 151.26-115.21-2.35-5.48-7.84-9.4-14.11-9.4-36.84 3.92-79.16-3.92-111.29 10.19-31.35 7.05-59.56 21.94-90.13 32.13l-88.56 70.54c12.54 28.21 48.59 17.24 68.97 36.83 14.89 1.57 26.65 13.32 41.54 12.54l42.32-37.62M1271.35 2556.1l16.45-55.64c-11.75-17.24-32.13-2.36-47.02-1.57-25.86 4.7-49.38 14.89-70.54 29-5.48 6.27-16.46 12.53-11.75 22.73l11.75 7.05c29 2.35 60.35-3.92 86.22 7.84 7.05 1.56 14.1-3.14 14.89-9.41" style="fill:#fff;fill-opacity:1;fill-rule:evenodd;stroke:none" transform="matrix(.13333 0 0 -.13333 0 621.63)"/><path d="M1503.33 2546.7c30.57-39.97 70.54-59.57 108.15-85.43 21.95-14.11 18.03-39.19 19.6-61.92-17.24-32.91-20.38-71.31-39.97-102.67-5.48-6.27-17.24-7.84-24.3-3.13-32.91 15.67-44.67 50.95-57.21 79.94-23.51 45.46-39.19 94.83-57.22 141.86-5.48 17.24 5.5 28.99 8.63 43.89 14.11 13.32 31.35-.78 42.32-12.54" style="fill:#231f20;fill-opacity:1;fill-rule:evenodd;stroke:none" transform="matrix(.13333 0 0 -.13333 0 621.63)"/><path d="M1539.38 2490.27c27.43-18.81 70.54-32.92 75.24-71.32 3.92-39.97-14.11-71.32-28.21-104.24-5.49-8.62-18.03-8.62-25.08-3.93-14.89 14.12-25.87 32.14-32.92 50.96L1467.28 2513c-4.7 11.75-3.92 24.29 3.92 34.48 27.43-9.4 43.88-39.18 68.18-57.21" style="fill:#af50aa;fill-opacity:1;fill-rule:evenodd;stroke:none" transform="matrix(.13333 0 0 -.13333 0 621.63)"/><path d="M2727.52 2519.27c53.3-48.6 116.78-84.65 165.37-137.94 2.35-7.05-3.13-14.11-9.4-16.46-36.06 3.92-70.54 8.62-105.02 14.11-29.79 13.32-65.84 10.18-91.7 32.13l-76.02 61.13c20.37 15.68 46.24 20.38 69.75 31.35 16.45 2.36 28.21 17.24 47.02 15.68M2602.91 2461.27c47.8-39.97 96.4-74.46 140.28-119.91 1.58-5.49-3.91-9.41-8.61-12.54-60.35.78-119.91 9.41-172.42 32.92l-17.25 1.56-68.96 53.3 3.13 7.83c33.69 17.24 71.32 22.73 104.24 40.76l19.59-3.92M1353.64 2402.49c-2.36-2.35-2.36-7.84-7.06-9.41-31.35 14.12-65.83 19.6-96.39 34.49-4.71 3.92-10.19 8.62-7.06 14.89l7.06 5.49c30.56-9.41 72.88 21.16 88.56-18.81l14.89-26.65M2548.83 2342.92c6.27-6.27 10.19-15.67 6.27-23.51-3.92-8.63-12.54-16.46-21.15-20.37-41.55 6.27-79.16 21.94-119.14 31.34-19.6 14.12-38.4 32.14-57.99 47.03 26.65 20.38 62.69 20.38 90.9 38.4l13.33-2.35 87.78-70.54M2351.33 2364.87c29-25.86 60.35-45.46 85.43-76.81 4.7-8.62-3.14-17.24-10.19-20.37-34.49-6.28-67.4 1.56-97.97 9.4l-72.1 47.02.79 5.49c23.5 11.76 42.32 32.92 67.4 39.97 10.97 3.14 17.23-3.92 26.64-4.7M1399.88 2347.63c1.57-15.68 32.13-28.22 14.1-42.32-33.69 5.47-70.53 10.96-89.34 42.32 1.57 4.7 5.48 11.75 11.76 12.54 20.37-2.35 52.51 12.54 63.48-12.54M2253.36 2308.44c26.65-13.32 50.16-34.48 76.81-45.46 8.62-10.96 25.87-19.59 22.73-34.48-8.62-12.54-27.43-10.98-41.54-7.84-26.65-3.14-49.37 3.13-72.89 9.4l-49.37 31.35c3.92 18.81 22.73 32.92 36.83 45.46 7.06 9.4 19.6 6.27 27.43 1.57M2254.93 2197.15c1.57-7.06-4.7-12.55-10.18-15.68-27.44-3.92-53.3 3.13-77.6 8.62-16.45 15.68.79 34.49 5.49 50.17 14.11 18.81 28.21-7.06 42.32-10.2 13.33-10.96 31.35-17.23 39.97-32.91" style="fill:#fff;fill-opacity:1;fill-rule:evenodd;stroke:none" transform="matrix(.13333 0 0 -.13333 0 621.63)"/><path d="M3352.94 1882.87c5.49-4.7 9.41-13.33 3.93-18.8l-44.68-58.79c-14.1-6.27-28.22 5.49-44.67 1.57-21.16 1.56-39.19-2.35-55.64-9.41-18.03 3.92-20.39 22.73-22.74 37.62-3.13 26.65 8.62 49.38 32.14 62.7 39.19 25.87 97.97 14.11 131.66-14.89" style="fill:#af50aa;fill-opacity:1;fill-rule:evenodd;stroke:none" transform="matrix(.13333 0 0 -.13333 0 621.63)"/><path d="M3270.65 1860.14c1.57-10.19-4.7-18.03-11.75-25.08-6.27-7.05-17.25-7.05-25.86-3.91-6.28 1.56-13.33 7.05-16.47 14.1 0 12.55 10.98 23.51 21.16 29 13.32 2.35 31.35 2.35 32.92-14.11" style="fill:#231f20;fill-opacity:1;fill-rule:evenodd;stroke:none" transform="matrix(.13333 0 0 -.13333 0 621.63)"/><path d="M625.742 1666.92c-10.191-15.68-31.351-8.63-45.461-17.25l-39.183-16.45c-28.211-21.95-51.723-63.49-89.344-66.62-36.051 0-70.539-4.7-94.051-29.79l-44.672-28.99-.023.01a2150.98 2150.98 0 0 0-30.598 78.73c5.371 7.47 15.613 4.14 22 9.81 94.047 38.41 192.016 67.41 286.063 105.03 7.84-1.57 15.675 3.92 22.73-.78l12.539-33.7M4245.34 1630.96l120.7-43.11c2.77-1.98 3.74-5.37 3.72-8.94-8.56-23.04-17.46-45.91-26.76-68.57-18.19-11.4-29.81 18.83-46.72 24.21-28.99 28.23-70.53 30.57-110.5 30.57-49.38 32.13-88.56 88.57-151.27 88.57-21.16 9.4-.78 28.21.79 41.53 9.41 15.68 25.08 2.35 36.05 0 57.21-24.3 115.99-43.1 173.99-64.26M697.496 1513.23c4.699-9.41 18.809-28.22-.785-33.71-44.676 3.14-85.426-8.62-113.645-39.18-23.511-22.74-45.453-53.3-79.156-53.3-23.515.79-43.105-7.05-61.914-16.46l-46.316-40.34a2165.749 2165.749 0 0 0-35.489 71.15c26.079 21.2 47.84 53.94 80.239 60.11 41.539-7.84 80.726 2.35 109.722 31.35 24.297 29.78 53.293 63.48 90.918 68.18 31.348 4.71 44.668-25.86 56.426-47.8" style="fill:#76cee6;fill-opacity:1;fill-rule:evenodd;stroke:none" transform="matrix(.13333 0 0 -.13333 0 621.63)"/><path d="M2522.97 1506.67c29.21-54.24-11.21-123.04-73.67-123.04-36.84 3.92-73.67 29-82.3 66.62-6.27 22.73-5.49 48.59 7.84 68.96 38.91 51.89 114.26 40.53 148.13-12.54" style="fill:#231f20;fill-opacity:1;fill-rule:evenodd;stroke:none" transform="matrix(.13333 0 0 -.13333 0 621.63)"/><path d="M4141.88 1461.67c32.14-7.06 72.11 4.7 97.97-18.02 19.6-12.54 37.62-29.79 49.38-50.16-1.55-4.85-3.31-9.58-5.22-14.22-7.33-14.97-14.83-29.85-22.51-44.63-.43-.76-.84-1.52-1.27-2.28-3.91-3.14-11.75-7.06-14.89 0-27.43 25.08-53.3 54.07-90.91 52.51-61.14-6.27-85.43 76.8-140.29 85.42l-59.57 3.92c-10.19 5.48-10.19 16.46-5.48 25.08 13.32 18.81 17.24 48.59 42.33 54.86 68.96 13.32 95.61-74.46 150.46-92.48" style="fill:#76cee6;fill-opacity:1;fill-rule:evenodd;stroke:none" transform="matrix(.13333 0 0 -.13333 0 621.63)"/><path d="M2513 1434.51c-13.95-22.97-41.38-39.69-68.41-37.55-49.8 8.06-85.62 64.53-61.12 111.29 47.5 77.73 172.98-2.18 129.53-73.74" style="fill:#fddd04;fill-opacity:1;fill-rule:evenodd;stroke:none" transform="matrix(.13333 0 0 -.13333 0 621.63)"/><path d="M785.637 1343.33c.785-18.02-19.59-23.51-30.563-33.7-82.254-57.97-166.859-111.24-250.679-165.29a2196.004 2196.004 0 0 0-51.559 82.63c6.629 18.46 29.348 28.55 42.816 42.69 29.782 19.59 72.895 7.84 99.539 32.14 23.508 19.59 43.106 55.64 73.672 63.48 26.645 3.92 59.559-6.27 81.508 7.84 19.59 2.35 23.512-19.6 35.266-29.79M3926.53 1359.61c26.64 2.36 54.86 10.2 75.24-9.4 31.35-22.73 53.29-68.19 94.04-70.54 41.54 4.71 70.54-21.94 98.75-49.37 2.21-3.75 2.55-7.24 1.82-10.6a2195.55 2195.55 0 0 0-30.94-50.12l-16.33-23.92-7.84-2.36c-90.91 54.09-177.9 116.78-266.47 177.13-7.84 5.48-14.89 16.46-6.26 24.29 6.26 8.62 10.96 20.38 22.72 23.52 13.32.78 23.52-4.7 35.27-8.63" style="fill:#76cee6;fill-opacity:1;fill-rule:evenodd;stroke:none" transform="matrix(.13333 0 0 -.13333 0 621.63)"/><path d="M2073.89 1319.37c21.94-48.6 53.29-94.05 90.13-136.38 1.57-10.97 2.35-24.29-6.27-32.91-32.13-27.43-73.67-35.27-101.89-69.75-10.97-10.2-19.59-25.86-34.48-28.22-11.76-3.13-20.38 6.27-25.86 14.1-14.11 36.06-8.63 83.87-8.63 125.4 7.85 28.22 10.19 59.58 23.52 85.43 15.67 18.81 15.67 65.05 51.72 54.87l11.76-12.54" style="fill:#231f20;fill-opacity:1;fill-rule:evenodd;stroke:none" transform="matrix(.13333 0 0 -.13333 0 621.63)"/><path d="M2082.51 1258.24c20.38-26.65 40.76-54.09 65.83-79.16 2.36-37.62-43.1-32.92-63.48-53.3-25.08-13.33-43.89-39.97-65.05-57.21-28.21 7.06-14.89 42.32-18.81 65.84l1.57 65.83c8.62 12.54 3.13 32.13 10.19 46.24 10.97 21.94 17.24 47.8 35.27 65.83 25.86-7.05 20.37-37.62 34.48-54.07" style="fill:#af50aa;fill-opacity:1;fill-rule:evenodd;stroke:none" transform="matrix(.13333 0 0 -.13333 0 621.63)"/><path d="M851.5 1227.8c28.211-36.84 42.316-84.65 86.992-109.73 18.809-15.67 38.403-26.64 58.778-37.62 60.35-40.75 66.62-121.47 137.94-146.552 44.67-14.109 90.91-39.968 116.78-83.867 18.02-19.59 34.48-39.191 56.42-53.293 29.79-3.129 54.09-17.238 83.08-22.718 43.11-32.918 80.72-80.739 133.24-90.141 35.27-2.348 71.31-4.699 94.83-31.348-11.76-44.672-35.27-84.64-52.51-126.961-4.71-29-27.43-50.949-32.14-79.941-4.7-7.84-6.27-19.59-15.67-22.731-50.16 18.813-98.75 38.403-144.99 64.262-22.73 18.031 4.7 37.629 9.4 55.66 4.7 7.828 16.46 7.828 22.73 3.129 19.6-14.89 43.89-18.027 62.7-35.269 7.05-3.141 14.11 5.492 17.24 10.968 10.97 27.442 17.24 57.993 34.49 83.082-.79 9.399-10.98 15.668-18.81 18.809-51.73 23.512-104.24 46.242-152.83 77.59-7.84 2.351-16.46-5.488-18.81-12.539-29.78-55.649-65.83-108.16-97.18-163.02-10.98-17.25-18.81-38.41-36.84-50.949-.3 0-.61.02-.91.039-5.45 3.34-10.9 6.68-16.33 10.07-3.29 3.059-6.72 5.93-10.97 7.141-4.69 4.418-10.25 7.301-15.88 9.899-8.39 5.421-16.75 10.89-25.06 16.41a32.411 32.411 0 0 0-3.74 6.609c3.14 20.371 28.22 35.262 19.59 57.211-30.56 45.449-60.34 101.879-113.64 126.18-60.341 29.781-126.959 62.699-166.146 124.609-12.539 27.43-29.785 51.731-43.109 78.383-55.641 60.348-141.852 86.988-173.204 166.148 3.137 19.59 24.293 25.08 36.836 36.05 21.161-1.57 20.371-26.65 36.051-37.62 29.781-44.67 74.453-63.48 116.774-84.641 39.976-40.757 54.867-97.179 105.023-131.668 61.135-66.609 163.805-61.921 202.205-152.043 12.54-21.168 21.95-46.238 43.1-60.347 37.63 10.969 43.9 52.5 64.27 79.941 3.14 24.289-25.86 35.27-36.05 54.078-28.22 65.828-97.18 101.102-157.53 123.828-68.186 29.774-66.62 106.592-124.616 147.342-28.215 17.24-54.859 34.48-84.641 47.8-26.644 25.09-54.082 50.17-62.699 83.87 9.402 20.37 33.699 29.78 50.938 45.46 4.707 1.56 10.195 1.56 14.898-1.57" style="fill:#76cee6;fill-opacity:1;fill-rule:evenodd;stroke:none" transform="matrix(.13333 0 0 -.13333 0 621.63)"/><path d="M2745.55 1121.08c-.78-29.79 43.1-55.65 10.19-83.86-33.71-18.81-64.28 9.4-94.83 16.46-45.46 28.22-96.41 69.75-119.13 119.13-1.57 12.54-1.57 27.43 11.76 32.92 37.61 5.48 77.58-7.85 110.5 10.96 20.37 0 39.97 13.33 57.99 3.14l11.76-14.89 11.76-83.86" style="fill:#231f20;fill-opacity:1;fill-rule:evenodd;stroke:none" transform="matrix(.13333 0 0 -.13333 0 621.63)"/><path d="M3864.73 1186.14c7.83-12.55-3.14-23.53-7.06-33.71-11.75-25.86-39.97-47.03-61.92-65.05-70.54-19.59-123.04-87.778-152.04-151.259-46.24-63.48-125.4-50.949-172.42-112.859-22.73-30.571-38.41-62.703-67.4-89.352-3.92-7.828-1.58-17.238 1.56-23.512 19.6-23.507 27.43-54.859 56.43-70.527 10.97-.781 18.81 11.75 23.52 19.59 28.99 43.891 54.07 105.809 111.28 123.039 17.25 10.191 36.05 18.031 54.87 24.301 61.13 37.621 114.43 95.629 147.34 157.527 21.94 31.352 60.35 36.052 89.34 58.002 23.52 25.08 54.08 50.16 68.19 79.94 18.81 12.54 32.92-11.76 47.81-21.94 7.83-18.03-15.68-28.22-19.6-43.89-40.75-64.268-115.21-80.729-157.53-144.991-28.21-56.437-68.18-119.91-129.32-152.051-49.36-25.078-103.44-44.668-140.29-96.398-18.8-22.719-34.47-47.801-47.8-72.891.79-18.031 14.89-30.57 19.6-47.019l-3.14-7.828-68.97-43.903-7.83 1.571c-42.33 72.89-90.13 143.422-130.1 217.09-4.71 3.921-12.55 7.839-17.25 2.359-51.73-31.348-107.37-55.649-160.66-83.859l-5.49-8.622c9.4-30.57 24.3-58.777 32.92-90.128 8.61-14.891 21.94-4.711 31.35 1.562 18.81 14.109 39.19 23.52 60.35 29.789 17.24-9.41 21.15-29.012 28.99-44.672-5.49-27.429-35.27-23.519-52.51-38.41-32.14-15.668-66.62-29.777-100.32-42.32-7.05-.778-12.54 7.84-14.1 13.32-7.05 29-22.74 54.859-33.7 82.293-18.03 42.328-35.28 84.648-54.08 126.18 3.13 26.648 34.48 25.867 52.51 35.277l42.32 3.133c44.67 13.316 83.86 41.527 116 78.367 43.1 33.699 107.36 18.031 141.07 71.32 27.42 36.832 64.26 83.082 111.28 92.481 32.14 11.762 66.62 31.351 85.43 65.051 25.87 45.459 68.19 97.189 118.35 117.569 43.89 30.56 76.02 77.58 101.88 120.69 5.48 7.05 14.11 0 19.59-2.35l41.55-32.91" style="fill:#76cee6;fill-opacity:1;fill-rule:evenodd;stroke:none" transform="matrix(.13333 0 0 -.13333 0 621.63)"/><path d="M2720.47 1197.1c10.18-43.1 4.71-93.26 30.57-130.89.78-8.61-3.92-17.23-12.54-19.59-46.24-.78-83.86 27.44-119.92 54.09-26.65 21.16-44.67 48.58-64.26 73.67-.78 6.27-3.14 10.97 3.13 15.66 23.52 2.36 50.17-10.18 75.25 0 25.85 7.06 48.58 20.38 78.36 17.25l9.41-10.19M1710.23 1036.44c25.09-8.62 49.38-21.95 79.95-17.25 8.61-3.13 18.8-7.05 25.08-15.67 2.35-11.758-10.97-17.25-18.03-22.739-75.24-21.152-118.34 101.899-193.58 47.039-25.87-24.3 8.62-86.218-47.02-82.3-28.22 8.621-35.27 39.968-41.55 64.27-2.35 12.54 5.49 22.72 16.47 27.43 32.91-7.05 54.08 18.03 76.01 36.84 39.19 19.6 72.11-16.46 102.67-37.62M1729.05 909.469c22.73-15.68 53.29-13.321 78.37-22.731 15.67 1.563 33.7 3.141 43.1-11.75 6.28-7.058 9.41-17.238 1.57-23.508-17.24-16.468-39.18 0-57.21 4.7-38.4 27.429-83.86 36.05-133.23 35.269-10.19 4.699-24.3 3.91-29.79 18.02-3.92 11.75.79 22.73 10.19 29 5.48 6.269 12.54 7.832 19.6 10.191 25.07-5.488 43.89-27.441 67.4-39.191M2544.91 889.102c14.89 3.128 36.84 21.16 48.6 2.347-4.71-29.008-42.33-18.808-63.49-23.519-22.73 2.359-47.02-4.7-63.48-23.508-12.55-16.461 4.7-49.383-21.95-57.211-28.99 1.559-65.05-7.051-79.93 21.937-1.57 36.063 44.67 31.352 54.07 61.141 3.14 16.449 21.94 26.641 36.06 31.34 32.91 3.141 56.42-24.289 90.12-12.527M2742.41 826.391c-12.54-36.039-53.29-30.563-83.86-37.621-38.4 5.492-71.31-7.84-104.23-17.231-12.54 1.563-29-3.93-34.49 12.543-5.48 12.527 4.7 22.719 14.12 28.207 43.1 22.723 85.42-23.519 129.31-2.348 21.95 13.321 43.11 32.129 69.75 27.43l9.4-10.98" style="fill:#af50aa;fill-opacity:1;fill-rule:evenodd;stroke:none" transform="matrix(.13333 0 0 -.13333 0 621.63)"/><path d="M2242.39 635.949c49.38-7.058 100.32-7.84 148.91-3.129 29.78 7.051 66.62 2.34 96.4 3.91 14.11-14.109 7.84-38.41 11.75-57.21-.78-12.54 3.92-30.559-10.96-36.051-7.05-1.571-12.54-7.059-17.25-13.328l-.78-83.082c9.4-32.911 21.16-64.258 46.24-90.899.78-7.058-3.14-14.121-10.19-16.469-31.35-.781-66.62.789-97.18-.781-15.68 9.399-7.84 30.57-14.12 45.461-7.83 19.59 6.28 50.149-19.58 60.348-10.97 4.703-24.3 13.32-29 25.863 1.56 14.887-8.63 38.398 8.61 47.02 10.2.789 19.6-19.59 29.01-3.911 3.13 8.618-4.71 14.098-10.19 18.797-17.24-3.906-42.32 8.633-51.73-10.179-2.35-36.84-8.62-71.317 1.57-105.809-.78-24.301 7.05-44.668 15.67-65.051 2.35-5.488-2.35-10.969-7.05-14.097-40.75-10.981-77.59 6.269-117.56 0-3.92 1.558-9.4 6.269-9.4 10.957 18.02 46.25 29.78 95.621 36.83 147.351-3.92 12.539 4.7 30.559-11.76 36.828-14.88-4.699-36.83 16.473-42.31-8.617 1.56-4.699 6.26-8.609 10.19-9.402 7.83 3.133 17.24 8.621 25.07 3.922 10.19-15.68-3.13-33.7-3.91-50.161-12.55-22.73-45.46-11.761-54.08-38.398-1.57-25.871-18.81-46.242-16.46-72.113-21.95-35.27-64.27-4.699-97.97-10.969-10.19-.789-23.51.781-28.22 11.762 6.27 20.367 30.57 34.476 43.11 52.508 23.52 34.48 32.13 74.449 43.11 113.628 3.92 35.282-52.51 11.762-37.62 51.731 11.76 21.941 3.92 54.082 25.08 69.762 50.16 0 94.04-14.121 145.77-10.192" style="fill:#231f20;fill-opacity:1;fill-rule:evenodd;stroke:none" transform="matrix(.13333 0 0 -.13333 0 621.63)"/><path d="m2201.64 616.352 17.24-4.704c61.13-.789 119.12-7.839 179.47 1.571 21.94 4.703 47.03 3.133 70.54 4.703 14.11-6.274 3.92-20.383 8.62-32.133 11.76-29-32.13-25.078-29.79-51.73-.78-39.957 9.42-76.02 9.42-115.207l28.21-54.071c0-3.929-2.35-7.84-6.27-9.41l-53.3-2.351c-32.91 15.671-7.05 61.128-25.86 86.992-10.18 17.25-39.97 17.25-37.62 41.547 11.76 14.101 29-16.469 37.62 7.832v52.507l-10.97 10.18-73.67-.777-10.19-10.18c0-32.141-8.62-65.051 0-95.621-3.13-31.352 5.49-58 10.19-86.211.78-4.711-4.7-7.84-8.62-10.187-25.08-7.063-47.03 4.699-71.32 7.058l-4.71 7.051c20.39 54.859 26.66 116.769 27.44 179.469l-10.98 9.398c-25.07-3.906-58.77 10.203-74.45-12.539 2.35-16.449-18.03-36.828 2.35-47.801 9.4 1.571 25.86 10.192 29.78-5.488-6.26-25.859-37.62-14.102-47.02-36.051-10.19-27.429-14.89-57.211-23.51-85.418l-10.97-9.41c-22.73 1.57-46.25 0-66.62 8.617-12.54 14.891 14.11 15.672 18.02 29 34.49 45.453 41.54 101.891 57.21 155.184-8.61 19.598-35.26 7.84-42.31 28.207 10.18 15.68-5.49 46.242 21.16 50.16 30.56-2.348 58.78-10.969 90.91-10.187M3477.43 3795.96c0-38.72 2.24-78.92-8.92-113.18 4.46-52.86-35.75-85.61-69.25-122.1-17.12-23.08-39.47-38.72-53.62-62.54-34.23-48.4-84.87-77.43-124.33-119.13-10.42-2.98-15.63 6.7-17.12 14.15-8.94 47.65 29.03 77.43 44.67 115.4 27.55 45.42 54.35 90.84 72.97 139.97 37.96 62.55 70.73 128.06 105.73 191.35 5.95 7.45 17.12 13.41 23.82 5.22 17.87-11.92 20.85-31.27 26.05-49.14M1366.67 3527.25c-4.47-30.18-21.11-53.96-31.8-81.44-2.35-.78-6.27-3.14-9.4-.78-40.75 67.4-80.73 135.58-121.48 203.77-27.43 50.16-6.27 115.21-3.14 170.07 4.34 12.99 3.35 31.97 16.03 39.78 10.2.47 20.51-15.58 23.9-23.49 36.54-104.96 81.56-206.06 125.89-307.91M2413.33 3706.14c.82-1.73 1.69-3.46 2.58-5.18.43-.96.85-1.94 1.25-2.95l.81-.99c3.57-6.74 7.3-13.48 10.17-20.54 3.97-14.26 3.66-30.34 1.83-45.34-5.65-23.88-26.05-44.29-46.46-58.36-19.59-17.24-47.02-8.62-68.97-.78-25.08 14.1-42.32 39.18-43.89 67.4-3.92 7.83-14.89 11.75-22.73 5.48-20.37-13.32-31.34-33.7-35.26-55.64 0-2.98.2-5.89.57-8.76l-.62-3.95c2.35-30.57 29-59.57 56.43-70.54 7.28-3.58 14.72-6.24 22.29-8.14 2.27-.95 4.52-1.85 6.75-2.66 24.3-9.41 48.59 0 74.45-.79 14.9-3.13 25.87 14.9 39.19 5.49l-.77-7.84c-15.69-31.35-30.58-63.48-44.68-95.62-15.67-7.05-26.65 14.9-40.75 18.82-32.14 23.51-67.4 42.32-110.52 36.83-42.31 31.35-55.63 86.21-44.66 136.38 8.8 52.12 41.59 100.75 85.21 134.74 17.7 11.85 37.09 20.05 57.37 22.61 35.95-7.33 80.11-3 100.41-39.67M1127.18 3659.77c23.52-55.65 70.54-101.1 94.84-156.75 10.18-15.67 21.16-31.34 32.91-45.45l52.51-77.59c5.49-21.16-12.54-37.62-12.54-59.57-2.35-1.56-4.7-1.56-7.83-1.56-55.65 59.56-108.16 124.61-156.75 182.61-7.05 32.13-21.16 61.91-21.95 96.39-5.48 25.87-7.05 54.87-4.7 83.09 14.11 11.76 15.68-14.12 23.51-21.17M3533.67 3635.29c8.62-36.83-10.19-66.61-19.6-98.75-15.67-29.78-24.29-62.7-51.73-86.99-42.32-25.08-67.03-57.81-110.91-77.41-41.55-29.78-82.3-60.34-125.4-86.21-5.49-.78-10.98 2.35-11.76 7.06-8.63 34.48 28.21 49.37 48.59 68.18 75.24 65.83 118.76 139.32 194.79 209.85 16.45 24.3 42.32 45.46 58.78 70.54 6.27 3.92 14.11.78 17.24-6.27M3586.17 3451.11c-15.67-48.59-54.85-87.77-86.2-129.31-51.73-37.62-101.52-44.49-156.39-75.84-30.56-25.08-71.31-28.22-104.23-48.59-5.49.78-10.97 6.27-10.97 10.97-5.49 28.22 28.99 37.62 43.1 56.43 81.51 55.64 146.2 120.51 227.7 173.02 27.43 23.52 58 43.89 86.21 68.19 25.87-10.98-.78-36.05.78-54.87M1176.38 3363.22c29-42.32 71.32-75.24 105.8-112.86 3.92-18.81 4.7-40.75 7.83-60.35 2.36-6.27-3.13-10.19-8.61-10.19-64.27 48.6-126.19 101.89-186.54 159.89-19.59 31.34-34.48 64.26-40.74 101.1 0 16.45-21.17 36.05-3.92 47.02 43.88-36.83 84.64-83.08 126.18-124.61M2603.17 3396.26l.57-4.52c-19.59-9.41-35.26-30.57-54.86-42.33-20.38-1.56-43.11 1.57-61.14-7.83-32.12-3.14-58.78 5.48-83.85 21.15-5.49 12.55 3.13 25.87 7.06 37.62 11.17 13.33 16.46 29.72 22.7 45.43 5.62 10.21 11.29 20.42 16.87 30.68.55.65 1.12 1.29 1.7 1.93l7.26-2.18 53.29-50.95c28.45-12.36 58.83-24.72 90.4-29M2689.5 3199.9c-11.21-11.88-30.71-11.38-46.57-17.42-8.62-6.27-22.73-3.14-32.92-7.06-42.32-12.54-84.65-27.43-129.32-34.48-8.62-.79-19.59-10.19-25.86.78-1.57 23.51.79 47.02-1.57 70.54 1.12 8.92-3.7 21.8-.39 30.19 2.29-1.12 4.75-3.34 7.4-3.72 27.08-4.42 45.6 12.61 62.4 30.45 8.82 8.13 17.33 17.19 26.03 24.89l71.45 48.12c8.87.25 13.25-2.92 15.28-7.87 2.12-9.77-1.72-22.82.51-32.59.1-3 .51-5.77 1.45-8.13 6.33-36.1 28.53-65.53 52.11-93.7M1043.33 3309.44c71.32-61.91 142.64-124.61 216.3-181.04 18.03-9.41 39.97-18.81 47.81-39.97.54-4.55 1.89-9.93 2.92-15.38.56-5.96.84-11.67.73-16.79-.86-4.07-2.87-7.62-6.78-10.15-79.16 39.97-154.4 91.7-233.56 130.88-32.13 24.3-43.88 63.49-61.91 96.4-7.84 19.6-5.49 43.11-14.895 61.13-.781 4.71 3.133 5.49 6.275 7.84 15.67-7.05 27.43-25.86 43.11-32.92M3581.66 3313.36c-18.03-52.51-71.32-92.48-108.94-134.8-35.27-34.48-84.64-32.92-126.97-47.81-36.05-6.27-67.21-15.19-104.83-12.06-8.63 10.98-10.19 29-2.36 42.32 47.82 23.52 89.16 47.33 140.11 65.36 47.8 17.24 90.91 47.02 138.72 63.48 20.38 10.19 38.4 25.86 61.14 25.86l3.13-2.35M1040.21 3128.33c42.24-26.88 88.33-46.09 131.33-72.2 15.36 1.54 23.04-14.59 36.1-18.43 37.63-18.44 71.43-45.32 109.83-62.22 9.99-9.98 6.91-24.57 13.07-36.86-9.99-19.97-29.96-1.54-44.56-.77-28.42 4.61-52.99 19.2-82.95 19.97-13.05 8.45-29.18 9.21-42.24 15.36-62.98 44.54-139.79 99.85-168.974 172.81-1.539 4.61 2.305 5.38 4.61 7.68 16.894-3.07 27.644-19.19 43.784-25.34M2677.45 3133.72l-37.62-86.22c.79-28.21-4.7-59.56.79-87.77-2.36-7.84-10.98-10.98-19.6-9.41-56.43 0-112.07-.78-165.37 7.84l-8.62 9.4c5.49 22.74-3.91 52.52 8.62 72.89 1.58 14.9-3.13 32.92 7.85 43.11 50.15 18.81 103.44 29 155.95 42.32 19.59-2.35 33.7 7.84 49.38 13.32 4.71 1.57 7.05-2.35 8.62-5.48M3595.95 3140.94c-7.05-15.68-25.86-21.95-39.97-31.35-57.22-19.59-103.45-67.4-169.29-67.4-28.21-8.63-61.91-5.49-90.91-14.11-22.73 1.57-47.03-12.54-62.7 8.62 5.48 10.97-1.57 32.14 16.46 33.7 50.94 10.98 99.53 25.08 150.47 33.7 17.25 10.2 43.11-.78 57.22 14.11 31.34 7.83 61.91 14.89 92.48 22.73 12.54 1.57 27.43-3.13 37.61 3.92 3.92 0 7.85 0 8.63-3.92M3593.59 3017.11v-3.92c-66.61-47.81-142.63-73.67-224.14-87-48.59 3.14-97.18 10.2-145.78 8.63-11.76 11.75.79 28.21.79 42.32l10.19 7.84c25.86 2.35 56.42-5.49 78.37 6.27 28.21 4.7 62.7-5.49 86.99 8.62 29.78-7.06 49.38 11.75 77.6 9.4 25.08 13.33 61.91-2.35 86.21 13.33 10.18-2.36 25.86 4.7 29.77-5.49M1138.61 2925.34c14.59-6.91 32.26-6.91 48.39-12.28 33.02-12.3 69.89-13.83 101.38-30.73 18.44 6.91 29.96-8.45 46.85-8.45 6.15 0 11.52-2.3 14.6-8.45-1.54-15.36-15.36-26.11-26.12-38.4-18.43-4.6-44.54 1.54-62.98-5.38-10.75 4.61-23.81 3.85-34.56 0-48.39 6.15-89.86 30.73-129.04 60.68-17.66 16.9-38.4 34.56-48.38 55.3l2.3 7.68c32.26 0 56.07-18.44 87.56-19.97M2616.95 2903.38c-14.12-26-35.29-49.91-41.42-79.07l-39.97-31.35c-31.36 3.92-68.19-5.49-95.62 8.62-7.06-2.35-11.76 3.14-14.11 8.62.78 28.22 13.33 51.73 10.98 81.51 0 7.03-.36 15.18 2.75 20.85l177.39-9.18M3323.99 2890.14c28.22-13.32 64.26-5.48 95.62-10.97 34.48-10.19 79.15-2.35 114.42-6.27 1.57-3.14 4.71-8.62 0-10.97-29.78-13.32-59.56-24.29-91.7-30.56-19.59-3.14-39.19-8.63-60.34-9.41-25.87-7.84-63.48-10.19-87.78 2.35-22.73 3.13-44.67 7.06-65.83 11.76-13.33 8.62-34.49 1.57-43.9 17.24 8.63 14.89 9.41 35.27 25.87 43.89 38.4-.79 73.67-8.62 113.64-7.06M3287.94 2792.18c8.62-7.84 22.72 0 31.35-7.05 29-12.55 60.35-18.03 92.48-23.52 24.29-10.19 52.51-9.4 76.8-21.16 8.63-.78 21.17 2.35 24.3-7.05-1.56-7.06-10.18-9.41-16.45-10.97-41.55-10.98-86.21-12.54-129.32-20.39-68.97 21.95-140.29 37.63-207.7 62.7-9.4 3.93-14.88 14.9-9.4 23.52 7.06 10.19 9.4 24.29 21.95 28.99 36.83-13.32 78.37-14.1 115.99-25.07M1224.74 2764.18c23.04 1.53 46.85-6.92 68.36 0 6.91-.77 15.36-6.92 16.13-14.6-.77-16.12 3.84-36.87-14.6-42.24-20.73-.77-43 2.31-60.67-6.91-14.59 3.07-26.88 9.22-41.48 9.22-30.72 17.66-66.05 25.34-92.16 52.99 0 3.84-1.54 8.45 3.84 9.22 39.94-3.08 84.48 6.14 120.58-7.68M2456.55 2743.34v-3.92l-38.41-26.65c-3.91 0-8.61 3.14-9.4 7.06-1.56 10.18 1.57 18.81 8.62 24.29 10.2 7.06 31.35 7.84 39.19-.78M3191.54 2716.15c27.43-13.32 58.78-15.67 85.42-30.56 25.87.78 43.12-20.38 70.55-16.46 25.86-16.46 57.99-18.03 86.2-27.43 4.71-.78 9.41-4.7 10.98-9.41-.78-9.4-10.98-10.19-17.25-14.1-47.02-10.97-100.31-7.06-149.69-3.92-18.8 10.19-42.32 2.35-61.13 14.11-13.32 0-21.16 14.1-33.7 17.24-32.92 12.54-54.2 32.91-85.55 51.73-7.05 17.24 16.47 28.99 27.43 39.96 28.22 0 38.53-21.94 66.74-21.16M3113.16 2639.35c11.76-19.6 32.14-21.95 47.82-33.7 40.75-24.3 82.28-49.38 122.26-74.46 2.35 0 .78-3.13 1.56-5.48-66.62-3.92-127.74 15.67-185.74 37.62-34.48 21.16-62.03 36.65-90.25 69.56l3.14 8.63 47.02 29.78c25.08-2.35 33.03-20.2 54.19-31.95M1265.65 2640.93c16.9-6.14 6.92-27.65 8.46-40.7-18.44-20.74-39.94 5.37-62.22 2.3-29.95 10.75-66.05 10.75-86.79 37.63l2.3 3.85c44.55-5.38 92.18-2.31 138.25-3.08M3001.28 2572.85c48.59-45.46 101.7-55.76 147.16-109.06 2.34-5.49-3.92-7.84-7.84-8.62-28.22 0-52.51 10.19-78.37 17.24-60.35 17.25-108.76 40.87-159.7 81.63-6.28 6.27-15.67 13.32-6.28 21.94 17.25 14.9 40.76 14.9 60.35 26.65 18.81-.79 28.21-23.51 44.68-29.78M2864.73 2531.19c55.64-30.56 103.44-81.5 161.44-105.8 1.57-2.35.78-4.7.78-7.84-72.88-8.62-134.01 20.38-195.14 44.68-22.73 23.51-40.39 29.59-63.9 53.11-2.35 3.91-1.57 9.4 2.34 12.53 19.6 12.55 44.68 11.76 63.49 25.87 17.25-2.35 16.09-14.71 30.99-22.55M1279.13 2512.66c-.79-4.69-4.7-10.18-10.19-10.97-18.81 1.57-34.48 8.63-51.72 12.54v6.27c20.37-.78 48.58 11.76 61.91-7.84M2722.93 2503.58c49.38-39.19 83.8-75.06 130.82-115.81 1.56-4.7-.78-9.4-6.27-9.4-24.3-1.57-43.1 10.96-67.4 10.18-32.91 12.54-68.97 17.24-101.11 32.14-21.94 14.1-27.36 29.59-46.95 46.84l1.56 6.27 78.38 31.35 10.97-1.57M2704.84 2347.8c2.36-6.27-3.13-9.41-7.84-9.41-22.72 3.92-44.67 8.63-68.18 10.97-25.86 8.63-50.94 20.38-80.72 21.95l-44.43 44.19 1.56 9.41c31.7 15.66 53.84 16.46 77.6 30.56.4-.07 114.59-100.97 122.01-107.67M1343.61 2412.07c0-3.14-2.35-7.84-5.48-7.84l-37.62 12.54c-3.92 1.57-1.57 5.48-2.36 8.62 14.9 3.92 39.19 7.05 45.46-13.32M2448.2 2398.79c29.36-25.59 57.82-35.97 84.91-67.58 3.77-3.01 9.78-3.01 10.53-9.03 1.51-6.78-6.01-6.78-9.78-9.03-42.15 9.03-77.38 16.39-118.02 29.19-13.55 12.8-32.36 17.31-42.15 33.12 11.29 15.05 33.12 15.05 48.93 24.08 8.28 0 18.06 5.27 25.58-.75M2322.26 2356.72c36.05-18.81 65.05-52.52 97.96-76.02 2.36-6.27-3.91-7.85-7.83-8.63-31.35-5.48-52.51 13.32-81.51 14.12-21.94 5.47-39.18 20.37-57.21 34.48-2.35 3.13-2.35 8.62 0 11.75l38.41 25.08 10.18-.78M1405.53 2330.56c3.13-3.92 6.27-7.84 3.13-12.55-5.49-6.27-16.46-3.91-22.73-1.56l-42.32 16.46c.78 15.67 19.59 1.57 29 8.62 13.32 1.56 24.29-1.57 32.92-10.97M2234 2298.42c29-23.51 61.13-38.4 90.13-61.91 3.92-7.84-5.49-7.84-9.4-8.63-30.57-6.27-50.95 14.12-79.94 11.76-10.98 10.97-39.19 18.02-30.57 39.18 9.41 7.06 14.89 25.09 29.78 19.6M2209.52 2205.94c3.92-1.57 7.84-4.71 10.97-7.06 1.57-5.48-3.13-8.61-7.05-8.61-15.67 5.49-36.05.78-47.02 15.67.78 8.62.78 18.81 10.19 21.94 12.54-3.13 21.16-16.45 32.91-21.94M1947.19 2175.25c25.87-3.14 66.62 14.1 76.81-18.81-.79-18.81-11.76-35.27-28.21-45.46-19.6-3.13-42.33-2.35-60.36 3.13-32.12 19.59-63.48 39.98-97.96 53.3-.79 3.92.78 8.62 4.7 8.62 37.62 3.13 70.54-4.7 105.02-.78M2191.36 2028.83c-3.14-20.37-15.68-44.67-37.62-54.07-70.54-10.97-119.92 32.92-177.13 54.86-3.91 2.35-6.27 6.27-9.4 8.63-.79 9.39 7.83 11.74 16.46 10.18 41.54 3.14 83.85-6.27 120.69 7.84 31.35-3.14 72.89 11.75 87-27.44M2339.93 1919c-.78-24.3-17.24-44.68-36.83-58-14.89-6.27-30.57 1.57-44.68 4.71-51.72 11.74-92.48 47.8-144.99 54.86-3.13 3.13-10.18 8.62-4.69 14.1 14.88 6.27 36.04 4.71 50.93-1.56 23.52-1.57 54.86-7.84 75.24 5.49 19.6 0 41.54-2.36 57.21 9.39 18.82-3.13 38.41-10.97 47.81-28.99M2547.83 1677.18c39.97-13.33 84.65-26.65 108.94-66.62 14.11-26.65 29.78-54.07 21.95-87.78-21.16-16.46-23.51-50.94-55.64-50.16-53.3 11.76-32.92 72.89-69.76 101.1-34.48 38.41-78.37 69.76-128.53 77.59-10.97.79-21.17-13.32-30.57-1.56-4.7 3.92-5.48 11.75-2.34 17.24 24.29 33.7 65.83 5.48 99.53 19.6 18.8-3.14 36.83-9.41 56.42-9.41" style="fill:#fddd04;fill-opacity:1;fill-rule:evenodd;stroke:none" transform="matrix(.13333 0 0 -.13333 0 621.63)"/><path d="M2486.79 1629.34c43.1-28.22 85.43-71.32 90.12-122.27 7.85-14.11 22.74-32.13 39.97-32.92 11.76 0 21.95 5.49 30.57 14.12 7.84 3.91 4.71 20.37 17.25 14.88-1.57-15.67-9.41-33.7-26.65-40.74-15.68-3.93-32.92-1.58-47.02 5.47-37.62 34.49-30.57 89.35-73.68 122.27-27.43 28.21-62.69 37.62-95.61 51.73-3.92 3.13-2.36 8.62 1.56 10.97 21.94-6.27 43.11-14.9 63.49-23.51" style="fill:#231f20;fill-opacity:1;fill-rule:evenodd;stroke:none" transform="matrix(.13333 0 0 -.13333 0 621.63)"/><path d="M201.84 2596.06c-5.469-30.56 14.062-51.73 8.594-82.29 10.156-14.11-2.543-36.06 7.613-50.16-1.563-29.78-23.438-50.95-24.219-80.73-3.906-24.29-21.875-50.16-7.031-75.24 12.5-43.11 32.808-83.86 23.437-135.59-35.937-59.56 0-129.31 31.246-181.04 1.563-20.37 3.907-46.24-2.343-65.05-24.215-58.78 25.781-101.1 34.375-153.61-.782-29 7.031-55.65 32.812-72.1 20.313-5.49 36.711 10.18 57.809 8.62 17.183 6.27 41.402 6.27 46.875 28.99 5.469 39.19-32.031 62.7-31.25 100.33.777 17.23 0 34.48-5.473 49.37 10.156 18.03.781 44.67 13.281 61.92 4.692 42.32-21.875 70.53-27.339 108.93-7.809 20.38-3.125 46.24-10.942 66.62 10.942 17.24 7.524 32.26 16.899 50.28 0 24.29 3.129 50.94-7.809 72.11 3.125 18.8-13.195 42.19-15.531 58.66-8.602 43.1 14.054 74.46 9.367 115.2 8.602 8.63 12.5 26.65 26.562 26.65l7.032-8.62c10.156-58.77-19.532-106.59-7.813-159.88 7.031-35.27 33.594-67.41 17.969-106.59-15.625-32.13-26.563-74.46-12.5-110.51 21.09-35.27 40.824-79.93 22.855-120.7-12.5-42.31.786-86.21 17.184-123.04 11.727-23.51 28.125-44.67 29.688-72.88 12.5-23.52 37.5-3.14 57.031-7.05 32.031 9.39 59.371 30.55 92.965 36.04 15.625 11.76.781 28.99-1.563 43.11l-11.719 20.38c-5.464 54.07 14.844 118.34-17.968 160.66-10.938 26.65-19.332 51.73-17.762 83.86-7.817 21.94-6.25 48.59 3.117 69.75 19.531 23.52-6.445 51.73-9.574 76.02-16.402 17.25-14.059 46.25-10.152 66.62 3.125 4.71 10.152 7.05 14.843 3.14l9.371-10.98c16.407-38.4 31.832-75.24 31.051-120.69-7.812-24.3-10.156-50.94-19.531-74.46 1.566-50.93 36.918-90.12 52.543-135.58 2.34-32.92 2.34-61.92 0-94.83 9.375-39.98 21.965-74.46 43.84-109.72 21.875-36.84 4.597-93.28 32.718-126.98 13.282-27.42 40.625-48.58 60.938-73.66 8.59-29.78 28.117-55.65 31.25-87.78 14.059-65.83 67.184-115.21 119.523-161.45 32.028-35.27 17.965-93.27 71.868-115.99 42.973-22.73 92.973-56.43 110.933-105.02 31.25-43.11 76.56-71.32 123.43-87.791 63.28-35.258 75.78-132.45 157.81-130.09 21.09-4.699 41.41-11.758 59.37-24.297 35.16-21.16 39.06-63.481 76.56-79.942 27.34-12.539 58.59-17.242 87.5-25.859 30.47-2.351 57.02-14.891 81.24-31.351 10.16-19.598 4.69-47.032 4.69-68.969-13.28-37.621-25.87-72.102-50.09-105.02-13.28-29-16.4-61.133-26.56-90.91 3.91-21.16-18.66-36.84-17.88-58-3.12-7.062-8.59-18.031-.78-24.301 17.97-26.648 47.65-16.691 68.75-41.761 18.75-14.899 53.12-13.329 73.43-2.36 21.09-1.57 39.84 1.571 57.03 7.051 28.13 0 62.5-13.859 86.72-29.551 23.43-27.418 51.56-35.379 79.68-52.617 46.09-13.32 84.37 10.188 124.21 19.598 52.35 10.179 88.28-11.098 130.47-24.418 21.87-12.543 44.53-23.512 70.3-26.653 25.78 6.27 54.69 5.493 77.35 21.161l53.9 23.519 74.21-10.078c35.16-22.719 84.38-13.32 123.44-6.27 24.22.789 42.19 15.668 64.06 22.739 18.74 13.32 37.49 27.429 60.15 32.121 61.72 15.679 137.49-1.563 199.21 14.898 39.84 13.321 87.5 9.52 110.15 53.403-.78 19.597-10.15 36.058-10.15 55.648-10.16 17.25 0 43.102-12.5 58.781-11.72 78.379-97.66 128.528-76.57 217.879 21.88 25.871 54.69 33.699 86.72 39.969 10.94 7.051 25.78 4.711 37.5 7.84 46.87 7.051 87.49 43.113 111.71 84.64 27.35 29.789 64.85 36.063 103.13 39.973 49.99 21.156 68.74 76.027 107.02 110.508 42.19 32.92 94.53 44.67 132.81 88.56 23.43 38.4 48.43 83.08 92.18 104.24 23.44 15.68 53.12 25.86 67.97 54.07 17.19 29.79 11.72 68.19 45.31 90.92 65.62 46.24 104.68 111.29 117.96 183.39l22.66 54.08c32.81 35.27 68.75 70.54 74.21 118.34l.78 54.87c10.15 48.59 56.45 85.43 66.61 134.02l.78 101.1c14.06 37.62 37.5 70.53 41.4 112.07 11.72 28.22 3.03 55.65-1.66 82.3l-4.68 23.5c3.91 42.33 22.65 77.59 38.28 115.21 4.69 6.28 13.28 16.46 21.87 7.84 11.72-14.89 0-36.83-1.56-54.07-9.37-25.87-27.34-55.66-14.06-84.65 0-19.59 17.19-32.91 10.94-54.86-3.91-21.16-17.09-41.54-19.45-63.48-14.83-37.62-35.15-72.89-35.93-116l-7.23-90.12c-7.03-18.03-19.53-35.28-16.41-56.44 4.69-10.18 16.41-5.48 24.22-9.4 30.47-5.48 51.56-33.69 84.38-33.69 10.93-5.49 25.78-3.15 37.5-2.36 10.14 5.49 21.2 16.46 24.32 25.08 10.16 36.84 27.24 65.05 31.14 105.02 11.71 28.99 17.58 64.27 7.43 91.7-16.41 45.46 11.72 80.72 26.56 117.56 7.81 41.53 5.58 77.59-8.49 112.07-2.33 49.37 33.61 83.07 23.45 134.8 1.56 14.11-3.12 27.43-7.04 39.98l-1.56 76.81c3.9 10.18 14.84 9.39 20.31 2.34 23.44-17.24 10.17-49.37 17.19-72.89 10.15-20.37 4.68-47.02 4.68-69.75-13.28-18.81-10.05-47.81-22.55-66.61-8.6-43.89 8.38-74.46 7.6-115.22-5.47-36.04-10.93-72.1-24.22-104.24-13.28-23.5-19.53-59.56-6.25-85.42-2.34-18.02-2.74-31.34-6.65-47.81-5.46-28.99-5.46-59.56-17.18-85.43-9.38-18.81-25.78-37.62-15.63-60.34 14.85-19.59 39.85-25.87 65.63-23.52 13.28-3.13 35.55-24.18 50.4-17.12 43.75 29.78 28.82 101.77 60.84 139.39 26.56 26.65 11.81 78.37.88 110.51-14.07 61.91 39.83 97.17 47.64 150.48l7.73 47.02c-32.82 50.93-11.43 117.56 5.76 167.71.78 14.89 4.77 37.51-5.38 52.4-10.16 34.49-8.2 60.47-21.48 93.38.78 23.52 8.31 48.6 15.33 71.33-2.33 28.99-3.52 52.51-1.96 79.94 3.91 6.26 10.94 8.62 17.19 4.7l7.81-10.19 1.56-94.83c-11.71-15.68-5.46-37.62-15.62-53.3 3.12-25.07 13.28-47.81 22.66-70.53 3.12-47.81 9.37-100.32-15.63-139.51-19.53-27.43 0-58.78 8.59-84.65-.78-42.31 3.91-86.99-15.62-121.47-19.53-34.48-33.59-80.73-16.41-121.49 10.16-64.26-39.25-105.8-51.75-160.66 2.34-36.05-4.89-74.45-38.48-90.91-22.66-22.73-45.31 3.92-65.63 11.76l-53.12 3.91c-24.22 4.7-40.63 32.91-67.96 23.52-30.47-9.41-53.13 11.75-77.34 21.93-28.13 4.71-51.57 22.74-83.6 14.91-24.22-10.98-19.52-39.98-26.56-60.36 11.72-13.33 0-35.56 17.19-44.18 9.37 7.83 19.53-1.58 28.12-4.71 75.1-58.84 105.7-97.58 196.09-92.89 28.12-14.9 67.97-24.3 77.34-61.14 0-6.26-5.47-10.19-10.16-12.53-32.81 0-47.65 43.88-81.25 39.97-69.52-5.49-121.08 33.7-166.39 82.28-23.44 18.81-49.22 37.63-80.47 32.92-28.9-34.48-68.74-79.23-81.24-122.32-2.35-10.2 3.9-19.6 12.5-24.3 32.8-7.84 60.15-13.26 95.31-14.82 59.37-15.68 68.74-103.16 134.37-104.73 31.25-10.19 74.99-11.75 84.36-52.51-.77-4.7-3.9-10.19-9.37-10.97-23.43 10.19-42.96 30.56-71.09 30.56-28.12 12.55-71.87 1.57-82.03 42.32-21.87 29.01-53.12 42.75-84.36 56.86-28.13 6.27-54.69 20.37-86.72 14.88-10.94-5.49-7.82-17.23-11.72-25.86-7.81-25.87-40.63-41.54-49.22-67.4l3.12-7.84c39.07-45.45 92.19-65.05 124.21-117.56l56.25-12.17c21.1-21.16 43.75-48.96 68.75-59.93 11.72-10.19 10.94-25.87 10.16-39.19-22.66-63.48-65.71-119.129-119.62-166.149-62.49-31.351-99.3-87.98-128.2-145.98-32.81-50.149-107.25-88.36-153.34-122.059-32.81-18.031-51.74-31.043-80.65-60.051-15.62-10.961-10.83-36.832-30.36-30.562-7.81 3.133-10.15 14.89-4.69 21.16 33.6 68.961 91.1 82.769 147.35 120.402 66.39 28.207 125.51 97.969 151.28 157.528 42.97 72.101 132.41 104.812 176.94 175.351 10.93 21.16 21.08 26.86 13.27 56.63-1.56 21.16-39.17 25.08-53.22 34.48-17.2 20.38-21.28 35.27-47.84 29.79-39.84-36.84-58.6-126.92-117.96-139.46-28.91-3.92-54.2-15.97-70.61-41.838-13.28-57.992-56.55-96.141-114.36-132.203-40.63-27.43-62.77-30.379-101.05-63.297-30.47-23.5-53.82-54.864-65.53-86.992-6.25-4.711-14.07-10.981-21.88-5.489-10.16 5.489-7.8 18.809-5.47 26.649 25 39.191 32.12 71.55 77.43 95.07 39.85 27.422 95.02 34.84 127.84 76.391 25 19.589 48.35 32.847 53.8 62.621 6.25 32.918 29.69 64.268 61.72 77.598 60.16 18.02 116.32 90.98 148.34 143.49 7.04 7.05-15.06 19.59-22.87 28.21-27.34 39.19-71.09 55.64-103.9 88.56-18.75 4.7-27.34-16.45-40.63-25.85-19.52-43.11-28.91-100.33-81.24-119.14-36.72-21.94-79.69-46.24-100.78-86.99-15.63-29.78-40.62-59.57-69.52-79.941-46.88-14.89-96.1-33.699-125-79.937-17.97-39.973-58.59-81.512-103.12-84.653-35.15-10.968-73.43-28.988-92.18-65.828-35.94-38.41-82.81-51.73-135.15-50.172-20.31-10.179-45.31-11.738-60.94-32.117-11.72-44.672 9.38-81.523 36.72-112.871 17.97-34.48 35.93-68.961 47.66-105.801 1.55-32.922-7.04-73.672 24.21-89.34 46.87-11.761 82.03 24.77 123.43 34.969 30.47 14.891 55.47 43.403 89.07 52.02 12.5 3.133 26.55 4.711 34.36 16.461 1.56 18.031-17.96 29.781-21.86 47.031-1.58 28.211-21.11 57.988-49.22 66.621-28.13 3.129-50.78-16.473-78.13-15.684-6.25 3.922-12.5 10.192-8.59 18.813 7.03 11.75 23.44 7.051 32.81 14.891 23.44 8.617 47.66 38.398 73.44 14.886 31.24-22.726 53.11-53.289 57.8-89.347 11.72-19.59 32.03-35.262 30.47-60.34-.78-28.219-35.94-24.301-51.56-41.539-46.09-20.371-82.81-54.192-134.37-62.032-17.19-12.539-42.19-14.781-60.94-24.179-57.02-6.27-99.99-39.309-150.77-61.25-23.44-3.141-45.31-12.539-69.53-10.192-39.84-18.808-78.91 3.25-122.65-9.289l-39.06-.109c-53.12-32.922-109.37-58.781-174.99-61.141-25.78-13.32-50.78 5.489-79.69 1.578-26.56 3.133-58.59 24.184-84.37 8.493-22.65-3.129-43.74-13.321-64.05-23.5-37.5 0-75-3.922-110.15 3.91-43.75 22.73-85.16 37.07-142.18 24.527-35.16-7.047-65.63-23.629-107.03-11.086-50.78 20.379-93.75 52.629-146.87 68.309l-66.41 16.219c-25.77-8.622-56.24-15.668-83.58-8.622-35.94-4.699-53.12 33.704-82.03 46.243-51.56 43.097-125 22.359-182.8 53.711l-16.41 3.918c-43.75 29.781-88.28 50.761-134.37 74.269-24.99 37.621 21.88 61.922 28.13 94.84 2.34 35.262 35.93 57.98 61.71 79.152 19.53 7.84 35.16-9.41 53.12-14.101 11.72-19.598 60.16-7.071 44.53-39.981-10.16-13.328-23.44 1.571-34.37 2.352-21.88 3.918-48.44 25.871-69.53 4.711-18.75-18.813-33.59-38.41-33.59-64.274-8.59-14.097-21.87-27.429-18.75-43.886 11.71-14.11 30.46-10.18 44.53-18.813 43.75-25.859 82.81-61.129 132.8-72.109 21.1-8.621 51.57-26.641 73.44-6.27 27.34 19.602 19.44 57.219 26.47 85.43 7.81 30.57 25 56.43 35.93 85.43l37.6 70.539c.77 21.941 10.15 47.023-1.57 67.402-42.18 41.539-113.27 14.098-157.8 48.59-41.41 17.238-50 68.969-92.97 81.508-33.59 13.32-71.87 14.101-98.43 42.312-17.97 21.168-34.37 42.328-45.31 65.84-35.16 49.379-91.4 49.379-133.59 79.949-47.66 39.97-61.71 100.32-115.62 130.88-31.247 22.73-69.528 36.83-92.966 70.53-17.969 32.92-16.398 80.73-58.59 97.97h-12.5c-31.25-35.26-78.898-47.8-103.117-89.35 1.563-23.5 17.184-41.53 28.125-61.13 24.211-34.48 40.801-65.83 77.52-81.5 39.054-14.89 84.371-50.95 87.496-96.4 10.152-50.949 79.502-97.969 128.722-109.719 25.78-15.679 57.02-17.25 79.68-40.761 24.22-25.871 42.19-58.782 60.94-89.34 2.34-8.629 7.03-18.809 2.34-28.231-4.69-6.257-12.5-11.738-19.53-6.257-21.88 23.507-23.44 57.207-50 79.937-47.65 52.512-118.75 48.59-166.402 102.672-38.278 28.219-69.348 69.75-77.934 112.848-17.187 68.981-77.523 49.381-117.363 92.481-27.344 28.22-37.5 68.2-71.094 89.35-36.715-.78-57.808-39.18-90.621-50.16-16.406-10.18-5.469-30.56-6.25-44.66 30.469-45.46 59.457-94.058 107.899-123.05 35.152-24.301 71.085-54.86 91.398-92.481 17.969-72.891 96.492-136.969 168.363-158.918 46.874-31.351 108.884-50.34 129.194-112.25 1.56-7.051-5.47-11.762-10.16-14.109-28.12-2.364-32.81 32.129-56.24 42.316-28.13 24.301-59.669 40.942-90.919 58.172-39.84 31.359-87.496 52.512-117.179 97.969-30.465 36.84-48.836 78.203-87.118 112.679-51.554 41.543-104.769 78.383-137.582 138.722-19.531 32.14-61.714 67.4-32.812 107.37 25.781 17.25 52.344 36.05 75.781 57.22 24.215 8.61 49.996 14.88 66.402 39.18 23.438 16.46 37.211 42.92 66.114 49.2l56.156 55.82-8.012 9.41c-24.218 21.95-50.98 47.8-58.011 78.37-7.028 13.32-23.434 8.62-34.372 7.05-22.656-4.7-42.968-14.88-65.625-18.81-35.152-21.16-74.996-52.51-93.746-90.12-10.933-10.19-28.125-6.27-40.621-14.12-21.093 0-36.718-11.75-57.812-10.96-14.844-6.27-24.992-25.09-41.403-22.74-8.589 6.27-6.25 16.47-.785 23.52 23.438 32.13 60.157 39.97 97.657 39.19 46.089 19.59 60.152 74.45 105.464 97.18 38.278 10.19 77.34 19.6 111.715 38.4 7.809 5.48 8.586 17.24 3.903 24.3-13.278 42.32-52.336 76.81-85.153 106.58-53.902-5.48-91.402-51.72-131.246-88.55-20.308-4.71-34.371-22.74-54.683-26.65-42.18.78-77.43 6.44-103.208-29.6-4.687-5.49-14.062-5.49-20.312-3.93-9.375 4.71-10.938 17.25-5.469 24.31 26.563 36.83 58.684 42.92 102.426 37.43 32.031 3.92 50.781 39.18 77.34 56.43 34.379 22.73 84.195 48.41 124.82 53.11 9.367 3.92-1.765 22.13 2.926 29.96 13.277 21.96-12.902 45.46-17.594 66.62-17.183 18.03-41.402 6.27-63.277 7.06-24.215-10.19-51.559-11.76-72.652-29.79l-64.055-1.56c-15.625-14.9-37.5-15.68-53.906-28.22-25-3.91-55.469 3.14-74.219-17.24-22.653-3.14-36.809 7.05-48.524 27.43-17.187 19.59-15.531 50.95-19.437 76.03-8.598 35.26-25.094 64.26-32.906 99.53-6.25 24.29-17.875 58.78-5.375 79.94 5.464 57.22-28.707 94.83-34.176 147.34 3.906 32.14-14.262 70.54 4.488 96.4 20.313 34.49-7.031 65.84-17.187 96.4-7.032 36.05-.782 73.67 1.562 109.73 6.25 24.29 30.469 43.1 18.75 72.1-7.031 16.46-2.926 34.48-7.613 50.94v85.43c4.687 14.11 23.433 14.11 28.125 0" style="fill:#fff;fill-opacity:1;fill-rule:evenodd;stroke:none" transform="matrix(.13333 0 0 -.13333 0 621.63)"/><path d="M2193.85 2011.31c1.57-16.45-6.27-28.21-16.45-39.97-18.03-18.03-44.68-9.4-68.19-10.18-38.4 11.75-74.45 30.56-111.29 45.45-2.35 2.36-3.92 6.27-1.57 8.62l3.14 2.35c1.8-.46 3.59-.96 5.36-1.49 36.3-17.72 71.27-39.46 113.05-43.65 11.02-1.53 22.66-1.59 35.2.47 11.26 3 19.64 11.76 25.85 21.45l.96 1.44c1.64 1.59 2.52 3.19 2.87 4.78a82.19 82.19 0 0 1 6.67 15.76l4.4-5.03M2025.32 2149.47c2.6.14 1.27-19.41.63-23.25-3.13-18.02-18.03-31.34-34.49-37.61-36.04-8.63-64.26 12.54-93.26 25.86l-71.32 40.75c-6.84 9.7 1.91 16.99 9.2 16.01-.79-1.68-1-3.84-.6-5.82 8.26-3.19 16.35-6.79 24.3-10.69 8.14-4.87 18.03-10.3 28.76-15.45 15.06-8.69 29.89-18.01 44.9-27.16 18.03-5.49 43.08-6.27 62.67-3.13 23.75 14.71 21.54 18.54 29.21 40.49M2341.98 1871.81c-9.4-20.38-32.13-24.3-52.51-25.87-31.35 1.57-54.07 21.95-83.07 29-14.9 8.63-32.92 14.12-45.46 25.08-.98 1.96-.43 3.6.69 4.75 32.31-13.71 62.49-33.05 97.79-41.07 6.95-1.54 14.29-4.21 21.72-5.8l.49-.2c.34-.04.68-.07 1.02-.1 7.16-1.37 14.38-1.57 21.45 1.41.49.33.98.67 1.47 1.01 4.09 1.59 7.87 3.92 11.33 7.08 2.18 2.7 4.3 5.52 6.2 8.48 8.29 9.37 14.5 20.38 16.84 32.56 6.68-9.93 2.04-24.87 2.04-36.33" style="fill:#231f20;fill-opacity:1;fill-rule:evenodd;stroke:none" transform="matrix(.13333 0 0 -.13333 0 621.63)"/></svg>