<svg xmlns="http://www.w3.org/2000/svg" viewBox="0 0 440 555"><g transform="translate(-3.642-4.533)" fill-rule="evenodd"><path d="m132.32 121.96l-28.705-22.442c-3.812-5.077-10.747-3.906-17.223-3.653-14.962 3.634-29.923 7.126-44.885 16.179-3.827 5.567-3.479 11.134 1.044 16.701 3.833 2.784 3.993 5.567-.522 8.351-20.756 10.669-35.793 23.01-23.486 43.32 14.837 19.38 30.22 38.565 26.1 64.718l-28.18-.522c-4.924 12.352-7.601 24.704-8.351 37.06 1.952 13.325 5.364 26.16 11.482 38.1 11.314 38.97 1.362 80.03 3.131 116.91-6.1 30.15-2.768 52.13 12 64.2 14.323 11.425 28.587 22.909 40.19 37.06 19.807 17.1 51.856 30.08 57.933-5.741 35.563 1.046 68.54 28.922 89.25 10.438l-1.044-49.582-20.355-1.566 1.044 11.482c-21.92-.194-46.45-17.919-65.761-18.267-18.212-.301-23.13 10.793-21.92 27.14-17.06-16.715-32.17-29.54-46.45-40.709-8.802-24.18 5.921-112.56 3.653-127.35l-15.14-65.761c40.22.237 42.43-24.852 25.574-78.81-8.573-11.74-18.321-22.697-22.964-37.06 15.434.621 26.13-11.38 37.578-21.399 15.174 9.108 22.23 19.84 30.793 30.27l38.1-21.399-32.881-27.662z" fill="#f00" stroke="#000" stroke-width="2"/><g fill="none" fill-opacity=".75" stroke-width="1.5"><path d="m219.16 530.24c-13.195 16.357-31.963 6.709-50.55-2.077-20.817-10.07-31.705-8.225-43.622-7.617-8.485.47-25.01-15.777-38.08-27-19.402-14.545-26.19-24.885-29.08-33.928.768-45.857 6.463-72.01 9.694-108.02-2.405-34.621-18.973-59.55-16.618-89.32 1.337-18.489 20.03-18.342 17.31-9l-4.847 22.16c15.07 3.82 14.422-14.81 17.31-28.389" stroke-opacity=".941" stroke="#ffff0f"/><path d="m89.39 97.36c17.216 13.801 38.38 31.886 51.938 43.859" stroke="#ff0"/><g stroke-opacity=".941" stroke="#ffff0f"><path d="m135.55 128.91l-38.549-32.24"/><path d="m130.24 155.53c-19.915-15.199-46.953-37.92-68.55-51.24"/><path d="m55.46 106.36c27.545 15.213 44.991 32.951 65.779 49.854"/><path d="m38.15 140.99l30.32 13.275c10.224 5.714 5.071-2.961 4.172-3.826-10.05-12.429-25.2-16.02-33.796-30.22"/><path d="m31.22 144.45l29.833 11.218c14.301 5.749 19.01-2.376 15.716-7.656-9.759-11.06-27.25-19.214-34.471-32.643"/></g><path d="m206.4 499.66c6.496 2.063 15.519 3.043 9.694 10.386-14.746-1.551-30.2-2.097-48.47-12.463-17.981-8.187-35.516-13.924-49.854-2.077" stroke="#ff0"/><g stroke-opacity=".941" stroke="#ffff0f"><path d="m55.46 158.99c-.931 13.85 15.01 32.484 26.312 47.777"/><path d="m29.839 246.23c-3.76 19.11-19.426 27.24-1.385 66.47 15.483 35.19 7.227 82.25 5.539 126.02-4.967 45.31 5.169 52.858 14.541 62.32 12.859 10.222 24.914 15.619 39.468 36.01 8.339 6.854 21.9 9.53 39.468 9"/></g><g stroke="#ff0"><path d="m32.608 145.14c-17.624 15.233-5.579 30.466 5.539 45.699 21.13 27.326 13.14 38.765 15.926 56.09"/><path d="m27.03 147.56c-17.624 15.233-5.579 30.466 5.539 45.699 21.13 27.326 12.72 35.845 15.508 53.17"/></g><g stroke-opacity=".941" stroke="#ffff0f"><path d="m22.67 245.85c-3.76 19.11-19.426 27.24-1.385 66.47 15.483 35.19 7.227 82.25 5.539 126.02-4.967 45.31 5.169 52.858 14.541 62.32 12.859 10.222 24.914 15.619 39.468 36.01 8.339 6.854 17.746 15.762 35.31 15.233"/><path d="m217.94 537.93c-13.195 16.357-38.19-.215-56.09-4.847-20.817-10.07-24.09-6.841-36.01-6.232-6.408 3.932-31.939-19.932-45.01-31.16-19.402-14.545-24.11-26.27-27-35.31.768-45.857 6.463-72.01 9.694-108.02-2.405-34.621-18.973-59.55-16.618-89.32 3.876-20.284 20.819-17.784 17.31-9l-4.847 22.16c15.07 3.821 14.422-14.81 17.31-28.389"/><path d="m206.16 495.07c9.266-.707 23.828 10.659 7.617 20.772-14.746-1.551-30.2-2.097-48.47-12.463-17.981-8.187-35.516-13.924-49.854-2.077"/></g><g stroke="#ff0"><path d="m131.19 526.45c10.388-24.08-3.094-20.951-14.949-18.1"/><path d="m115.15 512.34c7.214 1.29 22.841-4.736 17.02 8.605"/></g><path d="m51.821 156.25c-5.421 13.85 16.807 41.463 28.11 56.756" stroke-opacity=".941" stroke="#ffff0f"/></g><path d="m315.04 122.11l28.705-22.442c3.812-5.077 10.747-3.906 17.223-3.653 14.962 3.634 29.923 7.126 44.885 16.179 3.827 5.567 3.479 11.134-1.044 16.701-3.833 2.784-3.993 5.567.522 8.351 20.756 10.669 35.793 23.01 23.486 43.32-14.837 19.38-30.22 38.565-26.1 64.718l28.18-.522c4.924 12.352 7.601 24.704 8.351 37.06-1.952 13.325-5.364 26.16-11.482 38.1-11.314 38.97-1.362 80.03-3.131 116.91 6.1 30.15 2.768 52.13-12 64.2-14.323 11.425-28.587 22.909-40.19 37.06-19.807 17.1-51.856 30.08-57.933-5.741-35.563 1.046-68.54 28.922-89.25 10.438l1.044-49.582 20.355-1.566-1.044 11.482c21.92-.194 46.45-17.919 65.761-18.267 18.212-.301 23.13 10.793 21.92 27.14 17.06-16.715 32.17-29.54 46.45-40.709 8.802-24.18-5.921-112.56-3.653-127.35l15.14-65.761c-40.22.237-42.43-24.852-25.574-78.81 8.573-11.74 18.321-22.697 22.964-37.06-15.434.621-26.13-11.38-37.578-21.399-15.174 9.108-22.23 19.84-30.793 30.27l-38.1-21.399 32.881-27.662z" fill="#f00" stroke="#000" stroke-width="2"/><g fill="none" fill-opacity=".75" stroke-width="1.5"><path d="m357.98 97.52c-17.216 13.801-38.38 31.886-51.938 43.859" stroke="#ff0"/><path d="m311.81 129.07l38.549-32.24" stroke-opacity=".941" stroke="#ffff0f"/></g><path d="m297.6 157.8l-150.46.095-55.09-104.98 62.36 53.01-13.512-72.76 35.34 41.575-1.039-48.851 31.18 49.89 5.197-15.591c-10.632-3.712-9.04-16.187-1.871-19.02-6.945-3.98-8.587-18.609 4.45-19.12-1.556-19.593 20.428-16.289 15.675-.723 13.783 1.139 12.142 15.768 5.197 19.748 7.173 2.834 8.761 15.309-1.871 19.02l5.197 15.591 31.18-49.89-1.039 48.851 35.34-41.575-13.512 72.76 62.36-53.01-55.09 104.98z" fill="#fe0" stroke="#000"/><path d="m151.15 161.66c23.435-17.15 116.23-17.77 142.5-.472l-142.5.472" fill="#fc0"/><g fill="none" fill-opacity=".75" stroke-width="1.5"><g stroke-opacity=".941" stroke="#ffff0f"><path d="m317.12 155.68c19.915-15.199 46.953-37.92 68.55-51.24"/><path d="m391.9 106.52c-27.545 15.213-44.991 32.951-65.779 49.854"/></g><path d="m240.96 499.81c-6.496 2.063-15.519 3.043-9.694 10.386 14.746-1.551 30.2-2.097 48.47-12.463 17.981-8.187 35.516-13.924 49.854-2.077" stroke="#ff0"/><g stroke-opacity=".941" stroke="#ffff0f"><path d="m227.11 530.97c13.195 16.358 31.963 6.709 50.55-2.077 20.817-10.07 31.705-8.225 43.622-7.617 8.485.47 25.01-15.777 38.08-27 19.402-14.545 26.19-24.885 29.08-33.928-.768-45.857-6.463-72.01-9.694-108.02 2.405-34.621 18.973-59.55 16.618-89.32-1.337-18.489-20.03-18.342-17.31-9l4.847 22.16c-15.07 3.821-14.422-14.81-17.31-28.389"/><path d="m391.9 159.15c.931 13.85-15.01 32.484-26.312 47.777"/><path d="m417.52 246.39c3.76 19.11 19.426 27.24 1.385 66.47-15.483 35.19-7.227 82.25-5.539 126.02 4.967 45.31-5.169 52.858-14.541 62.32-12.859 10.222-24.914 15.619-39.468 36.01-8.339 6.854-21.9 9.53-39.468 9"/></g><g stroke="#ff0"><path d="m414.75 145.3c17.624 15.233 5.579 30.466-5.539 45.699-21.13 27.326-13.14 38.765-15.926 56.09"/><path d="m420.33 147.72c17.624 15.233 5.579 30.466-5.539 45.699-21.13 27.326-12.72 35.845-15.508 53.17"/></g><g stroke-opacity=".941" stroke="#ffff0f"><path d="m424.69 246.01c3.76 19.11 19.426 27.24 1.385 66.47-15.483 35.19-7.227 82.25-5.539 126.02 4.967 45.31-5.169 52.858-14.541 62.32-12.859 10.222-24.914 15.619-39.468 36.01-8.339 6.854-17.746 15.762-35.31 15.233"/><path d="m229.42 538.09c13.195 16.358 38.19-.215 56.09-4.847 20.817-10.07 24.09-6.841 36.01-6.232 6.408 3.932 31.939-19.932 45.01-31.16 19.402-14.545 24.11-26.27 27-35.31-.768-45.857-6.463-72.01-9.694-108.02 2.405-34.621 18.973-59.55 16.618-89.32-3.876-20.284-20.819-17.784-17.31-9l4.847 22.16c-15.07 3.821-14.422-14.81-17.31-28.389"/><path d="m241.2 495.22c-9.266-.707-23.828 10.659-7.617 20.772 14.746-1.551 30.2-2.097 48.47-12.463 17.981-8.187 35.516-13.924 49.854-2.077"/></g><g stroke="#ff0"><path d="m316.17 526.61c-10.388-24.08 3.094-20.951 14.949-18.1"/><path d="m332.21 512.49c-7.214 1.29-22.841-4.736-17.02 8.605"/></g></g><path d="m80.52 157.73v287.52c-1.859 18.736 6.666 30.865 29.598 33.826l82.03-.846c17.528.277 24.463 9.107 31.24 22.781 6.773-13.653 13.708-22.484 31.24-22.76l82.03.846c22.932-2.961 31.456-15.09 29.598-33.826v-287.52l-285.72-.021z" fill="#f00" stroke="#000" stroke-width="3"/><g fill="#fd0"><path d="m252.37 119.25l31.11 4.445 6.35-59.05-37.463 54.607"/><path d="m334.28 80.52l-24.13 48.892-20.319-5.715 44.45-43.18"/><path d="m241.57 118.62l-36.19-.635 17.779-60.956 18.414 61.59"/></g><path d="m258.72 58.931l1.27 28.573-12.06 15.874-5.08-13.334 15.874-31.11" fill="#fc0"/><g fill="none" stroke="#fc0" fill-opacity=".75" stroke-width="2"><path d="m306.95 136.9c-56.935-16.01-111.94-16.843-168.88 2.675"/><path d="m302.53 147.19c-52.09-15.854-104.96-16.947-158.74-.635"/></g><g transform="matrix(.58247 0 0 .58448-355.4 171.02)"><g stroke="#000" stroke-width="2"><path d="m796.41 111.15c17-7 26-18 23-32 9 6 10 14 9 22 0-6 2-12-3-19-2-3-1-5 0-8 2 4 5 7 7 11 0-3 1-6 1-10 9 10 5 19 3 29 2-10 4-19 7-24 3 5 3 7 3 20 3-6 3-12 7-19 3 7 2 13 2 20 0-6 1-12 5-17 2 5 1 11-1 17 2-5 3-9 8-12 1 2 1 4-1 6 3-2 3 0 5-2 0 6-2 8-5 15 2-4 2-8 7-10 2 8-5 13-11 19 4-4 8-9 13-12 1 3 0 6-1 9 12-1 18 16 21 44 1 4 2 9 1 13-1 2-3 2-5 1 4 15 0 30-4 44 11-59 36-82 63-100 8-27 20-32 32-33 36 0 72-1 107-1 10 0 21 4 35 17 3 4 3 7-1 7 5 2 7 7 8 13 0 3-2 2-4 2 2 1 5 1 7 6-1 5-3 4-5 3 3 4 8 7 6 15 13 15 27 29 35 48 27 26 43 60 49 101 1 5 2 10 2 15-9-9-12-20-13-33-1 3-3 6-5 8-2-5-3-10-3-15-1 3-2 3-4 2-1-6-1-12 0-19-1 12-3 11-7 6-1-23-5-42-14-47 6 14 9 29 9 43-2-1-4-3-6-5 4 5 4 11 4 18-1-2-3-3-5-5 8 9 6 20 7 30 6 12 12 25 15 38 3 3 6 5 9 5-1 20-3 39-5 59 1 10 1 19 1 29-8 3-15 8-16 16-15 0-29 0-43 0 5-9 12-16 25-16 5-15 10-11 16-32 0-9 0-18 0-27-2-11-6-19-11-26-5-14-12-25-21-33 0 12-1 25-1 37 5 5 5 10 0 16-12 20-24 40-28 58-2 9-6 12-11 12-8 4-13 7-18 11-13 0-25 0-38 0 4-14 16-18 32-17 2-5 4-9 10-13 11-10 21-23 28-49 0-13-3-22-5-32-5-12-10-24-15-36-5-7-10-13-16-20-10 4-19 10-31 7 3 7-7 4-12 2 10 9-20 3-22 2 6 8-5 6-15 4 3 17 7 34 3 51-2-5-4-9-6-13 10 21 7 43 8 65 3 12 4 23 2 36-3 0-6 0-9 0-5 5-10 10-15 15-13 0-25-1-38-1 3-9 11-15 25-18 5-7 11-13 19-18 0-6 0-12 0-17-2-17-6-31-16-42-1-12-5-23-11-34-3 6-7 12-11 19 0 11-12 25-12 34-2 18-3 37-3 55-6 5-13 11-21 20-13 0-26 1-40 1 2-10 8-16 22-19 3-1 6-3 8-9 4-5 9-10 15-15 2-14 3-28 3-41 0-4-2-9-6-14 1-9 1-17 2-26-4 1-6-1 3-15-9 17-11 16-6-3-15 24-7-2-4-17-2 7-1 15-9 20 1-9 1-18-2-25 1-13 1-18-1-25 4 11 1 21-5 32-8 11-13 23-18 35-3 0-4-5-3-13-1 6-3 12-3 19-3-3-4-6-5-10-1 10-5 15-11 17 2-5 3-9 3-14-1-5-2-9-2-13 2 13-2 20-6 24-9-20-32-26-33-52-2 6-3 13-1 22-12-12-13-26-11-41-2 6-4 13-4 21-7-14-5-27 0-40-1 7-4 13-9 18 2-9 3-17 3-25-2 4-5 7-8 8 6-16 1-35 8-47-2 0-4 0-6 0-2 1-3 3-4 4-1-2-1-3-1-5-1 2-3 4-6 5 0-3 1-6 2-10-1-19 0-35 9-39-5 1-11 4-17 8-4 2-7 1-10-6-8 0-11-3-8-12 1-2 2-5 4-8 4-8 14-13 26-18z" fill="#fcf8fe"/><path d="m1092.41 272.15c-15-28-17-58-12-92" fill="none"/><g fill="#ffe626"><path d="m969.41 102.15c-18 56-10 85 22 91 11 1 28-9 44-8 47 10 66-9 69-43 2-28-3-46-12-51-41 4-82 8-123 11z"/><path d="m968.41 49.15c5-16 26-24 68-15 23-8 52-3 55 13 1 6 1 11 1 17 9 29 5 58-28 66-9 0-18 0-28-3-33 14-68 11-68-29 0-9 1-19 2-28-1-7-2-14-2-21z"/></g><g fill="none"><path d="m1012.41 287.15c-10 0-19-2-28-4"/><path d="m984.41 283.15c-3 9-6 18-10 27"/><path d="m984.41 217.15c14 38 4 28 4 32 1 13-1 20-3 23-2 4-2 7-1 11"/><path d="m1100.41 253.15c0 10 7 22 8 39"/><path d="m1175.41 211.15c-3-4-6-6-9-8 6 12 6 24 6 36-1 1-2 0-3-1 1 6 1 11 0 17 0-1-1-2-2-3 1 6 0 12-1 18-1 0-2-1-3-2 1 5 0 9-2 14 0-1-1-2-2-2 1 3 1 7 1 10-1-1-2-1-3-2 1 2 1 5 0 8 0-1-1-1-1-2-1 4-1 7-2 10"/><path d="m768.41 132.15c5-3 9-5 13-7 2 0 2 1-2 2"/><path d="m774.41 150.15c5-6 11-10 20-13 2-1 3 1 3 2"/><circle cx="331" cy="190" r="4" transform="translate(482.41-74.85)"/><path d="m805.41 116.15c3-9 8-11 17-6-6 1-12 3-17 6z"/><path d="m835.41 108.15c4-4 13-6 28-4-2 4-6 9-12 14"/><path d="m838.41 112.15c5-3 11-5 17-5-2 3-4 5-6 8"/></g></g><g fill="none"><g stroke="#fb9849" stroke-width="5"><path d="m973.41 59.15c-4-28 30-27 63-20 18-8 34-4 44 0" stroke-linecap="round"/><path d="m1096.41 111.15c12 56-16 80-64 67-54 20-76 2-64-57 14 26 40 22 68 13 32 6 52 2 60-23z"/></g><g stroke="#000" stroke-width="2"><path d="m1033.41 128.15c1-31 2-63 0-95"/><path d="m1038.41 127.15c0-31 1-62 0-94"/><path d="m969.41 69.15c38-13 76-17 123-4v-5c-41-11-82-8-123 5"/><path d="m796.41 191.15c7-15 2-35 11-44"/><path d="m875.41 114.15c-6 8-13 12-21 12 15-3 9 3 0 10-3-1-6-1-9-1 5 1 9 1 8 5-6-1-11-1-16-2 4 1 9 2 9 7-3 0-7 0-10 0 4 0 7 1 6 5-4 0-7 0-11-1 3 1 6 1 6 5-4-1-9-1-14-2 2 6-2 13-5 19 0-6 0-11 0-16 0 12-3 25-12 37-2 0-3 1-5 0 4-7 7-18 10-35"/></g><g stroke="#fb9849" stroke-width="5"><path d="m975.41 74.15c15-9 33-10 55-12 0 21-1 40-1 61-31 9-59 17-54-49z"/><path d="m1043.41 62.15c0 19-2 40-1 60 37 6 52-14 48-52-16-6-31-9-47-8z"/></g></g><g stroke-width="2"><g fill="#ffd900" stroke="#000"><path d="m1037.41 58.15c-10 9-11 5-3-4 9-9 12-6 3 4z"/><path d="m1034.41 58.15c-9-10-6-12 3-4 9 9 7 12-3 4z"/></g><g fill="none" stroke="#b3aec5"><path d="m1073.41 193.15c-10 13-28 25-21 7-7 7-13 12-21 13 1-4 5-8 9-12-18 12-31 15-43 14"/><path d="m851.41 244.15c-11-15-7-29 5-41-6 2-12 5-17 12 1-11 9-20 18-28-6-1-11 1-16 4 4-9 11-14 19-18-7 0-14 1-21 8 5-12 14-22 23-29-6-2-13 0-19 7 8-10 16-18 22-24"/><path d="m983.41 216.15c-1-2-2-5-3-7 0 6 0 11-2 17-6 22-11 19-15 12-3 13-12 16-15-2-5 25-36 19-25-11-4 4-8 7-9 12-5-14 0-27 5-41-2 4-6 7-9 7 2-16 7-24 13-31-4 0-8 2-11 3 13-28 27-46 41-52"/><path d="m898.41 200.15c7 19 7 38 4 58-3-5-5-10-7-15-1 21-3 25-6 13 1 11-3 21-9 31-1-5-2-9-2-14 0 7-1 13-3 19-1-5-3-10-6-15 6 15-8 21-3 31"/></g></g><path d="m1101.41 89.15c19 41 16 79-17 100 23-24 30-58 17-100" fill="#b3aec5"/><g fill="none" stroke="#b3aec5" stroke-width="2"><path d="m830.41 149.15c-4-3-8-5-12-7"/><path d="m835.41 144.15c-4-2-7-4-11-5"/><path d="m860.41 120.15c-9-1-17-1-25 1"/><path d="m853.41 124.15c-5-1-12-1-18-1"/><path d="m843.41 135.15c-3-2-7-3-11-4"/><path d="m836.41 138.15l-8-3"/><path d="m818.41 153.15c1-3 1-5 0-8"/><path d="m812.41 156.15c2-3 1-6-1-9"/><path d="m932.41 252.15c-3 22 12 40 20 58 3-10-3-21-7-31 9 7 14 18 18 29 1-10 2-19-4-28 3 5 7 11 10 16 1-13-1-26-5-39 5 9 9 20 11 33 4-16 2-32-6-46"/><path d="m988.41 267.15c9 7 38 15 14 1 15 5 19 2 27 3-4-2-8-4-11-6 9 6 19 5 28 3-6-2-11-4-17-6 13 4 23 3 31 0-6-1-12-2-18-3 11 2 21 4 34-1-8-1-16-3-24-5 9 2 19 3 29 3-4-9-11-11-19-9 5 0 10 0 15 0 1-5-1-7-8-6 5-1 9-2 7-8-2-1-4-1-6 0 6-13 3-26 3-39"/><path d="m963.41 99.15c-5 7-9 14-10 23-37 18-50 51-59 87 0 8-4 10-8 12"/><path d="m876.41 117.15c13 13 16 28 15 47 4 5 4 8-1 7-2 33-4 33-6 40-2 3-1 6 2 10-9-2-10-12-10-23 1-4 2-7 1-11 2-1 3-3 1-5 3-1 0-4-1-7 7 3 2-5-3-15 5 4 7 4 6 1 4 0 3-2-3-7 7 3 4-4-2-15 14 7 4-2 4-4 0-2-1-5-4-8 5 1 14 5-2-6 2-1 3-2 3-4z"/></g><g fill="#b3aec5"><path d="m1071.41 191.15c-15 0-36 2-61 7-28 5-46-6-54-34 12 27 31 40 65 26 8-3 32 1 50 1"/><path d="m1132.41 165.15c10 11 14 22 19 37-2 1-7-1-15-5 9 7 12 14 13 21-4 0-8-4-12-7 5 8 9 17 12 25-4-2-8-6-12-9 5 7 9 15 10 22-2-2-4-5-7-8 2 7 4 14 5 20-3-1-5-5-7-8 5 15 2 27-3 39-2 0-5-2-7-3 8 9 10 16 16 44-1-12-1-24-5-36 4-7 6-17 6-28 2-1 5-1 7-1-1-4-2-8-3-12 3 0 5 0 7 0-1-2-2-5-1-7 2-5 2-11-1-18 1-1 1-2 2-3-2-6-3-12-5-18 2-1 5 2 6 3 0-15-7-33-25-48"/></g><g fill="none" stroke="#b3aec5" stroke-width="2"><path d="m1124.41 112.15c-1 10-2 6 5 14-7-3-8 0 2 15-3 0-2 3 1 7 15 17 26 34 38 52 22 19 37 51 45 90"/><path d="m1196.41 252.15c0-3 1-5 1-6"/><path d="m1200.41 268.15c1-4 2-6 4-8"/><path d="m785.41 126.15c4 0 14-7 18-8"/><path d="m820.41 104.15c3-3 4-7 5-10"/><path d="m830.41 110.15c1-1 3-3 5-5"/><path d="m833.41 87.15c2 4 2 8 1 12"/><path d="m828.41 102.15c0 2-1 4-3 5"/><path d="m834.41 127.15c6 0 12 1 19 3"/><path d="m835.41 156.15c-18 19-31 41-28 74"/><path d="m813.41 236.15c0-4 0-8 2-11"/><path d="m817.41 256.15c1-6 3-10 6-12"/><path d="m829.41 273.15c0-4 1-7 4-10"/><path d="m863.41 320.15c-17-19-26-24-32-48"/><path d="m878.41 311.15c0-12 4-17 7-24"/><path d="m888.41 302.15c6-20 20-34 22-48"/><path d="m988.41 277.15c11 2 24 6 36 5"/><path d="m1016.41 279.15c10 0 20 0 30 1"/><path d="m1038.41 277.15c7 0 14-1 21 1"/><path d="m1053.41 275.15l21 2"/><path d="m1067.41 271.15c4 2 10 2 16 3"/><path d="m1078.41 268.15c5 4 10 7 5-9"/><path d="m983.41 272.15c-1-9-4-16-8-24 3 3 5 6 8 10 0-7-1-14-3-20 2 3 4 7 5 10 4-6 3-12-1-18"/><path d="m902.41 434.15c8-11 20-13 34-10"/><path d="m928.41 411.15c-4 2-6 7-6 12"/><path d="m934.41 414.15c-3 1-5 4-7 9"/><path d="m982.41 425.15h23"/><path d="m988.41 425.15c5-9 11-15 18-16 3-24-4-42-9-61-13-23-16-42-9-57 0-2 8-1 20 1"/><path d="m1014.41 314.15c-3-6-7-11-12-16"/><path d="m1009.41 324.15c-2-5-5-10-9-13"/><path d="m996.41 424.15c2-3 5-7 9-9"/><path d="m1010.41 333.15c0 18 1 37 2 56 6 16 4 21 4 29-7 2-8 4-9 6"/><path d="m951.41 328.15c0 18-5 24-8 54-2 13 7 36-5 41"/><path d="m1096.41 437.15c-1-4 4-8 13-11-15-2-29-2-37 9"/><path d="m1102.41 414.15c8-7 18-22 29-45"/><path d="m1113.41 414.15c10-24 29-40 39-67-7-54 0-48 2-60 2-8 2-16 1-24"/><path d="m1118.41 422.15c1-12 4-24 12-34"/></g><g fill="#b3aec5"><path d="m1102.41 414.15c2 4 6 7 12 10-2 1-3 1-5 2-6-1-12-1-17-1 3-3 6-7 10-11"/><path d="m1131.41 369.15c0-7-1-14 2-21 2 5 4 7 6 4 1 14-2 18-8 17"/></g><g fill="none" stroke="#b3aec5" stroke-width="2"><path d="m1134.41 342.15c3-8 7-11 14-10"/><path d="m1134.41 347.15c3-5 9-8 15-6"/><path d="m1130.41 332.15c-10-22-17-43-23-63"/><path d="m1084.41 197.15c-3 32 2 59 18 81"/><path d="m1159.41 434.15c4-2 9-3 13-4"/><path d="m1184.41 435.15c4-7 9-12 16-15 1-30-1-50-4-63"/><path d="m1190.41 398.15c-3 9-8 18-14 26h17"/><path d="m1157.41 190.15c6 14 9 28 9 41-2 0-4-1-6-3 2 9 3 19 2 30-1-3-2-4-3-1 1 3 2 6 1 9"/></g><g fill="#b3aec5"><path d="m1195.41 350.15c1-10 0-20-3-29-1 8-2 15-5 23 3 2 5 4 8 6"/><path d="m1196.41 357.15c2 2 4 3 6 5 0 6-1 12-2 18-1-7-2-15-4-23"/></g><g fill="none" stroke="#b3aec5" stroke-width="2"><path d="m1187.41 344.15c-7-8-13-24-21-34"/><path d="m1192.41 320.15c-9-18-14-35-16-52"/></g><g fill="#b3aec5"><path d="m1166.41 310.15c0-19 3-35 8-48-4 7-9 19-16 40 3 3 5 5 8 8"/><path d="m1175.41 219.15c2 9 5 18 6 28-1-1-3-1-5-1 0 4 1 9 2 16-1-1-2-2-4-4 1 4 1 8 1 11-2 2-3 1-5 0 4-17 4-34 5-50"/></g><path d="m953.41 345.15c4-7 6-14 5-21 6-5 9-11 10-16" fill="none" stroke="#b3aec5" stroke-width="2"/><path d="m968.41 309.15c9-9 11-19 12-30-3 0-3 8-5 12-1-9-4-16-7-22 2 13 2 27 0 40" fill="#b3aec5"/><g fill="none" stroke-width="2"><path d="m939.41 353.15c-5-11-6-24-4-42" stroke="#b3aec5"/><g stroke="#000"><path d="m968.41 441.15c-1-6 3-13 10-18"/><path d="m896.41 439.15c-1-6 3-13 11-17"/><path d="m1066.41 440.15c1-7 8-13 17-18"/><path d="m1151.41 439.15c3-5 8-11 16-16"/></g><path d="m1204.41 360.15c-1-7-1-14 0-21-3-2-5-3-6-5" stroke="#b3aec5"/></g><path d="m889.41 300.15c-1 3 0 4 2 3 5-10 7-16 18-32 0-3 0-6 0-9-9 16-17 29-20 38" fill="#b3aec5"/></g><path d="m395.54 156.41c5.421 13.85-16.807 41.463-28.11 56.756" stroke-opacity=".941" fill="none" stroke="#ffff0f" fill-opacity=".75" stroke-width="1.5"/><g fill="#fd0"><path d="m192.81 119.77l-31.11 4.445-6.35-59.05 37.463 54.607"/><path d="m110.9 81.04l24.13 48.892 20.319-5.715-44.45-43.18"/></g><path d="m186.46 59.45l-1.27 28.573 12.06 15.874 5.08-13.334-15.874-31.11" fill="#fc0"/><g stroke-opacity=".941" fill="none" stroke="#ffff0f" fill-opacity=".75" stroke-width="1.5"><path d="m408.03 140.43l-30.32 13.275c-10.896 5.714-5.071-2.961-4.172-3.826 10.05-12.429 25.2-16.02 33.796-30.22"/><path d="m414.95 143.89l-29.833 11.218c-14.301 5.749-19.01-2.376-15.716-7.656 9.759-11.06 27.25-19.214 34.471-32.643"/></g></g></svg>