<svg xmlns="http://www.w3.org/2000/svg" viewBox="0 0 515 600"><g transform="matrix(15.67474 0 0 15.67709-1387.58-2030.54)" fill-rule="evenodd"><path d="m121.38 160.18v-30.659h-32.855v30.55c.09 8.629 15.47 1.049 16.355 7.722.638-6.75 16.422 1.016 16.5-7.613" fill="#fe0000"/><g fill="#fff500"><g stroke="#da251d" stroke-width=".076"><path d="m94.56 140.99c-.164-.246-.328-.492-.492-.738.246-.205.512-.369.758-.594.615-.287 1.21-.574 1.845-.882.676-.143 1.353-.348 2.05-.492.533-.185 1.066-.369 1.62-.554.574-.164 1.148-.328 1.722-.492.123-.041.246-.082.369-.144.205-.349.246-.799.266-1.189.041-.615.102-1.23.164-1.865-.123-.082-.246-.164-.348-.246-.062-.164-.103-.328-.144-.492.287.062.41 0 .574-.102.123-.267.267-.553.41-.84.328-.369.8-.8 1.517-.677.492.02 1 .123 1.415.677.102.246.205.492.307.738.082.061.164.184.287.164.123.02.246.041.39.041-.021.123-.041.246-.041.349-.082.123-.205.246-.287.349-.062.102-.062.205-.103.287 0 .328.021.656.041.984.041.389.082.759.144 1.128.061.205.123.41.205.595.123.082.246.164.39.246.328.102.656.205.984.308.41.123.82.225 1.23.328.369.164.738.308 1.127.451.533.123 1.066.246 1.62.349.492.184.984.369 1.476.533.41.246.82.513 1.251.738.061.103.143.164.205.246-.062.185-.123.369-.185.553-.082.123-.144.246-.205.349.246.164.492.349.738.533.226.226.451.451.697.697.328.328.656.677.984 1.025.328.451.574.984.902 1.456.226.533.554 1 .8 1.558.102.492.225.984.348 1.476 0 .308 0 .615 0 .943-.082.082-.164.184-.246.287-.102-.041-.205-.082-.287-.103-.123-.143-.246-.287-.349-.43-.307-.431-.615-.861-.922-1.291-.328-.492-.656-.984-.984-1.476-.41-.513-.799-1.025-1.189-1.537-.225-.226-.451-.431-.677-.636-.082-.041-.164-.082-.246-.102-.082 0-.164 0-.246 0-.02.102-.041.205-.061.307.287.308.574.615.882.943.287.349.594.697.902 1.066.307.43.615.861.922 1.291.247.349.513.718.779 1.087.246.308.492.615.738.923.185.246.369.492.554.738-.123.103-.185.328-.287.451-.164.021-.389-.041-.553 0-.308-.082-.595-.143-.882-.205-.328-.267-.656-.533-.984-.779-.533-.676-1.066-1.353-1.579-2.029-.369-.431-.717-.861-1.066-1.271-.143-.164-.287-.308-.41-.451-.082-.062-.164-.123-.225-.184-.103 0-.205 0-.308 0-.041.061-.082.123-.102.184.184.205.369.43.553.656.328.389.677.779 1.025 1.169.307.43.615.861.923 1.291.451.492.922 1 1.394 1.517.369.246.738.492 1.127.738-.082.123-.164.267-.246.41-.164.021-.307.041-.451.082-.225.021-.43.041-.635.061-.205-.061-.41-.103-.595-.143-.225-.103-.43-.205-.635-.307-.246-.247-.492-.472-.738-.697-.328-.369-.656-.718-.984-1.066-.267-.328-.533-.656-.779-.984-.287-.349-.574-.676-.841-1-.123-.144-.246-.287-.349-.431-.102-.041-.225-.164-.307-.184-.082 0-.143.103-.225.123.082.143.164.287.246.451.205.267.41.553.635.84.328.41.656.82.984 1.23.246.328.513.677.779 1.025.267.246.533.492.799.759.287.225.574.451.882.677.061.041.123.082.185.143-.062.103-.103.205-.144.307-.225.041-.431.082-.635.143-.185-.02-.369-.041-.533-.041-.205-.082-.41-.143-.594-.205-.205-.102-.41-.205-.595-.287-.39-.267-.759-.533-1.128-.799-.389-.493-.759-.964-1.127-1.435-.307-.41-.615-.82-.923-1.23-.185-.267-.369-.533-.553-.779-.123-.041-.226-.082-.328-.103-.082.062-.144.123-.205.205 0 .123 0 .246 0 .389.082.205.164.41.246.636.021.061.061.123.103.205-.082 0-.164.02-.246.041.164.349.328.697.492 1.046-.103 0-.205.021-.307.041.164.39.328.779.492 1.189-.144 0-.267 0-.39 0 .103.861.226 1.722.349 2.604.164 1.025.307 2.07.492 3.116.041.677.123 1.353.185 2.05-.061.185-.103.39-.143.595-.123.185-.246.369-.349.554-.185-.082-.369-.144-.533-.205-.143-.164-.266-.307-.389-.451-.143-.205-.225-.39-.349-.575-.082-.41-.185-.799-.246-1.189-.061-.451-.123-.902-.185-1.332-.082-.492-.143-.984-.205-1.476-.082-.533-.143-1.067-.205-1.579-.082-.451-.164-.903-.225-1.333-.041-.062-.082-.123-.103-.185-.082-.061-.143-.123-.205-.164-.062.041-.123.103-.185.164.082.779.185 1.558.287 2.357.062.472.083.943.165 1.435.041.472.123.943.184 1.415.041.41.082.82.144 1.23 0 .328.02.656.041.985-.021.184-.041.389-.041.594-.041.164-.082.328-.103.492-.082.103-.164.205-.246.308-.082 0-.164 0-.246 0-.144-.062-.226-.164-.349-.205-.103-.103-.246-.143-.328-.246-.164-.164-.307-.328-.451-.492-.143.328-.266.656-.389.984-.185.103-.369.205-.533.307-.164-.02-.328-.041-.492-.061-.164-.185-.328-.369-.492-.533-.082-.164-.144-.328-.205-.492-.041-.082-.082-.144-.103-.205-.082.103-.164.225-.246.349-.143.123-.287.246-.43.389-.164.061-.328.123-.492.205-.103-.041-.205-.082-.308-.103-.061-.123-.103-.246-.144-.349-.041-.205-.061-.389-.082-.574.02-.389.041-.779.082-1.148.041-.574.103-1.148.164-1.722.041-.533.123-1.046.184-1.559.082-.533.123-1.087.205-1.599.041-.431.082-.861.144-1.271 0-.143.041-.349.062-.471-.062-.082-.123-.103-.164-.185-.082.041-.164.041-.246.103-.082.143-.144.348-.205.492-.061.328-.103.656-.144.984-.061.533-.123 1.087-.184 1.64-.082.553-.144 1.107-.205 1.66-.082.513-.164 1.025-.246 1.537-.062.267-.123.554-.185.841-.082.165-.164.329-.246.493-.144.164-.287.328-.41.492-.143.082-.287.164-.43.246-.164-.082-.308-.164-.451-.246-.082-.328-.164-.656-.246-.985 0-.287.02-.533.02-.799.102-.615.184-1.271.287-1.865.103-.759.205-1.517.328-2.276.062-.471.123-.923.205-1.374.082-.492.164-.963.246-1.434-.164 0-.307 0-.451 0 .164-.39.328-.759.492-1.128-.102 0-.205 0-.287 0 .143-.389.287-.759.451-1.127-.061-.082-.061-.082-.102-.144.102-.287.246-.533.307-.902-.02-.102 0-.185-.123-.287-.082-.02-.164-.041-.246-.061-.082.041-.164.102-.246.164-.102.082-.205.185-.287.287-.164.205-.328.41-.492.636-.205.287-.41.594-.594.902-.287.328-.554.677-.82 1.024-.349.328-.697.657-1.046.985-.287.184-.553.369-.82.553-.308.082-.595.185-.882.287-.226 0-.451 0-.656 0-.205-.102-.41-.205-.635-.287 0-.082.02-.123 0-.205.287-.164.512-.348.799-.492.369-.389.738-.759 1.128-1.127.389-.472.779-.943 1.168-1.394.164-.287.41-.553.574-.82.246-.308.41-.615.656-.902.061-.061.184-.143.266-.205-.041-.246-.103-.266-.308-.225-.349.123-.636.554-.943.82-.184.225-.369.451-.533.697-.328.41-.635.82-.943 1.23-.266.308-.533.615-.779.943-.328.246-.656.492-.984.738-.308.082-.615.185-.922.287-.185.021-.369.041-.554.061-.184-.061-.389-.103-.594-.143-.102-.143-.164-.225-.287-.349.287-.143.513-.349.779-.492.246-.246.492-.471.738-.697.287-.328.636-.656.902-.984.492-.615.923-1.23 1.415-1.824.349-.431.718-.861 1.087-1.271.041-.082.082-.164.143-.246 0-.185-.205-.308-.574-.082-.164.184-.348.389-.512.574-.164.184-.328.369-.492.574-.184.246-.369.492-.533.738-.266.328-.533.656-.799 1-.226.267-.472.533-.718.82-.246.266-.492.533-.738.799-.225.103-.451.225-.697.349-.184 0-.389 0-.594 0-.205-.041-.41-.082-.636-.103-.061-.123-.123-.246-.185-.349.226-.246.451-.471.677-.697.308-.472.615-.882.902-1.333.533-.697 1.045-1.435 1.558-2.112.369-.451.738-.902 1.086-1.333.164-.185.349-.369.533-.533.041-.123.184-.266-.041-.369-.103 0-.205.061-.308.061-.184.143-.348.287-.533.451-.184.226-.389.451-.594.697-.225.267-.451.554-.676.841-.246.369-.492.738-.738 1.127-.184.266-.389.554-.594.841-.246.348-.492.717-.738 1.086-.144.164-.287.328-.451.492-.082 0-.164.02-.246.041-.061-.103-.123-.205-.184-.287-.021-.184-.041-.369-.062-.553.041-.267.082-.533.103-.779.082-.39.205-.759.287-1.128.349-.656.677-1.292 1.025-1.948.328-.472.635-.902.943-1.353.43-.41.861-.861 1.291-1.251.308-.266.615-.471.881-.779z"/><path d="m110.83 141.39c0-.005 0-.014-.01-.014-.259 0-.456-.398-.777-.422-.279-.024-.543.159-.561.288-.01.111.321.293.686.274.264-.019.518-.115.662-.125z"/><path d="m111.8 139.22c0-.005.014-.019-.005-.019-.307 0-.542-.417-.927-.437-.326-.024-.633.173-.653.317-.01.12.375.312.806.288.307-.029.61-.134.778-.149z"/><path d="m99.93 143.13c-.005 0-.005-.024.005-.024.259 0 .446-.413.768-.446.273-.038.542.13.561.259.015.11-.307.312-.672.312-.264-.01-.523-.091-.662-.101z"/><path d="m98.83 141.39c0-.005-.005-.029.005-.029.259 0 .461-.384.782-.408.278-.024.542.159.562.288.01.111-.322.293-.686.274-.264-.019-.518-.115-.662-.125z"/></g><path d="m104.82 161.07c.557.039.994-.672 1.138-1.214.211.384 1.114 1.099 1.425.811.346-.447.341-.984.341-1.373-.159-2.525-.528-5.01-.806-7.525.038-.125.269-.063.34.13.302 2.208.644 4.401.955 6.608.134.772.792 1.694 1.426 1.722.432-.163.638-1.055.628-1.459-.019-.662-.701-5.02-1.056-7.516l.466-.019c-.264-.356-.38-.734-.514-1.104l.288-.039-.427-1.142.188-.029c-.154-.374-.418-.724-.447-1.113.019-.374.37-.259.475-.115 1.459 1.675 2.467 4.219 5.073 4.741.801.039 1.209-.077 1.421-.571-1.982-1.084-3.211-3.287-4.703-5.05.086-.058.211-.077.312-.019 1.723 1.589 2.99 4.65 5.178 4.775.849-.029 1.324-.192 1.439-.677-1.713-.562-3.484-3.643-5.226-5.461.058-.086.192-.106.351-.077.869.715 1.627 1.867 2.486 2.932.34.437 1.161 1.886 2.596 2.083.667.106.974-.067 1.123-.6-1.31-1.142-3.148-4.756-4.92-6.138.039-.105.183-.197.418-.086 1.536 1.325 2.856 3.705 4.171 5.408.303.331.638.283.715-.394.125-2.025-1.406-4.429-2.237-5.413-.926-1.089-1.934-1.944-2.217-2.121.029-.086.154-.216.173-.254.038-.077.288-.36.288-.662-.067-.139-1.286-.821-1.565-.941-.311-.134-.983-.475-1.41-.552-.696-.187-1.296-.211-1.944-.494-1.037-.504-3.158-.84-3.398-1.056-.197-.259-.226-.562-.293-.811-.067-.73-.106-1.589-.202-2.198.364-.182.513-.465.504-.892-.264.129-.475.096-.7-.038-.241-.955-.696-1.55-1.853-1.56-1.152.01-1.608.605-1.848 1.56-.225.134-.437.168-.701.038-.01.427.139.71.504.892-.096.61-.134 1.468-.202 2.198-.067.249-.096.552-.293.811-.24.216-2.361.552-3.398 1.056-.648.283-1.248.307-1.944.494-.427.077-1.099.417-1.411.552-.279.12-1.498.802-1.565.941 0 .302.25.585.288.662.019.038.144.168.173.254-.283.177-1.291 1.032-2.217 2.121-.83.984-2.361 3.388-2.236 5.413.077.677.413.725.715.394 1.315-1.704 2.635-4.084 4.171-5.408.235-.111.379-.019.418.086-1.771 1.382-3.609 4.996-4.919 6.138.149.533.456.706 1.123.6 1.435-.197 2.256-1.646 2.596-2.083.859-1.065 1.617-2.217 2.486-2.932.158-.029.293-.009.35.077-1.742 1.819-3.513 4.9-5.226 5.461.115.485.59.648 1.44.677 2.188-.125 3.455-3.186 5.178-4.775.101-.058.226-.038.312.019-1.493 1.766-2.721 3.969-4.703 5.05.211.494.619.61 1.421.571 2.606-.523 3.614-3.067 5.073-4.741.106-.144.456-.259.475.115-.029.389-.293.739-.447 1.113l.187.029-.427 1.142.288.039c-.134.369-.25.748-.513 1.104l.465.019c-.355 2.5-1.037 6.854-1.056 7.516-.01.403.197 1.295.629 1.459.633-.029 1.291-.95 1.425-1.722.312-2.208.653-4.401.955-6.608.072-.192.302-.254.341-.13-.278 2.519-.648 5-.806 7.525 0 .389-.005.926.341 1.373.312.288 1.214-.427 1.425-.811.144.542.581 1.253 1.133 1.214m0-27.28l.254.01.355-1.022-.212 1.08.264.226c.298-.465-.206-1.065.811-1.065l.202.038c-.269-1.19-1.248-1.315-1.675-1.305-.422-.01-1.401.115-1.67 1.305l.201-.038c1.018 0 .514.6.811 1.065l.264-.226-.211-1.08.355 1.022.249-.01m0 3.01c.187-.422.36-.763.562-1.19.163.014.269.206.269.336 0 .269.115.365.115.322 0-.024-.034-.211-.034-.374 0-.134-.067-.418-.273-.471.005 0 .667-1.42.864-1.444.197-.024.341.005.422.206.081.202.01 2.39.48 3 .236.149 1.315.384 1.901.557.508.154 1.171.384 1.142.384-.287 0-.748.11-1.253.11-.369 0-.772-.034-1.339-.034-.504 0-.945.038-1.315.038-.471 0-.854-.014-1.128-.024-.322-.062-.461.235-.322.451.125.226.514.413.571.432.249.077.61.178 1 .202l-.034.418c0 0 .994-.413.989-.418.005.005-.058.466-.015.375.043-.091 1.152-.585 1.118-.494 0 0-.024.178-.024.355 0 .082.005.226.01.254l.024.221-.216-.221-.182-.278-.005.307.029.321c-.192-.067-.375-.187-.566-.321-.029.163-.005.317.057.441-.019-.12-.047-.259-.014-.369.283.278.619.35.619.35-.01-.149-.068-.307-.068-.47 0 0 .058.082.144.168.149.149.356.322.356.322-.13-.619-.043-1.171-.043-1.2 0-.081-1.138.379-1.138.461 0 .082.048-.288.048-.345 0-.058-.998.369-1 .365.005.005.034-.331.058-.331 0 0-.672-.115-.879-.158-.389-.082-.614-.293-.614-.293 0 0-.36-.317-.043-.432.23-.014.456.062 1.089.062.365 0 .974-.062 1.45-.062.297 0 .772.062 1.137.062.581 0 1.123-.11 1.627-.11.158 0 .672.182 1.267.278.197.034 1.214.317 1.401.317.086 0 .792.374 1.324.619.351.163 1.085.552 1.071.633-.005.034.009.149.009.149-.048.254-.369.787-1.085.787-.533 0-1.07-.888-1.488-.888-.595 0-.892.034-.892.034.283-.005.835.101.835.101.398.096.941.643 1.017.71.115.101.61.216.792.192l.297-.043c0 0-.225.413-.71.413-.71 0-1.396-.95-1.982-.955-.331 0-.883.125-.888.134-.101.072-1.06-.302-1.607-.384-.442.029-.888.038-1.262.038-.706 0-1.2-.072-1.195-.106 0-.096-.01-.168.019-.221-.043.014-.105.029-.178.029-.149 0-.302-.043-.418-.087-.115-.043-.321-.216-.331-.221 0 0-.231-.235-.231-.331 0-.01-.029-.019-.029-.096-.043.019-.149.072-.149.072-.081 0-.249.082-.389.082-.278 0-.633-.197-.777-.35-.139.154-.494.35-.773.35-.139 0-.307-.082-.389-.082 0 0-.106-.053-.149-.072-.25.662-.864.797-1.185.706.029.053.019.125.019.221.005.034-.489.106-1.195.106-.374 0-.821-.01-1.262-.038-.547.082-1.507.456-1.608.384-.005-.01-.557-.134-.888-.134-.585.005-1.272.955-1.982.955-.485 0-.71-.413-.71-.413l.298.043c.182.024.677-.091.792-.192.077-.067.619-.614 1.017-.71 0 0 .552-.106.835-.101 0 0-.298-.034-.893-.034-.418 0-.955.888-1.488.888-.715 0-1.037-.533-1.085-.787 0 0 .014-.115.01-.149-.014-.082.72-.47 1.07-.633.533-.245 1.238-.619 1.325-.619.187 0 1.205-.278 1.401-.317.595-.12 1.109-.278 1.267-.278.504 0 1.046.11 1.627.11.365 0 .84-.062 1.137-.062.475 0 1.085.062 1.449.062.634 0 .859-.077 1.089-.062.317.115-.043.432-.043.432 0 0-.225.211-.614.293-.206.043-.878.158-.878.158.024 0 .053.336.058.331-.005.005-1-.422-1-.365 0 .058.048.427.048.345 0-.081-1.137-.542-1.137-.461 0 .029.086.581-.043 1.2 0 0 .206-.173.355-.322.087-.087.144-.168.144-.168 0 .163-.057.321-.067.47 0 0 .336-.072.619-.35.034.11.005.249-.014.369.062-.125.086-.278.058-.441-.192.134-.374.254-.566.321l.029-.321-.005-.307-.182.278-.216.221.024-.221c.005-.029.01-.173.01-.254 0-.178-.024-.355-.024-.355-.034-.091 1.075.403 1.118.494.043.091-.019-.37-.014-.375-.005.005.989.418.989.418l-.034-.418c.394-.024.754-.125 1-.202.058-.019.446-.206.571-.432.139-.216 0-.513-.322-.451-.273.01-.657.024-1.128.024-.37 0-.811-.038-1.315-.038-.566 0-.969.034-1.339.034-.504 0-.965-.11-1.253-.11-.029 0 .633-.23 1.142-.384.585-.173 1.665-.408 1.901-.557.47-.614.398-2.803.48-3 .082-.202.226-.231.422-.206.197.024.859 1.444.864 1.444-.206.053-.274.336-.274.471 0 .163-.034.35-.034.374 0 .043.115-.053.115-.322 0-.13.106-.322.269-.336.202.427.374.768.562 1.19h-.005m0-.576c.111-.014.144-.058.168-.101.211-.413.499-1.113.614-1.425-.177-.677-.446-.797-.782-.811-.331.014-.6.134-.777.811.115.312.403 1.013.614 1.425.024.043.058.087.163.101m2.4-2.884c-.519.058-.538-.154-.912-.216-.619-.034-.599.365-.628.686-.029.173-.043.216-.134.341.028.048.067.111.086.168.154-.283.245-.513.432-.657.144-.091.293-.043.408-.014.178.048.307.082.432.053.183-.091.249-.206.317-.36m-4.795 0c.518.058.538-.154.912-.216.619-.034.6.365.629.686.029.173.043.216.134.341-.029.048-.067.111-.087.168-.153-.283-.245-.513-.432-.657-.144-.091-.293-.043-.408-.014-.178.048-.307.082-.432.053-.183-.091-.25-.206-.317-.36m3.259 1.161c.201-.388.432-.768.667-.667.307.101.743.206.883-.302-.369.552-.677.106-1.094.197-.177.106-.273.269-.484.677l.029.096m-1.723 0c-.201-.388-.432-.768-.667-.667-.307.101-.744.206-.883-.302.37.552.677.106 1.094.197.178.106.274.269.485.677l-.029.096m2.476 1c-.177.005-.331-.288-.35-.629-.019-.341.115-.657.283-.657.168 0 .321.297.336.638.014.341-.091.643-.269.648m-.01-.086c-.13 0-.264-.259-.274-.552-.01-.293.077-.576.207-.581.129-.005.273.278.288.571.014.293-.092.561-.221.561m-3.22.086c.177.005.331-.288.35-.629.019-.341-.115-.657-.283-.657-.168 0-.322.297-.336.638-.014.341.091.643.269.648m.01-.086c.129 0 .264-.259.273-.552.01-.293-.077-.576-.206-.581-.13-.005-.273.278-.288.571-.014.293.091.561.221.561m2.668 15.76c.139-.173.269-.384.351-.61.484.389.969.519 1.478.236.36.316.845.557 1.31.46.365 2.534 1.071 6.661 1.085 7.521.01.24-.129 1.118-.561 1.281-.668-.187-1.037-.988-1.171-1.439-.183-1.195-.662-4.444-.965-6.652-.091-.345-.595-.619-.648-.177.278 2.519.638 5.05.811 7.596 0 .389.034.71-.245 1.167-.254.269-1.104-.398-1.315-.845.029-.158.067-.36.087-.518.096-1.924-.082-5.524-.216-8.02m-1.065 9.776l-.005-.019c.485-.01.912-.725 1.027-1.18.172-.629.101-.6.139-.936l-.216-7.515c-.298.327-.662.638-.945 1.104-.278-.466-.643-.777-.941-1.104l-.216 7.515c.039.336-.033.307.139.936.115.455.542 1.171 1.027 1.18l-.01.019m-1.061-9.776c-.139-.173-.269-.384-.35-.61-.485.389-.969.519-1.478.236-.36.316-.845.557-1.31.46-.365 2.534-1.07 6.661-1.084 7.521-.01.24.13 1.118.561 1.281.667-.187 1.037-.988 1.171-1.439.182-1.195.662-4.444.965-6.652.091-.345.595-.619.648-.177-.278 2.519-.638 5.05-.811 7.596 0 .389-.034.71.245 1.167.254.269 1.104-.398 1.315-.845-.029-.158-.067-.36-.087-.518-.096-1.924.082-5.524.216-8.02m5.212-1.046c.101.321.192.643.418.955-.648.115-1.056.038-1.68-.466-.365.225-.989.254-1.521-.298-.447 1.037-.869 1.047-1.368 1.809-.494-.763-.917-.772-1.363-1.809-.533.552-1.157.523-1.521.298-.624.504-1.032.581-1.68.466.225-.312.297-.624.398-.95.581-.024.969-.187 1.377-.537.384.144.945.201 1.464-.293.125.719.782.724 1.325 1.737.547-1.013 1.204-1.018 1.329-1.737.519.494 1.08.437 1.464.293.408.35.777.504 1.358.533m-4.151.643c.312-.749 1.018-.754 1.272-1.685.504.495 1.156.528 1.502.327.547.451 1.142.59 1.636.557l-.374-.95c-.644.052-.989-.13-1.435-.461-.504.269-1.19.086-1.521-.269-.302.777-.878.879-1.085 1.488-.201-.609-.777-.71-1.08-1.488-.331.355-1.01.538-1.512.269-.446.331-.744.518-1.44.417l-.365.97c.576.081 1.075-.096 1.622-.547.346.201 1.01.183 1.512-.312.254.931.96.936 1.267 1.685m0-1.325c.293-.514.859-.763 1.018-1.358.48.336 1.022.633 1.588.249.422.47.97.6 1.55.509-.154-.374-.346-.772-.375-1.161.111-.351.571-.326.763-.082 1.708 2.159 2.841 4.176 4.66 4.616.561.116 1.204.159 1.43-.24 0 0 .033-.048.043-.072-.019-.01-.072-.043-.072-.043-1.915-1.056-2.952-3.11-4.425-4.852-.312-.317.293-.461.461-.288 1.723 1.588 3.085 4.53 5.04 4.641.139.057 1.147.062 1.262-.422-1.714-.562-3.398-3.643-5.14-5.462.01-.115.393-.283.59-.178.869.715 1.651 1.92 2.51 2.985.34.437 1.329 1.79 2.342 1.91.518.087.998 0 1.055-.403-1.311-1.209-3.109-4.679-4.881-6.06.163-.379.437-.422.812-.12 1.535 1.324 2.596 3.465 3.911 5.169.302.331.528.197.605-.48-.116-2-1.306-4-2.126-4.977-.916-1.08-2.01-1.972-2.299-2.15-.11.091-.202.441-.672.562-.379.101-1.641-.687-1.641-.687 0 0-.413-.293-.672-.293-.207 0-.509.043-.524.058.068.029.154.048.236.058.389.091.787.336 1.219.609.187.12 1.334.816 1.392.95-.019.278-.288.499-.298.556 0 0-.13.072-.273.369-.105.173-.504.504-.907.504-.489 0-1.195-.706-1.195-.706 0 0-.379-.307-.604-.307-.163 0-.192.053-.212.048.249.12.566.389.715.518.475.413 1.219.854 1.262.988-.039.274-.365.566-.37.595 0 0-.245.158-.336.187-.115.163-.384.485-.825.485-.365 0-.85-.201-1.325-.7 0 0-.431-.432-.552-.456-.096-.019-.446-.029-.455-.029.072.038.225.149.225.149.346.254.701.763.931.96.461.393.686.432.686.432-.01 0-1 1.67-2.611-.25.116.187.101.341.101.398 0 1.603-2.049 2.054-2.856 1.094-.067.35-.619.317-.763.912-.139-.595-.691-.562-.758-.912-.806.96-2.856.509-2.856-1.094 0-.058-.014-.211.101-.398-1.608 1.92-2.601.25-2.611.25 0 0 .225-.038.686-.432.23-.197.586-.706.931-.96 0 0 .154-.11.226-.149-.01 0-.36.009-.456.029-.12.024-.552.456-.552.456-.475.499-.96.7-1.325.7-.441 0-.71-.322-.825-.485-.091-.029-.336-.187-.336-.187-.005-.029-.331-.321-.37-.595.043-.134.787-.576 1.262-.988.149-.13.466-.399.715-.518-.019.005-.048-.048-.211-.048-.225 0-.605.307-.605.307 0 0-.706.706-1.195.706-.403 0-.801-.331-.907-.504-.144-.297-.273-.369-.273-.369-.01-.058-.279-.278-.298-.556.057-.135 1.205-.83 1.392-.95.432-.274.83-.518 1.219-.609.082-.01.168-.029.235-.058-.014-.014-.317-.058-.523-.058-.259 0-.672.293-.672.293 0 0-1.262.787-1.641.687-.471-.12-.562-.471-.672-.562-.288.178-1.382 1.07-2.299 2.15-.821.974-2.01 2.976-2.126 4.977.077.677.302.811.605.48 1.315-1.704 2.376-3.844 3.911-5.169.374-.302.648-.259.811.12-1.771 1.382-3.57 4.852-4.881 6.06.058.403.537.49 1.056.403 1.013-.12 2-1.473 2.342-1.91.859-1.065 1.641-2.27 2.51-2.985.197-.106.581.062.59.178-1.742 1.819-3.427 4.9-5.14 5.462.115.484 1.123.48 1.262.422 1.953-.111 3.316-3.053 5.04-4.641.168-.173.773-.029.461.288-1.474 1.742-2.51 3.796-4.425 4.852 0 0-.053.034-.072.043.01.023.043.072.043.072.226.398.869.356 1.43.24 1.819-.441 2.952-2.457 4.66-4.616.192-.245.653-.269.763.082-.029.389-.221.787-.374 1.161.581.091 1.128-.038 1.55-.509.566.384 1.108.087 1.588-.249.158.595.725.844 1.013 1.358m-6.04-6.613c.168-.077.36-.158.475-.211.096-.014 1.252-.609 2.428-.475.058-.269.014-.581-.163-.821.053-.005.173-.058.182-.058.096 0 .331-.221.331-.221.058-.048.293-.379.297-.619-.657.149-1.118.115-1.742.115-.192 0-.504-.043-.667-.043 0 0-.72.144-1.123.274-.269.086-.965.312-1.291.312-.038 0-.734.475-1.19.72-.288.158-.969.566-.95.638.005.029 0 .139 0 .139.053.221.393.672.936.672.096 0 .509-.197.547-.216.269-.134.638-.59.878-.667.312-.106.672-.038.672-.038-.413.029-.576.115-.936.389 0 0-.494.413-.576.461-.163.096-.658.221-.72.216l-.211-.014c0 0 .187.331.614.331.624 0 1.162-.936 1.68-.96.273-.01.533.072.528.077m12.08 0c-.168-.077-.36-.158-.475-.211-.096-.014-1.253-.609-2.429-.475-.019-.087-.024-.178-.024-.245 0-.072.01-.144.024-.211.014-.067.058-.153.058-.197 0-.029.062-.125.105-.168-.053-.005-.173-.058-.183-.058-.096 0-.331-.221-.331-.221-.058-.048-.293-.379-.298-.619.657.149 1.118.115 1.742.115.192 0 .504-.043.667-.043 0 0 .72.144 1.123.274.269.086.965.312 1.291.312.038 0 .734.475 1.19.72.288.158.969.566.95.638-.005.029 0 .139 0 .139-.052.221-.393.672-.936.672-.096 0-.508-.197-.547-.216-.269-.134-.638-.59-.879-.667-.311-.106-.672-.038-.672-.038.413.029.576.115.936.389 0 0 .495.413.576.461.163.096.657.221.72.216l.211-.014c0 0-.187.331-.614.331-.624 0-1.162-.936-1.68-.96-.274-.01-.533.072-.528.077m-6.04 3.196c.235-.264.49-.408.811-.408.168 0 .355.082.447.115l.047.019.014-.062c.039-.35.475-.667.864-.667.048 0 .077-.014.086 0-.019-.019 0-.029 0-.053 0-.509.327-.931.749-.979-.105-.245-.105-.278-.105-.451 0-.278.125-.537.298-.71.062-.062.105-.096.139-.12l-.072-.058c-.129-.134-.298-.437-.298-.715 0-.067.019-.154.019-.201 0-.053.058-.149.058-.187 0-.029.057-.12.101-.163-.053-.005-.163-.053-.173-.053-.091 0-.316-.211-.316-.211-.082-.077-.302-.437-.302-.715 0-.072-.005-.144.024-.201-.039.01-.101.024-.168.024-.144 0-.326-.082-.398-.082-.067 0-.317-.211-.317-.211 0 0-.22-.226-.22-.317 0-.01-.029-.019-.029-.091-.043.019-.144.067-.144.067-.091.019-.235.082-.369.082-.269 0-.6-.135-.744-.288-.139.153-.47.288-.739.288-.168 0-.365-.082-.513-.149-.211.6-.787.73-1.133.677.072.451-.173 1.032-.739 1.19.278.437.23.864-.149 1.257l-.072.058c.034.024.077.058.139.12.173.173.297.432.297.71 0 .173 0 .206-.106.451.422.048.749.47.749.979 0 .024.019.033 0 .053.01-.014.038 0 .086 0 .389 0 .826.317.864.667l.014.062.048-.019c.091-.034.278-.115.446-.115.322 0 .576.144.806.408m-2.683-1.771c-.038-.029-.739-.202-1.445.13.005-.009-.595-.081-.787.019-.427.231-.931 1.08-1.704 1.08-.446 0-.499-.245-.499-.245l.201-.024c.206-.024.499-.288.566-.288.019 0 .403-.36.518-.461.115-.101.317-.288.379-.312.125-.048.312-.144.556-.182 0 0-.461-.024-.71.072 0 0-.273.264-.346.321 0 0-.451.413-.456.413-.01 0-.413.254-.413.254-.566.144-1.041-.298-1.104-.499 0 0-.072-.13-.01-.134-.024-.072.523-.35.941-.715.379-.327 1-.72 1.104-.754.389-.13 1.181-.513 1.704-.609.245-.043.768-.072.998-.053-.048.139-.144.269-.264.374-.197-.11-.437-.182-.677-.149-.49.048-.792.619-1.176.619-.005 0 .019.034.019.048.211.005.595.159.993.168.547 0 1.037-.264.965-.509.163.178.283.49.283.753 0 .183 0 .216-.11.47.177.019.336.096.47.211m-2.438-1.113c0-.005 0-.029 0-.029.326-.048.542-.518.974-.561.365-.058.773.168.763.336.015.149-.389.389-.878.393-.35-.005-.672-.13-.859-.139m8.576-.499c.197-.11.437-.182.677-.149.489.048.801.614 1.185.614.005 0-.01.058-.024.077-.211.005-.599.135-.998.144-.547 0-1.037-.264-.965-.509-.163.178-.312.384-.283.753.014.183 0 .216.11.47-.178.019-.336.096-.471.211.039-.029.739-.202 1.445.13-.005-.009.595-.081.787.019.427.231.931 1.08 1.704 1.08.447 0 .494-.245.499-.245l-.201-.024c-.207-.024-.48-.24-.566-.288-.019-.01-.403-.36-.519-.461-.115-.101-.316-.288-.379-.312-.125-.048-.311-.144-.557-.182 0 0 .351-.11.71.072 0 0 .273.264.346.321 0 0 .451.413.456.413.01 0 .413.254.413.254.566.144 1.042-.298 1.104-.499 0 0 .072-.13.01-.134.024-.072-.523-.35-.941-.715-.379-.327-.984-.701-1.104-.754-.374-.163-1.171-.523-1.704-.609-.249-.038-.768-.072-.998-.053.047.139.144.269.264.374m1.67.499c0-.005.005-.034.005-.034-.327-.048-.547-.513-.979-.556-.365-.058-.773.168-.763.336-.014.149.389.389.879.393.35-.005.672-.13.859-.139m-2.568 1.253c-.11.154-.167.389-.167.624.062.019.494-.024 1.085.542.413.461.979.854 1.118.878.792.149 1.295-.254 1.368-.398 0 0-.283-.12-.644-.408-.144-.115-.633-.715-.878-.902-.643-.49-1.469-.47-1.882-.336m-5.111 0c.11.154.173.369.173.605-.062.019-.499-.005-1.089.561-.413.461-.979.854-1.118.878-.792.149-1.363-.398-1.368-.398 0 0 .283-.12.643-.408.144-.115.633-.715.878-.902.643-.49 1.785-.36 1.881-.336m1.833 1.363c.893 2.049-2.62 2.721-2.736.418-.005-.168.048-.312.048-.312.034-.168.298-.456.384-.465 0 0 .346-.24.653-.278.01-.01.043.005.091.005.408 0 .845.322.902.701l.019.063.048-.019c.043-.024.134-.081.206-.081.019 0 .087-.029.125-.029.034 0 .206-.019.259 0m1.445 0c-.893 2.049 2.62 2.721 2.735.418.005-.168-.048-.312-.048-.312-.034-.168-.298-.456-.384-.465 0 0-.346-.24-.653-.278-.01-.01-.043.005-.092.005-.408 0-.844.322-.902.701l-.019.063-.048-.019c-.043-.024-.134-.081-.206-.081-.019 0-.086-.029-.125-.029-.034 0-.207-.019-.259 0m-.336.096c.072-.034.158-.082.216-.087-.12.216-.159.418-.159.576 0 .336.105.619.245.821-.072.302-.466.245-.691.72-.221-.475-.614-.417-.686-.72.139-.202.245-.485.245-.821 0-.158-.038-.36-.158-.576.058.005.144.053.216.087h.773m9.992-5.581c-.034-.053.009-.058-.106-.087-.806-.201-.945-.48-1.425-.643.508.231.446.787 1.132 1.061.116.029.413.005.399-.331m-.092.024c-.029-.038-.096-.067-.096-.067-.547-.125-.595-.231-.907-.403.192.269.231.523.686.696.087.024.327.024.317-.225"/></g><g fill="none"><path d="m104.82 161.07c.557.039.994-.672 1.138-1.214.211.384 1.114 1.099 1.425.811.346-.447.341-.984.341-1.373-.159-2.525-.528-5.01-.806-7.525.038-.125.269-.063.34.13.302 2.208.644 4.401.955 6.608.134.772.792 1.694 1.426 1.722.432-.163.638-1.055.628-1.459-.019-.662-.701-5.02-1.056-7.516l.466-.019c-.264-.356-.38-.734-.514-1.104l.288-.039-.427-1.142.188-.029c-.154-.374-.418-.724-.447-1.113.019-.374.37-.259.475-.115 1.459 1.675 2.467 4.219 5.073 4.741.801.039 1.209-.077 1.421-.571-1.982-1.084-3.211-3.287-4.703-5.05.086-.058.211-.077.312-.019 1.723 1.589 2.99 4.65 5.178 4.775.849-.029 1.324-.192 1.439-.677-1.713-.562-3.484-3.643-5.226-5.461.058-.086.192-.106.351-.077.869.715 1.627 1.867 2.486 2.932.34.437 1.161 1.886 2.596 2.083.667.106.974-.067 1.123-.6-1.31-1.142-3.148-4.756-4.92-6.138.039-.105.183-.197.418-.086 1.536 1.325 2.856 3.705 4.171 5.408.303.331.638.283.715-.394.125-2.025-1.406-4.429-2.237-5.413-.926-1.089-1.934-1.944-2.217-2.121.029-.086.154-.216.173-.254.038-.077.288-.36.288-.662-.067-.139-1.286-.821-1.565-.941-.311-.134-.983-.475-1.41-.552-.696-.187-1.296-.211-1.944-.494-1.037-.504-3.158-.84-3.398-1.056-.197-.259-.226-.562-.293-.811-.067-.73-.106-1.589-.202-2.198.364-.182.513-.465.504-.892-.264.129-.475.096-.7-.038-.241-.955-.696-1.55-1.853-1.56-1.152.01-1.608.605-1.848 1.56-.225.134-.437.168-.701.038-.01.427.139.71.504.892-.096.61-.134 1.468-.202 2.198-.067.249-.096.552-.293.811-.24.216-2.361.552-3.398 1.056-.648.283-1.248.307-1.944.494-.427.077-1.099.417-1.411.552-.279.12-1.498.802-1.565.941 0 .302.25.585.288.662.019.038.144.168.173.254-.283.177-1.291 1.032-2.217 2.121-.83.984-2.361 3.388-2.236 5.413.077.677.413.725.715.394 1.315-1.704 2.635-4.084 4.171-5.408.235-.111.379-.019.418.086-1.771 1.382-3.609 4.996-4.919 6.138.149.533.456.706 1.123.6 1.435-.197 2.256-1.646 2.596-2.083.859-1.065 1.617-2.217 2.486-2.932.158-.029.293-.009.35.077-1.742 1.819-3.513 4.9-5.226 5.461.115.485.59.648 1.44.677 2.188-.125 3.455-3.186 5.178-4.775.101-.058.226-.038.312.019-1.493 1.766-2.721 3.969-4.703 5.05.211.494.619.61 1.421.571 2.606-.523 3.614-3.067 5.073-4.741.106-.144.456-.259.475.115-.029.389-.293.739-.447 1.113l.187.029-.427 1.142.288.039c-.134.369-.25.748-.513 1.104l.465.019c-.355 2.5-1.037 6.854-1.056 7.516-.01.403.197 1.295.629 1.459.633-.029 1.291-.95 1.425-1.722.312-2.208.653-4.401.955-6.608.072-.192.302-.254.341-.13-.278 2.519-.648 5-.806 7.525 0 .389-.005.926.341 1.373.312.288 1.214-.427 1.425-.811.144.542.581 1.253 1.133 1.214m0-27.28l.254.01.355-1.022-.212 1.08.264.226c.298-.465-.206-1.065.811-1.065l.202.038c-.269-1.19-1.248-1.315-1.675-1.305-.422-.01-1.401.115-1.67 1.305l.201-.038c1.018 0 .514.6.811 1.065l.264-.226-.211-1.08.355 1.022.249-.01m0 3.01c.187-.422.36-.763.562-1.19.163.014.269.206.269.336 0 .269.115.365.115.322 0-.024-.034-.211-.034-.374 0-.134-.067-.418-.273-.471.005 0 .667-1.42.864-1.444.197-.024.341.005.422.206.081.202.01 2.39.48 3 .236.149 1.315.384 1.901.557.508.154 1.171.384 1.142.384-.287 0-.748.11-1.253.11-.369 0-.772-.034-1.339-.034-.504 0-.945.038-1.315.038-.471 0-.854-.014-1.128-.024-.322-.062-.461.235-.322.451.125.226.514.413.571.432.249.077.61.178 1 .202l-.034.418c0 0 .994-.413.989-.418.005.005-.058.466-.015.375.043-.091 1.152-.585 1.118-.494 0 0-.024.178-.024.355 0 .082.005.226.01.254l.024.221-.216-.221-.182-.278-.005.307.029.321c-.192-.067-.375-.187-.566-.321-.029.163-.005.317.057.441-.019-.12-.047-.259-.014-.369.283.278.619.35.619.35-.01-.149-.068-.307-.068-.47 0 0 .058.082.144.168.149.149.356.322.356.322-.13-.619-.043-1.171-.043-1.2 0-.081-1.138.379-1.138.461 0 .082.048-.288.048-.345 0-.058-.998.369-1 .365.005.005.034-.331.058-.331 0 0-.672-.115-.879-.158-.389-.082-.614-.293-.614-.293 0 0-.36-.317-.043-.432.23-.014.456.062 1.089.062.365 0 .974-.062 1.45-.062.297 0 .772.062 1.137.062.581 0 1.123-.11 1.627-.11.158 0 .672.182 1.267.278.197.034 1.214.317 1.401.317.086 0 .792.374 1.324.619.351.163 1.085.552 1.071.633-.005.034.009.149.009.149-.048.254-.369.787-1.085.787-.533 0-1.07-.888-1.488-.888-.595 0-.892.034-.892.034.283-.005.835.101.835.101.398.096.941.643 1.017.71.115.101.61.216.792.192l.297-.043c0 0-.225.413-.71.413-.71 0-1.396-.95-1.982-.955-.331 0-.883.125-.888.134-.101.072-1.06-.302-1.607-.384-.442.029-.888.038-1.262.038-.706 0-1.2-.072-1.195-.106 0-.096-.01-.168.019-.221-.043.014-.105.029-.178.029-.149 0-.302-.043-.418-.087-.115-.043-.321-.216-.331-.221 0 0-.231-.235-.231-.331 0-.01-.029-.019-.029-.096-.043.019-.149.072-.149.072-.081 0-.249.082-.389.082-.278 0-.633-.197-.777-.35-.139.154-.494.35-.773.35-.139 0-.307-.082-.389-.082 0 0-.106-.053-.149-.072-.25.662-.864.797-1.185.706.029.053.019.125.019.221.005.034-.489.106-1.195.106-.374 0-.821-.01-1.262-.038-.547.082-1.507.456-1.608.384-.005-.01-.557-.134-.888-.134-.585.005-1.272.955-1.982.955-.485 0-.71-.413-.71-.413l.298.043c.182.024.677-.091.792-.192.077-.067.619-.614 1.017-.71 0 0 .552-.106.835-.101 0 0-.298-.034-.893-.034-.418 0-.955.888-1.488.888-.715 0-1.037-.533-1.085-.787 0 0 .014-.115.01-.149-.014-.082.72-.47 1.07-.633.533-.245 1.238-.619 1.325-.619.187 0 1.205-.278 1.401-.317.595-.12 1.109-.278 1.267-.278.504 0 1.046.11 1.627.11.365 0 .84-.062 1.137-.062.475 0 1.085.062 1.449.062.634 0 .859-.077 1.089-.062.317.115-.043.432-.043.432 0 0-.225.211-.614.293-.206.043-.878.158-.878.158.024 0 .053.336.058.331-.005.005-1-.422-1-.365 0 .058.048.427.048.345 0-.081-1.137-.542-1.137-.461 0 .029.086.581-.043 1.2 0 0 .206-.173.355-.322.087-.087.144-.168.144-.168 0 .163-.057.321-.067.47 0 0 .336-.072.619-.35.034.11.005.249-.014.369.062-.125.086-.278.058-.441-.192.134-.374.254-.566.321l.029-.321-.005-.307-.182.278-.216.221.024-.221c.005-.029.01-.173.01-.254 0-.178-.024-.355-.024-.355-.034-.091 1.075.403 1.118.494.043.091-.019-.37-.014-.375-.005.005.989.418.989.418l-.034-.418c.394-.024.754-.125 1-.202.058-.019.446-.206.571-.432.139-.216 0-.513-.322-.451-.273.01-.657.024-1.128.024-.37 0-.811-.038-1.315-.038-.566 0-.969.034-1.339.034-.504 0-.965-.11-1.253-.11-.029 0 .633-.23 1.142-.384.585-.173 1.665-.408 1.901-.557.47-.614.398-2.803.48-3 .082-.202.226-.231.422-.206.197.024.859 1.444.864 1.444-.206.053-.274.336-.274.471 0 .163-.034.35-.034.374 0 .043.115-.053.115-.322 0-.13.106-.322.269-.336.202.427.374.768.562 1.19h-.005m0-.576c.111-.014.144-.058.168-.101.211-.413.499-1.113.614-1.425-.177-.677-.446-.797-.782-.811-.331.014-.6.134-.777.811.115.312.403 1.013.614 1.425.024.043.058.087.163.101m2.4-2.884c-.519.058-.538-.154-.912-.216-.619-.034-.599.365-.628.686-.029.173-.043.216-.134.341.028.048.067.111.086.168.154-.283.245-.513.432-.657.144-.091.293-.043.408-.014.178.048.307.082.432.053.183-.091.249-.206.317-.36m-4.795 0c.518.058.538-.154.912-.216.619-.034.6.365.629.686.029.173.043.216.134.341-.029.048-.067.111-.087.168-.153-.283-.245-.513-.432-.657-.144-.091-.293-.043-.408-.014-.178.048-.307.082-.432.053-.183-.091-.25-.206-.317-.36m3.259 1.161c.201-.388.432-.768.667-.667.307.101.743.206.883-.302-.369.552-.677.106-1.094.197-.177.106-.273.269-.484.677l.029.096m-1.723 0c-.201-.388-.432-.768-.667-.667-.307.101-.744.206-.883-.302.37.552.677.106 1.094.197.178.106.274.269.485.677l-.029.096m2.476 1c-.177.005-.331-.288-.35-.629-.019-.341.115-.657.283-.657.168 0 .321.297.336.638.014.341-.091.643-.269.648m-.01-.086c-.13 0-.264-.259-.274-.552-.01-.293.077-.576.207-.581.129-.005.273.278.288.571.014.293-.092.561-.221.561m-3.22.086c.177.005.331-.288.35-.629.019-.341-.115-.657-.283-.657-.168 0-.322.297-.336.638-.014.341.091.643.269.648m.01-.086c.129 0 .264-.259.273-.552.01-.293-.077-.576-.206-.581-.13-.005-.273.278-.288.571-.014.293.091.561.221.561m2.668 15.76c.139-.173.269-.384.351-.61.484.389.969.519 1.478.236.36.316.845.557 1.31.46.365 2.534 1.071 6.661 1.085 7.521.01.24-.129 1.118-.561 1.281-.668-.187-1.037-.988-1.171-1.439-.183-1.195-.662-4.444-.965-6.652-.091-.345-.595-.619-.648-.177.278 2.519.638 5.05.811 7.596 0 .389.034.71-.245 1.167-.254.269-1.104-.398-1.315-.845.029-.158.067-.36.087-.518.096-1.924-.082-5.524-.216-8.02m-1.065 9.776l-.005-.019c.485-.01.912-.725 1.027-1.18.172-.629.101-.6.139-.936l-.216-7.515c-.298.327-.662.638-.945 1.104-.278-.466-.643-.777-.941-1.104l-.216 7.515c.039.336-.033.307.139.936.115.455.542 1.171 1.027 1.18l-.01.019m-1.061-9.776c-.139-.173-.269-.384-.35-.61-.485.389-.969.519-1.478.236-.36.316-.845.557-1.31.46-.365 2.534-1.07 6.661-1.084 7.521-.01.24.13 1.118.561 1.281.667-.187 1.037-.988 1.171-1.439.182-1.195.662-4.444.965-6.652.091-.345.595-.619.648-.177-.278 2.519-.638 5.05-.811 7.596 0 .389-.034.71.245 1.167.254.269 1.104-.398 1.315-.845-.029-.158-.067-.36-.087-.518-.096-1.924.082-5.524.216-8.02m5.212-1.046c.101.321.192.643.418.955-.648.115-1.056.038-1.68-.466-.365.225-.989.254-1.521-.298-.447 1.037-.869 1.047-1.368 1.809-.494-.763-.917-.772-1.363-1.809-.533.552-1.157.523-1.521.298-.624.504-1.032.581-1.68.466.225-.312.297-.624.398-.95.581-.024.969-.187 1.377-.537.384.144.945.201 1.464-.293.125.719.782.724 1.325 1.737.547-1.013 1.204-1.018 1.329-1.737.519.494 1.08.437 1.464.293.408.35.777.504 1.358.533m-4.151.643c.312-.749 1.018-.754 1.272-1.685.504.495 1.156.528 1.502.327.547.451 1.142.59 1.636.557l-.374-.95c-.644.052-.989-.13-1.435-.461-.504.269-1.19.086-1.521-.269-.302.777-.878.879-1.085 1.488-.201-.609-.777-.71-1.08-1.488-.331.355-1.01.538-1.512.269-.446.331-.744.518-1.44.417l-.365.97c.576.081 1.075-.096 1.622-.547.346.201 1.01.183 1.512-.312.254.931.96.936 1.267 1.685m0-1.325c.293-.514.859-.763 1.018-1.358.48.336 1.022.633 1.588.249.422.47.97.6 1.55.509-.154-.374-.346-.772-.375-1.161.111-.351.571-.326.763-.082 1.708 2.159 2.841 4.176 4.66 4.616.561.116 1.204.159 1.43-.24 0 0 .033-.048.043-.072-.019-.01-.072-.043-.072-.043-1.915-1.056-2.952-3.11-4.425-4.852-.312-.317.293-.461.461-.288 1.723 1.588 3.085 4.53 5.04 4.641.139.057 1.147.062 1.262-.422-1.714-.562-3.398-3.643-5.14-5.462.01-.115.393-.283.59-.178.869.715 1.651 1.92 2.51 2.985.34.437 1.329 1.79 2.342 1.91.518.087.998 0 1.055-.403-1.311-1.209-3.109-4.679-4.881-6.06.163-.379.437-.422.812-.12 1.535 1.324 2.596 3.465 3.911 5.169.302.331.528.197.605-.48-.116-2-1.306-4-2.126-4.977-.916-1.08-2.01-1.972-2.299-2.15-.11.091-.202.441-.672.562-.379.101-1.641-.687-1.641-.687 0 0-.413-.293-.672-.293-.207 0-.509.043-.524.058.068.029.154.048.236.058.389.091.787.336 1.219.609.187.12 1.334.816 1.392.95-.019.278-.288.499-.298.556 0 0-.13.072-.273.369-.105.173-.504.504-.907.504-.489 0-1.195-.706-1.195-.706 0 0-.379-.307-.604-.307-.163 0-.192.053-.212.048.249.12.566.389.715.518.475.413 1.219.854 1.262.988-.039.274-.365.566-.37.595 0 0-.245.158-.336.187-.115.163-.384.485-.825.485-.365 0-.85-.201-1.325-.7 0 0-.431-.432-.552-.456-.096-.019-.446-.029-.455-.029.072.038.225.149.225.149.346.254.701.763.931.96.461.393.686.432.686.432-.01 0-1 1.67-2.611-.25.116.187.101.341.101.398 0 1.603-2.049 2.054-2.856 1.094-.067.35-.619.317-.763.912-.139-.595-.691-.562-.758-.912-.806.96-2.856.509-2.856-1.094 0-.058-.014-.211.101-.398-1.608 1.92-2.601.25-2.611.25 0 0 .225-.038.686-.432.23-.197.586-.706.931-.96 0 0 .154-.11.226-.149-.01 0-.36.009-.456.029-.12.024-.552.456-.552.456-.475.499-.96.7-1.325.7-.441 0-.71-.322-.825-.485-.091-.029-.336-.187-.336-.187-.005-.029-.331-.321-.37-.595.043-.134.787-.576 1.262-.988.149-.13.466-.399.715-.518-.019.005-.048-.048-.211-.048-.225 0-.605.307-.605.307 0 0-.706.706-1.195.706-.403 0-.801-.331-.907-.504-.144-.297-.273-.369-.273-.369-.01-.058-.279-.278-.298-.556.057-.135 1.205-.83 1.392-.95.432-.274.83-.518 1.219-.609.082-.01.168-.029.235-.058-.014-.014-.317-.058-.523-.058-.259 0-.672.293-.672.293 0 0-1.262.787-1.641.687-.471-.12-.562-.471-.672-.562-.288.178-1.382 1.07-2.299 2.15-.821.974-2.01 2.976-2.126 4.977.077.677.302.811.605.48 1.315-1.704 2.376-3.844 3.911-5.169.374-.302.648-.259.811.12-1.771 1.382-3.57 4.852-4.881 6.06.058.403.537.49 1.056.403 1.013-.12 2-1.473 2.342-1.91.859-1.065 1.641-2.27 2.51-2.985.197-.106.581.062.59.178-1.742 1.819-3.427 4.9-5.14 5.462.115.484 1.123.48 1.262.422 1.953-.111 3.316-3.053 5.04-4.641.168-.173.773-.029.461.288-1.474 1.742-2.51 3.796-4.425 4.852 0 0-.053.034-.072.043.01.023.043.072.043.072.226.398.869.356 1.43.24 1.819-.441 2.952-2.457 4.66-4.616.192-.245.653-.269.763.082-.029.389-.221.787-.374 1.161.581.091 1.128-.038 1.55-.509.566.384 1.108.087 1.588-.249.158.595.725.844 1.013 1.358m-6.04-6.613c.168-.077.36-.158.475-.211.096-.014 1.252-.609 2.428-.475.058-.269.014-.581-.163-.821.053-.005.173-.058.182-.058.096 0 .331-.221.331-.221.058-.048.293-.379.297-.619-.657.149-1.118.115-1.742.115-.192 0-.504-.043-.667-.043 0 0-.72.144-1.123.274-.269.086-.965.312-1.291.312-.038 0-.734.475-1.19.72-.288.158-.969.566-.95.638.005.029 0 .139 0 .139.053.221.393.672.936.672.096 0 .509-.197.547-.216.269-.134.638-.59.878-.667.312-.106.672-.038.672-.038-.413.029-.576.115-.936.389 0 0-.494.413-.576.461-.163.096-.658.221-.72.216l-.211-.014c0 0 .187.331.614.331.624 0 1.162-.936 1.68-.96.273-.01.533.072.528.077m12.08 0c-.168-.077-.36-.158-.475-.211-.096-.014-1.253-.609-2.429-.475-.019-.087-.024-.178-.024-.245 0-.072.01-.144.024-.211.014-.067.058-.153.058-.197 0-.029.062-.125.105-.168-.053-.005-.173-.058-.183-.058-.096 0-.331-.221-.331-.221-.058-.048-.293-.379-.298-.619.657.149 1.118.115 1.742.115.192 0 .504-.043.667-.043 0 0 .72.144 1.123.274.269.086.965.312 1.291.312.038 0 .734.475 1.19.72.288.158.969.566.95.638-.005.029 0 .139 0 .139-.052.221-.393.672-.936.672-.096 0-.508-.197-.547-.216-.269-.134-.638-.59-.879-.667-.311-.106-.672-.038-.672-.038.413.029.576.115.936.389 0 0 .495.413.576.461.163.096.657.221.72.216l.211-.014c0 0-.187.331-.614.331-.624 0-1.162-.936-1.68-.96-.274-.01-.533.072-.528.077m-6.04 3.196c.235-.264.49-.408.811-.408.168 0 .355.082.447.115l.047.019.014-.062c.039-.35.475-.667.864-.667.048 0 .077-.014.086 0-.019-.019 0-.029 0-.053 0-.509.327-.931.749-.979-.105-.245-.105-.278-.105-.451 0-.278.125-.537.298-.71.062-.062.105-.096.139-.12l-.072-.058c-.129-.134-.298-.437-.298-.715 0-.067.019-.154.019-.201 0-.053.058-.149.058-.187 0-.029.057-.12.101-.163-.053-.005-.163-.053-.173-.053-.091 0-.316-.211-.316-.211-.082-.077-.302-.437-.302-.715 0-.072-.005-.144.024-.201-.039.01-.101.024-.168.024-.144 0-.326-.082-.398-.082-.067 0-.317-.211-.317-.211 0 0-.22-.226-.22-.317 0-.01-.029-.019-.029-.091-.043.019-.144.067-.144.067-.091.019-.235.082-.369.082-.269 0-.6-.135-.744-.288-.139.153-.47.288-.739.288-.168 0-.365-.082-.513-.149-.211.6-.787.73-1.133.677.072.451-.173 1.032-.739 1.19.278.437.23.864-.149 1.257l-.072.058c.034.024.077.058.139.12.173.173.297.432.297.71 0 .173 0 .206-.106.451.422.048.749.47.749.979 0 .024.019.033 0 .053.01-.014.038 0 .086 0 .389 0 .826.317.864.667l.014.062.048-.019c.091-.034.278-.115.446-.115.322 0 .576.144.806.408m-2.683-1.771c-.038-.029-.739-.202-1.445.13.005-.009-.595-.081-.787.019-.427.231-.931 1.08-1.704 1.08-.446 0-.499-.245-.499-.245l.201-.024c.206-.024.499-.288.566-.288.019 0 .403-.36.518-.461.115-.101.317-.288.379-.312.125-.048.312-.144.556-.182 0 0-.461-.024-.71.072 0 0-.273.264-.346.321 0 0-.451.413-.456.413-.01 0-.413.254-.413.254-.566.144-1.041-.298-1.104-.499 0 0-.072-.13-.01-.134-.024-.072.523-.35.941-.715.379-.327 1-.72 1.104-.754.389-.13 1.181-.513 1.704-.609.245-.043.768-.072.998-.053-.048.139-.144.269-.264.374-.197-.11-.437-.182-.677-.149-.49.048-.792.619-1.176.619-.005 0 .019.034.019.048.211.005.595.159.993.168.547 0 1.037-.264.965-.509.163.178.283.49.283.753 0 .183 0 .216-.11.47.177.019.336.096.47.211m-2.438-1.113c0-.005 0-.029 0-.029.326-.048.542-.518.974-.561.365-.058.773.168.763.336.015.149-.389.389-.878.393-.35-.005-.672-.13-.859-.139m8.576-.499c.197-.11.437-.182.677-.149.489.048.801.614 1.185.614.005 0-.01.058-.024.077-.211.005-.599.135-.998.144-.547 0-1.037-.264-.965-.509-.163.178-.312.384-.283.753.014.183 0 .216.11.47-.178.019-.336.096-.471.211.039-.029.739-.202 1.445.13-.005-.009.595-.081.787.019.427.231.931 1.08 1.704 1.08.447 0 .494-.245.499-.245l-.201-.024c-.207-.024-.48-.24-.566-.288-.019-.01-.403-.36-.519-.461-.115-.101-.316-.288-.379-.312-.125-.048-.311-.144-.557-.182 0 0 .351-.11.71.072 0 0 .273.264.346.321 0 0 .451.413.456.413.01 0 .413.254.413.254.566.144 1.042-.298 1.104-.499 0 0 .072-.13.01-.134.024-.072-.523-.35-.941-.715-.379-.327-.984-.701-1.104-.754-.374-.163-1.171-.523-1.704-.609-.249-.038-.768-.072-.998-.053.047.139.144.269.264.374m1.67.499c0-.005.005-.034.005-.034-.327-.048-.547-.513-.979-.556-.365-.058-.773.168-.763.336-.014.149.389.389.879.393.35-.005.672-.13.859-.139m-2.568 1.253c-.11.154-.167.389-.167.624.062.019.494-.024 1.085.542.413.461.979.854 1.118.878.792.149 1.295-.254 1.368-.398 0 0-.283-.12-.644-.408-.144-.115-.633-.715-.878-.902-.643-.49-1.469-.47-1.882-.336m-5.111 0c.11.154.173.369.173.605-.062.019-.499-.005-1.089.561-.413.461-.979.854-1.118.878-.792.149-1.363-.398-1.368-.398 0 0 .283-.12.643-.408.144-.115.633-.715.878-.902.643-.49 1.785-.36 1.881-.336m1.833 1.363c.893 2.049-2.62 2.721-2.736.418-.005-.168.048-.312.048-.312.034-.168.298-.456.384-.465 0 0 .346-.24.653-.278.01-.01.043.005.091.005.408 0 .845.322.902.701l.019.063.048-.019c.043-.024.134-.081.206-.081.019 0 .087-.029.125-.029.034 0 .206-.019.259 0m1.445 0c-.893 2.049 2.62 2.721 2.735.418.005-.168-.048-.312-.048-.312-.034-.168-.298-.456-.384-.465 0 0-.346-.24-.653-.278-.01-.01-.043.005-.092.005-.408 0-.844.322-.902.701l-.019.063-.048-.019c-.043-.024-.134-.081-.206-.081-.019 0-.086-.029-.125-.029-.034 0-.207-.019-.259 0m-.336.096c.072-.034.158-.082.216-.087-.12.216-.159.418-.159.576 0 .336.105.619.245.821-.072.302-.466.245-.691.72-.221-.475-.614-.417-.686-.72.139-.202.245-.485.245-.821 0-.158-.038-.36-.158-.576.058.005.144.053.216.087h.773m9.992-5.581c-.034-.053.009-.058-.106-.087-.806-.201-.945-.48-1.425-.643.508.231.446.787 1.132 1.061.116.029.413.005.399-.331m-.092.024c-.029-.038-.096-.067-.096-.067-.547-.125-.595-.231-.907-.403.192.269.231.523.686.696.087.024.327.024.317-.225"/><path d="m104.82 161.07c.557.039.994-.672 1.138-1.214.211.384 1.114 1.099 1.425.811.346-.447.341-.984.341-1.373-.159-2.525-.528-5.01-.806-7.525.038-.125.269-.063.34.13.302 2.208.644 4.401.955 6.608.134.772.792 1.694 1.426 1.722.432-.163.638-1.055.628-1.459-.019-.662-.701-5.02-1.056-7.516l.466-.019c-.264-.356-.38-.734-.514-1.104l.288-.039-.427-1.142.188-.029c-.154-.374-.418-.724-.447-1.113.019-.374.37-.259.475-.115 1.459 1.675 2.467 4.219 5.073 4.741.801.039 1.209-.077 1.421-.571-1.982-1.084-3.211-3.287-4.703-5.05.086-.058.211-.077.312-.019 1.723 1.589 2.99 4.65 5.178 4.775.849-.029 1.324-.192 1.439-.677-1.713-.562-3.484-3.643-5.226-5.461.058-.086.192-.106.351-.077.869.715 1.627 1.867 2.486 2.932.34.437 1.161 1.886 2.596 2.083.667.106.974-.067 1.123-.6-1.31-1.142-3.148-4.756-4.92-6.138.039-.105.183-.197.418-.086 1.536 1.325 2.856 3.705 4.171 5.408.303.331.638.283.715-.394.125-2.025-1.406-4.429-2.237-5.413-.926-1.089-1.934-1.944-2.217-2.121.029-.086.154-.216.173-.254.038-.077.288-.36.288-.662-.067-.139-1.286-.821-1.565-.941-.311-.134-.983-.475-1.41-.552-.696-.187-1.296-.211-1.944-.494-1.037-.504-3.158-.84-3.398-1.056-.197-.259-.226-.562-.293-.811-.067-.73-.106-1.589-.202-2.198.364-.182.513-.465.504-.892-.264.129-.475.096-.7-.038-.241-.955-.696-1.55-1.853-1.56-1.152.01-1.608.605-1.848 1.56-.225.134-.437.168-.701.038-.01.427.139.71.504.892-.096.61-.134 1.468-.202 2.198-.067.249-.096.552-.293.811-.24.216-2.361.552-3.398 1.056-.648.283-1.248.307-1.944.494-.427.077-1.099.417-1.411.552-.279.12-1.498.802-1.565.941 0 .302.25.585.288.662.019.038.144.168.173.254-.283.177-1.291 1.032-2.217 2.121-.83.984-2.361 3.388-2.236 5.413.077.677.413.725.715.394 1.315-1.704 2.635-4.084 4.171-5.408.235-.111.379-.019.418.086-1.771 1.382-3.609 4.996-4.919 6.138.149.533.456.706 1.123.6 1.435-.197 2.256-1.646 2.596-2.083.859-1.065 1.617-2.217 2.486-2.932.158-.029.293-.009.35.077-1.742 1.819-3.513 4.9-5.226 5.461.115.485.59.648 1.44.677 2.188-.125 3.455-3.186 5.178-4.775.101-.058.226-.038.312.019-1.493 1.766-2.721 3.969-4.703 5.05.211.494.619.61 1.421.571 2.606-.523 3.614-3.067 5.073-4.741.106-.144.456-.259.475.115-.029.389-.293.739-.447 1.113l.187.029-.427 1.142.288.039c-.134.369-.25.748-.513 1.104l.465.019c-.355 2.5-1.037 6.854-1.056 7.516-.01.403.197 1.295.629 1.459.633-.029 1.291-.95 1.425-1.722.312-2.208.653-4.401.955-6.608.072-.192.302-.254.341-.13-.278 2.519-.648 5-.806 7.525 0 .389-.005.926.341 1.373.312.288 1.214-.427 1.425-.811.144.542.581 1.253 1.133 1.214zm0-27.28l.254.01.355-1.022-.212 1.08.264.226c.298-.465-.206-1.065.811-1.065l.202.038c-.269-1.19-1.248-1.315-1.675-1.305-.422-.01-1.401.115-1.67 1.305l.201-.038c1.018 0 .514.6.811 1.065l.264-.226-.211-1.08.355 1.022.249-.01zm0 3.01c.187-.422.36-.763.562-1.19.163.014.269.206.269.336 0 .269.115.365.115.322 0-.024-.034-.211-.034-.374 0-.134-.067-.418-.273-.471.005 0 .667-1.42.864-1.444.197-.024.341.005.422.206.081.202.01 2.39.48 3 .236.149 1.315.384 1.901.557.508.154 1.171.384 1.142.384-.287 0-.748.11-1.253.11-.369 0-.772-.034-1.339-.034-.504 0-.945.038-1.315.038-.471 0-.854-.014-1.128-.024-.322-.062-.461.235-.322.451.125.226.514.413.571.432.249.077.61.178 1 .202l-.034.418c0 0 .994-.413.989-.418.005.005-.058.466-.015.375.043-.091 1.152-.585 1.118-.494 0 0-.024.178-.024.355 0 .082.005.226.01.254l.024.221-.216-.221-.182-.278-.005.307.029.321c-.192-.067-.375-.187-.566-.321-.029.163-.005.317.057.441-.019-.12-.047-.259-.014-.369.283.278.619.35.619.35-.01-.149-.068-.307-.068-.47 0 0 .058.082.144.168.149.149.356.322.356.322-.13-.619-.043-1.171-.043-1.2 0-.081-1.138.379-1.138.461 0 .082.048-.288.048-.345 0-.058-.998.369-1 .365.005.005.034-.331.058-.331 0 0-.672-.115-.879-.158-.389-.082-.614-.293-.614-.293 0 0-.36-.317-.043-.432.23-.014.456.062 1.089.062.365 0 .974-.062 1.45-.062.297 0 .772.062 1.137.062.581 0 1.123-.11 1.627-.11.158 0 .672.182 1.267.278.197.034 1.214.317 1.401.317.086 0 .792.374 1.324.619.351.163 1.085.552 1.071.633-.005.034.009.149.009.149-.048.254-.369.787-1.085.787-.533 0-1.07-.888-1.488-.888-.595 0-.892.034-.892.034.283-.005.835.101.835.101.398.096.941.643 1.017.71.115.101.61.216.792.192l.297-.043c0 0-.225.413-.71.413-.71 0-1.396-.95-1.982-.955-.331 0-.883.125-.888.134-.101.072-1.06-.302-1.607-.384-.442.029-.888.038-1.262.038-.706 0-1.2-.072-1.195-.106 0-.096-.01-.168.019-.221-.043.014-.105.029-.178.029-.149 0-.302-.043-.418-.087-.115-.043-.321-.216-.331-.221 0 0-.231-.235-.231-.331 0-.01-.029-.019-.029-.096-.043.019-.149.072-.149.072-.081 0-.249.082-.389.082-.278 0-.633-.197-.777-.35-.139.154-.494.35-.773.35-.139 0-.307-.082-.389-.082 0 0-.106-.053-.149-.072-.25.662-.864.797-1.185.706.029.053.019.125.019.221.005.034-.489.106-1.195.106-.374 0-.821-.01-1.262-.038-.547.082-1.507.456-1.608.384-.005-.01-.557-.134-.888-.134-.585.005-1.272.955-1.982.955-.485 0-.71-.413-.71-.413l.298.043c.182.024.677-.091.792-.192.077-.067.619-.614 1.017-.71 0 0 .552-.106.835-.101 0 0-.298-.034-.893-.034-.418 0-.955.888-1.488.888-.715 0-1.037-.533-1.085-.787 0 0 .014-.115.01-.149-.014-.082.72-.47 1.07-.633.533-.245 1.238-.619 1.325-.619.187 0 1.205-.278 1.401-.317.595-.12 1.109-.278 1.267-.278.504 0 1.046.11 1.627.11.365 0 .84-.062 1.137-.062.475 0 1.085.062 1.449.062.634 0 .859-.077 1.089-.062.317.115-.043.432-.043.432 0 0-.225.211-.614.293-.206.043-.878.158-.878.158.024 0 .053.336.058.331-.005.005-1-.422-1-.365 0 .058.048.427.048.345 0-.081-1.137-.542-1.137-.461 0 .029.086.581-.043 1.2 0 0 .206-.173.355-.322.087-.087.144-.168.144-.168 0 .163-.057.321-.067.47 0 0 .336-.072.619-.35.034.11.005.249-.014.369.062-.125.086-.278.058-.441-.192.134-.374.254-.566.321l.029-.321-.005-.307-.182.278-.216.221.024-.221c.005-.029.01-.173.01-.254 0-.178-.024-.355-.024-.355-.034-.091 1.075.403 1.118.494.043.091-.019-.37-.014-.375-.005.005.989.418.989.418l-.034-.418c.394-.024.754-.125 1-.202.058-.019.446-.206.571-.432.139-.216 0-.513-.322-.451-.273.01-.657.024-1.128.024-.37 0-.811-.038-1.315-.038-.566 0-.969.034-1.339.034-.504 0-.965-.11-1.253-.11-.029 0 .633-.23 1.142-.384.585-.173 1.665-.408 1.901-.557.47-.614.398-2.803.48-3 .082-.202.226-.231.422-.206.197.024.859 1.444.864 1.444-.206.053-.274.336-.274.471 0 .163-.034.35-.034.374 0 .043.115-.053.115-.322 0-.13.106-.322.269-.336.202.427.374.768.562 1.19m-.005-.576c.111-.014.144-.058.168-.101.211-.413.499-1.113.614-1.425-.177-.677-.446-.797-.782-.811-.331.014-.6.134-.777.811.115.312.403 1.013.614 1.425.024.043.058.087.163.101zm2.4-2.884c-.519.058-.538-.154-.912-.216-.619-.034-.599.365-.628.686-.029.173-.043.216-.134.341.028.048.067.111.086.168.154-.283.245-.513.432-.657.144-.091.293-.043.408-.014.178.048.307.082.432.053.183-.091.249-.206.317-.36zm-4.795 0c.518.058.538-.154.912-.216.619-.034.6.365.629.686.029.173.043.216.134.341-.029.048-.067.111-.087.168-.153-.283-.245-.513-.432-.657-.144-.091-.293-.043-.408-.014-.178.048-.307.082-.432.053-.183-.091-.25-.206-.317-.36zm3.259 1.161c.201-.388.432-.768.667-.667.307.101.743.206.883-.302-.369.552-.677.106-1.094.197-.177.106-.273.269-.484.677l.029.096zm-1.723 0c-.201-.388-.432-.768-.667-.667-.307.101-.744.206-.883-.302.37.552.677.106 1.094.197.178.106.274.269.485.677l-.029.096zm2.476 1c-.177.005-.331-.288-.35-.629-.019-.341.115-.657.283-.657.168 0 .321.297.336.638.014.341-.091.643-.269.648zm-.01-.086c-.13 0-.264-.259-.274-.552-.01-.293.077-.576.207-.581.129-.005.273.278.288.571.014.293-.092.561-.221.561zm-3.22.086c.177.005.331-.288.35-.629.019-.341-.115-.657-.283-.657-.168 0-.322.297-.336.638-.014.341.091.643.269.648zm.01-.086c.129 0 .264-.259.273-.552.01-.293-.077-.576-.206-.581-.13-.005-.273.278-.288.571-.014.293.091.561.221.561zm2.668 15.76c.139-.173.269-.384.351-.61.484.389.969.519 1.478.236.36.316.845.557 1.31.46.365 2.534 1.071 6.661 1.085 7.521.01.24-.129 1.118-.561 1.281-.668-.187-1.037-.988-1.171-1.439-.183-1.195-.662-4.444-.965-6.652-.091-.345-.595-.619-.648-.177.278 2.519.638 5.05.811 7.596 0 .389.034.71-.245 1.167-.254.269-1.104-.398-1.315-.845.029-.158.067-.36.087-.518.096-1.924-.082-5.524-.216-8.02zm-1.065 9.776l-.005-.019c.485-.01.912-.725 1.027-1.18.172-.629.101-.6.139-.936l-.216-7.515c-.298.327-.662.638-.945 1.104-.278-.466-.643-.777-.941-1.104l-.216 7.515c.039.336-.033.307.139.936.115.455.542 1.171 1.027 1.18l-.01.019zm-1.061-9.776c-.139-.173-.269-.384-.35-.61-.485.389-.969.519-1.478.236-.36.316-.845.557-1.31.46-.365 2.534-1.07 6.661-1.084 7.521-.01.24.13 1.118.561 1.281.667-.187 1.037-.988 1.171-1.439.182-1.195.662-4.444.965-6.652.091-.345.595-.619.648-.177-.278 2.519-.638 5.05-.811 7.596 0 .389-.034.71.245 1.167.254.269 1.104-.398 1.315-.845-.029-.158-.067-.36-.087-.518-.096-1.924.082-5.524.216-8.02zm5.212-1.046c.101.321.192.643.418.955-.648.115-1.056.038-1.68-.466-.365.225-.989.254-1.521-.298-.447 1.037-.869 1.047-1.368 1.809-.494-.763-.917-.772-1.363-1.809-.533.552-1.157.523-1.521.298-.624.504-1.032.581-1.68.466.225-.312.297-.624.398-.95.581-.024.969-.187 1.377-.537.384.144.945.201 1.464-.293.125.719.782.724 1.325 1.737.547-1.013 1.204-1.018 1.329-1.737.519.494 1.08.437 1.464.293.408.35.777.504 1.358.533zm-4.151.643c.312-.749 1.018-.754 1.272-1.685.504.495 1.156.528 1.502.327.547.451 1.142.59 1.636.557l-.374-.95c-.644.052-.989-.13-1.435-.461-.504.269-1.19.086-1.521-.269-.302.777-.878.879-1.085 1.488-.201-.609-.777-.71-1.08-1.488-.331.355-1.01.538-1.512.269-.446.331-.744.518-1.44.417l-.365.97c.576.081 1.075-.096 1.622-.547.346.201 1.01.183 1.512-.312.254.931.96.936 1.267 1.685zm0-1.325c.293-.514.859-.763 1.018-1.358.48.336 1.022.633 1.588.249.422.47.97.6 1.55.509-.154-.374-.346-.772-.375-1.161.111-.351.571-.326.763-.082 1.708 2.159 2.841 4.176 4.66 4.616.561.116 1.204.159 1.43-.24 0 0 .033-.048.043-.072-.019-.01-.072-.043-.072-.043-1.915-1.056-2.952-3.11-4.425-4.852-.312-.317.293-.461.461-.288 1.723 1.588 3.085 4.53 5.04 4.641.139.057 1.147.062 1.262-.422-1.714-.562-3.398-3.643-5.14-5.462.01-.115.393-.283.59-.178.869.715 1.651 1.92 2.51 2.985.34.437 1.329 1.79 2.342 1.91.518.087.998 0 1.055-.403-1.311-1.209-3.109-4.679-4.881-6.06.163-.379.437-.422.812-.12 1.535 1.324 2.596 3.465 3.911 5.169.302.331.528.197.605-.48-.116-2-1.306-4-2.126-4.977-.916-1.08-2.01-1.972-2.299-2.15-.11.091-.202.441-.672.562-.379.101-1.641-.687-1.641-.687 0 0-.413-.293-.672-.293-.207 0-.509.043-.524.058.068.029.154.048.236.058.389.091.787.336 1.219.609.187.12 1.334.816 1.392.95-.019.278-.288.499-.298.556 0 0-.13.072-.273.369-.105.173-.504.504-.907.504-.489 0-1.195-.706-1.195-.706 0 0-.379-.307-.604-.307-.163 0-.192.053-.212.048.249.12.566.389.715.518.475.413 1.219.854 1.262.988-.039.274-.365.566-.37.595 0 0-.245.158-.336.187-.115.163-.384.485-.825.485-.365 0-.85-.201-1.325-.7 0 0-.431-.432-.552-.456-.096-.019-.446-.029-.455-.029.072.038.225.149.225.149.346.254.701.763.931.96.461.393.686.432.686.432-.01 0-1 1.67-2.611-.25.116.187.101.341.101.398 0 1.603-2.049 2.054-2.856 1.094-.067.35-.619.317-.763.912-.139-.595-.691-.562-.758-.912-.806.96-2.856.509-2.856-1.094 0-.058-.014-.211.101-.398-1.608 1.92-2.601.25-2.611.25 0 0 .225-.038.686-.432.23-.197.586-.706.931-.96 0 0 .154-.11.226-.149-.01 0-.36.009-.456.029-.12.024-.552.456-.552.456-.475.499-.96.7-1.325.7-.441 0-.71-.322-.825-.485-.091-.029-.336-.187-.336-.187-.005-.029-.331-.321-.37-.595.043-.134.787-.576 1.262-.988.149-.13.466-.399.715-.518-.019.005-.048-.048-.211-.048-.225 0-.605.307-.605.307 0 0-.706.706-1.195.706-.403 0-.801-.331-.907-.504-.144-.297-.273-.369-.273-.369-.01-.058-.279-.278-.298-.556.057-.135 1.205-.83 1.392-.95.432-.274.83-.518 1.219-.609.082-.01.168-.029.235-.058-.014-.014-.317-.058-.523-.058-.259 0-.672.293-.672.293 0 0-1.262.787-1.641.687-.471-.12-.562-.471-.672-.562-.288.178-1.382 1.07-2.299 2.15-.821.974-2.01 2.976-2.126 4.977.077.677.302.811.605.48 1.315-1.704 2.376-3.844 3.911-5.169.374-.302.648-.259.811.12-1.771 1.382-3.57 4.852-4.881 6.06.058.403.537.49 1.056.403 1.013-.12 2-1.473 2.342-1.91.859-1.065 1.641-2.27 2.51-2.985.197-.106.581.062.59.178-1.742 1.819-3.427 4.9-5.14 5.462.115.484 1.123.48 1.262.422 1.953-.111 3.316-3.053 5.04-4.641.168-.173.773-.029.461.288-1.474 1.742-2.51 3.796-4.425 4.852 0 0-.053.034-.072.043.01.023.043.072.043.072.226.398.869.356 1.43.24 1.819-.441 2.952-2.457 4.66-4.616.192-.245.653-.269.763.082-.029.389-.221.787-.374 1.161.581.091 1.128-.038 1.55-.509.566.384 1.108.087 1.588-.249.158.595.725.844 1.013 1.358zm-6.04-6.613c.168-.077.36-.158.475-.211.096-.014 1.252-.609 2.428-.475.058-.269.014-.581-.163-.821.053-.005.173-.058.182-.058.096 0 .331-.221.331-.221.058-.048.293-.379.297-.619-.657.149-1.118.115-1.742.115-.192 0-.504-.043-.667-.043 0 0-.72.144-1.123.274-.269.086-.965.312-1.291.312-.038 0-.734.475-1.19.72-.288.158-.969.566-.95.638.005.029 0 .139 0 .139.053.221.393.672.936.672.096 0 .509-.197.547-.216.269-.134.638-.59.878-.667.312-.106.672-.038.672-.038-.413.029-.576.115-.936.389 0 0-.494.413-.576.461-.163.096-.658.221-.72.216l-.211-.014c0 0 .187.331.614.331.624 0 1.162-.936 1.68-.96.273-.01.533.072.528.077zm12.08 0c-.168-.077-.36-.158-.475-.211-.096-.014-1.253-.609-2.429-.475-.019-.087-.024-.178-.024-.245 0-.072.01-.144.024-.211.014-.067.058-.153.058-.197 0-.029.062-.125.105-.168-.053-.005-.173-.058-.183-.058-.096 0-.331-.221-.331-.221-.058-.048-.293-.379-.298-.619.657.149 1.118.115 1.742.115.192 0 .504-.043.667-.043 0 0 .72.144 1.123.274.269.086.965.312 1.291.312.038 0 .734.475 1.19.72.288.158.969.566.95.638-.005.029 0 .139 0 .139-.052.221-.393.672-.936.672-.096 0-.508-.197-.547-.216-.269-.134-.638-.59-.879-.667-.311-.106-.672-.038-.672-.038.413.029.576.115.936.389 0 0 .495.413.576.461.163.096.657.221.72.216l.211-.014c0 0-.187.331-.614.331-.624 0-1.162-.936-1.68-.96-.274-.01-.533.072-.528.077zm-6.04 3.196c.235-.264.49-.408.811-.408.168 0 .355.082.447.115l.047.019.014-.062c.039-.35.475-.667.864-.667.048 0 .077-.014.086 0-.019-.019 0-.029 0-.053 0-.509.327-.931.749-.979-.105-.245-.105-.278-.105-.451 0-.278.125-.537.298-.71.062-.062.105-.096.139-.12l-.072-.058c-.129-.134-.298-.437-.298-.715 0-.067.019-.154.019-.201 0-.053.058-.149.058-.187 0-.029.057-.12.101-.163-.053-.005-.163-.053-.173-.053-.091 0-.316-.211-.316-.211-.082-.077-.302-.437-.302-.715 0-.072-.005-.144.024-.201-.039.01-.101.024-.168.024-.144 0-.326-.082-.398-.082-.067 0-.317-.211-.317-.211 0 0-.22-.226-.22-.317 0-.01-.029-.019-.029-.091-.043.019-.144.067-.144.067-.091.019-.235.082-.369.082-.269 0-.6-.135-.744-.288-.139.153-.47.288-.739.288-.168 0-.365-.082-.513-.149-.211.6-.787.73-1.133.677.072.451-.173 1.032-.739 1.19.278.437.23.864-.149 1.257l-.072.058c.034.024.077.058.139.12.173.173.297.432.297.71 0 .173 0 .206-.106.451.422.048.749.47.749.979 0 .024.019.033 0 .053.01-.014.038 0 .086 0 .389 0 .826.317.864.667l.014.062.048-.019c.091-.034.278-.115.446-.115.322 0 .576.144.806.408zm-2.683-1.771c-.038-.029-.739-.202-1.445.13.005-.009-.595-.081-.787.019-.427.231-.931 1.08-1.704 1.08-.446 0-.499-.245-.499-.245l.201-.024c.206-.024.499-.288.566-.288.019 0 .403-.36.518-.461.115-.101.317-.288.379-.312.125-.048.312-.144.556-.182 0 0-.461-.024-.71.072 0 0-.273.264-.346.321 0 0-.451.413-.456.413-.01 0-.413.254-.413.254-.566.144-1.041-.298-1.104-.499 0 0-.072-.13-.01-.134-.024-.072.523-.35.941-.715.379-.327 1-.72 1.104-.754.389-.13 1.181-.513 1.704-.609.245-.043.768-.072.998-.053-.048.139-.144.269-.264.374-.197-.11-.437-.182-.677-.149-.49.048-.792.619-1.176.619-.005 0 .019.034.019.048.211.005.595.159.993.168.547 0 1.037-.264.965-.509.163.178.283.49.283.753 0 .183 0 .216-.11.47.177.019.336.096.47.211zm-2.438-1.113c0-.005 0-.029 0-.029.326-.048.542-.518.974-.561.365-.058.773.168.763.336.015.149-.389.389-.878.393-.35-.005-.672-.13-.859-.139zm8.576-.499c.197-.11.437-.182.677-.149.489.048.801.614 1.185.614.005 0-.01.058-.024.077-.211.005-.599.135-.998.144-.547 0-1.037-.264-.965-.509-.163.178-.312.384-.283.753.014.183 0 .216.11.47-.178.019-.336.096-.471.211.039-.029.739-.202 1.445.13-.005-.009.595-.081.787.019.427.231.931 1.08 1.704 1.08.447 0 .494-.245.499-.245l-.201-.024c-.207-.024-.48-.24-.566-.288-.019-.01-.403-.36-.519-.461-.115-.101-.316-.288-.379-.312-.125-.048-.311-.144-.557-.182 0 0 .351-.11.71.072 0 0 .273.264.346.321 0 0 .451.413.456.413.01 0 .413.254.413.254.566.144 1.042-.298 1.104-.499 0 0 .072-.13.01-.134.024-.072-.523-.35-.941-.715-.379-.327-.984-.701-1.104-.754-.374-.163-1.171-.523-1.704-.609-.249-.038-.768-.072-.998-.053.047.139.144.269.264.374zm1.67.499c0-.005.005-.034.005-.034-.327-.048-.547-.513-.979-.556-.365-.058-.773.168-.763.336-.014.149.389.389.879.393.35-.005.672-.13.859-.139zm-2.568 1.253c-.11.154-.167.389-.167.624.062.019.494-.024 1.085.542.413.461.979.854 1.118.878.792.149 1.295-.254 1.368-.398 0 0-.283-.12-.644-.408-.144-.115-.633-.715-.878-.902-.643-.49-1.469-.47-1.882-.336zm-5.111 0c.11.154.173.369.173.605-.062.019-.499-.005-1.089.561-.413.461-.979.854-1.118.878-.792.149-1.363-.398-1.368-.398 0 0 .283-.12.643-.408.144-.115.633-.715.878-.902.643-.49 1.785-.36 1.881-.336zm1.833 1.363c.893 2.049-2.62 2.721-2.736.418-.005-.168.048-.312.048-.312.034-.168.298-.456.384-.465 0 0 .346-.24.653-.278.01-.01.043.005.091.005.408 0 .845.322.902.701l.019.063.048-.019c.043-.024.134-.081.206-.081.019 0 .087-.029.125-.029.034 0 .206-.019.259 0zm1.445 0c-.893 2.049 2.62 2.721 2.735.418.005-.168-.048-.312-.048-.312-.034-.168-.298-.456-.384-.465 0 0-.346-.24-.653-.278-.01-.01-.043.005-.092.005-.408 0-.844.322-.902.701l-.019.063-.048-.019c-.043-.024-.134-.081-.206-.081-.019 0-.086-.029-.125-.029-.034 0-.207-.019-.259 0zm-.336.096c.072-.034.158-.082.216-.087-.12.216-.159.418-.159.576 0 .336.105.619.245.821-.072.302-.466.245-.691.72-.221-.475-.614-.417-.686-.72.139-.202.245-.485.245-.821 0-.158-.038-.36-.158-.576.058.005.144.053.216.087m10.765-5.581c-.034-.053.009-.058-.106-.087-.806-.201-.945-.48-1.425-.643.508.231.446.787 1.132 1.061.116.029.413.005.399-.331zm-.092.024c-.029-.038-.096-.067-.096-.067-.547-.125-.595-.231-.907-.403.192.269.231.523.686.696.087.024.327.024.317-.225z" stroke="#da251d" stroke-width=".076"/></g><g stroke="#da251d" stroke-width=".076"><g fill="#fff500"><path d="m108.56 152.05c-.076-.245-.149-.446-.311-.619-.043-.014-.096-.029-.139.019-.063.23-.111.461-.096.696.048.201.134.389.293.59.068.028.115.047.168-.024.062-.236.076-.432.086-.662z"/><path d="m110.01 141.37c.105 0 .211-.072.216-.163.005-.091-.091-.192-.192-.192-.101 0-.216.072-.216.163 0 .091.086.192.192.192zm0-.058c.072 0 .149-.058.149-.115 0-.058-.058-.12-.13-.125-.072-.005-.143.043-.143.106 0 .062.052.134.125.134zm1.248.11c0-.01.028-.072.009-.072-.384 0-.7-.523-1.185-.552-.413-.043-.806.221-.83.408-.019.163.471.432 1.018.408.389-.029.777-.178.989-.192zm-.116-.024c0-.005.019-.034-.014-.034-.345 0-.604-.489-1.046-.513-.364-.034-.772.197-.758.365-.014.149.398.37.892.351.355-.019.739-.154.926-.168z"/><path d="m109.74 143.15c.005 0 .028-.033.005-.038-.269-.034-.461-.413-.783-.446-.273-.038-.528.091-.561.259-.014.11.307.312.672.312.264-.01.528-.077.667-.086z"/></g><path d="m109.28 150.94c-.614.086-1.123-.096-1.531-.562-.864.437-1.253-.139-1.565-.36-.451 1-.739.955-1.363 1.767-.619-.812-.907-.763-1.358-1.767-.312.221-.701.797-1.564.36-.408.465-.917.648-1.531.562" fill="none"/><path d="m106.44 135.19c-.046 0-.08-.13-.086-.288-.006-.158.028-.302.074-.302.046 0 .081.125.087.283.006.158-.028.307-.074.307z" fill="#fff500"/><g fill="none"><path d="m105.22 145.89c-.134.072-.264.182-.389.322-.12-.139-.25-.25-.384-.322"/><path d="m105.43 147.06c-.105.312-.475.321-.605.566-.125-.245-.494-.254-.6-.566"/><path d="m107.94 147.2c.225-.638-.154-1.171-.485-1.421.173.456.322 1.156.043 1.737"/><path d="m107.08 147.64c.24-.849-.105-1.152-.298-1.493.269.609.082 1.325-.158 1.493"/><path d="m106.4 147.6c.048-.259.096-.998-.317-1.478-.144.422-.076 1 .245 1.454"/><path d="m107.21 144.94c1.301-.067 1.862 1.939 3.187 1.262-1.646-.475-1.08-1.603-3.114-1.555"/></g><g fill="#fff500"><path d="m112.16 139.22c0-.005.048-.038 0-.038-.408 0-.734-.518-1.248-.538-.432-.034-.903.225-.888.408-.01.158.475.394 1.051.365.413-.029.859-.177 1.085-.197zm.125.029c0-.01.052-.082.024-.082-.451 0-.83-.557-1.401-.581-.48-.038-.941.254-.969.461-.019.173.557.456 1.195.418.456-.034.903-.197 1.152-.216zm-1.435-.053c.115 0 .207-.077.207-.168 0-.091-.092-.173-.207-.173-.115 0-.211.081-.211.173 0 .091.096.168.211.168zm-.005-.058c.077 0 .144-.053.144-.115 0-.062-.067-.115-.144-.115-.076 0-.139.053-.139.115 0 .062.063.115.139.115z"/><path d="m115.12 140.34c-.029-.038-.097-.067-.097-.067-.547-.125-.595-.23-.907-.403.192.269.23.523.686.696.086.024.326.024.317-.226z"/><path d="m115.21 140.31c-.034-.053.01-.057-.105-.086-.806-.201-.945-.48-1.425-.643.508.231.446.787 1.133 1.061.115.029.413.005.398-.331z"/></g><g fill="none"><path d="m108.92 148.72c-.356.029-1.037-.009-1.469-.643-.57.413-1.075.206-1.656-.211-.163.787-.681.859-.969 1.31-.283-.451-.802-.523-.965-1.31-.581.417-1.085.624-1.656.211-.432.634-1.114.672-1.469.643"/><path d="m109.17 149.83c-.634-.01-1.185-.24-1.593-.648-.524.206-1.076.034-1.545-.379-.336 1.07-1 1.07-1.2 1.646-.192-.576-.859-.576-1.195-1.646-.47.413-1.022.585-1.545.379-.408.408-.96.638-1.593.648"/><path d="m106.24 150.6c.336 3.263.259 9.03.96 9.829"/><path d="m108.91 151.38c.235 2.01 1.286 7.242 1 7.885-.254.893-.465.734-.826.432-.182-.202-.499-.643-.542-.936-.196-1.373-.691-4.785-.988-6.81 0-.254-.686-.653-.893-.091.254 2.736.796 6.834.787 7.938-.019.048-.043.95-.571.595-.25-.096-.619-.418-.816-.801"/><path d="m105.6 151.53l.201 7.343c-.048 1.171-.484 1.876-.974 1.857-.485.019-.921-.686-.969-1.857l.201-7.343"/></g><path d="m113.98 142.64c-.023-.053-.091-.087-.091-.087-.696-.288-.787-.681-1.281-.778.456.231.288.634.869 1.056.101.034.432.048.504-.192zm-.23-.067c-.398-.019-.542-.432-.821-.609.163.259.197.441.557.778.249.13.351-.163.264-.168z" fill="#fff500"/><path d="m106.3 133.05c-.259-.873-.907-1.075-1.474-1.065-.552-.01-1.209.192-1.468 1.065" fill="none"/><g fill="#fff500"><path d="m104.83 145.82c.216-.245.456-.379.754-.379.154 0 .312.053.413.11l.043.014.019-.053c.052-.336.436-.624.801-.624.043 0 .072-.014.081 0-.024-.019 0-.029 0-.048 0-.475.302-.864.696-.912-.1-.226-.1-.259-.1-.418 0-.259.12-.504.278-.662.043-.043.096-.091.13-.11 0 0-.034-.019-.068-.053-.158-.158-.278-.403-.278-.667 0-.063.01-.13.019-.187.01-.058.053-.135.053-.173 0-.029.057-.11.096-.149-.048-.005-.154-.053-.163-.053-.086 0-.298-.197-.298-.197-.076-.067-.274-.403-.274-.667 0-.062-.009-.129.019-.187-.038.014-.096.029-.158.029-.13 0-.307-.077-.369-.077-.067 0-.288-.192-.298-.197 0 0-.201-.211-.201-.297 0-.005-.029-.014-.029-.082-.039.014-.129.062-.129.062-.077.01-.221.072-.346.072-.249 0-.494-.115-.691-.288-.192.173-.437.288-.686.288-.125 0-.269-.063-.345-.072 0 0-.091-.048-.13-.062-.206.437-.691.624-1.056.624.048.283-.163.984-.715 1.104.264.355.154.945-.177 1.228.034.019.086.067.13.11.158.158.278.403.278.662 0 .158 0 .192-.101.418.394.048.696.437.696.912 0 .019.024.029 0 .048.01-.014.038 0 .082 0 .365 0 .749.288.801.624l.019.053.043-.014c.101-.058.259-.11.413-.11.298 0 .537.134.749.379z"/><path d="m106.02 142.16c-.087-.01-.178-.019-.178-.144 0-.125.081-.135.178-.135.096 0 .201.024.177.135-.023.11-.091.154-.177.144z"/><path d="m105.58 142.15c.014-.115.105-.206.211-.235-.023.086-.023.192.029.254-.067.014-.163.005-.24-.019z"/><path d="m106.57 142.16c-.048-.139-.207-.24-.298-.254.024.086 0 .178-.029.245.067.014.249.034.327.01z"/><path d="m105.62 142.22c.302.038.652.024.941-.014-.149.043-.336.086-.504.096-.125.005-.317-.029-.437-.082z"/><path d="m105.65 142.2c.302.038.653.024.941-.014-.149.043-.336.087-.504.096-.125.005-.317-.029-.437-.081zm.945-.067c-.048-.139-.206-.24-.297-.254.023.087 0 .178-.029.245.067.014.249.034.326.01zm-.993-.01c.014-.115.106-.206.211-.235-.024.086-.024.192.029.254-.067.014-.163.005-.24-.019zm.441.014c-.086-.01-.177-.019-.177-.144 0-.125.081-.134.177-.134.097 0 .202.024.178.134-.024.11-.091.154-.178.144zm.739.062c-.096-.552-1.291-.629-1.324 0 .101.062.158.062.254.091.365.096 1.089.034 1.07-.091z"/></g><path d="m115.03 141.38c2.75 1.68 4.478 5.413 4.367 7.155-.052.341-.167.226-.293.173-1.377-1.742-2.577-4.353-4.098-5.284-.086-.048-.581-.206-.897.47 2.121 1.929 3.052 3.979 4.765 5.951.096.206-.245.225-.398.249-1.771.048-3.331-3.167-4.948-4.756-.648-.384-1.06.336-1.06.298 1.583 1.732 3.412 4.737 4.746 5.255.254.11.485.183-.11.408-1.829.288-3.546-2.352-5.13-4.324-.196-.206-.364-.293-.528-.35-.067-.014-.47.024-.748.389 1.435 1.761 3.167 4.358 4.309 4.78.288.144.312.236-.062.36-2.261.369-3.768-2.582-4.53-3.551-.259-.264-.778-1.502-1.636-1.104" fill="none"/><g fill="#fff500"><path d="m108.82 153.7c-.076-.245-.153-.442-.312-.619-.039-.015-.101-.034-.144.019-.058.225-.106.466-.097.696.044.197.134.393.293.59.063.033.115.048.163-.024.067-.231.081-.432.096-.662z"/><path d="m104.83 153.7c.019.005.072-.01.096-.039.077-.183.134-.346.149-.533-.005-.197-.072-.393-.182-.552-.019-.005-.038-.014-.062-.019-.019.005-.038.014-.058.019-.11.159-.178.355-.182.552.014.187.072.35.149.533.024.029.077.043.091.039z"/><path d="m104.83 155.14c.019.005.072-.01.096-.039.077-.182.134-.345.149-.533-.005-.196-.072-.393-.182-.552-.019-.005-.038-.014-.062-.019-.019.005-.038.014-.058.019-.11.158-.178.356-.182.552.014.187.072.351.149.533.024.029.077.043.091.039z"/><path d="m104.83 158.51c.019.005.082-.01.106-.043.086-.202.149-.379.163-.59-.005-.216-.077-.432-.202-.609-.019-.005-.038-.014-.067-.019-.024.005-.043.014-.063.019-.125.177-.197.393-.201.609.014.212.077.389.163.59.024.034.086.048.101.043z"/><path d="m104.83 160.17c.024.005.082-.01.11-.043.086-.212.153-.398.173-.615-.005-.225-.086-.451-.211-.633-.024-.01-.043-.019-.072-.024-.024.005-.043.014-.067.024-.125.183-.206.408-.211.633.019.216.086.403.173.615.029.034.086.048.106.043z"/><path d="m104.83 156.93c.019.005.077-.01.106-.039.086-.201.149-.384.163-.585-.005-.216-.077-.432-.202-.61-.019-.005-.043-.014-.067-.019-.019.005-.043.014-.063.019-.125.178-.197.393-.201.61.014.201.077.384.163.585.029.029.086.043.101.039z"/><path d="m114.17 144.61c-.196-.134-.364-.245-.58-.278-.043.01-.096.024-.096.091.082.207.183.408.322.576.144.125.322.216.552.278.062-.014.11-.029.11-.11-.086-.216-.187-.375-.307-.557z"/><path d="m112.39 146.26c-.168-.125-.307-.225-.494-.264-.039 0-.081.014-.081.067.057.187.139.36.249.514.12.115.273.201.47.264.053-.01.096-.024.101-.091-.063-.187-.154-.331-.245-.49z"/><path d="m110.61 147.44c-.167-.125-.307-.225-.494-.264-.039 0-.081.014-.081.067.057.187.139.36.249.513.12.115.274.202.47.264.053-.01.097-.024.101-.091-.063-.187-.154-.331-.245-.49z"/><path d="m113.3 147.3c-.163-.139-.303-.254-.495-.302-.038.01-.091.019-.096.077.058.192.13.379.24.542.12.125.269.221.471.298.057-.005.105-.014.11-.087-.058-.206-.134-.35-.23-.528z"/><path d="m111.51 148.58c-.163-.139-.303-.254-.495-.302-.038.01-.091.019-.096.077.058.192.13.379.24.542.121.125.269.221.471.298.058-.005.105-.014.11-.087-.057-.206-.134-.35-.23-.528z"/><path d="m114.22 148.42c-.163-.139-.302-.254-.494-.302-.039.01-.092.019-.097.077.058.192.13.379.241.542.12.125.269.221.47.297.058-.005.105-.014.11-.087-.057-.206-.134-.35-.23-.528z"/><path d="m112.35 149.68c-.163-.139-.303-.254-.495-.302-.038.01-.091.019-.096.077.058.192.13.379.24.543.12.125.269.221.471.297.057-.005.105-.014.11-.086-.058-.206-.134-.35-.23-.528z"/><path d="m115.1 149.45c-.178-.125-.327-.226-.519-.259-.038.014-.091.029-.091.087.077.187.163.364.288.518.129.115.288.197.494.254.058-.01.106-.024.106-.096-.077-.202-.168-.336-.278-.504z"/><path d="m113.27 150.74c-.178-.125-.327-.225-.518-.259-.039.014-.092.029-.092.086.077.188.163.365.288.519.13.115.288.196.495.254.057-.01.105-.024.105-.096-.077-.201-.168-.336-.278-.504z"/><path d="m116.17 150.41c-.188-.082-.346-.154-.533-.149-.034.024-.082.048-.068.101.105.163.221.307.37.432.139.086.307.13.509.144.052-.019.096-.043.081-.11-.11-.173-.22-.278-.36-.418z"/><path d="m114.26 151.54c-.197-.052-.365-.101-.552-.067-.029.029-.072.057-.048.11.13.144.264.269.432.369.149.063.322.082.523.063.048-.024.087-.053.063-.12-.134-.154-.259-.24-.418-.356z"/><path d="m115.12 145.67c-.183-.134-.336-.245-.543-.283-.033.005-.086.019-.086.082.072.192.154.389.273.552.129.125.293.211.513.283.053-.01.101-.024.106-.096-.072-.207-.163-.36-.264-.538z"/><path d="m116.69 143.57c-.173-.13-.322-.235-.523-.273-.029.005-.082.019-.082.082.068.182.149.374.264.528.125.12.282.206.494.274.048-.01.096-.024.101-.091-.067-.202-.159-.346-.254-.518z"/><path d="m115.71 142.58c-.187-.101-.335-.187-.533-.202-.024.01-.072.024-.067.082.081.168.182.341.311.48.13.096.288.163.5.211.043-.019.086-.033.086-.101-.086-.182-.188-.312-.298-.47z"/><path d="m117.64 144.8c-.158-.163-.298-.293-.489-.37-.034 0-.092.01-.106.072.043.202.092.408.183.59.105.149.259.249.461.355.052.009.105 0 .125-.072-.039-.216-.101-.379-.173-.576z"/><path d="m116.06 146.8c-.183-.149-.336-.269-.542-.307-.038 0-.092.01-.096.077.068.206.149.408.278.576.13.13.293.235.514.307.057-.01.105-.019.12-.096-.077-.221-.163-.379-.273-.557z"/><path d="m116.95 147.96c-.173-.158-.317-.283-.518-.341-.043.005-.091.015-.101.072.052.211.12.413.23.59.12.139.283.25.489.336.063-.005.111-.014.121-.091-.053-.216-.13-.379-.221-.566z"/><path d="m118.45 146.1c-.144-.177-.273-.321-.465-.408-.044-.005-.092 0-.11.053.023.221.062.427.148.619.101.158.245.288.437.403.063.005.11 0 .129-.072-.019-.225-.076-.398-.139-.595z"/><path d="m119.07 147.45c-.11-.173-.216-.317-.379-.403-.043-.019-.087-.019-.106.034 0 .202.014.393.082.571.076.149.187.278.35.403.063.014.105.01.125-.053.005-.206-.034-.365-.072-.552z"/><path d="m117.91 149.05c-.201-.125-.36-.22-.581-.244-.038.019-.086.029-.081.091.086.192.192.389.336.538.148.115.326.197.556.25.048-.029.096-.039.096-.115-.101-.202-.202-.36-.327-.519z"/><path d="m109.02 155.32c-.086-.25-.159-.447-.327-.61-.047-.01-.11-.029-.149.029-.052.23-.091.466-.072.696.053.201.154.389.317.581.062.024.115.043.167-.024.053-.24.058-.442.063-.672z"/><path d="m109.32 157.01c-.082-.245-.163-.442-.327-.605-.043-.019-.101-.034-.144.024-.052.225-.096.46-.076.696.052.196.149.384.316.575.058.029.111.048.163-.023.053-.236.067-.437.067-.667z"/><path d="m109.58 158.63c-.082-.24-.159-.442-.327-.605-.043-.019-.101-.034-.139.019-.057.23-.101.466-.081.701.052.192.144.384.312.576.062.028.11.048.163-.024.058-.235.072-.437.072-.667z"/></g><g fill="none"><path d="m107.2 137.88c-.283-.437-.384-1.01-.586-1.526-.028.067-.052.134-.072.206"/><path d="m106.37 137.48c-.134-.346-.211-.614-.35-.965-.01.067-.053.091-.063.158"/><path d="m109.73 138.22c-.624-.278-1.286-.398-1.891-.494-.167-.024-.287-.014-.436.034-.12.072-.24.139-.36.211-.221-.35-.321-.83-.499-1.43-.159.403-.178.806-.187 1.209l-.408-1.085c-.13.384-.201.773-.144 1.2-.345-.269-.451-.542-.518-1.08.01 1.123-.374 1.056-.461 1.325-.082-.269-.466-.202-.456-1.325-.067.537-.173.811-.518 1.08.058-.427-.014-.816-.144-1.2l-.408 1.085c-.01-.403-.029-.806-.187-1.209-.177.6-.278 1.08-.499 1.43-.12-.072-.24-.139-.36-.211-.149-.048-.269-.058-.437-.034-.605.096-1.267.216-1.891.494"/><path d="m105.78 137.55c-.091-.058-.336-.211-.494-.758-.039.446-.25.912-.461.94-.207-.029-.418-.494-.456-.94-.159.547-.403.701-.494.758"/></g><g fill="#fff500"><path d="m101.1 152.05c.077-.245.149-.446.312-.619.043-.014.096-.029.139.019.062.23.11.461.096.696-.048.201-.134.389-.293.59-.067.028-.115.047-.168-.024-.062-.236-.077-.432-.086-.662z"/><path d="m99.69 141.37c-.105 0-.211-.072-.216-.163-.005-.091.091-.192.192-.192.101 0 .216.072.216.163 0 .091-.087.192-.192.192zm0-.058c-.072 0-.149-.058-.149-.115 0-.058.058-.12.13-.125.072-.005.144.043.144.106 0 .062-.053.134-.125.134zm-1.238.106c0-.01-.029-.067-.01-.067.384 0 .691-.523 1.176-.552.413-.043.806.221.83.408.019.163-.36.437-1.017.408-.389-.029-.768-.182-.979-.197zm.106-.019c0-.005-.029-.034.005-.034.345 0 .614-.489 1.056-.513.365-.034.773.197.758.365.015.149-.398.37-.892.351-.355-.019-.739-.154-.926-.168z"/><path d="m104.03 142.22c-.302.038-.653.024-.941-.014.149.043.336.086.504.096.125.005.317-.029.437-.082z"/><path d="m103.09 142.16c.048-.139.206-.24.298-.254-.024.086 0 .178.029.245-.067.014-.25.034-.326.01z"/><path d="m104.08 142.15c-.014-.115-.105-.206-.211-.235.024.086.024.192-.029.254.067.014.163.005.24-.019z"/><path d="m103.64 142.16c.086-.01.178-.019.178-.144 0-.125-.082-.135-.178-.135-.096 0-.202.024-.178.135.024.11.091.154.178.144z"/><path d="m100.68 143.08c-.101.005-.197-.072-.197-.158 0-.087.087-.187.187-.192.101-.005.202.082.202.168 0 .086-.091.178-.192.182zm.005-.048c-.062 0-.144-.048-.144-.115 0-.067.072-.125.134-.125.062 0 .135.053.135.11 0 .058-.063.13-.125.13z"/><path d="m103.23 135.19c.049 0 .085-.13.091-.288.007-.158-.029-.302-.078-.302-.049 0-.085.125-.091.283-.006.158.029.307.078.307z"/></g><g fill="none"><path d="m101.72 147.2c-.226-.638.154-1.171.485-1.421-.173.456-.322 1.156-.043 1.737"/><path d="m102.58 147.64c-.24-.849.106-1.152.298-1.493-.269.609-.082 1.325.158 1.493"/><path d="m103.26 147.6c-.048-.259-.096-.998.317-1.478.144.422.077 1-.245 1.454"/><path d="m102.45 144.94c-1.3-.067-1.862 1.939-3.186 1.262 1.646-.475 1.08-1.603 3.114-1.555"/></g><g fill="#fff500"><path d="m97.86 139.22c0-.005-.01-.038.01-.038.307 0 .537-.398.921-.418.326-.024.633.173.653.317.01.12-.374.312-.806.288-.307-.029-.61-.134-.778-.149z"/><path d="m98.86 139.22c-.115 0-.206-.077-.206-.168 0-.091.091-.173.206-.173.115 0 .211.082.211.173 0 .091-.096.168-.211.168zm.005-.058c-.077 0-.144-.053-.144-.115 0-.062.067-.115.144-.115.077 0 .139.053.139.115 0 .063-.062.115-.139.115zm-1.315.082c0-.005-.038-.043.01-.043.408 0 .725-.513 1.238-.533.432-.033.902.226.888.408.009.159-.475.394-1.051.365-.413-.029-.859-.178-1.085-.197zm-.144.014c0-.009-.024-.077.005-.077.451 0 .821-.547 1.392-.571.48-.038.941.254.969.461.019.173-.499.47-1.195.417-.456-.034-.921-.211-1.171-.23z"/><path d="m94.45 140.31c.034-.053-.01-.057.106-.086.806-.201.945-.48 1.425-.643-.509.231-.446.787-1.133 1.061-.115.029-.413.005-.398-.331z"/></g><g fill="none"><path d="m103.42 150.61c-.336 3.263-.259 9.02-.96 9.819"/><path d="m100.75 151.38c-.235 2.01-1.286 7.242-1 7.885.254.893.466.734.825.432.182-.202.499-.643.542-.936.197-1.373.691-4.785.989-6.81 0-.254.686-.653.893-.091-.254 2.736-.797 6.834-.787 7.938.019.048.043.95.571.595.249-.096.619-.447.816-.83"/></g><g fill="#fff500"><path d="m95.72 142.64c.024-.053.091-.087.091-.087.696-.288.787-.681 1.281-.778-.456.231-.288.634-.868 1.056-.101.034-.432.048-.504-.192zm.23-.067c.398-.019.542-.432.821-.609-.163.259-.197.441-.557.778-.25.13-.35-.163-.264-.168z"/><path d="m104.05 142.2c-.302.038-.653.024-.941-.014.149.043.336.087.504.096.125.005.317-.029.437-.081zm.048-.077c-.014-.115-.105-.206-.211-.235.024.086.024.192-.029.254.067.014.163.005.24-.019zm-.993.01c.048-.139.206-.24.297-.254-.024.087 0 .178.029.245-.067.014-.25.034-.326.01zm.552.005c.086-.01.177-.019.177-.144 0-.125-.082-.134-.177-.134-.096 0-.202.024-.178.134.024.11.091.154.178.144zm-.739.062c.096-.552 1.291-.629 1.325 0-.096.029-.158.062-.254.091-.346.115-1.06.034-1.07-.091z"/><path d="m97.32 144.52c.019-.053.072-.096.072-.096.633-.245.749-.614 1.142-.854-.403.302-.211.725-.768 1.109-.096.043-.394.139-.446-.158zm.081.005c.019-.043.077-.081.077-.081.432-.211.48-.322.72-.533-.115.274-.067.446-.437.691-.077.038-.317.144-.36-.077z"/></g><path d="m94.62 141.38c-2.75 1.68-4.478 5.413-4.367 7.155.053.341.168.226.293.173 1.377-1.742 2.577-4.353 4.098-5.284.086-.048.581-.206.897.47-2.121 1.929-3.052 3.979-4.766 5.951-.096.206.245.225.398.249 1.771.048 3.331-3.167 4.948-4.756.648-.384 1.061.336 1.061.298-1.584 1.732-3.412 4.737-4.746 5.255-.254.11-.485.183.11.408 1.828.288 3.547-2.352 5.13-4.324.197-.206.365-.293.528-.35.067-.014.47.024.749.389-1.435 1.761-3.167 4.358-4.309 4.78-.288.144-.274.173.101.298 2.26.37 3.729-2.519 4.492-3.489.259-.264.777-1.502 1.637-1.104" fill="none"/><g fill="#fff500"><path d="m100.84 153.7c.077-.245.154-.442.312-.619.038-.015.101-.034.144.019.058.225.106.466.096.696-.043.197-.135.393-.293.59-.062.033-.115.048-.163-.024-.067-.231-.082-.432-.096-.662z"/><path d="m95.48 144.61c.197-.134.365-.245.581-.278.043.01.096.024.096.091-.082.207-.182.408-.322.576-.144.125-.322.216-.552.278-.062-.014-.11-.029-.11-.11.086-.216.187-.375.307-.557z"/><path d="m97.26 146.26c.168-.125.307-.225.494-.264.039 0 .082.014.082.067-.058.187-.139.36-.25.514-.12.115-.273.201-.47.264-.053-.01-.096-.024-.101-.091.062-.187.154-.331.245-.49z"/><path d="m99.05 147.44c.168-.125.307-.225.494-.264.038 0 .082.014.082.067-.058.187-.139.36-.249.513-.12.115-.274.202-.47.264-.053-.01-.096-.024-.101-.091.062-.187.153-.331.245-.49z"/><path d="m96.36 147.3c.163-.139.302-.254.494-.302.039.01.091.019.096.077-.058.192-.13.379-.24.542-.12.125-.269.221-.47.298-.058-.005-.106-.014-.11-.087.057-.206.134-.35.23-.528z"/><path d="m98.15 148.58c.163-.139.302-.254.494-.302.039.01.091.019.096.077-.058.192-.13.379-.24.542-.12.125-.269.221-.47.298-.057-.005-.106-.014-.11-.087.057-.206.134-.35.23-.528z"/><path d="m95.43 148.42c.163-.139.302-.254.494-.302.038.01.091.019.096.077-.058.192-.13.379-.24.542-.12.125-.269.221-.47.297-.057-.005-.105-.014-.11-.087.058-.206.134-.35.23-.528z"/><path d="m97.31 149.68c.163-.139.302-.254.494-.302.038.01.091.019.096.077-.058.192-.13.379-.24.543-.12.125-.269.221-.47.297-.058-.005-.106-.014-.111-.086.058-.206.134-.35.231-.528z"/><path d="m94.56 149.45c.178-.125.326-.226.518-.259.039.014.091.029.091.087-.077.187-.163.364-.288.518-.13.115-.288.197-.494.254-.057-.01-.105-.024-.105-.096.077-.202.168-.336.278-.504z"/><path d="m96.39 150.74c.178-.125.326-.225.518-.259.038.014.091.029.091.086-.077.188-.163.365-.288.519-.13.115-.288.196-.494.254-.058-.01-.106-.024-.106-.096.077-.201.168-.336.278-.504z"/><path d="m93.49 150.41c.187-.082.345-.154.533-.149.034.024.082.048.067.101-.106.163-.221.307-.37.432-.139.086-.307.13-.509.144-.053-.019-.096-.043-.081-.11.11-.173.221-.278.36-.418z"/><path d="m95.4 151.54c.197-.052.365-.101.552-.067.029.029.072.057.048.11-.13.144-.264.269-.432.369-.149.063-.321.082-.523.063-.048-.024-.086-.053-.063-.12.135-.154.259-.24.418-.356z"/><path d="m94.54 145.67c.182-.134.336-.245.542-.283.034.005.087.019.087.082-.072.192-.154.389-.274.552-.13.125-.293.211-.514.283-.053-.01-.101-.024-.105-.096.072-.207.163-.36.264-.538z"/><path d="m92.97 143.57c.173-.13.321-.235.523-.273.029.005.082.019.082.082-.067.182-.149.374-.264.528-.125.12-.283.206-.494.274-.048-.01-.096-.024-.101-.091.067-.202.158-.346.254-.518z"/><path d="m93.95 142.58c.187-.101.336-.187.533-.202.024.01.072.024.067.082-.082.168-.182.341-.312.48-.13.096-.288.163-.499.211-.043-.019-.086-.033-.086-.101.086-.182.187-.312.298-.47z"/><path d="m105.91 138.56c-.187-.005-.317.029-.461.111-.01.014-.034.043 0 .086.13.096.274.144.427.178.134.01.269-.019.432-.077.024-.034.048-.063.015-.115-.139-.082-.245-.144-.413-.183z"/><path d="m106.99 138.62c-.188.024-.312.077-.442.178-.005.019-.024.048.014.086.144.077.293.101.451.11.134-.014.264-.062.413-.144.019-.038.038-.067 0-.115-.154-.058-.264-.106-.437-.115z"/><path d="m108.15 138.56c-.196.024-.326.077-.465.178-.005.019-.024.048.014.086.154.077.312.101.475.11.144-.014.278-.062.437-.144.019-.038.039-.067 0-.115-.163-.058-.278-.105-.461-.115z"/><path d="m103.75 138.56c.187-.005.317.029.461.111.01.014.034.043 0 .086-.13.096-.273.144-.427.178-.134.01-.269-.019-.432-.077-.024-.034-.048-.063-.014-.115.139-.082.245-.144.413-.183z"/><path d="m102.67 138.62c.187.024.312.077.441.178.005.019.024.048-.014.086-.144.077-.293.101-.451.11-.134-.014-.264-.062-.413-.144-.019-.038-.038-.067 0-.115.154-.058.264-.106.437-.115z"/><path d="m101.51 138.56c.197.024.326.077.466.178.005.019.024.048-.014.086-.154.077-.312.101-.475.11-.144-.014-.278-.062-.437-.144-.019-.038-.038-.067 0-.115.163-.058.278-.105.461-.115z"/><path d="m92.01 144.8c.158-.163.297-.293.49-.37.033 0 .091.01.105.072-.043.202-.091.408-.182.59-.106.149-.259.249-.461.355-.053.009-.106 0-.125-.072.038-.216.101-.379.173-.576z"/><path d="m93.6 146.8c.182-.149.336-.269.542-.307.038 0 .091.01.096.077-.067.206-.149.408-.278.576-.13.13-.293.235-.514.307-.058-.01-.106-.019-.12-.096.077-.221.163-.379.274-.557z"/><path d="m92.7 147.96c.173-.158.317-.283.518-.341.043.005.091.015.101.072-.053.211-.12.413-.23.59-.12.139-.283.25-.49.336-.062-.005-.11-.014-.12-.091.053-.216.13-.379.221-.566z"/><path d="m91.21 146.1c.144-.177.273-.321.465-.408.043-.005.091 0 .11.053-.024.221-.062.427-.149.619-.101.158-.245.288-.437.403-.062.005-.11 0-.129-.072.019-.225.077-.398.139-.595z"/><path d="m90.59 147.45c.11-.173.216-.317.379-.403.043-.019.087-.019.106.034 0 .202-.014.393-.081.571-.077.149-.187.278-.351.403-.062.014-.105.01-.125-.053-.005-.206.034-.365.072-.552z"/><path d="m91.74 149.05c.202-.125.36-.22.581-.244.038.019.087.029.082.091-.087.192-.192.389-.336.538-.149.115-.326.197-.557.25-.048-.029-.096-.039-.096-.115.101-.202.202-.36.326-.519z"/><path d="m100.64 155.32c.087-.25.159-.447.326-.61.048-.01.11-.029.149.029.053.23.091.466.072.696-.053.201-.153.389-.317.581-.062.024-.115.043-.168-.024-.053-.24-.058-.442-.063-.672z"/><path d="m100.34 157.01c.081-.245.163-.442.326-.605.043-.019.101-.034.144.024.053.225.096.46.077.696-.053.196-.149.384-.317.575-.058.029-.11.048-.163-.023-.053-.236-.067-.437-.067-.667z"/><path d="m100.08 158.63c.082-.24.158-.442.326-.605.043-.019.101-.034.139.019.058.23.101.466.082.701-.053.192-.144.384-.312.576-.062.028-.11.048-.163-.024-.058-.235-.072-.437-.072-.667z"/></g><g fill="none"><path d="m102.46 137.88c.283-.437.384-1.01.585-1.526.029.067.053.134.072.206"/><path d="m103.29 137.48c.135-.346.211-.614.35-.965.01.067.053.091.062.158"/><path d="m105.22 135.3c.067-.111.101-.245.13-.379-.01-.077.014-.139-.115-.091-.192.278-.043 1.368-.379.787-.336-.034-.187-.509-.379-.787-.13-.048-.106.014-.115.091.029.134.062.269.13.379"/></g><g fill="#fff500"><path d="m109.02 143.08c.101.005.197-.072.197-.158 0-.087-.087-.187-.187-.192-.101-.005-.201.082-.201.168 0 .086.091.178.192.182zm-.005-.048c.063 0 .144-.048.144-.115 0-.067-.072-.125-.134-.125-.062 0-.134.053-.134.11 0 .058.063.13.125.13z"/><path d="m112.38 144.52c-.019-.053-.072-.096-.072-.096-.634-.245-.749-.614-1.142-.854.403.302.211.725.768 1.109.097.043.394.139.447-.158zm-.081.005c-.019-.043-.077-.081-.077-.081-.432-.211-.48-.322-.719-.533.115.274.067.446.436.691.077.038.317.144.36-.077z"/></g></g><path d="m104.82 144.19c.216 0 .447-.024.447-.053 0-.058-.014-.034-.01-.048-.144.019-.298.029-.437.029-.134 0-.288-.01-.432-.029.005.014-.01-.01-.01.048 0 .029.23.053.442.053m0-.23c0-.01.216-.043.341-.043.01 0 .494-.01.494-.01.014.005-.053-.096-.072-.134-.436.024-.287-.154-.763-.077-.47-.077-.322.101-.758.077-.019.038-.087.139-.072.134 0 0 .485.01.494.01.125 0 .341.033.336.043m0-.11c.101 0 .259-.024.36-.058.063-.048-.144-.019-.36-.019-.211 0-.418-.029-.355.019.101.034.259.058.36.058h-.005" fill="#fff500"/><g fill="none"><path d="m104.82 144.19c.216 0 .447-.024.447-.053 0-.058-.014-.034-.01-.048-.144.019-.298.029-.437.029-.134 0-.288-.01-.432-.029.005.014-.01-.01-.01.048 0 .029.23.053.442.053m0-.23c0-.01.216-.043.341-.043.01 0 .494-.01.494-.01.014.005-.053-.096-.072-.134-.436.024-.287-.154-.763-.077-.47-.077-.322.101-.758.077-.019.038-.087.139-.072.134 0 0 .485.01.494.01.125 0 .341.033.336.043m0-.11c.101 0 .259-.024.36-.058.063-.048-.144-.019-.36-.019-.211 0-.418-.029-.355.019.101.034.259.058.36.058h-.005"/><path d="m104.82 144.19c.216 0 .447-.024.447-.053 0-.058-.014-.034-.01-.048-.144.019-.298.029-.437.029-.134 0-.288-.01-.432-.029.005.014-.01-.01-.01.048 0 .029.23.053.442.053zm0-.23c0-.01.216-.043.341-.043.01 0 .494-.01.494-.01.014.005-.053-.096-.072-.134-.436.024-.287-.154-.763-.077-.47-.077-.322.101-.758.077-.019.038-.087.139-.072.134 0 0 .485.01.494.01.125 0 .341.033.336.043zm0-.11c.101 0 .259-.024.36-.058.063-.048-.144-.019-.36-.019-.211 0-.418-.029-.355.019.101.034.259.058.36.058" stroke="#da251d" stroke-width=".076"/></g><g stroke="#da251d" stroke-width=".076"><path d="m104.82 145.01c1.233-.005 2.4-1.881 2.035-3.134-.11-.384-.432-.533-.47-.547-.12-.053-.365-.096-.403-.096-.6 0-.71.398-.778.662-.086.422.048.864.097 1.253h-.956c.048-.389.182-.83.096-1.253-.067-.264-.178-.662-.777-.662-.038 0-.283.038-.403.091-.038.014-.36.168-.47.552-.365 1.252.802 3.129 2.03 3.134zm0 .245c-1.382-.005-2.668-1.987-2.28-3.489.087-.35.513-.581.513-.581.183-.087.331-.125.466-.134.619-.038.864.326.979.595.129.456.029.941 0 1.392l.648-.005c-.029-.446-.13-.931 0-1.387.115-.269.36-.633.979-.595.135.01.283.048.466.134 0 0 .427.23.513.581.389 1.502-.897 3.484-2.284 3.489z" fill="#fff500"/><path fill="none" d="m91.91 151.3v-.39"/></g></g></svg>