<svg xmlns="http://www.w3.org/2000/svg" xml:space="preserve" width="756.64398" height="900.76801" x="0px" y="0px" viewBox="0 0 756.64398 900.76801"><switch transform="translate(-121.678 -49.616)"><g><path fill="#e30613" fill-rule="evenodd" d="M878.322 49.616v800.216c0 34.685-28.417 63.063-63.151 63.063H550.572c-11.808 0-22.748 3.952-31.585 10.62a53.984 53.984 0 0 0-18.986 26.869c-6.779-21.559-26.745-37.325-50.203-37.483v-.006H184.832c-34.734 0-63.154-28.378-63.154-63.063V49.616Z" clip-rule="evenodd"/><path fill="#1d1d1b" stroke="#1d1d1b" stroke-miterlimit="22.9256" stroke-width="0.3161" d="M778.508 657.702c-1.073 18.056-1.552 36.123-3.228 54.16-1.448 14.729-3.021 29.62-7.873 43.69-1.231 3.22-2.578 6.236-4.209 9.293l-5.865 8.24a58.802 58.802 0 0 1-5.689 5.191 57.308 57.308 0 0 1-6.821 4.041c-2.608 1.104-5.104 1.954-7.848 2.716l-35.561 5.519 25.892-20.436a36.105 36.105 0 0 0 4.403-4.98l2.342-4.158c2.642-6.183 4.028-12.395 4.867-19.031-1.886 2.566-4.04 4.698-6.36 6.904l-3.274 2.497-3.657 2.156-4.053 1.707-4.395 1.147-4.695.494-23.145-1.063 16.412-15.88a34.374 34.374 0 0 0 2.959-4.694c4.24-9.648 4.532-20.6 4.915-30.955.245-9.501.284-19.006.426-28.487l-2.681-.623-3.413-1.211-3.16-1.618-2.861-1.988-2.522-2.319-2.181-2.567-1.853-2.759-2.865-5.936c-2.013-5.747-3.331-11.444-4.229-17.479l-3.828-.791-2.973-.949-2.796-1.267-2.579-1.563-2.331-1.84-2.047-2.067-3.289-4.609a57.583 57.583 0 0 1-3.294-7.616c-1.429-4.827-2.366-9.585-3.206-14.551l-.003-.643-6.439-1.251-4.464-1.929-3.803-2.814a31.044 31.044 0 0 1-4.07-5.262 45.797 45.797 0 0 1-2.446-5.653 88.572 88.572 0 0 1-1.889-7.325c-3.83-.701-6.954-2.018-10.294-4.016a39.88 39.88 0 0 1-5.03-4.332c-3.979-4.609-7.021-9.877-10.313-14.995l-.007-1.138c-3.037-.643-5.618-1.533-8.435-2.868a36.93 36.93 0 0 1-5.557-4.026 51.943 51.943 0 0 1-4.109-4.709c-2-2.804-3.792-5.722-5.662-8.635.056 14.892 2.184 37.919-2.227 52.593 10.26 11.929 35.402 5.559 33.816 14.278 10.241.815 21.716 12.686 18.847 26.598-4.097-10.638-15.16-11.864-19.669-7.774 1.641 2.458-.408 4.501.822 6.138 13.521 4.501 15.979 22.098 4.508 31.509 2.867-6.548-5.33-14.732-13.933-12.686-2.05.405-2.869 2.868-3.689 3.685 5.329 8.186 5.329 24.551-11.063 25.782 4.508-5.321 2.458-12.69-3.688-16.781-9.426.411-13.52-9.001-22.536-22.913-5.5-2.858-8.751-5.47-10.777-7.29l-3.674 4.53c-.434 9.105-.938 18.121-.898 27.212.177 13.551.917 27.29 3.604 40.613.767 3.408 1.59 7.395 3.494 10.392l12.375 11.85-20.023 3.007c-3.947.281-8.015.281-11.811-1.043.983 3.012 2.398 5.767 4.333 8.269l13 13.76-20.64 1.301-3.663-.125-3.514-.499-3.351-.909c-3.145-1.326-6.444-2.85-8.839-5.382-.926 3.022-2.271 5.426-4.066 8.027l-3.744 3.759-4.612 2.794-2.543 1.004-4.447 1.252-4.524-1.227-5.041-2.241-2.265-1.513-2.047-1.761-1.802-1.979-2.806-4.466-1.669-4.516c-1.996 2.097-4.078 3.452-6.573 4.931l-3.157 1.321-3.371.909-3.531.494-3.688.125-20.653-1.286 13.876-14.932c1.402-2.195 2.589-4.501 3.39-6.963-3.446 1.256-7.732 1.152-11.354.895l-19.475-2.933 11.67-11.795c1.877-3.082 2.688-7.054 3.467-10.521 2.834-14.175 3.66-28.783 3.769-43.2-.01-8.225-.472-16.439-.841-24.674l-5.01-5.579c-2.725 2.171-6.521 4.906-11.395 7.438-9.014 13.911-13.111 23.324-22.128 22.913-6.555 4.095-8.605 11.46-3.689 16.78-16.39-1.226-16.798-17.597-11.472-25.782-.82-.815-1.229-3.273-3.275-3.684-9.017-2.048-16.802 6.138-14.346 12.686-11.063-9.412-9.014-27.008 4.919-31.509.817-1.637-.819-3.68.41-6.138-4.509-4.09-15.572-2.864-19.669 7.774-2.869-13.912 8.605-25.782 18.849-26.598-1.41-7.745 21.441-6.296 34.325-14.575-4.78-15.367-2.723-38.171-3.675-54.536-3.306 5.118-6.343 10.381-10.329 15.01a39.62 39.62 0 0 1-5.035 4.332l-4.216 2.256c-2.085.767-4.046 1.384-6.239 1.795l-.008 1.173c-3.301 5.113-6.335 10.365-10.316 14.995l-3.185 2.987c-3.823 2.784-7.461 4.485-12.14 5.366-.398 1.825-.831 3.62-1.313 5.415-1.303 4.278-2.789 7.597-5.526 11.163l-3.363 3.159-4.174 2.39-4.706 1.468-4.028.659-.601 4.139c-.888 4.709-1.937 9.12-3.536 13.641-1.14 2.66-2.319 4.936-3.886 7.379l-1.77 2.235-2.053 2.067-2.325 1.84-2.586 1.563-2.789 1.267-2.973.944-3.831.796a109.813 109.813 0 0 1-3.133 14.353c-1.138 3.235-2.342 6.034-3.969 9.062l-1.847 2.759-2.18 2.563-2.52 2.319-2.866 1.993-3.157 1.618-3.413 1.211-2.685.594c.133 8.145.173 16.306.321 24.461.281 10.455.489 21.044 3.481 31.148 1.169 3.229 2.429 5.791 4.5 8.551l16.452 15.881-23.185 1.068-4.691-.494-4.402-1.147-4.045-1.707-3.659-2.156-3.275-2.497c-2.313-2.196-4.469-4.333-6.362-6.904.846 6.637 2.226 12.858 4.866 19.031l2.345 4.154c1.38 1.869 2.713 3.393 4.401 4.984l25.923 20.436-35.589-5.519c-2.737-.758-5.225-1.604-7.849-2.716a56.275 56.275 0 0 1-6.82-4.041 57.786 57.786 0 0 1-5.695-5.197 66.102 66.102 0 0 1-4.569-6.058c-2.69-4.521-4.645-8.963-6.346-13.918-1.593-5.153-2.779-10.272-3.766-15.569-2.973-17.582-4.219-35.431-5.219-53.211-.444-8.096-.853-16.197-1.424-24.272l-14.174 7.853c4.166-12.424 8.693-24.684 11.721-37.438a187.51 187.51 0 0 0 3.029-16.722c2.495-19.525 1.934-39.249 1.561-58.903-.885-38.448-2.604-76.871-.883-115.334.487-8.368 1.125-16.687 2.072-25.035-.43-16.207-1.354-32.454-.767-48.681.339-6.18.918-12.261 1.756-18.403 1.278-8.115 2.997-15.942 5.193-23.867a254.102 254.102 0 0 1 5.806-17.019 288.808 288.808 0 0 1 8.029-17.931 336.082 336.082 0 0 1 10.532-18.888c4.567-7.293 9.28-14.516 14.451-21.402 5.412-6.746 11.593-12.434 18.356-17.815a172.344 172.344 0 0 1 13.959-9.535 174.885 174.885 0 0 1 17.05-8.689 186.057 186.057 0 0 1 15.792-5.663 185.644 185.644 0 0 1 17.616-3.937c5.45-.757 10.787-1.246 16.267-1.634l6.351 2.897 4.182 2.408 3.628 2.69 3.073 3.022 2.453 3.368 1.771 3.643 1.046 3.786.374 3.78-.198 3.665-.626 3.496-2.134 6.583c-3.478 8.052-7.978 15.539-11.554 23.529l-1.886 5.21c-.589 2.389-.935 4.437-1.044 6.88l.588 4.027 1.857 4.07 1.59 2.188 2.167 2.321 2.487 2.1c2.142.615 4.348.972 6.514 1.427 1.82.445 4.351.999 5.893 2.001l1.835-1.966 2.794-2.077 3.163-1.83 14.646-7.229.695 13.037c1.669 1.286 3.538 1.711 5.613 1.519 9.555-5.069 18.467-10.785 26.796-17.691a125.28 125.28 0 0 0 8.329-7.982c3.861-4.339 7.128-8.697 10.153-13.657a111.619 111.619 0 0 0 3.939-7.752c2.703-6.541 4.56-12.961 5.688-19.964l-2.391-.084-1.886-3.77-9.374 8.383-5.851-10.34-1.494-4.435-.405-4.684.742-4.808 1.976-4.669 1.48-2.193 1.798-2.029 2.1-1.83 2.379-1.583 2.637-1.325 2.855-1.039 3.628-.89h9.362l.517-3.402 1.607-3.084 2.506-2.384 2.822-1.438 2.766-.714 2.919-.289c11.866.699 23.597 2.389 35.421 3.354 11.161.755 20.296-1.206 31.323-3.061-3.979 9.098-14.355 18.153-22.58 24.193 2.691 5.233 3.986 11.029 5.285 16.71 2.171 9.976 4.29 19.823 7.376 29.556l1.898 5.428c2.553 6.6 5.431 12.698 9.092 18.749 1.837 2.742 3.69 5.253 5.795 7.768l4.076 4.046c4.483 3.607 9.938 6.997 15.908 6.783 1.635-.356 1.642-.681 2.234-2.288l2.721-11.6c6.525 3.15 14.165 5.909 19.158 11.444 2.324-1.323 5.21-1.796 7.761-2.599 1.809-.923 3.589-3.104 4.974-4.591l1.589-2.186 1.854-4.048.585-3.999-.439-4.404c-2.206-8.88-7.043-16.682-11.202-24.768-10.768-22.248-5.137-35.261 17.091-45.384 5.486.388 10.824.877 16.253 1.634a184.804 184.804 0 0 1 17.619 3.937 184.311 184.311 0 0 1 15.791 5.663 186.786 186.786 0 0 1 13.883 6.851l6.214 3.714c10.968 7.131 21.06 15.242 29.265 25.468 4.038 5.354 7.74 10.94 11.399 16.533 4.886 7.787 9.386 15.611 13.594 23.765a325.096 325.096 0 0 1 6.236 13.536c3.43 8.425 6.322 16.781 8.737 25.532a235.352 235.352 0 0 1 3.441 15.905 214.49 214.49 0 0 1 2.493 25.765c.292 14.959-.458 29.944-.831 44.886 3.693 32.418 3.1 65.163 2.339 97.717-2.49 60.114-4.788 107.272 16.121 156.047z"/><path fill="none" stroke="#1d1d1b" stroke-miterlimit="22.9256" stroke-width="0.3161" d="M585.081 566.117c0 .074.003.148.003.217 0 46.124-38.406 83.741-85.494 83.741-47.094 0-85.499-37.617-85.499-83.741l.002-.217-.21-38.205 170.632.202z"/><path fill="#009640" fill-rule="evenodd" d="M585.081 566.117c0 .074.003.148.003.217 0 46.124-38.406 83.741-85.494 83.741-47.094 0-85.499-37.617-85.499-83.741l.002-.217-.21-38.205 170.632.202z" clip-rule="evenodd"/><path fill="none" stroke="#1d1d1b" stroke-miterlimit="22.9256" stroke-width="0.3161" d="M490.937 655.713h18.849c.818 12.691 2.869 55.655 3.687 68.34 1.229 13.502-2.048 22.504-12.703 24.962-11.061-2.458-14.339-11.46-13.11-24.962.817-12.685 2.456-55.649 3.277-68.34z"/><path fill="#fd0" fill-rule="evenodd" d="M490.937 655.713h18.849c.818 12.691 2.869 55.655 3.687 68.34 1.229 13.502-2.048 22.504-12.703 24.962-11.061-2.458-14.339-11.46-13.11-24.962.817-12.685 2.456-55.649 3.277-68.34z" clip-rule="evenodd"/><path fill="none" stroke="#1d1d1b" stroke-miterlimit="22.9256" stroke-width="0.3161" d="M503.229 345.946c8.605-8.593 11.883-12.686 14.75-22.098-1.229-33.554-11.063-45.014-14.75-51.151-3.278 6.138-13.933 17.598-14.753 51.151 2.87 9.413 6.148 13.506 14.753 22.098z"/><path fill="#fd0" fill-rule="evenodd" d="M503.229 345.946c8.605-8.593 11.883-12.686 14.75-22.098-1.229-33.554-11.063-45.014-14.75-51.151-3.278 6.138-13.933 17.598-14.753 51.151 2.87 9.413 6.148 13.506 14.753 22.098z" clip-rule="evenodd"/><path fill="none" stroke="#1d1d1b" stroke-miterlimit="22.9256" stroke-width="0.3161" d="M547.484 644.665c-1.23 23.323 1.229 65.065 9.834 72.02-9.425 1.642-15.161 0-18.848-5.728-3.28-6.138-4.101-42.553-4.508-60.561 4.098-2.046 9.017-3.683 13.522-5.731z"/><path fill="#fd0" fill-rule="evenodd" d="M547.484 644.665c-1.23 23.323 1.229 65.065 9.834 72.02-9.425 1.642-15.161 0-18.848-5.728-3.28-6.138-4.101-42.553-4.508-60.561 4.098-2.046 9.017-3.683 13.522-5.731z" clip-rule="evenodd"/><path fill="none" stroke="#1d1d1b" stroke-miterlimit="22.9256" stroke-width="0.3161" d="M530.683 651.213c0 20.871-4.505 72.43 11.886 87.984-34.423 3.68-22.538-43.789-27.456-84.3 4.917-.815 10.655-2.458 15.57-3.684z"/><path fill="#fd0" fill-rule="evenodd" d="M530.683 651.213c0 20.871-4.505 72.43 11.886 87.984-34.423 3.68-22.538-43.789-27.456-84.3 4.917-.815 10.655-2.458 15.57-3.684z" clip-rule="evenodd"/><path fill="none" stroke="#1d1d1b" stroke-miterlimit="22.9256" stroke-width="0.3161" d="M452.828 644.665c1.229 23.323-1.64 65.065-9.837 72.02 9.427 1.642 15.164 0 18.442-5.728 3.276-6.138 4.097-42.553 4.916-60.561-4.508-2.046-9.013-3.683-13.521-5.731z"/><path fill="#fd0" fill-rule="evenodd" d="M452.828 644.665c1.229 23.323-1.64 65.065-9.837 72.02 9.427 1.642 15.164 0 18.442-5.728 3.276-6.138 4.097-42.553 4.916-60.561-4.508-2.046-9.013-3.683-13.521-5.731z" clip-rule="evenodd"/><path fill="none" stroke="#1d1d1b" stroke-miterlimit="22.9256" stroke-width="0.3161" d="M469.628 651.213c-.409 20.871 4.098 72.43-12.292 87.984 34.83 3.68 22.535-43.789 27.864-84.3-4.918-.815-10.656-2.458-15.572-3.684z"/><path fill="#fd0" fill-rule="evenodd" d="M469.628 651.213c-.409 20.871 4.098 72.43-12.292 87.984 34.83 3.68 22.535-43.789 27.864-84.3-4.918-.815-10.656-2.458-15.572-3.684z" clip-rule="evenodd"/><path fill="none" stroke="#1d1d1b" stroke-miterlimit="22.9256" stroke-width="0.3161" d="M614.278 519.859c-6.966-5.321-12.295-9.822-19.258-14.322.407 6.959.407 16.365.407 23.324 6.147 9.411 9.016 16.365 20.079 18.007-.408-9.822-.819-17.191-1.228-27.009z"/><path fill="#fd0" fill-rule="evenodd" d="M614.278 519.859c-6.966-5.321-12.295-9.822-19.258-14.322.407 6.959.407 16.365.407 23.324 6.147 9.411 9.016 16.365 20.079 18.007-.408-9.822-.819-17.191-1.228-27.009z" clip-rule="evenodd"/><path fill="none" stroke="#1d1d1b" stroke-miterlimit="22.9256" stroke-width="0.3161" d="M641.323 543.595c-7.376-2.869-14.753-10.229-20.9-15.55 0 6.548.822 18.413.822 25.371 6.147 9.407 9.015 16.365 20.078 18.003-.409-9.822.409-18.003 0-27.824z"/><path fill="#fd0" fill-rule="evenodd" d="M641.323 543.595c-7.376-2.869-14.753-10.229-20.9-15.55 0 6.548.822 18.413.822 25.371 6.147 9.407 9.015 16.365 20.078 18.003-.409-9.822.409-18.003 0-27.824z" clip-rule="evenodd"/><path fill="none" stroke="#1d1d1b" stroke-miterlimit="22.9256" stroke-width="0.3161" d="M399.101 599.12c-2.229 5.56-10.879 29.738-20.898 14.733-8.755-13.116 14.809-14.54 20.898-14.733z"/><path fill="#fd0" fill-rule="evenodd" d="M399.101 599.12c-2.229 5.56-10.879 29.738-20.898 14.733-8.755-13.116 14.809-14.54 20.898-14.733z" clip-rule="evenodd"/><path fill="none" stroke="#1d1d1b" stroke-miterlimit="22.9256" stroke-width="0.3161" d="M403.608 621.628c-1.904 8.358-9.758 19.99-15.96 13.704-6.199-6.286.047-12.172 15.96-13.704z"/><path fill="#fd0" fill-rule="evenodd" d="M403.608 621.628c-1.904 8.358-9.758 19.99-15.96 13.704-6.199-6.286.047-12.172 15.96-13.704z" clip-rule="evenodd"/><path fill="none" stroke="#1d1d1b" stroke-miterlimit="22.9256" stroke-width="0.3161" d="M420.819 632.677c-4.926 16.044-20.337 25.737-23.379 12.774-2.024-8.639 12.879-11.538 23.379-12.774z"/><path fill="#fd0" fill-rule="evenodd" d="M420.819 632.677c-4.926 16.044-20.337 25.737-23.379 12.774-2.024-8.639 12.879-11.538 23.379-12.774z" clip-rule="evenodd"/><path fill="none" stroke="#1d1d1b" stroke-miterlimit="22.9256" stroke-width="0.3161" d="M423.325 610.713c-3.866 0-15.18 9.185-13.389 14.654 2.317 7.067 22.418-1.257 23.444-1.147-1.492-9.2-8.145-11.752-10.055-13.507z"/><path fill="#fd0" fill-rule="evenodd" d="M423.325 610.713c-3.866 0-15.18 9.185-13.389 14.654 2.317 7.067 22.418-1.257 23.444-1.147-1.492-9.2-8.145-11.752-10.055-13.507z" clip-rule="evenodd"/><path fill="none" stroke="#1d1d1b" stroke-miterlimit="22.9256" stroke-width="0.3161" d="M414.261 593.799c2.308 3.892 4.748 5.355 4.748 12.764-9.354 5.382-15.825 6.089-17.881 2.603-2.361-4.002 1.175-11.416 13.133-15.367z"/><path fill="#fd0" fill-rule="evenodd" d="M414.261 593.799c2.308 3.892 4.748 5.355 4.748 12.764-9.354 5.382-15.825 6.089-17.881 2.603-2.361-4.002 1.175-11.416 13.133-15.367z" clip-rule="evenodd"/><path fill="none" stroke="#1d1d1b" stroke-miterlimit="22.9256" stroke-width="0.3161" d="M362.22 617.943c4.099-4.501 5.737-4.911 9.425-5.317 1.229-.415-2.048-3.684-2.868-5.32-4.507 3.273-6.557 5.32-6.557 10.637z"/><path fill="#fff" fill-rule="evenodd" d="M362.22 617.943c4.099-4.501 5.737-4.911 9.425-5.317 1.229-.415-2.048-3.684-2.868-5.32-4.507 3.273-6.557 5.32-6.557 10.637z" clip-rule="evenodd"/><path fill="none" stroke="#1d1d1b" stroke-miterlimit="22.9256" stroke-width="0.3161" d="M370.007 646.589c2.866-5.322 6.556-5.732 9.834-7.364 1.23-.416-4.1-5.732-5.328-6.959-3.688 4.09-5.737 9.412-4.506 14.323z"/><path fill="#fff" fill-rule="evenodd" d="M370.007 646.589c2.866-5.322 6.556-5.732 9.834-7.364 1.23-.416-4.1-5.732-5.328-6.959-3.688 4.09-5.737 9.412-4.506 14.323z" clip-rule="evenodd"/><path fill="none" stroke="#1d1d1b" stroke-miterlimit="22.9256" stroke-width="0.3161" d="M394.593 667.865c0-6.138 1.229-7.364 3.689-10.233.818-.815-4.509-3.679-6.147-4.5-1.641 5.731-.822 10.643 2.458 14.733z"/><path fill="#fff" fill-rule="evenodd" d="M394.593 667.865c0-6.138 1.229-7.364 3.689-10.233.818-.815-4.509-3.679-6.147-4.5-1.641 5.731-.822 10.643 2.458 14.733z" clip-rule="evenodd"/><path fill="none" stroke="#1d1d1b" stroke-miterlimit="22.9256" stroke-width="0.3161" d="M599.293 600.069c1.708 4.258 10.977 26.276 20.897 14.733 8.831-13.224-14.696-14.535-20.897-14.733z"/><path fill="#fd0" fill-rule="evenodd" d="M599.293 600.069c1.708 4.258 10.977 26.276 20.897 14.733 8.831-13.224-14.696-14.535-20.897-14.733z" clip-rule="evenodd"/><path fill="none" stroke="#1d1d1b" stroke-miterlimit="22.9256" stroke-width="0.3161" d="M594.788 622.577c7.478 32.859 29.332 2.553 12.702 1.227z"/><path fill="#fd0" fill-rule="evenodd" d="M594.788 622.577c7.478 32.859 29.332 2.553 12.702 1.227z" clip-rule="evenodd"/><path fill="none" stroke="#1d1d1b" stroke-miterlimit="22.9256" stroke-width="0.3161" d="M577.986 633.621c3.475 10.247 11.822 25.92 20.896 15.96 10.411-11.425-17.068-15.466-20.896-15.96z"/><path fill="#fd0" fill-rule="evenodd" d="M577.986 633.621c3.475 10.247 11.822 25.92 20.896 15.96 10.411-11.425-17.068-15.466-20.896-15.96z" clip-rule="evenodd"/><path fill="none" stroke="#1d1d1b" stroke-miterlimit="22.9256" stroke-width="0.3161" d="M575.146 612.774c34.666 11.257 8.086 22.493-7.816 14.709 0-9.001 6.31-13.205 7.816-14.709z"/><path fill="#fd0" fill-rule="evenodd" d="M575.146 612.774c34.666 11.257 8.086 22.493-7.816 14.709 0-9.001 6.31-13.205 7.816-14.709z" clip-rule="evenodd"/><path fill="none" stroke="#1d1d1b" stroke-miterlimit="22.9256" stroke-width="0.3161" d="M584.132 594.748c-1.195 2.26-4.505 5.652-4.505 12.686 26.549 19.886 19.084-10.605 4.505-12.686z"/><path fill="#fd0" fill-rule="evenodd" d="M584.132 594.748c-1.195 2.26-4.505 5.652-4.505 12.686 26.549 19.886 19.084-10.605 4.505-12.686z" clip-rule="evenodd"/><path fill="none" stroke="#1d1d1b" stroke-miterlimit="22.9256" stroke-width="0.3161" d="M636.583 618.893c-4.098-4.506-6.146-4.911-9.834-5.321-1.229-.411 2.05-3.685 2.869-5.316 4.505 3.272 6.555 5.315 6.965 10.637z"/><path fill="#fff" fill-rule="evenodd" d="M636.583 618.893c-4.098-4.506-6.146-4.911-9.834-5.321-1.229-.411 2.05-3.685 2.869-5.316 4.505 3.272 6.555 5.315 6.965 10.637z" clip-rule="evenodd"/><path fill="none" stroke="#1d1d1b" stroke-miterlimit="22.9256" stroke-width="0.3161" d="M628.388 647.533c-2.459-5.316-6.147-5.727-9.836-7.364-.819-.411 4.1-5.728 5.328-6.959 3.687 4.096 5.738 9.417 4.508 14.323z"/><path fill="#fff" fill-rule="evenodd" d="M628.388 647.533c-2.459-5.316-6.147-5.727-9.836-7.364-.819-.411 4.1-5.728 5.328-6.959 3.687 4.096 5.738 9.417 4.508 14.323z" clip-rule="evenodd"/><path fill="none" stroke="#1d1d1b" stroke-miterlimit="22.9256" stroke-width="0.3161" d="M603.802 668.814c0-6.137-1.23-7.364-3.688-10.232-.82-.816 4.509-3.68 6.146-4.5 1.638 5.727.82 10.643-2.458 14.732z"/><path fill="#fff" fill-rule="evenodd" d="M603.802 668.814c0-6.137-1.23-7.364-3.688-10.232-.82-.816 4.509-3.68 6.146-4.5 1.638 5.727.82 10.643-2.458 14.732z" clip-rule="evenodd"/><path fill="none" stroke="#1d1d1b" stroke-miterlimit="22.9256" stroke-width="0.3161" d="M661.4 563.644c-4.916-2.452-9.014-5.32-14.339-9.411 0 6.548-.411 16.365-.411 22.914 2.047 9.821 4.505 16.775 14.75 18.007v-31.51z"/><path fill="#fd0" fill-rule="evenodd" d="M661.4 563.644c-4.916-2.452-9.014-5.32-14.339-9.411 0 6.548-.411 16.365-.411 22.914 2.047 9.821 4.505 16.775 14.75 18.007v-31.51z" clip-rule="evenodd"/><path fill="none" stroke="#1d1d1b" stroke-miterlimit="22.9256" stroke-width="0.3161" d="M688.857 583.694c-7.377-2.864-12.293-5.728-19.261-11.865 0 10.639.409 21.276.409 31.51 2.458 15.138 5.738 25.776 18.852 27.824 0-15.143.409-32.735 0-47.469z"/><path fill="#fd0" fill-rule="evenodd" d="M688.857 583.694c-7.377-2.864-12.293-5.728-19.261-11.865 0 10.639.409 21.276.409 31.51 2.458 15.138 5.738 25.776 18.852 27.824 0-15.143.409-32.735 0-47.469z" clip-rule="evenodd"/><path fill="none" stroke="#1d1d1b" stroke-miterlimit="22.9256" stroke-width="0.3161" d="M716.311 606.202c-8.194-3.685-13.931-7.364-21.716-15.55.407 13.913.407 27.414.818 41.331 2.46 19.229 5.736 33.553 20.897 36.005l.001-61.786z"/><path fill="#fd0" fill-rule="evenodd" d="M716.311 606.202c-8.194-3.685-13.931-7.364-21.716-15.55.407 13.913.407 27.414.818 41.331 2.46 19.229 5.736 33.553 20.897 36.005l.001-61.786z" clip-rule="evenodd"/><path fill="none" stroke="#1d1d1b" stroke-miterlimit="22.9256" stroke-width="0.3161" d="M725.327 613.156c-7.785 81.024 3.687 117.445-16.802 135.447 20.488 2.454 30.733-20.455 31.963-29.872 3.687-24.145 2.458-64.649 4.097-89.205-5.326-4.501-11.064-9.006-19.258-16.37z"/><path fill="#fd0" fill-rule="evenodd" d="M725.327 613.156c-7.785 81.024 3.687 117.445-16.802 135.447 20.488 2.454 30.733-20.455 31.963-29.872 3.687-24.145 2.458-64.649 4.097-89.205-5.326-4.501-11.064-9.006-19.258-16.37z" clip-rule="evenodd"/><path fill="none" stroke="#1d1d1b" stroke-miterlimit="22.9256" stroke-width="0.3161" d="M752.37 633.616c-7.785 77.752 4.098 125.631-22.127 144.454 27.045-3.273 32.783-28.24 36.062-58.111 2.866-24.141 2.866-43.78 4.509-68.336-4.92-2.458-11.475-9.001-18.444-18.007z"/><path fill="#fd0" fill-rule="evenodd" d="M752.37 633.616c-7.785 77.752 4.098 125.631-22.127 144.454 27.045-3.273 32.783-28.24 36.062-58.111 2.866-24.141 2.866-43.78 4.509-68.336-4.92-2.458-11.475-9.001-18.444-18.007z" clip-rule="evenodd"/><path fill="none" stroke="#1d1d1b" stroke-miterlimit="22.9256" stroke-width="0.3161" d="M381.117 519.859c6.967-5.321 12.293-9.822 19.259-14.322-.41 6.959-.41 16.365-.41 23.324-6.147 9.411-9.014 16.365-20.08 18.007.411-9.822.821-17.191 1.231-27.009z"/><path fill="#fd0" fill-rule="evenodd" d="M381.117 519.859c6.967-5.321 12.293-9.822 19.259-14.322-.41 6.959-.41 16.365-.41 23.324-6.147 9.411-9.014 16.365-20.08 18.007.411-9.822.821-17.191 1.231-27.009z" clip-rule="evenodd"/><path fill="none" stroke="#1d1d1b" stroke-miterlimit="22.9256" stroke-width="0.3161" d="M354.071 543.595c7.375-2.869 14.754-10.229 20.898-15.55 0 6.548-.818 18.413-.818 25.371-6.147 9.407-9.016 16.365-20.08 18.003.411-9.822-.41-18.003 0-27.824z"/><path fill="#fd0" fill-rule="evenodd" d="M354.071 543.595c7.375-2.869 14.754-10.229 20.898-15.55 0 6.548-.818 18.413-.818 25.371-6.147 9.407-9.016 16.365-20.08 18.003.411-9.822-.41-18.003 0-27.824z" clip-rule="evenodd"/><path fill="none" stroke="#1d1d1b" stroke-miterlimit="22.9256" stroke-width="0.3161" d="M333.992 563.644c4.916-2.452 9.016-5.32 14.342-9.411 0 6.548.411 16.365.411 22.914-2.05 9.821-4.508 16.775-14.753 18.007v-31.51z"/><path fill="#fd0" fill-rule="evenodd" d="M333.992 563.644c4.916-2.452 9.016-5.32 14.342-9.411 0 6.548.411 16.365.411 22.914-2.05 9.821-4.508 16.775-14.753 18.007v-31.51z" clip-rule="evenodd"/><path fill="none" stroke="#1d1d1b" stroke-miterlimit="22.9256" stroke-width="0.3161" d="M306.536 583.694c7.376-2.864 12.295-5.728 19.261-11.865 0 10.639-.41 21.276-.41 31.51-2.458 15.138-5.737 25.776-18.851 27.824 0-15.143-.407-32.735 0-47.469z"/><path fill="#fd0" fill-rule="evenodd" d="M306.536 583.694c7.376-2.864 12.295-5.728 19.261-11.865 0 10.639-.41 21.276-.41 31.51-2.458 15.138-5.737 25.776-18.851 27.824 0-15.143-.407-32.735 0-47.469z" clip-rule="evenodd"/><path fill="none" stroke="#1d1d1b" stroke-miterlimit="22.9256" stroke-width="0.3161" d="M279.082 606.202c8.198-3.685 13.933-7.364 21.72-15.55-.41 13.913-.41 27.414-.82 41.331-2.458 19.229-5.737 33.553-20.899 36.005-.001-19.638-.411-42.552-.001-61.786z"/><path fill="#fd0" fill-rule="evenodd" d="M279.082 606.202c8.198-3.685 13.933-7.364 21.72-15.55-.41 13.913-.41 27.414-.82 41.331-2.458 19.229-5.737 33.553-20.899 36.005-.001-19.638-.411-42.552-.001-61.786z" clip-rule="evenodd"/><path fill="none" stroke="#1d1d1b" stroke-miterlimit="22.9256" stroke-width="0.3161" d="M270.068 613.156c7.785 81.024-3.689 117.445 16.802 135.447-20.491 2.454-30.735-20.455-31.965-29.872-3.687-24.145-2.458-64.649-4.095-89.205 5.325-4.501 11.061-9.006 19.258-16.37z"/><path fill="#fd0" fill-rule="evenodd" d="M270.068 613.156c7.785 81.024-3.689 117.445 16.802 135.447-20.491 2.454-30.735-20.455-31.965-29.872-3.687-24.145-2.458-64.649-4.095-89.205 5.325-4.501 11.061-9.006 19.258-16.37z" clip-rule="evenodd"/><path fill="none" stroke="#1d1d1b" stroke-miterlimit="22.9256" stroke-width="0.3161" d="M243.023 633.616c7.787 77.752-4.098 125.631 22.127 144.454-27.046-3.273-32.78-28.24-36.06-58.111-2.868-24.141-2.868-43.78-4.918-68.336 5.327-2.458 11.886-9.001 18.851-18.007z"/><path fill="#fd0" fill-rule="evenodd" d="M243.023 633.616c7.787 77.752-4.098 125.631 22.127 144.454-27.046-3.273-32.78-28.24-36.06-58.111-2.868-24.141-2.868-43.78-4.918-68.336 5.327-2.458 11.886-9.001 18.851-18.007z" clip-rule="evenodd"/><path fill="none" stroke="#1d1d1b" stroke-miterlimit="22.9256" stroke-width="0.3161" d="M599.083 293.168c-1.158 6.375-4.4 10.668-12.232 10.381-16.31-1.528-29.371-15.786-38.363-36.791-13.474-31.472-10.771-59.573-22.779-62.123 12.371-5.979 16.418-10.331 13.012-10.866-16.647-.531-28.69-3.036-43.584-3.788-4.921.188-5.817 2.389-4.891 5.494 6.103 2.538 14.213 3.465 23.235 3.663-1.759 6.998-5.642 8.935-11.866 10.302-10.126-1.743-6.43-9.182-10.412-8.515-6.994 2.414-2.367 7.563.877 15.311-6.236 3.946-8.197 7.529-9.171 8.549-4.204 40.117-29.783 62.249-61.176 78.639-8.613 1.643-16.935-3.749-16.131-9.755-10.213 4.785-10.01 6.359-11.45 13.484 9.375 10.318 20.668 17.077 37.925 23.163 24.345-21.279 31.083-37.896 45.471-56.458l10.778 18.316c3.403-8.944 7.79-17.819 15.428-26.167 6.317 8.748 10.963 17.495 14.846 26.239 1.926-6.202 4.591-12.406 8.333-18.616 23.442 35.35 36.4 49.462 47.094 55.706 10.927-3.704 22.859-9.073 32.322-17.238 7.63-6.585 1.919-14.895-7.266-18.93z"/><path fill="#fd0" fill-rule="evenodd" d="M599.083 293.168c-1.158 6.375-4.4 10.668-12.232 10.381-16.31-1.528-29.371-15.786-38.363-36.791-13.474-31.472-10.771-59.573-22.779-62.123 12.371-5.979 16.418-10.331 13.012-10.866-16.647-.531-28.69-3.036-43.584-3.788-4.921.188-5.817 2.389-4.891 5.494 6.103 2.538 14.213 3.465 23.235 3.663-1.759 6.998-5.642 8.935-11.866 10.302-10.126-1.743-6.43-9.182-10.412-8.515-6.994 2.414-2.367 7.563.877 15.311-6.236 3.946-8.197 7.529-9.171 8.549-4.204 40.117-29.783 62.249-61.176 78.639-8.613 1.643-16.935-3.749-16.131-9.755-10.213 4.785-10.01 6.359-11.45 13.484 9.375 10.318 20.668 17.077 37.925 23.163 24.345-21.279 31.083-37.896 45.471-56.458l10.778 18.316c3.403-8.944 7.79-17.819 15.428-26.167 6.317 8.748 10.963 17.495 14.846 26.239 1.926-6.202 4.591-12.406 8.333-18.616 23.442 35.35 36.4 49.462 47.094 55.706 10.927-3.704 22.859-9.073 32.322-17.238 7.63-6.585 1.919-14.895-7.266-18.93z" clip-rule="evenodd"/><path fill="none" stroke="#1d1d1b" stroke-miterlimit="22.9256" stroke-width="0.3161" d="M480.694 214.412c.878 0 1.976.438 2.854.438l.217.439.438.218v.44h.221c.219.217 0 1.971 0 2.408-.221 0-.438.221-.438.438h-.438c0 .22-.441.439-.879.439 0 .218-.66.438-.878.438l-.22.438h-.657v.221h-.66v.218c-.438.22-2.632 0-3.29 0v-.438h-.219c-.441-.657 0-3.724 0-4.602.219 0 .439-.218.439-.438 1.097-.657 2.852-.657 3.51-.657zm24.355-11.391c-1.315 8.105 1.974-2.191-.219 1.313h-.221c0 .22-.221 1.098-.221 1.315l.221.221c1.098 0 1.536 0 2.634-.438 0-.22.221-.439.44-.439l.218-.218c.219-.221 1.098-1.536 1.755-1.536 0-.438.221 0 .221-.438h-3.512zm-131.474 94.336c-40.332-31.557 36.996-68.604-10.959-88.167-49.725 2.638-82.487 31.991-92.153 45.319-38.564 53.169-44.305 94.109-43.189 128.111 24.696-62.366 47.88-84.49 78.943-90.615-24.763 29.746-45.93 62.811-47.721 118.816 16.417-41.779 32.922-65.197 61.772-81.838-18.77 33.56-29.633 62.136-26.421 81.838 8.828-21.456 22.36-40.101 42.751-54.613-10.92 21.12-15.477 41.665-13.672 61.63 9.112-18.556 19.626-31.949 32.201-37.789-5.117 13.146-8.063 28.096-6.239 47.028 6.664-13.873 11.741-26.157 27.806-31.213-4.857 6.315-8.146 18.161-9.625 30.026l.835 102.015c7.123-2.889 17.504-13.097 18.992-28.171 2.837-28.734 0-57.746-.215-86.614 2.604-8.749 13.081-20.97 22.708-23.66-4.382-18.813-4.701-34.457 3.653-59.04-10.951-4.886-20.135-13.267-26.447-23.927 7.018-7.383-8.667-6.095-13.02-9.136z"/><path fill="#fd0" fill-rule="evenodd" d="M373.575 297.357c-40.332-31.557 36.996-68.604-10.959-88.167-49.725 2.638-82.487 31.991-92.153 45.319-38.564 53.169-44.305 94.109-43.189 128.111 24.696-62.366 47.88-84.49 78.943-90.615-24.763 29.746-45.93 62.811-47.721 118.816 16.417-41.779 32.922-65.197 61.772-81.838-18.77 33.56-29.633 62.136-26.421 81.838 8.828-21.456 22.36-40.101 42.751-54.613-10.92 21.12-15.477 41.665-13.672 61.63 9.112-18.556 19.626-31.949 32.201-37.789-5.117 13.146-8.063 28.096-6.239 47.028 6.664-13.873 11.741-26.157 27.806-31.213-4.857 6.315-8.146 18.161-9.625 30.026l.835 102.015c7.123-2.889 17.504-13.097 18.992-28.171 2.837-28.734 0-57.746-.215-86.614 2.604-8.749 13.081-20.97 22.708-23.66-4.382-18.813-4.701-34.457 3.653-59.04-10.951-4.886-20.135-13.267-26.447-23.927 7.018-7.383-8.667-6.095-13.02-9.136z" clip-rule="evenodd"/><path fill="none" stroke="#1d1d1b" stroke-miterlimit="22.9256" stroke-width="0.3161" d="M625.414 296.896c40.33-31.553-36.997-68.144 10.959-87.706 49.726 2.638 82.485 31.991 92.151 45.319 38.564 53.169 44.305 94.109 43.188 128.111-24.694-62.366-47.876-84.49-78.943-90.615 24.765 29.746 45.931 62.811 47.719 118.816-16.413-41.779-32.92-65.197-61.771-81.838 18.77 33.56 29.631 62.136 26.423 81.838-8.827-21.456-22.361-40.101-42.753-54.613 10.922 21.12 15.477 41.665 13.673 61.63-9.111-18.556-19.627-31.949-32.201-37.789 5.119 13.146 8.063 28.096 6.24 47.028-6.666-13.873-11.743-26.157-27.807-31.213 4.856 6.315 8.148 18.161 9.624 30.026l-.835 102.015c-7.12-2.889-17.501-13.097-18.99-28.171-2.836-28.734-.001-57.746.213-86.614-3.065-6.909-8.808-15.623-17.666-21.373 4.38-18.813 4.24-40.403-4.111-64.986 10.949-4.887 20.134-10.063 26.446-20.725-7.017-7.383 4.089-6.095 8.441-9.14z"/><path fill="#fd0" fill-rule="evenodd" d="M625.414 296.896c40.33-31.553-36.997-68.144 10.959-87.706 49.726 2.638 82.485 31.991 92.151 45.319 38.564 53.169 44.305 94.109 43.188 128.111-24.694-62.366-47.876-84.49-78.943-90.615 24.765 29.746 45.931 62.811 47.719 118.816-16.413-41.779-32.92-65.197-61.771-81.838 18.77 33.56 29.631 62.136 26.423 81.838-8.827-21.456-22.361-40.101-42.753-54.613 10.922 21.12 15.477 41.665 13.673 61.63-9.111-18.556-19.627-31.949-32.201-37.789 5.119 13.146 8.063 28.096 6.24 47.028-6.666-13.873-11.743-26.157-27.807-31.213 4.856 6.315 8.148 18.161 9.624 30.026l-.835 102.015c-7.12-2.889-17.501-13.097-18.99-28.171-2.836-28.734-.001-57.746.213-86.614-3.065-6.909-8.808-15.623-17.666-21.373 4.38-18.813 4.24-40.403-4.111-64.986 10.949-4.887 20.134-10.063 26.446-20.725-7.017-7.383 4.089-6.095 8.441-9.14z" clip-rule="evenodd"/><path fill="none" stroke="#1d1d1b" stroke-miterlimit="22.9256" stroke-width="0.3161" d="M586.415 330.805c-4.92 1.638-5.331 2.048-9.428 4.093 11.063 23.734 7.788 51.559-3.277 68.748h11.883c8.605-22.508 10.655-52.792.822-72.841z"/><path fill="#fd0" fill-rule="evenodd" d="M586.415 330.805c-4.92 1.638-5.331 2.048-9.428 4.093 11.063 23.734 7.788 51.559-3.277 68.748h11.883c8.605-22.508 10.655-52.792.822-72.841z" clip-rule="evenodd"/><path fill="none" stroke="#1d1d1b" stroke-miterlimit="22.9256" stroke-width="0.3161" d="M545.438 336.124c1.636-6.546 3.275-11.456 6.144-18.415 37.292 20.46 29.914 68.34 16.393 85.525h-22.947c11.062-24.552 11.471-44.194.41-67.11z"/><path fill="#fd0" fill-rule="evenodd" d="M545.438 336.124c1.636-6.546 3.275-11.456 6.144-18.415 37.292 20.46 29.914 68.34 16.393 85.525h-22.947c11.062-24.552 11.471-44.194.41-67.11z" clip-rule="evenodd"/><path fill="none" stroke="#1d1d1b" stroke-miterlimit="22.9256" stroke-width="0.3161" d="M522.488 323.849c-4.098 9.004-6.967 15.55-15.161 24.553v55.654h31.144c11.883-20.463 12.292-47.062 4.098-65.065-5.328-4.913-13.115-11.05-20.081-15.142z"/><path fill="#fd0" fill-rule="evenodd" d="M522.488 323.849c-4.098 9.004-6.967 15.55-15.161 24.553v55.654h31.144c11.883-20.463 12.292-47.062 4.098-65.065-5.328-4.913-13.115-11.05-20.081-15.142z" clip-rule="evenodd"/><path fill="none" stroke="#1d1d1b" stroke-miterlimit="22.9256" stroke-width="0.3161" d="M541.338 330.805c-7.375-3.274-10.244-5.729-15.57-11.049-2.05-7.774-2.869-17.187-3.279-26.188 2.458-3.685 4.508-6.548 6.558-10.232 11.064 13.915 12.292 20.87 18.027 29.874-.82 6.546-1.636 11.865-5.736 17.595z"/><path fill="#fd0" fill-rule="evenodd" d="M541.338 330.805c-7.375-3.274-10.244-5.729-15.57-11.049-2.05-7.774-2.869-17.187-3.279-26.188 2.458-3.685 4.508-6.548 6.558-10.232 11.064 13.915 12.292 20.87 18.027 29.874-.82 6.546-1.636 11.865-5.736 17.595z" clip-rule="evenodd"/><path fill="none" stroke="#1d1d1b" stroke-miterlimit="22.9256" stroke-width="0.3161" d="M420.046 331.216c4.918 1.227 5.326 2.045 9.423 4.09-11.063 23.326-7.784 51.562 2.869 68.75h-11.475c-8.605-22.918-10.652-52.79-.817-72.84z"/><path fill="#fd0" fill-rule="evenodd" d="M420.046 331.216c4.918 1.227 5.326 2.045 9.423 4.09-11.063 23.326-7.784 51.562 2.869 68.75h-11.475c-8.605-22.918-10.652-52.79-.817-72.84z" clip-rule="evenodd"/><path fill="none" stroke="#1d1d1b" stroke-miterlimit="22.9256" stroke-width="0.3161" d="M461.022 336.534c-1.64-6.548-3.278-11.459-6.146-18.415-37.288 20.46-30.323 67.93-16.391 85.115h22.948c-11.066-24.144-11.474-43.784-.411-66.7z"/><path fill="#fd0" fill-rule="evenodd" d="M461.022 336.534c-1.64-6.548-3.278-11.459-6.146-18.415-37.288 20.46-30.323 67.93-16.391 85.115h22.948c-11.066-24.144-11.474-43.784-.411-66.7z" clip-rule="evenodd"/><path fill="none" stroke="#1d1d1b" stroke-miterlimit="22.9256" stroke-width="0.3161" d="M483.969 323.849c4.1 9.412 6.968 15.96 15.571 24.961v55.246h-31.552c-11.884-20.056-12.292-46.653-4.097-64.657 5.328-5.321 13.114-11.047 20.078-15.55z"/><path fill="#fd0" fill-rule="evenodd" d="M483.969 323.849c4.1 9.412 6.968 15.96 15.571 24.961v55.246h-31.552c-11.884-20.056-12.292-46.653-4.097-64.657 5.328-5.321 13.114-11.047 20.078-15.55z" clip-rule="evenodd"/><path fill="none" stroke="#1d1d1b" stroke-miterlimit="22.9256" stroke-width="0.3161" d="M465.12 330.805c7.377-2.863 10.246-5.319 15.162-10.641 2.458-7.771 3.278-17.184 3.687-26.188-2.458-3.682-4.509-6.548-6.556-10.23-11.063 13.912-12.293 20.871-18.03 29.873.819 6.545 1.639 11.866 5.737 17.186z"/><path fill="#fd0" fill-rule="evenodd" d="M465.12 330.805c7.377-2.863 10.246-5.319 15.162-10.641 2.458-7.771 3.278-17.184 3.687-26.188-2.458-3.682-4.509-6.548-6.556-10.23-11.063 13.912-12.293 20.871-18.03 29.873.819 6.545 1.639 11.866 5.737 17.186z" clip-rule="evenodd"/><path fill="none" stroke="#1d1d1b" stroke-miterlimit="22.9256" stroke-width="0.3161" d="M407.342 397.508c-7.784 4.09-12.703 10.638-14.342 20.05-2.048 9.001 1.229 35.193-.821 55.649-.816 7.369 1.64 22.508-.408 29.466 19.67-4.911 15.571-22.918 15.571-30.282l-.41-47.059c0-6.137-.409-15.144.41-27.824z"/><path fill="#fd0" fill-rule="evenodd" d="M407.342 397.508c-7.784 4.09-12.703 10.638-14.342 20.05-2.048 9.001 1.229 35.193-.821 55.649-.816 7.369 1.64 22.508-.408 29.466 19.67-4.911 15.571-22.918 15.571-30.282l-.41-47.059c0-6.137-.409-15.144.41-27.824z" clip-rule="evenodd"/><path fill="none" stroke="#1d1d1b" stroke-miterlimit="22.9256" stroke-width="0.3161" d="M362.268 415.92c-8.606 9.412-10.245 17.187-12.293 30.688-1.641 13.502-3.689 45.422-5.737 71.204-.82 8.591-2.868 26.188-4.916 34.783 14.34-6.548 21.717-27.009 21.717-36.421l1.229-65.065c-.412-18.003-.412-19.639 0-35.189z"/><path fill="#fd0" fill-rule="evenodd" d="M362.268 415.92c-8.606 9.412-10.245 17.187-12.293 30.688-1.641 13.502-3.689 45.422-5.737 71.204-.82 8.591-2.868 26.188-4.916 34.783 14.34-6.548 21.717-27.009 21.717-36.421l1.229-65.065c-.412-18.003-.412-19.639 0-35.189z" clip-rule="evenodd"/><path fill="none" stroke="#1d1d1b" stroke-miterlimit="22.9256" stroke-width="0.3161" d="M347.106 392.187c-10.246 9.821-13.521 13.912-21.31 38.057-7.376 24.141-7.376 80.204-9.424 114.167-.82 11.46-2.461 18.413-4.508 30.283 14.341-8.596 22.537-19.646 23.356-32.325l7.376-103.124c1.641-24.556-2.045-24.141 4.51-47.058z"/><path fill="#fd0" fill-rule="evenodd" d="M347.106 392.187c-10.246 9.821-13.521 13.912-21.31 38.057-7.376 24.141-7.376 80.204-9.424 114.167-.82 11.46-2.461 18.413-4.508 30.283 14.341-8.596 22.537-19.646 23.356-32.325l7.376-103.124c1.641-24.556-2.045-24.141 4.51-47.058z" clip-rule="evenodd"/><path fill="none" stroke="#1d1d1b" stroke-miterlimit="22.9256" stroke-width="0.3161" d="M322.107 376.226c-12.7 11.867-17.209 22.509-26.635 52.38-9.424 29.462-7.785 93.297-10.243 134.628-.818 14.733.819 24.146-5.326 35.604 20.078-6.959 26.633-18.823 27.864-37.646l6.556-125.221c2.458-30.283 0-31.099 7.784-59.745z"/><path fill="#fd0" fill-rule="evenodd" d="M322.107 376.226c-12.7 11.867-17.209 22.509-26.635 52.38-9.424 29.462-7.785 93.297-10.243 134.628-.818 14.733.819 24.146-5.326 35.604 20.078-6.959 26.633-18.823 27.864-37.646l6.556-125.221c2.458-30.283 0-31.099 7.784-59.745z" clip-rule="evenodd"/><path fill="none" stroke="#1d1d1b" stroke-miterlimit="22.9256" stroke-width="0.3161" d="M303.26 349.22c-16.8 11.047-32.372 38.466-42.617 75.702-10.243 37.236-.818 99.028-3.687 150.177-.821 17.597.817 32.33-5.737 46.242 20.077-8.596 27.453-26.188 28.274-49.101l5.326-152.229c4.916-37.645 6.967-37.237 18.441-70.791z"/><path fill="#fd0" fill-rule="evenodd" d="M303.26 349.22c-16.8 11.047-32.372 38.466-42.617 75.702-10.243 37.236-.818 99.028-3.687 150.177-.821 17.597.817 32.33-5.737 46.242 20.077-8.596 27.453-26.188 28.274-49.101l5.326-152.229c4.916-37.645 6.967-37.237 18.441-70.791z" clip-rule="evenodd"/><path fill="none" stroke="#1d1d1b" stroke-miterlimit="22.9256" stroke-width="0.3161" d="M289.735 304.206c-14.34 5.32-37.288 26.599-54.497 76.932-17.213 50.332-6.558 148.95-8.197 212.379-.818 22.098-4.098 39.283-10.242 57.291 20.077-10.643 33.19-31.104 33.601-59.744v-187.83c4.915-47.057 18.848-64.244 39.335-99.028z"/><path fill="#fd0" fill-rule="evenodd" d="M289.735 304.206c-14.34 5.32-37.288 26.599-54.497 76.932-17.213 50.332-6.558 148.95-8.197 212.379-.818 22.098-4.098 39.283-10.242 57.291 20.077-10.643 33.19-31.104 33.601-59.744v-187.83c4.915-47.057 18.848-64.244 39.335-99.028z" clip-rule="evenodd"/><path fill="none" stroke="#1d1d1b" stroke-miterlimit="22.9256" stroke-width="0.3161" d="M591.74 397.508c7.786 4.09 12.703 10.638 14.344 20.05 2.047 9.001-1.232 35.193.817 55.649.818 7.369-1.229 22.508.411 29.466-19.67-4.911-15.572-22.918-15.572-30.282l.411-47.059c0-6.137.408-15.144-.411-27.824z"/><path fill="#fd0" fill-rule="evenodd" d="M591.74 397.508c7.786 4.09 12.703 10.638 14.344 20.05 2.047 9.001-1.232 35.193.817 55.649.818 7.369-1.229 22.508.411 29.466-19.67-4.911-15.572-22.918-15.572-30.282l.411-47.059c0-6.137.408-15.144-.411-27.824z" clip-rule="evenodd"/><path fill="none" stroke="#1d1d1b" stroke-miterlimit="22.9256" stroke-width="0.3161" d="M636.816 415.92c8.605 9.412 10.245 17.187 12.292 30.688 1.64 13.502 3.687 45.422 5.736 71.204.819 8.591 3.28 26.188 4.917 34.783-14.34-6.548-21.717-27.009-21.717-36.421l-1.229-65.065c.819-18.003.819-19.639.001-35.189z"/><path fill="#fd0" fill-rule="evenodd" d="M636.816 415.92c8.605 9.412 10.245 17.187 12.292 30.688 1.64 13.502 3.687 45.422 5.736 71.204.819 8.591 3.28 26.188 4.917 34.783-14.34-6.548-21.717-27.009-21.717-36.421l-1.229-65.065c.819-18.003.819-19.639.001-35.189z" clip-rule="evenodd"/><path fill="none" stroke="#1d1d1b" stroke-miterlimit="22.9256" stroke-width="0.3161" d="M651.978 392.187c10.656 9.821 13.932 13.912 21.309 38.057 7.783 24.141 7.376 80.204 9.423 114.167.821 11.46 2.46 18.413 4.508 30.283-14.342-8.596-22.128-19.646-23.355-32.325l-7.377-103.124c-1.641-24.556 2.047-24.141-4.508-47.058z"/><path fill="#fd0" fill-rule="evenodd" d="M651.978 392.187c10.656 9.821 13.932 13.912 21.309 38.057 7.783 24.141 7.376 80.204 9.423 114.167.821 11.46 2.46 18.413 4.508 30.283-14.342-8.596-22.128-19.646-23.355-32.325l-7.377-103.124c-1.641-24.556 2.047-24.141-4.508-47.058z" clip-rule="evenodd"/><path fill="none" stroke="#1d1d1b" stroke-miterlimit="22.9256" stroke-width="0.3161" d="M676.973 376.226c12.702 11.867 17.622 22.509 27.046 52.38 9.016 29.462 7.376 93.297 9.834 134.628 1.229 14.733-.818 24.146 5.327 35.604-20.077-6.959-26.636-18.823-27.454-37.646l-6.968-125.221c-2.049-30.283 0-31.099-7.785-59.745z"/><path fill="#fd0" fill-rule="evenodd" d="M676.973 376.226c12.702 11.867 17.622 22.509 27.046 52.38 9.016 29.462 7.376 93.297 9.834 134.628 1.229 14.733-.818 24.146 5.327 35.604-20.077-6.959-26.636-18.823-27.454-37.646l-6.968-125.221c-2.049-30.283 0-31.099-7.785-59.745z" clip-rule="evenodd"/><path fill="none" stroke="#1d1d1b" stroke-miterlimit="22.9256" stroke-width="0.3161" d="M696.233 349.22c16.391 11.047 31.963 38.466 42.205 75.702 10.244 37.236 1.228 99.028 3.688 150.177.819 17.597-.82 32.33 5.737 46.242-20.079-8.596-27.453-26.188-28.273-49.101l-5.327-152.229c-4.918-37.645-6.966-37.237-18.03-70.791z"/><path fill="#fd0" fill-rule="evenodd" d="M696.233 349.22c16.391 11.047 31.963 38.466 42.205 75.702 10.244 37.236 1.228 99.028 3.688 150.177.819 17.597-.82 32.33 5.737 46.242-20.079-8.596-27.453-26.188-28.273-49.101l-5.327-152.229c-4.918-37.645-6.966-37.237-18.03-70.791z" clip-rule="evenodd"/><path fill="none" stroke="#1d1d1b" stroke-miterlimit="22.9256" stroke-width="0.3161" d="M709.345 304.206c14.344 5.32 37.291 26.599 54.502 76.932 17.208 50.332 6.556 148.95 8.193 212.379.82 22.098 4.099 39.283 10.654 57.291-20.487-10.643-33.601-31.104-33.601-59.744l-.411-187.829c-4.915-47.058-18.847-64.245-39.337-99.029z"/><path fill="#fd0" fill-rule="evenodd" d="M709.345 304.206c14.344 5.32 37.291 26.599 54.502 76.932 17.208 50.332 6.556 148.95 8.193 212.379.82 22.098 4.099 39.283 10.654 57.291-20.487-10.643-33.601-31.104-33.601-59.744l-.411-187.829c-4.915-47.058-18.847-64.245-39.337-99.029zM506.922 626.815c0-16.306 21.207-11.489 30.508-13.714 20.836-5.56 30.507-21.499 27.159-23.354-4.093-4.076-20.089-5.188-37.575 5.559l-15.255 12.978c-5.579-.742-7.066-4.075-5.209-8.897l5.209-14.456c4.466-21.499-7.066-39.665-12.275-39.665-4.837 0-16.743 18.166-11.906 39.665l5.207 14.456c1.862 4.822.373 8.155-5.207 8.897l-15.998-12.978c-17.114-10.747-33.485-9.635-37.203-5.559-3.349 1.854 5.951 17.794 27.159 23.354 9.3 2.225 30.878-2.592 30.878 13.714.843 19.052 15.354 12.755 14.508 0z" clip-rule="evenodd"/><path fill="#fff" d="M505.688 626.82c0-13.353 12.446-13.788 22.845-14.154 3.278-.108 6.342-.223 8.581-.752 10.081-2.69 17.473-7.863 21.958-12.601 1.966-2.078 3.364-4.066 4.168-5.698.675-1.365.924-2.364.729-2.8l-.134-.073-.115-.119-.025-.025h.003c-.468-.459-1.147-.88-2.011-1.246-.923-.385-2.052-.707-3.361-.93-6.921-1.177-18.347.387-30.578 7.879l-15.184 12.918-.42.356-.54-.074c-1.066-.139-2.008-.371-2.824-.688h-.004c-1.607-.618-2.745-1.558-3.438-2.765-.69-1.197-.913-2.631-.697-4.243.121-.9.376-1.855.763-2.859l5.167-14.332c.671-3.245.965-6.43.965-9.481 0-7.942-2.001-14.971-4.551-20.119-2.453-4.955-5.297-8.086-7.223-8.481h-.006a1.236 1.236 0 0 0-.506-.005c-1.795.4-4.585 3.486-7.022 8.373-2.532 5.079-4.553 11.998-4.553 19.822h.005c0 3.175.329 6.488 1.085 9.872l5.169 14.352c.388 1 .646 1.959.766 2.859.213 1.612-.009 3.046-.695 4.243-.693 1.207-1.833 2.146-3.44 2.765-.816.316-1.758.549-2.827.688l-.523.069-.411-.332-15.935-12.928-.033-.02a59.246 59.246 0 0 0-6.956-3.738 54.124 54.124 0 0 0-6.671-2.528c-10.831-3.283-19.491-2.106-21.92.554l-.131.144-.161.09c-.215.455.028 1.482.713 2.893.809 1.662 2.203 3.67 4.185 5.757 4.453 4.704 11.795 9.793 21.95 12.453l.003-.005c2.262.539 5.344.643 8.655.757 10.5.366 23.148.807 23.148 14.154h-.003c.268 5.837 1.813 9.021 3.734 10.248a3.41 3.41 0 0 0 2.235.544c.802-.079 1.625-.436 2.389-1.009 2.268-1.701 3.986-5.253 3.689-9.709zm22.918-11.701c-9.309.331-20.448.722-20.448 11.701h-.002c.325 5.302-1.836 9.614-4.676 11.752-1.124.84-2.367 1.354-3.624 1.483a5.837 5.837 0 0 1-3.8-.915c-2.542-1.622-4.573-5.484-4.874-12.271l-.007-.05c0-10.979-11.339-11.37-20.753-11.701-3.463-.119-6.688-.228-9.147-.811v-.006l-.025-.004-.023-.011c-10.666-2.789-18.409-8.17-23.119-13.141-2.175-2.295-3.72-4.515-4.62-6.375-1.023-2.106-1.256-3.902-.712-5.034.19-.391.46-.713.813-.95 3.068-3.11 12.701-4.639 24.329-1.107a55.445 55.445 0 0 1 6.971 2.626 62.905 62.905 0 0 1 7.253 3.902h.001l.092.059.06.04.062.05 15.572 12.632c.655-.12 1.239-.269 1.746-.466 1.051-.405 1.775-.979 2.187-1.691.412-.722.541-1.642.397-2.71-.092-.697-.302-1.469-.621-2.295l-.009-.025-5.209-14.456-.03-.079-.015-.063a47.908 47.908 0 0 1-1.164-10.48h.005c0-8.259 2.13-15.56 4.802-20.921 2.771-5.549 6.253-9.129 8.692-9.673.275-.06.531-.09.774-.09.24 0 .502.025.773.08 2.604.543 6.145 4.174 8.935 9.808 2.696 5.444 4.81 12.854 4.81 21.206a49.5 49.5 0 0 1-1.033 10.045l-.017.079-.033.089-5.21 14.456-.011.025c-.316.826-.526 1.598-.619 2.295-.141 1.068-.015 1.982.4 2.705.409.718 1.132 1.291 2.184 1.696h-.003a9.307 9.307 0 0 0 1.733.46l14.819-12.606.07-.06.086-.054c12.851-7.898 24.98-9.531 32.37-8.266 1.48.248 2.794.624 3.902 1.089 1.114.475 2.024 1.038 2.702 1.682.355.237.637.554.827.949.549 1.118.306 2.898-.724 4.985-.904 1.835-2.439 4.025-4.58 6.291-4.742 5.016-12.531 10.476-23.118 13.294l-.035.011c-2.483.594-5.681.702-9.106.821z"/><path fill="none" stroke="#1d1d1b" stroke-miterlimit="22.9256" stroke-width="0.3161" d="m413.836 525.236.032-19.813c0-.326 54.851-49.922 57.039-49.922 18.896-8.21 22.317 11.336 37.444 20.158l-.907-.672c-22.717-21.489 12.089-25.045 23.82-15.916l53.6 46.134.022 20.742zm.764-23.819v20.688h168.463l.38-20.321c-9.9-12.345-21.418-24.59-33.698-34.636-13.18-10.786-19.897-22.705-34.794-9.812-3.667 3.17-7.215 7.072-10.677 11.415-4.033-5.861-8.244-10.061-12.58-13.052-13.973-9.654-17.326-3.947-29.43 4.713-15.084 10.817-30.873 24.659-47.664 41.005z"/><path fill="#fff" fill-rule="evenodd" d="M414.6 501.417v20.688h168.463l.38-20.321c-9.9-12.345-21.418-24.59-33.698-34.636-13.18-10.786-19.897-22.705-34.794-9.812-3.667 3.17-7.215 7.072-10.677 11.415-4.033-5.861-8.244-10.061-12.58-13.052-13.973-9.654-17.326-3.947-29.43 4.713-15.084 10.817-30.873 24.659-47.664 41.005z" clip-rule="evenodd"/><path fill="#009fe3" fill-rule="evenodd" d="m580.823 492.604-40.332-37.859c-7.882-7.403-18.982-7.789-26.163-2.043-3.541 2.824-6.491 6.346-9.853 10.248-3.917-5.262-8.53-9.041-12.725-11.721-13.56-8.655-20.503-.837-32.147 7.052l-42.699 33.997v-80.383h164.03z" clip-rule="evenodd"/></g></switch></svg>