<svg xmlns="http://www.w3.org/2000/svg" xmlns:xlink="http://www.w3.org/1999/xlink" xml:space="preserve" width="738.02118" height="893.50568" x="0px" y="0px" viewBox="0 0 738.02118 893.50568"><path fill="#e30613" fill-rule="evenodd" d="M.825.853 737.287.734l-.009 757.666c-.934 52.86-11.795 77.053-64.128 84.844l-236.149 1.11c-40.604 1.346-54.754 10.627-67.07 47.11-14.592-33.626-28.215-44.278-61.567-47.11H74.821C28.953 845.684 1.45 823.125.734 760.881z" clip-rule="evenodd"/><g transform="translate(-130.989 -53.248)"><defs><path id="a" d="m131.814 54.101 736.462-.119-.009 757.666c-.934 52.86-11.795 77.053-64.128 84.844l-236.149 1.11c-40.604 1.346-54.754 10.627-67.071 47.11-14.591-33.626-28.214-44.278-61.566-47.11H205.81c-45.868 1.33-73.372-21.229-74.087-83.473z"/></defs><clipPath id="b"><use xlink:href="#a" width="100%" height="100%" overflow="visible"/></clipPath><path fill="#395c98" fill-rule="evenodd" stroke="#1d1d1b" stroke-miterlimit="22.9256" stroke-width="0.6174" d="m131.814 53.991 736.462-.122-.008 299.009-736.545-1.107z" clip-path="url(#b)" clip-rule="evenodd"/></g><path fill="none" stroke="#1d1d1b" stroke-miterlimit="22.9256" stroke-width="1.4682" d="M.825.853 737.287.734l-.009 757.666c-.934 52.86-11.795 77.053-64.128 84.844l-236.149 1.11c-40.604 1.346-54.754 10.627-67.07 47.11-14.592-33.626-28.215-44.278-61.567-47.11H74.821C28.953 845.684 1.45 823.125.734 760.881z"/><path fill="#af3f43" fill-rule="evenodd" d="m628.227 480.122-16.615-12.692Zm-247.168-37.08c.006.09.011.175.011.264zm.011.264c1.391 30.736 3.391 85.37 5.883 136.063l157.588-84.347c-4.548-10.078-16.56-18.868-32.972-32.864 2.816-6.969 16.803-18.732 19.026-19.864 10.575 12.484 19.65 28.76 28.263 44.792l-.02-.04c7.028 2.08 8.997 1.613 13.448.497l.051.091c3.064-3.862 8.922-6.704 10.773-5.318 2.654-3.183 4.716-5.172 9.44-5.288 2.396-3.426 6.404-5.49 9.784-5.04 3.232-3.709 6.485-4.882 8.8-4.105 3.943-3.542 6.03-4.563 8.628-4.21l1.653 3.008c.103-.143.21-.29.326-.427l-5.857-10.759c8.333-4.532 19.143-.858 24.065 8.181 4.924 9.044 2.142 20.117-6.187 24.654l-5.855-10.749a4.79 4.79 0 0 1-.478.041l1.44 2.624c-2.176 3.532-4.54 4.36-8.986 5.201-1.746 3.314-5.167 4.385-9.15 5.02-1.365 2.005-4.593 4.826-9.242 5.755-2.05 3.456-8.247 5.852-9.876 5.121-2.558 3.705-5.628 5.688-8.415 5.907l.193.351c-2.907 2.197-5.38 4.942-7.5 10.864 8.678 15.824 17.28 32.15 21.95 47.686-2.163 1.243-19.642 6.566-27.025 5.135-2.802-21.396-3.629-36.26-9.612-45.563L401.861 608.06l103.991 51.207c14.764-24.688 28.224-53.688 37.027-79.56l-.09-.585c19.375 21.574 35.224 54.404 43.173 83.028.243 1.183.273-.148-.279 1.004-8.48-3.02-20.296-6.2-27.273-5.958-.396 8.597-.437 18.57-2.329 26.801l48.571 23.918c-3.79-.44-7.438 3.076-9.799 7.877 3.126-5.142 7.851-8.038 11.575-6.698 4.528 1.623 5.913 8.905 3.086 16.208-2.82 7.298-8.814 11.928-13.342 10.303a5.609 5.609 0 0 1-2.172-1.44c.138.218.278.436.426.64l-45.233-22.817c-29.292 88.381-112.902 106.767-182.034 63.854l.804.005v-.497c-.189-.112-.375-.229-.566-.346-.028 0-.053.004-.08.004l-.002.682v.157c-.026 0-.053-.005-.08-.005-84.12 51.992-152.997 9.46-178.918-57.683l-51.136 27.563-25.004-2.107 11.858-22.558 56.183-31.186c-2.069-10.749-2.926-22.157-2.75-33.104-9.993.451-18.899 2.65-28.32 6.004-.063-16.873 31.914-71.512 42.698-83.646l-.088.584c9.133 26.831 23.271 57.027 38.68 82.292l101.855-56.525-170.609-87.93c-3.215 2.878-6.855 5.507-10.973 7.886-20.419 30.172-31.305 58.175-46.979 99.72-2.363 9.286-4.09 12.428-5.037 11.453-.014.32-.03.64-.042.96-8.852-34.134-.59-84.93 23.201-127.859 1.18-6.445 2.546-13.063 5.073-19.386a143.824 143.824 0 0 1-1.89 3.004c-4.056-7.126 1.922-21.904 12.662-19.448-.053.062-.11.122-.166.188 3.352-3.299 7.474-6.329 12.592-8.968 28.745-29.957 70.093-56.489 98.984-56.57-.327.121-.66.243-.995.37 1.77.332 1.913 1.605-2.285 3.937-26.81 19.377-46.169 42.453-65.083 70.584-1.229 5.363-2.876 10.367-5.024 15.017l172.494 85.392c2.664-68.335 5.543-143.17 6.317-160.369l.422-.01.001-.04c-.21-.007-.423-.017-.636-.022-4.214-4.572-4.214-4.572-8.433-10.822l-2.745-.917c-6.504-3.486-9.813-6.476-15.2-11.535-7.894-11.986-9.095-18.35-9.128-32.576 8.797-41.958 54.83-51.33 82.65-25.517 10.693 11.986 12.835 20.837 12.87 36.334-3.015 18.76-11.673 25.093-24.38 34.276-.954 4.945-6.933 9.458-9.896 10.097h-.077c.3 4.11.66 11.137 1.075 20.322zm6.4-49.408c12.286-11.754 11.054-25.343 3.445-37.088-6.5-6.11-11.216-8.897-20.127-11.404-13.648-.949-21.38 1.233-29.743 12.808-6.267 12.36-5.566 19.634.837 30.995 1.692 2.024 3.528 4.05 5.221 6.222 9.47-18.364 25.953-14.139 38.52-3.563 2.111 3.164 1.633 1.908 1.846 2.03zM343.44 702.325c-21.216 88.65-100.626 67.035-131.319 3.005l133.665-72.04zM202.85 677.418c-1.478-6.979-2.278-12.15-2.553-19.66 2.767-.777 22.707 3.892 26.9 6.04zm93.754-221.666c-10.259-.624-30.92-4.272-42.124-2.7-2.812.026-4.93.497-5.492 1.467-2.742 2.675-6.926 4.913-10.902 4.548-19.254 1.228-18.99-29.572-.245-29.369 7.084-.18 8.161 2.63 11.731 6.86 1.35.668 3.258 1.6 4.996 1.604 15.017 1.984 25.516-2.127 41.955-2.129 18.712-.51 38.854-.223 57.565-.14l-1.266 22.868c-18.549-.573-37.669-1.374-56.218-3.009ZM229.19 662.69c-.055-.04-.11-.086-.167-.127l.178.121zm162.726 37.322c21.791 91.044 104.895 68.111 133.635.045l-136.68-68.949Zm46.117-244.26c10.262-.624 30.922-4.272 42.122-2.7 2.813.026 4.933.497 5.496 1.467 2.741 2.675 6.923 4.913 10.902 4.548 19.253 1.228 18.99-29.572.243-29.369-7.085-.18-8.16 2.63-11.729 6.86-1.354.668-3.264 1.6-4.999 1.604-15.017 1.984-25.517-2.127-41.955-2.129-18.712-.51-38.777-.535-57.49-.454l1.077 22.883c18.55-.568 37.784-1.075 56.333-2.71zm182.08 29.82-17.504-14.032zm-9.536 5.121-17.66-14.134zm-8.643 5.35-19.767-14.53zm-10.104 5.491-19.452-15.23zm-58.333 171.342c.995-5.767 1.614-10.44 1.808-16.545-4.537-.614-19.204 4.167-23.954 5.861z" clip-rule="evenodd"/><path fill="#fc0" fill-rule="evenodd" stroke="#1d1d1b" stroke-miterlimit="22.9256" stroke-width="0.5002" d="M386.231 409.077c2.233-7.536 2.528-13.753-1.572-20.422 11.271-10.683 11.773-25.253 3.445-37.3-12.454-14.13-29.747-14.714-42.922-5.147-13.935 13.641-13.33 30.784-.61 43.348-3.632 8.417-1.87 12.71-.14 19.013-.46 0-1.99-.649-3.255-1.286-24.873-13.35-30.756-38.12-18.859-61.96 14.603-23.328 40.417-30.92 66-17.4 33.798 21.437 30.611 61.772-2.087 81.154z" clip-rule="evenodd"/><path fill="#e2b340" fill-rule="evenodd" d="M374.005 410.387c21.01-6.49 37.413-27.436 35.714-55.119 8.027 20.66-7.557 51.957-34.567 56.804-6.858.578-6.62-.188-1.147-1.685z" clip-rule="evenodd"/><path fill="#fc0" fill-rule="evenodd" stroke="#1d1d1b" stroke-miterlimit="22.9256" stroke-width="0.5102" d="m365.041 770.24.321.156h.082c107.51 75.657 190.123-19.153 189.987-116.842l-10.293-14.382-13.104 10.724c-3.01 98.85-124.357 155.842-143.674 45.187-1.5-31.019-9.464-246.46-10.854-277.368l-25.575.487c-1.389 30.907-8.13 245.862-9.636 276.881-20.229 110.335-143.237 54.135-144.91-44.324l-13.072-11.044-9.549 11.4-.117 2.44c-.14 96.638 82.484 193.188 189.987 116.841h.081z" clip-rule="evenodd"/><path fill="#ffe866" fill-rule="evenodd" d="M364.005 743.687c22.242 47.472 79.351 51.806 112.718 41.31 28.48-11.148 55.444-41.486 67.69-72.606-24.837 70.638-93.8 116.81-179.616 56.55-.028 0-.054.006-.08.006v-.159z" clip-rule="evenodd"/><path fill="#e2b340" fill-rule="evenodd" d="M554.985 652.16c-.39 100.393-85.6 180.222-173.854 115.525 29.607 18.422 150.528 54.258 164.418-126.03 2.178 3.055 6.934 7.698 9.436 10.504z" clip-rule="evenodd"/><path fill="#ededed" fill-rule="evenodd" stroke="#1d1d1b" stroke-miterlimit="22.9256" stroke-width="0.5043" d="m631.16 483.08-17.874-32.83c8.328-4.537 19.143-.862 24.065 8.182 4.923 9.04 2.142 20.111-6.19 24.648z" clip-rule="evenodd"/><path fill="#ededed" fill-rule="evenodd" stroke="#1d1d1b" stroke-miterlimit="22.9256" stroke-width="0.5042" d="M627.36 471.667c-3.05 1.665-7.009.314-8.815-2.993-1.802-3.314-.782-7.369 2.27-9.035 3.05-1.659 7.012-.313 8.813 3 1.801 3.308.786 7.37-2.269 9.028z" clip-rule="evenodd"/><path fill="#ededed" fill-rule="evenodd" stroke="#1d1d1b" stroke-miterlimit="22.9256" stroke-width="0.4959" d="M608.13 485.217c-1.365 2.005-4.589 4.832-9.236 5.76-2.05 3.457-8.247 5.847-9.88 5.121-2.605 3.771-5.747 5.766-8.573 5.918l-10.825-19.478c3.035-3.938 9.018-6.872 10.896-5.47 2.654-3.184 4.714-5.173 9.438-5.289 2.391-3.426 6.401-5.487 9.786-5.04 3.227-3.705 6.48-4.877 8.8-4.105 3.938-3.537 6.03-4.558 8.627-4.212l9.104 16.58c-2.172 3.527-4.543 4.353-8.988 5.196-1.74 3.315-5.16 4.39-9.149 5.02z" clip-rule="evenodd"/><path fill="none" stroke="#1d1d1b" stroke-miterlimit="22.9256" stroke-width="0.4974" d="m589.226 496.286-19.448-15.23"/><path fill="none" stroke="#1d1d1b" stroke-miterlimit="22.9256" stroke-width="0.4975" d="m599.335 490.795-19.77-14.53m28.413 9.18-17.66-14.133m27.196 9.013-17.504-14.033m25.618 8.588-16.62-12.692"/><path fill="#ededed" fill-rule="evenodd" stroke="#1d1d1b" stroke-miterlimit="22.9256" stroke-width="0.5102" d="M572.783 514.73c2.227-6.984 4.866-9.999 8.013-12.379l-11.109-20.057c-4.456 1.122-6.425 1.583-13.454-.497z" clip-rule="evenodd"/><path fill="#ededed" fill-rule="evenodd" d="m383.673 574.573 158.715-85.042 7.161 16.45 9.552 14.244-173.9 89.54z" clip-rule="evenodd"/><g transform="translate(-130.989 -53.248)"><defs><path id="c" d="m514.662 627.821 158.715-85.042 7.161 16.449 9.552 14.245-173.901 89.539z"/></defs><clipPath id="d"><use xlink:href="#c" width="100%" height="100%" overflow="visible"/></clipPath><path fill="#dadada" fill-rule="evenodd" d="m514.551 665.345 1.406-20.798 168.301-89.918 15.164 14.611z" clip-path="url(#d)" clip-rule="evenodd"/></g><path fill="none" stroke="#1d1d1b" stroke-miterlimit="22.9256" stroke-width="0.5102" d="m383.673 574.573 158.715-85.042 7.161 16.45 9.552 14.244-173.9 89.54z"/><path fill="#fff" fill-rule="evenodd" stroke="#1d1d1b" stroke-miterlimit="22.9256" stroke-width="0.5102" d="m549.463 507.994-164.84 86.913-.107-4.282 163.263-85.73z" clip-rule="evenodd"/><path fill="#ededed" fill-rule="evenodd" stroke="#1d1d1b" stroke-miterlimit="22.9256" stroke-width="0.5103" d="M564.653 497.46c-.036-.067-.072-.139-.11-.204-11.16-20.468-22.53-43.666-36.547-60.21-2.222 1.132-16.208 12.895-19.026 19.868 25.843 22.035 40.77 31.166 32.841 52.734l-.138.076c.036.01.066.016.103.025-.01.03-.025.066-.036.097l.138-.076c22.411 5.101 21.934 22.594 26.344 56.271 7.38 1.431 24.863-3.893 27.024-5.142-6.244-20.76-19.509-42.933-30.593-63.44z" clip-rule="evenodd"/><path fill="#e2b340" fill-rule="evenodd" d="M364.21 743.94c-25.7 51.53-79.629 55.308-117.844 38.813-26.129-12.326-47.855-39.462-60.533-70.363 23.65 71.257 96.56 118.307 178.803 57.123.027 0 .053-.294.081-.294v-.157z" clip-rule="evenodd"/><path fill="#ffe866" fill-rule="evenodd" stroke="#1d1d1b" stroke-miterlimit="22.9256" stroke-width="0.5042" d="M146.08 657.103c11.626-10.19 25.101-16.509 39.165-18.266-.513-23.43.683-43.36 4.002-64.965-19.376 21.574-35.222 54.608-43.168 83.231z" clip-rule="evenodd"/><path fill="#e2b340" fill-rule="evenodd" stroke="#1d1d1b" stroke-miterlimit="22.9256" stroke-width="0.5041" d="M146.355 657.91c8.482-3.026 20.294-6.207 27.273-5.959l11.444-12.637c-13.377-1.09-40.219 15.46-38.717 18.595z" clip-rule="evenodd"/><path fill="#e2b340" fill-rule="evenodd" stroke="#1d1d1b" stroke-miterlimit="22.9256" stroke-width="0.5052" d="M229.205 659.96c-5.903-7.8-34.678-19.955-43.984-19.99 3.823 3.724 8.661 8.022 12.612 11.951 12.28 2.065 22.444 5.247 31.372 8.038z" clip-rule="evenodd"/><path fill="#fc0" fill-rule="evenodd" stroke="#1d1d1b" stroke-miterlimit="22.9256" stroke-width="0.5053" d="M229.843 660.006c-16.192-25.914-31.172-57.592-40.7-85.59-3.95 20.69-5.015 43.502-4.229 64.984 9.646-.132 35.58 11.013 44.93 20.606z" clip-rule="evenodd"/><path fill="#fc0" fill-rule="evenodd" stroke="#1d1d1b" stroke-miterlimit="22.9256" stroke-width="0.5018" d="M583.36 656.898c-11.628-10.195-25.102-16.305-39.165-18.062.514-23.43-.685-43.36-4.004-64.965 19.377 21.575 35.22 54.405 43.168 83.027z" clip-rule="evenodd"/><path fill="#e2b340" fill-rule="evenodd" stroke="#1d1d1b" stroke-miterlimit="22.9256" stroke-width="0.5804" d="M583.084 657.91c-8.485-3.026-20.295-6.207-27.273-5.959l-11.442-12.637c13.376-1.09 40.218 15.46 38.715 18.595z" clip-rule="evenodd"/><path fill="#e2b340" fill-rule="evenodd" stroke="#1d1d1b" stroke-miterlimit="22.9256" stroke-width="0.5816" d="M500.236 659.96c6.156-8.05 37.656-21.98 43.573-20.284l-12.23 12.23c-12.276 2.066-22.417 5.262-31.343 8.053z" clip-rule="evenodd"/><path fill="#ffe866" fill-rule="evenodd" stroke="#1d1d1b" stroke-miterlimit="22.9256" stroke-width="0.5032" d="M499.597 660.006c16.188-25.914 31.17-57.592 40.701-85.59 3.947 20.69 4.811 43.09 4.023 64.574-4.744-.452-34.89 12.154-44.724 21.016z" clip-rule="evenodd"/><path fill="#e2b340" fill-rule="evenodd" d="m379.846 693.972-6.963-275.085 4.137-1.197 10.744 277.755c4.888 28.048 16.474 54.885 49.79 60.63-41.02-2.919-52.546-27.7-57.708-62.103z" clip-rule="evenodd"/><path fill="#ffe866" fill-rule="evenodd" d="m350.843 695.45 6.545-276.564-4.134-1.197-10.04 278.018c-5.86 33.471-23.917 62.631-63.983 60.123 42.393 8.156 70.252-28.293 71.612-60.38z" clip-rule="evenodd"/><path fill="#fc0" fill-rule="evenodd" stroke="#1d1d1b" stroke-miterlimit="22.9256" stroke-width="0.5002" d="M377.594 417.923c-8.567-.137-17.14.497-25.873.211-9.072-9.84-13.248-19.455-5.244-31.133 7.194-11.626 26.742-14.27 36.547-.378 7.232 13.685 6.4 21.206-5.43 31.3z" clip-rule="evenodd"/><path fill="#ededed" fill-rule="evenodd" d="M121.436 715.805 345.65 591.31l-.978 36.012L134.582 740.47l-25.005-2.107z" clip-rule="evenodd"/><g transform="translate(-130.989 -53.248)"><defs><path id="e" d="m252.425 769.053 224.213-124.495-.978 36.012-210.089 113.147-25.005-2.107z"/></defs><clipPath id="f"><use xlink:href="#e" width="100%" height="100%" overflow="visible"/></clipPath><path fill="#dadada" fill-rule="evenodd" d="m239.773 791.834 237.972-130.063-2.221 20.165-209.48 112.674z" clip-path="url(#f)" clip-rule="evenodd"/></g><path fill="none" stroke="#1d1d1b" stroke-miterlimit="22.9256" stroke-width="0.5103" d="M121.435 715.805 345.65 591.31l-.978 36.012L134.582 740.47l-25.005-2.107z"/><path fill="#fff" fill-rule="evenodd" stroke="#1d1d1b" stroke-miterlimit="22.9256" stroke-width="0.4842" d="m345.23 607.347-.144 4.68L110.638 737.88z" clip-rule="evenodd"/><path fill="#dadada" fill-rule="evenodd" stroke="#1d1d1b" stroke-miterlimit="22.9256" stroke-width="0.4839" d="M593.574 730.355c-4.542-1.635-5.923-8.892-3.09-16.21 2.831-7.322 8.81-11.936 13.347-10.3 4.537 1.627 5.918 8.885 3.086 16.207-2.832 7.323-8.805 11.931-13.343 10.303z" clip-rule="evenodd"/><path fill="#ededed" fill-rule="evenodd" d="M591.83 729.557 385.443 625.551l-.846-29.84L602.05 702.665c-8.607-.999-16.463 18.401-10.22 26.892z" clip-rule="evenodd"/><g transform="translate(-130.989 -53.248)"><defs><path id="g" d="M722.818 782.805 516.433 678.799l-.846-29.84 217.452 106.954c-8.607-.999-16.463 18.401-10.221 26.892z"/></defs><clipPath id="h"><use xlink:href="#g" width="100%" height="100%" overflow="visible"/></clipPath><path fill="#dadada" fill-rule="evenodd" d="m504.635 665.238 220.471 110.945-3.735 7.282-220.47-110.938z" clip-path="url(#h)" clip-rule="evenodd"/><path fill="#fff" fill-rule="evenodd" d="m513.606 654.637 220.473 110.944-2.106 3.213-220.472-111.762z" clip-path="url(#h)" clip-rule="evenodd"/></g><path fill="none" stroke="#1d1d1b" stroke-miterlimit="22.9256" stroke-width="0.4842" d="M591.83 729.557 385.443 625.551l-.846-29.84L602.05 702.665c-8.607-1.004-16.463 18.401-10.22 26.892z"/><path fill="#e2b340" fill-rule="evenodd" d="M376.994 417.456c-8.116-.132-16.4.481-24.67.203-4.284-4.42-3.638-3.908-7.25-9.957 2.892 2.537 5.504 5.818 10.317 6.795 25.663 3.918 34.193-19.635 19.912-34.088 14.42 8.262 16.327 28.35 1.691 37.047z" clip-rule="evenodd"/><path fill="#fff07c" fill-rule="evenodd" d="M350.211 389.985c10.107-17.002 26.256 7.191 10.185 11.54-9.777 1.186-12.097-4.794-10.185-11.54z" clip-rule="evenodd"/><path fill="#fc0" fill-rule="evenodd" stroke="#1d1d1b" stroke-miterlimit="22.9256" stroke-width="0.5102" d="M294.004 450.504c-10.259-.619-30.923-4.272-42.124-2.699-2.812.03-4.93.497-5.495 1.467-2.74 2.68-6.925 4.913-10.899 4.547-19.255 1.23-18.99-29.57-.245-29.369 7.085-.177 8.16 2.632 11.73 6.861 1.351.67 3.26 1.602 4.997 1.606 15.017 1.987 25.516-2.129 41.952-2.129 18.714-.508 38.45-.224 57.163-.142l-1.013 22.867c-18.548-.568-37.517-1.369-56.066-3.009zM435.433 450.504c10.258-.619 30.922-4.272 42.123-2.699 2.811.03 4.933.497 5.496 1.467 2.74 2.68 6.922 4.913 10.896 4.547 19.255 1.23 18.991-29.57.248-29.369-7.084-.177-8.159 2.632-11.732 6.861-1.35.67-3.258 1.602-4.994 1.606-15.018 1.987-25.517-2.129-41.954-2.129-18.712-.508-38.403-.224-57.114-.142l.882 22.867c18.543-.568 37.6-1.369 56.15-3.009z" clip-rule="evenodd"/><path fill="#fff07c" fill-rule="evenodd" d="M226.216 431.113c5.708-9.257 14.803 3.101 5.305 5.318-6.409.133-5.345-1.829-5.305-5.318zM486.006 430.753c5.415-8.958 14.843 4.836 5.987 6.39-6.75-.227-6.374-1.478-5.987-6.39z" clip-rule="evenodd"/><path fill="#e2b340" fill-rule="evenodd" d="M250.977 444.882c4.268.391 5.533-.34 10.018.041 10.677.631 21.353 1.796 32.028 2.43 18.534 1.776 37.98 3.618 56.512 4.386l.224-5.989c-17.448-.355-35.34-.888-52.787-1.243-12.336-.522-23.822-.516-36.158-1.038-5.248-.279-6.06.981-9.837 1.413zM481.981 444.882c-4.269.391-7.933-.34-12.418.041-10.679.631-21.352 1.796-32.028 2.43-18.534 1.776-39.002 3.618-57.535 4.386l-.38-5.989c17.447-.355 36.52-.888 53.967-1.243 12.337-.522 23.822-.516 36.16-1.038 5.245-.279 8.458.981 12.234 1.413z" clip-rule="evenodd"/><path fill="#fff07c" fill-rule="evenodd" d="M271.744 433.628c24.075-3.048 51.548-2.52 78.578-2.498l-.163 3.921c-26.337-1.106-52.109-.669-78.415-1.423zM458.813 433.628c-24.074-3.048-52.784-2.24-79.813-2.219l.243 4.018c26.34-1.109 53.262-1.045 79.57-1.799z" clip-rule="evenodd"/><path fill="#e2b340" fill-rule="evenodd" d="M224.042 442.36c4.493 6.348 10.92 9.702 18.664 1.293 2.461-4.167 3.455-8.663 3.73-7.679.091.604.156 2.071-.1 3.768-.743 1.785 2.298 4.997 4.466 5.157-2.41.76-4.345 1.185-5.049.216-5.6 8.992-19.004 7.922-21.71-2.756zM482.16 442.36c4.49 5.754 10.726 8.49 18.467.892 2.466-4.166 3.647-8.262 3.922-7.277 6.72 17.173-16.203 22.548-22.39 6.384z" clip-rule="evenodd"/><path fill="#312783" fill-rule="evenodd" stroke="#312783" stroke-miterlimit="22.9256" stroke-width="0.4245" d="M115.612 173.657 179 262.134c-4.47 4.275-7.667 9.643-9.593 16.1z" clip-rule="evenodd"/><path fill="#312783" fill-rule="evenodd" stroke="#312783" stroke-miterlimit="22.9256" stroke-width="0.4107" d="m136.638 156.425 59.37 91.704c-5.83 3.854-12.128 7.298-15.579 12.793zM158.618 143.791l56.29 97.623c-5.603.832-12.158 3.146-17.745 6.154zM182.24 135.128l50.34 103.486c-5.369.465-10.737.665-16.105 2.225zM234.348 238.553 206.79 129.26l46.783 109.01zM227.615 119.613l37.47 104.012c-3.219 4.962-6.427 9.916-9.645 14.878-9.274-39.632-18.553-79.259-27.825-118.89zM242.466 101.608l33.198 108.073c-3.459 4.256-6.919 8.51-10.386 12.766-7.608-40.278-15.205-80.56-22.812-120.839zM259.417 84.928c9.652 37.374 19.288 74.748 28.94 112.128-3.71 3.547-7.42 7.103-11.132 10.651-5.932-40.929-11.866-81.857-17.808-122.779zM278.462 69.952c8.23 38.726 16.444 77.456 24.665 116.181-3.954 2.85-7.914 5.697-11.867 8.546-4.269-41.573-8.53-83.154-12.798-124.727zM299.53 57.124c6.806 40.084 13.595 80.16 20.395 120.243-4.205 2.143-8.409 4.29-12.612 6.432L299.53 57.124zM322.358 46.902l16.128 124.305-13.362 4.324c-.924-42.877-1.836-85.753-2.766-128.629zM346.528 39.827c3.954 42.786 7.9 85.564 11.852 128.351-4.696.742-9.393 1.476-14.099 2.218.752-43.527 1.505-87.047 2.247-130.569z" clip-rule="evenodd"/><path fill="#312783" fill-rule="evenodd" stroke="#312783" stroke-miterlimit="22.9256" stroke-width="0.4201" d="m364.147 168.487 7.255-132.51 7.582 132.408z" clip-rule="evenodd"/><path fill="#312783" fill-rule="evenodd" stroke="#312783" stroke-miterlimit="22.9256" stroke-width="0.4245" d="m627.323 173.657-63.386 88.477c4.471 4.276 7.668 9.643 9.593 16.1z" clip-rule="evenodd"/><path fill="#312783" fill-rule="evenodd" stroke="#312783" stroke-miterlimit="22.9256" stroke-width="0.4107" d="M606.298 156.425 546.93 248.13c5.827 3.854 12.125 7.298 15.575 12.793zM584.32 143.791l-56.288 97.623c5.598.832 12.154 3.146 17.741 6.154zM560.7 135.13l-50.34 103.484c5.365.465 10.734.665 16.103 2.225zM508.588 238.553l27.558-109.294-46.78 109.01zM515.324 119.613l-37.469 104.012c3.213 4.962 6.425 9.916 9.643 14.878 9.272-39.633 18.553-79.259 27.826-118.89zM500.47 101.608c-11.065 36.022-22.134 72.052-33.202 108.073 3.462 4.256 6.923 8.512 10.39 12.766 7.607-40.278 15.204-80.56 22.812-120.839zM483.52 84.928c-9.654 37.374-19.286 74.748-28.939 112.128 3.71 3.547 7.42 7.103 11.13 10.651 5.933-40.929 11.864-81.857 17.808-122.779zM464.472 69.951c-8.227 38.727-16.443 77.457-24.664 116.183 3.954 2.848 7.917 5.696 11.87 8.545 4.27-41.573 8.526-83.154 12.794-124.728zM443.406 57.124c-6.805 40.084-13.596 80.16-20.396 120.243 4.208 2.143 8.41 4.29 12.611 6.432 2.598-42.226 5.191-84.449 7.785-126.675zM420.578 46.902c-5.374 41.435-10.754 82.87-16.128 124.305 4.456 1.44 8.907 2.883 13.362 4.324.925-42.877 1.838-85.753 2.766-128.629zM396.407 39.827c-3.953 42.786-7.896 85.564-11.85 128.351 4.694.742 9.394 1.476 14.098 2.218-.75-43.527-1.502-87.047-2.248-130.569z" clip-rule="evenodd"/><path fill="#312783" fill-rule="evenodd" stroke="#312783" stroke-miterlimit="22.9256" stroke-width="0.4201" d="m378.791 168.487-7.257-132.51-7.583 132.408z" clip-rule="evenodd"/><path fill="#fc0" fill-rule="evenodd" stroke="#e1a000" stroke-miterlimit="22.9256" stroke-width="0.4245" d="m113.1 169.606 63.387 88.478c-4.47 4.275-7.668 9.641-9.593 16.1z" clip-rule="evenodd"/><path fill="#fc0" fill-rule="evenodd" stroke="#e1a000" stroke-miterlimit="22.9256" stroke-width="0.4107" d="m134.126 152.373 59.37 91.705c-5.83 3.854-12.128 7.298-15.579 12.793zM156.106 139.74l56.288 97.622c-5.6.831-12.157 3.146-17.743 6.153zM179.728 131.077l50.338 103.485c-5.368.464-10.736.665-16.103 2.225zM231.836 234.502l-27.558-109.294 46.782 109.01zM225.103 115.561l37.47 104.013c-3.219 4.962-6.429 9.917-9.645 14.88-9.273-39.635-18.553-79.26-27.825-118.893zM239.952 97.558c11.067 36.021 22.133 72.05 33.2 108.072-3.46 4.255-6.919 8.511-10.387 12.767-7.607-40.279-15.207-80.564-22.813-120.839zM256.904 80.876c9.652 37.373 19.288 74.748 28.941 112.127-3.71 3.55-7.422 7.104-11.132 10.651-5.933-40.928-11.866-81.855-17.809-122.778zM275.95 65.9c8.23 38.725 16.443 77.457 24.665 116.182-3.954 2.85-7.915 5.697-11.868 8.545-4.268-41.572-8.528-83.153-12.797-124.727zM297.017 53.072c6.807 40.084 13.596 80.16 20.395 120.243-4.204 2.141-8.407 4.29-12.61 6.431l-7.785-126.674zM319.846 42.852l16.128 124.304-13.363 4.324c-.922-42.877-1.836-85.753-2.765-128.628zM344.016 35.775c3.954 42.786 7.898 85.565 11.852 128.352-4.696.74-9.393 1.476-14.099 2.218.753-43.529 1.505-87.049 2.247-130.57z" clip-rule="evenodd"/><path fill="#fc0" fill-rule="evenodd" stroke="#e1a000" stroke-miterlimit="22.9256" stroke-width="0.4201" d="m361.635 164.437 7.252-132.513 7.585 132.41z" clip-rule="evenodd"/><path fill="#fc0" fill-rule="evenodd" stroke="#e1a000" stroke-miterlimit="22.9256" stroke-width="0.4245" d="m624.811 169.606-63.386 88.478c4.471 4.275 7.668 9.641 9.591 16.1z" clip-rule="evenodd"/><path fill="#fc0" fill-rule="evenodd" stroke="#e1a000" stroke-miterlimit="22.9256" stroke-width="0.4107" d="m603.785 152.373-59.367 91.705c5.827 3.854 12.124 7.298 15.575 12.793zM581.805 139.74l-56.285 97.622c5.598.831 12.154 3.146 17.741 6.153zM558.187 131.077l-50.339 103.485c5.365.466 10.733.665 16.103 2.226zM506.076 234.502l27.558-109.294-46.78 109.01zM512.812 115.561c-12.49 34.671-24.984 69.342-37.474 104.013l9.647 14.88c9.272-39.635 18.55-79.26 27.827-118.893zM497.956 97.558c-11.063 36.021-22.132 72.05-33.2 108.072 3.462 4.255 6.923 8.511 10.39 12.767 7.606-40.279 15.204-80.564 22.81-120.839zM481.007 80.876c-9.653 37.373-19.29 74.748-28.938 112.127 3.71 3.55 7.42 7.104 11.13 10.651 5.932-40.928 11.865-81.855 17.808-122.778zM461.96 65.9c-8.227 38.725-16.443 77.457-24.664 116.182 3.952 2.85 7.917 5.697 11.87 8.545 4.268-41.572 8.526-83.153 12.794-124.727zM440.894 53.072c-6.806 40.084-13.596 80.16-20.396 120.243 4.202 2.141 8.41 4.29 12.611 6.431 2.598-42.223 5.191-84.449 7.785-126.674zM418.067 42.852c-5.374 41.435-10.754 82.87-16.128 124.304 4.455 1.441 8.905 2.883 13.362 4.324.923-42.877 1.837-85.753 2.766-128.628zM393.895 35.775c-3.953 42.786-7.896 85.565-11.85 128.352 4.693.74 9.394 1.476 14.097 2.216-.75-43.527-1.5-87.047-2.247-130.568z" clip-rule="evenodd"/><path fill="#fc0" fill-rule="evenodd" stroke="#e1a000" stroke-miterlimit="22.9256" stroke-width="0.4201" d="m376.28 164.437-7.256-132.512-7.585 132.41z" clip-rule="evenodd"/><path fill="#fff07c" fill-rule="evenodd" d="M355.29 326.35c-19.71 7.13-33.645 22.924-34.263 48.867-7.149-19.234 7.235-44.893 33.116-50.552 6.858-.578 6.62.19 1.147 1.685z" clip-rule="evenodd"/><path fill="#ededed" fill-rule="evenodd" stroke="#1d1d1b" stroke-miterlimit="22.9256" stroke-width="0.4543" d="M122.435 488.074c-4.055-7.13 1.923-21.908 12.664-19.452-3.126 3.491-9.716 14.936-12.664 19.452z" clip-rule="evenodd"/><path fill="#ededed" fill-rule="evenodd" d="M246.508 403.273c-19.165 6.956-52.64 27.763-84.057 66.19-38.907 48.58-64.603 112.528-66.399 162.852-8.852-34.14-.592-84.935 23.201-127.864 2.98-16.29 7.166-33.718 28.271-44.608 28.745-29.956 70.093-56.486 98.984-56.57z" clip-rule="evenodd"/><g transform="translate(-130.989 -53.248)"><defs><path id="i" d="M377.497 456.521c-19.165 6.956-52.641 27.763-84.057 66.19-38.907 48.579-64.603 112.528-66.399 162.852-8.852-34.14-.592-84.935 23.201-127.864 2.98-16.29 7.166-33.718 28.271-44.608 28.745-29.956 70.093-56.486 98.984-56.57z"/></defs><clipPath id="j"><use xlink:href="#i" width="100%" height="100%" overflow="visible"/></clipPath><path fill="#fff" fill-rule="evenodd" d="M376.583 456.651c-19.802 2.75-61.226 19.793-95.485 59.961-14.036 4.807-27.816 23.568-29.695 40.869l-.623.229c2.981-16.291 6.737-33.353 27.842-44.243 28.744-29.953 69.069-56.735 97.961-56.816z" clip-path="url(#j)" clip-rule="evenodd"/></g><path fill="none" stroke="#1d1d1b" stroke-miterlimit="22.9256" stroke-width="0.4543" d="M246.508 403.276c-19.165 6.955-52.64 27.76-84.057 66.188-38.907 48.58-64.603 112.528-66.399 162.852-8.852-34.14-.592-84.935 23.201-127.864 2.98-16.29 7.166-33.718 28.271-44.608 28.745-29.957 70.093-56.487 98.984-56.568z"/><path fill="#c6c6c6" fill-rule="evenodd" stroke="#1d1d1b" stroke-miterlimit="22.9256" stroke-width="0.4543" d="M95.344 622.988c2.192-36.074 9.715-51.182 37.143-111.209-1.67-14.702 15.214-36.93 29.332-45.232 27.108-32.898 55.292-51.009 76.795-61.5 4.722-2.526 12.676-1.945 4.615 2.538-26.81 19.374-46.17 42.447-65.083 70.578-4.159 18.133-13.062 32.216-30.035 42.016-20.419 30.171-31.307 58.181-46.979 99.72-4.146 16.293-6.34 13.676-5.788 3.09z" clip-rule="evenodd"/><path fill="#ededed" fill-rule="evenodd" d="m345.171 608.606-196.45-101.658c-9.246-10.652.862-24.847 11.55-20.127l186.073 92.192z" clip-rule="evenodd"/><g transform="translate(-130.989 -53.248)"><defs><path id="k" d="M476.16 661.854 279.709 560.196c-9.245-10.652.863-24.847 11.551-20.127l186.073 92.192z"/></defs><clipPath id="l"><use xlink:href="#k" width="100%" height="100%" overflow="visible"/></clipPath><path fill="#dadada" fill-rule="evenodd" d="m274.125 549.28 215.048 108.473-3.5 8.774-214.74-110.634z" clip-path="url(#l)" clip-rule="evenodd"/><path fill="#fff" fill-rule="evenodd" d="m276.598 539.069 215.666 107.854-1.029 3.821-215.047-109.086z" clip-path="url(#l)" clip-rule="evenodd"/></g><path fill="none" stroke="#1d1d1b" stroke-miterlimit="22.9256" stroke-width="0.5102" d="m345.171 608.606-196.45-101.658c-9.246-10.652.862-24.847 11.55-20.127l186.073 92.192z"/></svg>